  0
SECTION
  2
HEADER
  9
$ACADVER
  1
AC1024
  9
$ACADMAINTVER
 70
     6
  9
$DWGCODEPAGE
  3
ANSI_1252
  9
$INSBASE
 10
0.0
 20
0.0
 30
0.0
  9
$EXTMIN
 10
1.000000000000000E+20
 20
1.000000000000000E+20
 30
1.000000000000000E+20
  9
$EXTMAX
 10
-1.000000000000000E+20
 20
-1.000000000000000E+20
 30
-1.000000000000000E+20
  9
$LIMMIN
 10
0.0
 20
0.0
  9
$LIMMAX
 10
12.0
 20
9.0
  9
$ORTHOMODE
 70
     0
  9
$REGENMODE
 70
     1
  9
$FILLMODE
 70
     1
  9
$QTEXTMODE
 70
     0
  9
$MIRRTEXT
 70
     1
  9
$LTSCALE
 40
1.0
  9
$ATTMODE
 70
     1
  9
$TEXTSIZE
 40
0.2
  9
$TRACEWID
 40
0.05
  9
$TEXTSTYLE
  7
Standard
  9
$CLAYER
  8
0
  9
$CELTYPE
  6
ByLayer
  9
$CECOLOR
 62
   256
  9
$CELTSCALE
 40
1.0
  9
$DISPSILH
 70
     0
  9
$DIMSCALE
 40
1.0
  9
$DIMASZ
 40
0.18
  9
$DIMEXO
 40
0.0625
  9
$DIMDLI
 40
0.38
  9
$DIMRND
 40
0.0
  9
$DIMDLE
 40
0.0
  9
$DIMEXE
 40
0.18
  9
$DIMTP
 40
0.0
  9
$DIMTM
 40
0.0
  9
$DIMTXT
 40
0.18
  9
$DIMCEN
 40
0.09
  9
$DIMTSZ
 40
0.0
  9
$DIMTOL
 70
     0
  9
$DIMLIM
 70
     0
  9
$DIMTIH
 70
     1
  9
$DIMTOH
 70
     1
  9
$DIMSE1
 70
     0
  9
$DIMSE2
 70
     0
  9
$DIMTAD
 70
     0
  9
$DIMZIN
 70
     0
  9
$DIMBLK
  1

  9
$DIMASO
 70
     1
  9
$DIMSHO
 70
     1
  9
$DIMPOST
  1

  9
$DIMAPOST
  1

  9
$DIMALT
 70
     0
  9
$DIMALTD
 70
     2
  9
$DIMALTF
 40
25.4
  9
$DIMLFAC
 40
1.0
  9
$DIMTOFL
 70
     0
  9
$DIMTVP
 40
0.0
  9
$DIMTIX
 70
     0
  9
$DIMSOXD
 70
     0
  9
$DIMSAH
 70
     0
  9
$DIMBLK1
  1

  9
$DIMBLK2
  1

  9
$DIMSTYLE
  2
Standard
  9
$DIMCLRD
 70
     0
  9
$DIMCLRE
 70
     0
  9
$DIMCLRT
 70
     0
  9
$DIMTFAC
 40
1.0
  9
$DIMGAP
 40
0.09
  9
$DIMJUST
 70
     0
  9
$DIMSD1
 70
     0
  9
$DIMSD2
 70
     0
  9
$DIMTOLJ
 70
     1
  9
$DIMTZIN
 70
     0
  9
$DIMALTZ
 70
     0
  9
$DIMALTTZ
 70
     0
  9
$DIMUPT
 70
     0
  9
$DIMDEC
 70
     4
  9
$DIMTDEC
 70
     4
  9
$DIMALTU
 70
     2
  9
$DIMALTTD
 70
     2
  9
$DIMTXSTY
  7
Standard
  9
$DIMAUNIT
 70
     0
  9
$DIMADEC
 70
     0
  9
$DIMALTRND
 40
0.0
  9
$DIMAZIN
 70
     0
  9
$DIMDSEP
 70
    46
  9
$DIMATFIT
 70
     3
  9
$DIMFRAC
 70
     0
  9
$DIMLDRBLK
  1

  9
$DIMLUNIT
 70
     2
  9
$DIMLWD
 70
    -2
  9
$DIMLWE
 70
    -2
  9
$DIMTMOVE
 70
     0
  9
$DIMFXL
 40
1.0
  9
$DIMFXLON
 70
     0
  9
$DIMJOGANG
 40
0.7853981633974483
  9
$DIMTFILL
 70
     0
  9
$DIMTFILLCLR
 70
     0
  9
$DIMARCSYM
 70
     0
  9
$DIMLTYPE
  6

  9
$DIMLTEX1
  6

  9
$DIMLTEX2
  6

  9
$DIMTXTDIRECTION
 70
     0
  9
$LUNITS
 70
     2
  9
$LUPREC
 70
     4
  9
$SKETCHINC
 40
0.1
  9
$FILLETRAD
 40
0.5
  9
$AUNITS
 70
     0
  9
$AUPREC
 70
     0
  9
$MENU
  1
.
  9
$ELEVATION
 40
0.0
  9
$PELEVATION
 40
0.0
  9
$THICKNESS
 40
0.0
  9
$LIMCHECK
 70
     0
  9
$CHAMFERA
 40
0.5
  9
$CHAMFERB
 40
0.5
  9
$CHAMFERC
 40
1.0
  9
$CHAMFERD
 40
0.0
  9
$SKPOLY
 70
     0
  9
$TDCREATE
 40
2457392.551494444
  9
$TDUCREATE
 40
2457392.551494444
  9
$TDUPDATE
 40
2457392.551494468
  9
$TDUUPDATE
 40
2457392.551494468
  9
$TDINDWG
 40
0.0000000116
  9
$TDUSRTIMER
 40
0.0000000116
  9
$USRTIMER
 70
     1
  9
$ANGBASE
 50
0.0
  9
$ANGDIR
 70
     0
  9
$PDMODE
 70
     0
  9
$PDSIZE
 40
0.0
  9
$PLINEWID
 40
0.0
  9
$SPLFRAME
 70
     0
  9
$SPLINETYPE
 70
     6
  9
$SPLINESEGS
 70
     8
  9
$HANDSEED
  5
C5
  9
$SURFTAB1
 70
     6
  9
$SURFTAB2
 70
     6
  9
$SURFTYPE
 70
     6
  9
$SURFU
 70
     6
  9
$SURFV
 70
     6
  9
$UCSBASE
  2

  9
$UCSNAME
  2

  9
$UCSORG
 10
0.0
 20
0.0
 30
0.0
  9
$UCSXDIR
 10
1.0
 20
0.0
 30
0.0
  9
$UCSYDIR
 10
0.0
 20
1.0
 30
0.0
  9
$UCSORTHOREF
  2

  9
$UCSORTHOVIEW
 70
     0
  9
$UCSORGTOP
 10
0.0
 20
0.0
 30
0.0
  9
$UCSORGBOTTOM
 10
0.0
 20
0.0
 30
0.0
  9
$UCSORGLEFT
 10
0.0
 20
0.0
 30
0.0
  9
$UCSORGRIGHT
 10
0.0
 20
0.0
 30
0.0
  9
$UCSORGFRONT
 10
0.0
 20
0.0
 30
0.0
  9
$UCSORGBACK
 10
0.0
 20
0.0
 30
0.0
  9
$PUCSBASE
  2

  9
$PUCSNAME
  2

  9
$PUCSORG
 10
0.0
 20
0.0
 30
0.0
  9
$PUCSXDIR
 10
1.0
 20
0.0
 30
0.0
  9
$PUCSYDIR
 10
0.0
 20
1.0
 30
0.0
  9
$PUCSORTHOREF
  2

  9
$PUCSORTHOVIEW
 70
     0
  9
$PUCSORGTOP
 10
0.0
 20
0.0
 30
0.0
  9
$PUCSORGBOTTOM
 10
0.0
 20
0.0
 30
0.0
  9
$PUCSORGLEFT
 10
0.0
 20
0.0
 30
0.0
  9
$PUCSORGRIGHT
 10
0.0
 20
0.0
 30
0.0
  9
$PUCSORGFRONT
 10
0.0
 20
0.0
 30
0.0
  9
$PUCSORGBACK
 10
0.0
 20
0.0
 30
0.0
  9
$USERI1
 70
     0
  9
$USERI2
 70
     0
  9
$USERI3
 70
     0
  9
$USERI4
 70
     0
  9
$USERI5
 70
     0
  9
$USERR1
 40
0.0
  9
$USERR2
 40
0.0
  9
$USERR3
 40
0.0
  9
$USERR4
 40
0.0
  9
$USERR5
 40
0.0
  9
$WORLDVIEW
 70
     1
  9
$SHADEDGE
 70
     3
  9
$SHADEDIF
 70
    70
  9
$TILEMODE
 70
     1
  9
$MAXACTVP
 70
    64
  9
$PINSBASE
 10
0.0
 20
0.0
 30
0.0
  9
$PLIMCHECK
 70
     0
  9
$PEXTMIN
 10
1.000000000000000E+20
 20
1.000000000000000E+20
 30
1.000000000000000E+20
  9
$PEXTMAX
 10
-1.000000000000000E+20
 20
-1.000000000000000E+20
 30
-1.000000000000000E+20
  9
$PLIMMIN
 10
0.0
 20
0.0
  9
$PLIMMAX
 10
12.0
 20
9.0
  9
$UNITMODE
 70
     0
  9
$VISRETAIN
 70
     1
  9
$PLINEGEN
 70
     0
  9
$PSLTSCALE
 70
     1
  9
$TREEDEPTH
 70
  3020
  9
$CMLSTYLE
  2
Standard
  9
$CMLJUST
 70
     0
  9
$CMLSCALE
 40
1.0
  9
$PROXYGRAPHICS
 70
     1
  9
$MEASUREMENT
 70
     0
  9
$CELWEIGHT
370
    -1
  9
$ENDCAPS
280
     0
  9
$JOINSTYLE
280
     0
  9
$LWDISPLAY
290
     1
  9
$INSUNITS
 70
     1
  9
$HYPERLINKBASE
  1

  9
$STYLESHEET
  1

  9
$XEDIT
290
     1
  9
$CEPSNTYPE
380
     0
  9
$PSTYLEMODE
290
     1
  9
$FINGERPRINTGUID
  2
{85218EDD-35E0-434C-BB1A-EA1220F9ED24}
  9
$VERSIONGUID
  2
{FAEB1C32-E019-11D5-929B-00C0DF256EC4}
  9
$EXTNAMES
290
     1
  9
$PSVPSCALE
 40
0.0
  9
$OLESTARTUP
290
     0
  9
$SORTENTS
280
   127
  9
$INDEXCTL
280
     0
  9
$HIDETEXT
280
     1
  9
$XCLIPFRAME
280
     2
  9
$HALOGAP
280
     0
  9
$OBSCOLOR
 70
   257
  9
$OBSLTYPE
280
     0
  9
$INTERSECTIONDISPLAY
280
     0
  9
$INTERSECTIONCOLOR
 70
   257
  9
$DIMASSOC
280
     2
  9
$PROJECTNAME
  1

  9
$CAMERADISPLAY
290
     0
  9
$LENSLENGTH
 40
50.0
  9
$CAMERAHEIGHT
 40
0.0
  9
$STEPSPERSEC
 40
2.0
  9
$STEPSIZE
 40
6.0
  9
$3DDWFPREC
 40
2.0
  9
$PSOLWIDTH
 40
0.25
  9
$PSOLHEIGHT
 40
4.0
  9
$LOFTANG1
 40
1.570796326794897
  9
$LOFTANG2
 40
1.570796326794897
  9
$LOFTMAG1
 40
0.0
  9
$LOFTMAG2
 40
0.0
  9
$LOFTPARAM
 70
     7
  9
$LOFTNORMALS
280
     1
  9
$LATITUDE
 40
37.795
  9
$LONGITUDE
 40
-122.394
  9
$NORTHDIRECTION
 40
0.0
  9
$TIMEZONE
 70
 -8000
  9
$LIGHTGLYPHDISPLAY
280
     1
  9
$TILEMODELIGHTSYNCH
280
     1
  9
$CMATERIAL
347
3C
  9
$SOLIDHIST
280
     1
  9
$SHOWHIST
280
     1
  9
$DWFFRAME
280
     2
  9
$DGNFRAME
280
     2
  9
$REALWORLDSCALE
290
     1
  9
$INTERFERECOLOR
 62
   256
  9
$CSHADOW
280
     0
  9
$SHADOWPLANELOCATION
 40
0.0
  0
ENDSEC
  0
SECTION
  2
CLASSES
  0
CLASS
  1
ACDBDICTIONARYWDFLT
  2
AcDbDictionaryWithDefault
  3
ObjectDBX Classes
 90
        0
 91
        4
280
     0
281
     0
  0
CLASS
  1
VISUALSTYLE
  2
AcDbVisualStyle
  3
ObjectDBX Classes
 90
     4095
 91
        4
280
     0
281
     0
  0
CLASS
  1
MATERIAL
  2
AcDbMaterial
  3
ObjectDBX Classes
 90
     1153
 91
        4
280
     0
281
     0
  0
CLASS
  1
SUN
  2
AcDbSun
  3
SCENEOE
 90
     1024
 91
        4
280
     0
281
     0
  0
ENDSEC
  0
SECTION
  2
TABLES
  0
TABLE
  2
VPORT
  5
8
330
0
100
AcDbSymbolTable
 70
     1
  0
VPORT
  5
29
330
8
100
AcDbSymbolTableRecord
100
AcDbViewportTableRecord
  2
*Active
 70
     0
 10
0.0
 20
0.0
 11
1.0
 21
1.0
 12
0.0
 22
0.0
 13
0.0
 23
0.0
 14
0.5
 24
0.5
 15
0.5
 25
0.5
 16
0.0
 26
0.0
 36
1.0
 17
300.0004582583334
 27
-300.0004582583334
 37
0.0
 40
600.0009165166667
 41
1.0
 42
50.0
 43
0.0
 44
0.0
 50
0.0
 51
0.0
 71
     0
 72
   100
 73
     1
 74
     3
 75
     0
 76
     0
 77
     0
 78
     0
281
     0
 65
     1
110
0.0
120
0.0
130
0.0
111
1.0
121
0.0
131
0.0
112
0.0
122
1.0
132
0.0
 79
     0
146
0.0
 60
     3
 61
     5
292
     1
282
     1
141
0.0
142
0.0
 63
   250
361
3F
  0
ENDTAB
  0
TABLE
  2
LTYPE
  5
5
330
0
100
AcDbSymbolTable
 70
     1
  0
LTYPE
  5
14
330
5
100
AcDbSymbolTableRecord
100
AcDbLinetypeTableRecord
  2
ByBlock
 70
     0
  3

 72
    65
 73
     0
 40
0.0
  0
LTYPE
  5
15
330
5
100
AcDbSymbolTableRecord
100
AcDbLinetypeTableRecord
  2
ByLayer
 70
     0
  3

 72
    65
 73
     0
 40
0.0
  0
LTYPE
  5
16
330
5
100
AcDbSymbolTableRecord
100
AcDbLinetypeTableRecord
  2
Continuous
 70
     0
  3
Solid line
 72
    65
 73
     0
 40
0.0
  0
ENDTAB
  0
TABLE
  2
LAYER
  5
2
330
0
100
AcDbSymbolTable
 70
     2
  0
LAYER
  5
10
330
2
100
AcDbSymbolTableRecord
100
AcDbLayerTableRecord
  2
0
 70
     0
 62
     7
  6
Continuous
370
    -3
390
F
347
3E
  0
LAYER
  5
40
330
2
100
AcDbSymbolTableRecord
100
AcDbLayerTableRecord
  2
Layer 1
 70
     0
 62
     7
  6
Continuous
370
    -3
390
F
347
3E
  0
ENDTAB
  0
TABLE
  2
STYLE
  5
3
330
0
100
AcDbSymbolTable
 70
     1
  0
STYLE
  5
11
330
3
100
AcDbSymbolTableRecord
100
AcDbTextStyleTableRecord
  2
Standard
 70
     0
 40
0.0
 41
1.0
 50
0.0
 71
     0
 42
0.2
  3
txt
  4

  0
ENDTAB
  0
TABLE
  2
VIEW
  5
6
330
0
100
AcDbSymbolTable
 70
     0
  0
ENDTAB
  0
TABLE
  2
UCS
  5
7
330
0
100
AcDbSymbolTable
 70
     0
  0
ENDTAB
  0
TABLE
  2
APPID
  5
9
330
0
100
AcDbSymbolTable
 70
     1
  0
APPID
  5
12
330
9
100
AcDbSymbolTableRecord
100
AcDbRegAppTableRecord
  2
ACAD
 70
     0
  0
ENDTAB
  0
TABLE
  2
DIMSTYLE
  5
A
330
0
100
AcDbSymbolTable
 70
     1
100
AcDbDimStyleTable
  0
DIMSTYLE
105
27
330
A
100
AcDbSymbolTableRecord
100
AcDbDimStyleTableRecord
  2
Standard
 70
     0
178
     0
340
11
  0
ENDTAB
  0
TABLE
  2
BLOCK_RECORD
  5
1
330
0
100
AcDbSymbolTable
 70
    12
  0
BLOCK_RECORD
  5
1F
330
1
100
AcDbSymbolTableRecord
100
AcDbBlockTableRecord
  2
*Model_Space
340
22
 70
     0
280
     1
281
     0
  0
BLOCK_RECORD
  5
1B
330
1
100
AcDbSymbolTableRecord
100
AcDbBlockTableRecord
  2
*Paper_Space
340
1E
 70
     0
280
     1
281
     0
  0
BLOCK_RECORD
  5
23
330
1
100
AcDbSymbolTableRecord
100
AcDbBlockTableRecord
  2
*Paper_Space0
340
26
 70
     0
280
     1
281
     0
  0
BLOCK_RECORD
  5
41
330
1
100
AcDbSymbolTableRecord
100
AcDbBlockTableRecord
  2
block 2
340
0
102
{BLKREFS
331
42
102
}
 70
     0
280
     1
281
     0
  0
BLOCK_RECORD
  5
45
330
1
100
AcDbSymbolTableRecord
100
AcDbBlockTableRecord
  2
block 3
340
0
102
{BLKREFS
331
46
102
}
 70
     0
280
     1
281
     0
  0
BLOCK_RECORD
  5
57
330
1
100
AcDbSymbolTableRecord
100
AcDbBlockTableRecord
  2
block 4
340
0
102
{BLKREFS
331
58
102
}
 70
     0
280
     1
281
     0
  0
BLOCK_RECORD
  5
5B
330
1
100
AcDbSymbolTableRecord
100
AcDbBlockTableRecord
  2
block 5
340
0
102
{BLKREFS
331
5C
102
}
 70
     0
280
     1
281
     0
  0
BLOCK_RECORD
  5
68
330
1
100
AcDbSymbolTableRecord
100
AcDbBlockTableRecord
  2
block 6
340
0
102
{BLKREFS
331
69
102
}
 70
     0
280
     1
281
     0
  0
BLOCK_RECORD
  5
75
330
1
100
AcDbSymbolTableRecord
100
AcDbBlockTableRecord
  2
block 7
340
0
102
{BLKREFS
331
76
102
}
 70
     0
280
     1
281
     0
  0
BLOCK_RECORD
  5
79
330
1
100
AcDbSymbolTableRecord
100
AcDbBlockTableRecord
  2
block 8
340
0
102
{BLKREFS
331
7A
102
}
 70
     0
280
     1
281
     0
  0
BLOCK_RECORD
  5
88
330
1
100
AcDbSymbolTableRecord
100
AcDbBlockTableRecord
  2
block 9
340
0
102
{BLKREFS
331
89
102
}
 70
     0
280
     1
281
     0
  0
BLOCK_RECORD
  5
97
330
1
100
AcDbSymbolTableRecord
100
AcDbBlockTableRecord
  2
block 10
340
0
102
{BLKREFS
331
98
102
}
 70
     0
280
     1
281
     0
  0
BLOCK_RECORD
  5
9B
330
1
100
AcDbSymbolTableRecord
100
AcDbBlockTableRecord
  2
block 11
340
0
102
{BLKREFS
331
9C
102
}
 70
     0
280
     1
281
     0
  0
BLOCK_RECORD
  5
AF
330
1
100
AcDbSymbolTableRecord
100
AcDbBlockTableRecord
  2
block 12
340
0
102
{BLKREFS
331
B0
102
}
 70
     0
280
     1
281
     0
  0
ENDTAB
  0
ENDSEC
  0
SECTION
  2
BLOCKS
  0
BLOCK
  5
20
330
1F
100
AcDbEntity
  8
0
100
AcDbBlockBegin
  2
*Model_Space
 70
     0
 10
0.0
 20
0.0
 30
0.0
  3
*Model_Space
  1

  0
ENDBLK
  5
21
330
1F
100
AcDbEntity
  8
0
100
AcDbBlockEnd
  0
BLOCK
  5
1C
330
1B
100
AcDbEntity
 67
     1
  8
0
100
AcDbBlockBegin
  2
*Paper_Space
 70
     0
 10
0.0
 20
0.0
 30
0.0
  3
*Paper_Space
  1

  0
ENDBLK
  5
1D
330
1B
100
AcDbEntity
 67
     1
  8
0
100
AcDbBlockEnd
  0
BLOCK
  5
24
330
23
100
AcDbEntity
  8
0
100
AcDbBlockBegin
  2
*Paper_Space0
 70
     0
 10
0.0
 20
0.0
 30
0.0
  3
*Paper_Space0
  1

  0
ENDBLK
  5
25
330
23
100
AcDbEntity
  8
0
100
AcDbBlockEnd
  0
BLOCK
  5
43
330
41
100
AcDbEntity
  8
0
100
AcDbBlockBegin
  2
block 2
 70
     0
 10
0.0
 20
0.0
 30
0.0
  3
block 2
  1

  0
INSERT
  5
46
330
41
100
AcDbEntity
  8
Layer 1
100
AcDbBlockReference
  2
block 3
 10
0.0
 20
0.0
 30
0.0
  0
INSERT
  5
58
330
41
100
AcDbEntity
  8
Layer 1
100
AcDbBlockReference
  2
block 4
 10
0.0
 20
0.0
 30
0.0
  0
INSERT
  5
76
330
41
100
AcDbEntity
  8
Layer 1
100
AcDbBlockReference
  2
block 7
 10
0.0
 20
0.0
 30
0.0
  0
INSERT
  5
98
330
41
100
AcDbEntity
  8
Layer 1
100
AcDbBlockReference
  2
block 10
 10
0.0
 20
0.0
 30
0.0
  0
ENDBLK
  5
44
330
41
100
AcDbEntity
  8
0
100
AcDbBlockEnd
  0
BLOCK
  5
47
330
45
100
AcDbEntity
  8
0
100
AcDbBlockBegin
  2
block 3
 70
     0
 10
0.0
 20
0.0
 30
0.0
  3
block 3
  1

  0
SPLINE
  5
49
330
45
100
AcDbEntity
  8
Layer 1
 62
   177
420
  3027090
370
     9
100
AcDbSpline
210
0.0
220
0.0
230
1.0
 70
    11
 71
     3
 72
    17
 73
    13
 74
     0
 42
0.0000000001
 43
0.0000000001
 12
1.0
 22
0.0
 32
0.0
 13
1.0
 23
0.0
 33
0.0
 40
0.0
 40
0.0
 40
0.0
 40
0.0
 40
1.0
 40
1.0
 40
1.0
 40
2.0
 40
2.0
 40
2.0
 40
3.0
 40
3.0
 40
3.0
 40
4.0
 40
4.0
 40
4.0
 40
4.0
 10
394.4870512958506
 20
-312.9166286363053
 30
0.0
 10
395.702053209299
 20
-312.9166286363053
 30
0.0
 10
396.6870485753515
 20
-313.9015841916145
 30
0.0
 10
396.6870485753515
 20
-315.1166214135329
 30
0.0
 10
396.6870485753515
 20
-316.3316586354513
 30
0.0
 10
395.702053209299
 20
-317.3166141907605
 30
0.0
 10
394.4870512958506
 20
-317.3166141907605
 30
0.0
 10
393.2720141046265
 20
-317.3166141907605
 30
0.0
 10
392.2870232964211
 20
-316.3316586354513
 30
0.0
 10
392.2870232964211
 20
-315.1166214135329
 30
0.0
 10
392.2870232964211
 20
-313.9015841916145
 30
0.0
 10
393.2720141046265
 20
-312.9166286363053
 30
0.0
 10
394.4870512958506
 20
-312.9166286363053
 30
0.0
  0
SPLINE
  5
4A
330
45
100
AcDbEntity
  8
Layer 1
 62
   177
420
  3027090
370
     9
100
AcDbSpline
210
0.0
220
0.0
230
1.0
 70
    11
 71
     3
 72
    17
 73
    13
 74
     0
 42
0.0000000001
 43
0.0000000001
 12
1.0
 22
0.0
 32
0.0
 13
1.0
 23
0.0
 33
0.0
 40
0.0
 40
0.0
 40
0.0
 40
0.0
 40
1.0
 40
1.0
 40
1.0
 40
2.0
 40
2.0
 40
2.0
 40
3.0
 40
3.0
 40
3.0
 40
4.0
 40
4.0
 40
4.0
 40
4.0
 10
450.5495418100204
 20
-279.916631144555
 30
0.0
 10
451.7645790012444
 20
-279.916631144555
 30
0.0
 10
452.7495345316717
 20
-280.9015866998644
 30
0.0
 10
452.7495345316717
 20
-282.1166239217828
 30
0.0
 10
452.7495345316717
 20
-283.3316611437012
 30
0.0
 10
451.7645790012444
 20
-284.3166166990107
 30
0.0
 10
450.5495418100204
 20
-284.3166166990107
 30
0.0
 10
449.3345046187977
 20
-284.3166166990107
 30
0.0
 10
448.3495490883691
 20
-283.3316611437012
 30
0.0
 10
448.3495490883691
 20
-282.1166239217828
 30
0.0
 10
448.3495490883691
 20
-280.9015866998644
 30
0.0
 10
449.3345046187977
 20
-279.916631144555
 30
0.0
 10
450.5495418100204
 20
-279.916631144555
 30
0.0
  0
SPLINE
  5
4B
330
45
100
AcDbEntity
  8
Layer 1
 62
   177
420
  3027090
370
     9
100
AcDbSpline
210
0.0
220
0.0
230
1.0
 70
    11
 71
     3
 72
    17
 73
    13
 74
     0
 42
0.0000000001
 43
0.0000000001
 12
1.0
 22
0.0
 32
0.0
 13
1.0
 23
0.0
 33
0.0
 40
0.0
 40
0.0
 40
0.0
 40
0.0
 40
1.0
 40
1.0
 40
1.0
 40
2.0
 40
2.0
 40
2.0
 40
3.0
 40
3.0
 40
3.0
 40
4.0
 40
4.0
 40
4.0
 40
4.0
 10
450.5495418100204
 20
-312.9166286363053
 30
0.0
 10
451.7645790012444
 20
-312.9166286363053
 30
0.0
 10
452.7495345316717
 20
-313.9015841916145
 30
0.0
 10
452.7495345316717
 20
-315.1166214135329
 30
0.0
 10
452.7495345316717
 20
-316.3316586354513
 30
0.0
 10
451.7645790012444
 20
-317.3166141907605
 30
0.0
 10
450.5495418100204
 20
-317.3166141907605
 30
0.0
 10
449.3345046187977
 20
-317.3166141907605
 30
0.0
 10
448.3495490883691
 20
-316.3316586354513
 30
0.0
 10
448.3495490883691
 20
-315.1166214135329
 30
0.0
 10
448.3495490883691
 20
-313.9015841916145
 30
0.0
 10
449.3345046187977
 20
-312.9166286363053
 30
0.0
 10
450.5495418100204
 20
-312.9166286363053
 30
0.0
  0
POLYLINE
  5
4C
330
45
100
AcDbEntity
  8
Layer 1
 62
   240
420
 15539236
370
     9
100
AcDb2dPolyline
 66
     1
 10
0.0
 20
0.0
 30
0.0
  0
VERTEX
  5
4D
330
4C
100
AcDbEntity
  8
Layer 1
 62
   240
420
 15539236
370
     9
100
AcDbVertex
100
AcDb2dVertex
 10
386.862042045935
 20
-309.4916150260502
 30
0.0
  0
VERTEX
  5
4E
330
4C
100
AcDbEntity
  8
Layer 1
 62
   240
420
 15539236
370
     9
100
AcDbVertex
100
AcDb2dVertex
 10
386.862042045935
 20
-320.7416278010151
 30
0.0
  0
VERTEX
  5
4F
330
4C
100
AcDbEntity
  8
Layer 1
 62
   240
420
 15539236
370
     9
100
AcDbVertex
100
AcDb2dVertex
 10
457.1120549759327
 20
-320.7416278010151
 30
0.0
  0
VERTEX
  5
50
330
4C
100
AcDbEntity
  8
Layer 1
 62
   240
420
 15539236
370
     9
100
AcDbVertex
100
AcDb2dVertex
 10
457.1120549759327
 20
-276.4916175343004
 30
0.0
  0
VERTEX
  5
51
330
4C
100
AcDbEntity
  8
Layer 1
 62
   240
420
 15539236
370
     9
100
AcDbVertex
100
AcDb2dVertex
 10
443.987028644112
 20
-276.4916175343004
 30
0.0
  0
VERTEX
  5
52
330
4C
100
AcDbEntity
  8
Layer 1
 62
   240
420
 15539236
370
     9
100
AcDbVertex
100
AcDb2dVertex
 10
443.987028644112
 20
-315.7416378022653
 30
0.0
  0
VERTEX
  5
53
330
4C
100
AcDbEntity
  8
Layer 1
 62
   240
420
 15539236
370
     9
100
AcDbVertex
100
AcDb2dVertex
 10
400.9870569076093
 20
-315.7416378022653
 30
0.0
  0
VERTEX
  5
54
330
4C
100
AcDbEntity
  8
Layer 1
 62
   240
420
 15539236
370
     9
100
AcDbVertex
100
AcDb2dVertex
 10
400.9870569076093
 20
-309.4916150260502
 30
0.0
  0
VERTEX
  5
55
330
4C
100
AcDbEntity
  8
Layer 1
 62
   240
420
 15539236
370
     9
100
AcDbVertex
100
AcDb2dVertex
 10
386.862042045935
 20
-309.4916150260502
 30
0.0
  0
SEQEND
  5
56
330
4C
100
AcDbEntity
  8
Layer 1
 62
   240
420
 15539236
370
     9
  0
ENDBLK
  5
48
330
45
100
AcDbEntity
  8
0
100
AcDbBlockEnd
  0
BLOCK
  5
59
330
57
100
AcDbEntity
  8
0
100
AcDbBlockBegin
  2
block 4
 70
     0
 10
0.0
 20
0.0
 30
0.0
  3
block 4
  1

  0
INSERT
  5
5C
330
57
100
AcDbEntity
  8
Layer 1
100
AcDbBlockReference
  2
block 5
 10
0.0
 20
0.0
 30
0.0
  0
INSERT
  5
69
330
57
100
AcDbEntity
  8
Layer 1
100
AcDbBlockReference
  2
block 6
 10
0.0
 20
0.0
 30
0.0
  0
ENDBLK
  5
5A
330
57
100
AcDbEntity
  8
0
100
AcDbBlockEnd
  0
BLOCK
  5
5D
330
5B
100
AcDbEntity
  8
0
100
AcDbBlockBegin
  2
block 5
 70
     0
 10
0.0
 20
0.0
 30
0.0
  3
block 5
  1

  0
SPLINE
  5
5F
330
5B
100
AcDbEntity
  8
Layer 1
 62
   177
420
  3027090
370
     9
100
AcDbSpline
210
0.0
220
0.0
230
1.0
 70
    11
 71
     3
 72
    17
 73
    13
 74
     0
 42
0.0000000001
 43
0.0000000001
 12
1.0
 22
0.0
 32
0.0
 13
1.0
 23
0.0
 33
0.0
 40
0.0
 40
0.0
 40
0.0
 40
0.0
 40
1.0
 40
1.0
 40
1.0
 40
2.0
 40
2.0
 40
2.0
 40
3.0
 40
3.0
 40
3.0
 40
4.0
 40
4.0
 40
4.0
 40
4.0
 10
411.2194972925341
 20
-292.2417861231983
 30
0.0
 10
410.1149277932084
 20
-292.24178612305
 30
0.0
 10
409.2194972929087
 20
-293.1372166231062
 30
0.0
 10
409.2194972927599
 20
-294.2417861224292
 30
0.0
 10
409.2194972926123
 20
-295.3463556217559
 30
0.0
 10
410.1149277926681
 20
-296.2417861220517
 30
0.0
 10
411.219497291995
 20
-296.2417861221999
 30
0.0
 10
412.3240667913181
 20
-296.2417861223517
 30
0.0
 10
413.2194972916139
 20
-295.3463556222956
 30
0.0
 10
413.2194972917615
 20
-294.2417861229689
 30
0.0
 10
413.2194972919104
 20
-293.1372166236458
 30
0.0
 10
412.3240667918571
 20
-292.24178612335
 30
0.0
 10
411.2194972925341
 20
-292.2417861231983
 30
0.0
  0
SPLINE
  5
60
330
5B
100
AcDbEntity
  8
Layer 1
 62
   177
420
  3027090
370
     9
100
AcDbSpline
210
0.0
220
0.0
230
1.0
 70
    11
 71
     3
 72
    17
 73
    13
 74
     0
 42
0.0000000001
 43
0.0000000001
 12
1.0
 22
0.0
 32
0.0
 13
1.0
 23
0.0
 33
0.0
 40
0.0
 40
0.0
 40
0.0
 40
0.0
 40
1.0
 40
1.0
 40
1.0
 40
2.0
 40
2.0
 40
2.0
 40
3.0
 40
3.0
 40
3.0
 40
4.0
 40
4.0
 40
4.0
 40
4.0
 10
427.2529403292903
 20
-292.2418046922987
 30
0.0
 10
426.1483708299634
 20
-292.241804692147
 30
0.0
 10
425.2529403296676
 20
-293.1372351922067
 30
0.0
 10
425.2529403295187
 20
-294.2418046915298
 30
0.0
 10
425.2529403293711
 20
-295.3463741908561
 30
0.0
 10
426.1483708294269
 20
-296.2418046911487
 30
0.0
 10
427.25294032875
 20
-296.2418046913004
 30
0.0
 10
428.3575098280731
 20
-296.2418046914483
 30
0.0
 10
429.2529403283689
 20
-295.3463741913957
 30
0.0
 10
429.2529403285204
 20
-294.2418046920694
 30
0.0
 10
429.2529403286654
 20
-293.1372351927463
 30
0.0
 10
428.3575098286121
 20
-292.2418046924466
 30
0.0
 10
427.2529403292903
 20
-292.2418046922987
 30
0.0
  0
POLYLINE
  5
61
330
5B
100
AcDbEntity
  8
Layer 1
 62
   240
420
 15539236
370
     9
100
AcDb2dPolyline
 66
     1
 10
0.0
 20
0.0
 30
0.0
  0
VERTEX
  5
62
330
61
100
AcDbEntity
  8
Layer 1
 62
   240
420
 15539236
370
     9
100
AcDbVertex
100
AcDb2dVertex
 10
435.7362188514126
 20
-282.2417957385481
 30
0.0
  0
VERTEX
  5
63
330
61
100
AcDbEntity
  8
Layer 1
 62
   240
420
 15539236
370
     9
100
AcDbVertex
100
AcDb2dVertex
 10
435.7362188503371
 20
-306.2417957325479
 30
0.0
  0
VERTEX
  5
64
330
61
100
AcDbEntity
  8
Layer 1
 62
   240
420
 15539236
370
     9
100
AcDbVertex
100
AcDb2dVertex
 10
402.7362188585876
 20
-306.2417957310655
 30
0.0
  0
VERTEX
  5
65
330
61
100
AcDbEntity
  8
Layer 1
 62
   240
420
 15539236
370
     9
100
AcDbVertex
100
AcDb2dVertex
 10
402.7362188596643
 20
-282.2417957370665
 30
0.0
  0
VERTEX
  5
66
330
61
100
AcDbEntity
  8
Layer 1
 62
   240
420
 15539236
370
     9
100
AcDbVertex
100
AcDb2dVertex
 10
435.7362188514126
 20
-282.2417957385481
 30
0.0
  0
SEQEND
  5
67
330
61
100
AcDbEntity
  8
Layer 1
 62
   240
420
 15539236
370
     9
  0
ENDBLK
  5
5E
330
5B
100
AcDbEntity
  8
0
100
AcDbBlockEnd
  0
BLOCK
  5
6A
330
68
100
AcDbEntity
  8
0
100
AcDbBlockBegin
  2
block 6
 70
     0
 10
0.0
 20
0.0
 30
0.0
  3
block 6
  1

  0
SPLINE
  5
6C
330
68
100
AcDbEntity
  8
Layer 1
 62
   177
420
  3027090
370
     9
100
AcDbSpline
210
0.0
220
0.0
230
1.0
 70
    11
 71
     3
 72
    17
 73
    13
 74
     0
 42
0.0000000001
 43
0.0000000001
 12
1.0
 22
0.0
 32
0.0
 13
1.0
 23
0.0
 33
0.0
 40
0.0
 40
0.0
 40
0.0
 40
0.0
 40
1.0
 40
1.0
 40
1.0
 40
2.0
 40
2.0
 40
2.0
 40
3.0
 40
3.0
 40
3.0
 40
4.0
 40
4.0
 40
4.0
 40
4.0
 10
367.9071461794416
 20
-296.2417969548484
 30
0.0
 10
367.9071461795391
 20
-295.1372274555218
 30
0.0
 10
367.0117156794448
 20
-294.2417969552645
 30
0.0
 10
365.9071461801217
 20
-294.2417969551657
 30
0.0
 10
364.8025766807947
 20
-294.2417969550672
 30
0.0
 10
363.9071461805387
 20
-295.1372274551618
 30
0.0
 10
363.90714618044
 20
-296.2417969544884
 30
0.0
 10
363.9071461803372
 20
-297.3463664538115
 30
0.0
 10
364.8025766804354
 20
-298.2417969540688
 30
0.0
 10
365.9071461797624
 20
-298.2417969541673
 30
0.0
 10
367.0117156790855
 20
-298.2417969542662
 30
0.0
 10
367.9071461793389
 20
-297.3463664541712
 30
0.0
 10
367.9071461794416
 20
-296.2417969548484
 30
0.0
  0
SPLINE
  5
6D
330
68
100
AcDbEntity
  8
Layer 1
 62
   177
420
  3027090
370
     9
100
AcDbSpline
210
0.0
220
0.0
230
1.0
 70
    11
 71
     3
 72
    17
 73
    13
 74
     0
 42
0.0000000001
 43
0.0000000001
 12
1.0
 22
0.0
 32
0.0
 13
1.0
 23
0.0
 33
0.0
 40
0.0
 40
0.0
 40
0.0
 40
0.0
 40
1.0
 40
1.0
 40
1.0
 40
2.0
 40
2.0
 40
2.0
 40
3.0
 40
3.0
 40
3.0
 40
4.0
 40
4.0
 40
4.0
 40
4.0
 10
367.9071276110598
 20
-312.2752399916037
 30
0.0
 10
367.9071276111625
 20
-311.1706704922775
 30
0.0
 10
367.0116971110643
 20
-310.2752399920233
 30
0.0
 10
365.9071276117412
 20
-310.2752399919245
 30
0.0
 10
364.8025581124143
 20
-310.2752399918263
 30
0.0
 10
363.9071276121608
 20
-311.1706704919206
 30
0.0
 10
363.9071276120581
 20
-312.2752399912437
 30
0.0
 10
363.9071276119593
 20
-313.3798094905669
 30
0.0
 10
364.8025581120549
 20
-314.2752399908242
 30
0.0
 10
365.9071276113818
 20
-314.275239990923
 30
0.0
 10
367.0116971107037
 20
-314.2752399910218
 30
0.0
 10
367.907127610961
 20
-313.3798094909268
 30
0.0
 10
367.9071276110598
 20
-312.2752399916037
 30
0.0
  0
POLYLINE
  5
6E
330
68
100
AcDbEntity
  8
Layer 1
 62
   240
420
 15539236
370
     9
100
AcDb2dPolyline
 66
     1
 10
0.0
 20
0.0
 30
0.0
  0
VERTEX
  5
6F
330
6E
100
AcDbEntity
  8
Layer 1
 62
   240
420
 15539236
370
     9
100
AcDbVertex
100
AcDb2dVertex
 10
377.9071365651912
 20
-320.7585185132788
 30
0.0
  0
VERTEX
  5
70
330
6E
100
AcDbEntity
  8
Layer 1
 62
   240
420
 15539236
370
     9
100
AcDbVertex
100
AcDb2dVertex
 10
353.9071365711928
 20
-320.7585185132788
 30
0.0
  0
VERTEX
  5
71
330
6E
100
AcDbEntity
  8
Layer 1
 62
   240
420
 15539236
370
     9
100
AcDbVertex
100
AcDb2dVertex
 10
353.9071365711928
 20
-287.7585185215302
 30
0.0
  0
VERTEX
  5
72
330
6E
100
AcDbEntity
  8
Layer 1
 62
   240
420
 15539236
370
     9
100
AcDbVertex
100
AcDb2dVertex
 10
377.9071365651912
 20
-287.7585185215302
 30
0.0
  0
VERTEX
  5
73
330
6E
100
AcDbEntity
  8
Layer 1
 62
   240
420
 15539236
370
     9
100
AcDbVertex
100
AcDb2dVertex
 10
377.9071365651912
 20
-320.7585185132788
 30
0.0
  0
SEQEND
  5
74
330
6E
100
AcDbEntity
  8
Layer 1
 62
   240
420
 15539236
370
     9
  0
ENDBLK
  5
6B
330
68
100
AcDbEntity
  8
0
100
AcDbBlockEnd
  0
BLOCK
  5
77
330
75
100
AcDbEntity
  8
0
100
AcDbBlockBegin
  2
block 7
 70
     0
 10
0.0
 20
0.0
 30
0.0
  3
block 7
  1

  0
INSERT
  5
7A
330
75
100
AcDbEntity
  8
Layer 1
100
AcDbBlockReference
  2
block 8
 10
0.0
 20
0.0
 30
0.0
  0
INSERT
  5
89
330
75
100
AcDbEntity
  8
Layer 1
100
AcDbBlockReference
  2
block 9
 10
0.0
 20
0.0
 30
0.0
  0
ENDBLK
  5
78
330
75
100
AcDbEntity
  8
0
100
AcDbBlockEnd
  0
BLOCK
  5
7B
330
79
100
AcDbEntity
  8
0
100
AcDbBlockBegin
  2
block 8
 70
     0
 10
0.0
 20
0.0
 30
0.0
  3
block 8
  1

  0
SPLINE
  5
7D
330
79
100
AcDbEntity
  8
Layer 1
 62
   177
420
  3027090
370
     9
100
AcDbSpline
210
0.0
220
0.0
230
1.0
 70
    11
 71
     3
 72
    17
 73
    13
 74
     0
 42
0.0000000001
 43
0.0000000001
 12
1.0
 22
0.0
 32
0.0
 13
1.0
 23
0.0
 33
0.0
 40
0.0
 40
0.0
 40
0.0
 40
0.0
 40
1.0
 40
1.0
 40
1.0
 40
2.0
 40
2.0
 40
2.0
 40
3.0
 40
3.0
 40
3.0
 40
4.0
 40
4.0
 40
4.0
 40
4.0
 10
244.010518826817
 20
-310.0100291253725
 30
0.0
 10
242.9059493274939
 20
-310.0100291253225
 30
0.0
 10
242.0105188272757
 20
-310.9054596254566
 30
0.0
 10
242.0105188272263
 20
-312.0100291247829
 30
0.0
 10
242.0105188271769
 20
-313.1145986241092
 30
0.0
 10
242.9059493273142
 20
-314.0100291243318
 30
0.0
 10
244.0105188266366
 20
-314.0100291243806
 30
0.0
 10
245.1150883259636
 20
-314.0100291244307
 30
0.0
 10
246.0105188261785
 20
-313.1145986242895
 30
0.0
 10
246.010518826228
 20
-312.0100291249632
 30
0.0
 10
246.0105188262773
 20
-310.9054596256362
 30
0.0
 10
245.1150883261433
 20
-310.0100291254213
 30
0.0
 10
244.010518826817
 20
-310.0100291253725
 30
0.0
  0
SPLINE
  5
7E
330
79
100
AcDbEntity
  8
Layer 1
 62
   177
420
  3027090
370
     9
100
AcDbSpline
210
0.0
220
0.0
230
1.0
 70
    11
 71
     3
 72
    17
 73
    13
 74
     0
 42
0.0000000001
 43
0.0000000001
 12
1.0
 22
0.0
 32
0.0
 13
1.0
 23
0.0
 33
0.0
 40
0.0
 40
0.0
 40
0.0
 40
0.0
 40
1.0
 40
1.0
 40
1.0
 40
2.0
 40
2.0
 40
2.0
 40
3.0
 40
3.0
 40
3.0
 40
4.0
 40
4.0
 40
4.0
 40
4.0
 10
279.5105151951286
 20
-310.0100304727083
 30
0.0
 10
278.4059456958023
 20
-310.0100304726588
 30
0.0
 10
277.5105151955835
 20
-310.9054609727961
 30
0.0
 10
277.5105151955341
 20
-312.0100304721192
 30
0.0
 10
277.5105151954847
 20
-313.1145999714455
 30
0.0
 10
278.405945695622
 20
-314.0100304716605
 30
0.0
 10
279.5105151949483
 20
-314.0100304717099
 30
0.0
 10
280.6150846942714
 20
-314.0100304717625
 30
0.0
 10
281.5105151944863
 20
-313.1145999716259
 30
0.0
 10
281.5105151945357
 20
-312.0100304722989
 30
0.0
 10
281.5105151945851
 20
-310.9054609729758
 30
0.0
 10
280.6150846944511
 20
-310.0100304727608
 30
0.0
 10
279.5105151951286
 20
-310.0100304727083
 30
0.0
  0
POLYLINE
  5
7F
330
79
100
AcDbEntity
  8
Layer 1
 62
   240
420
 15539236
370
     9
100
AcDb2dPolyline
 66
     1
 10
0.0
 20
0.0
 30
0.0
  0
VERTEX
  5
80
330
7F
100
AcDbEntity
  8
Layer 1
 62
   240
420
 15539236
370
     9
100
AcDbVertex
100
AcDb2dVertex
 10
261.0937671721067
 20
-294.2585301312422
 30
0.0
  0
VERTEX
  5
81
330
7F
100
AcDbEntity
  8
Layer 1
 62
   240
420
 15539236
370
     9
100
AcDbVertex
100
AcDb2dVertex
 10
257.5272404960866
 20
-302.010018706377
 30
0.0
  0
VERTEX
  5
82
330
7F
100
AcDbEntity
  8
Layer 1
 62
   240
420
 15539236
370
     9
100
AcDbVertex
100
AcDb2dVertex
 10
235.5272405015865
 20
-302.0100187053888
 30
0.0
  0
VERTEX
  5
83
330
7F
100
AcDbEntity
  8
Layer 1
 62
   240
420
 15539236
370
     9
100
AcDbVertex
100
AcDb2dVertex
 10
235.5272405006901
 20
-322.0100187003869
 30
0.0
  0
VERTEX
  5
84
330
7F
100
AcDbEntity
  8
Layer 1
 62
   240
420
 15539236
370
     9
100
AcDbVertex
100
AcDb2dVertex
 10
288.5105162917945
 20
-322.0100196299456
 30
0.0
  0
VERTEX
  5
85
330
7F
100
AcDbEntity
  8
Layer 1
 62
   240
420
 15539236
370
     9
100
AcDbVertex
100
AcDb2dVertex
 10
288.51051629304
 20
-294.2600190752765
 30
0.0
  0
VERTEX
  5
86
330
7F
100
AcDbEntity
  8
Layer 1
 62
   240
420
 15539236
370
     9
100
AcDbVertex
100
AcDb2dVertex
 10
261.0930821503236
 20
-294.2600190740454
 30
0.0
  0
SEQEND
  5
87
330
7F
100
AcDbEntity
  8
Layer 1
 62
   240
420
 15539236
370
     9
  0
ENDBLK
  5
7C
330
79
100
AcDbEntity
  8
0
100
AcDbBlockEnd
  0
BLOCK
  5
8A
330
88
100
AcDbEntity
  8
0
100
AcDbBlockBegin
  2
block 9
 70
     0
 10
0.0
 20
0.0
 30
0.0
  3
block 9
  1

  0
SPLINE
  5
8C
330
88
100
AcDbEntity
  8
Layer 1
 62
   177
420
  3027090
370
     9
100
AcDbSpline
210
0.0
220
0.0
230
1.0
 70
    11
 71
     3
 72
    17
 73
    13
 74
     0
 42
0.0000000001
 43
0.0000000001
 12
1.0
 22
0.0
 32
0.0
 13
1.0
 23
0.0
 33
0.0
 40
0.0
 40
0.0
 40
0.0
 40
0.0
 40
1.0
 40
1.0
 40
1.0
 40
2.0
 40
2.0
 40
2.0
 40
3.0
 40
3.0
 40
3.0
 40
4.0
 40
4.0
 40
4.0
 40
4.0
 10
300.450086292792
 20
-306.2585192865009
 30
0.0
 10
299.3455167934692
 20
-306.2585192864021
 30
0.0
 10
298.4500862933707
 20
-305.363088786148
 30
0.0
 10
298.4500862934696
 20
-304.2585192868178
 30
0.0
 10
298.4500862935722
 20
-303.1539497874948
 30
0.0
 10
299.345516793826
 20
-302.2585192873927
 30
0.0
 10
300.4500862931488
 20
-302.2585192874916
 30
0.0
 10
301.5546557924744
 20
-302.2585192875943
 30
0.0
 10
302.4500862925739
 20
-303.1539497878516
 30
0.0
 10
302.4500862924712
 20
-304.2585192871779
 30
0.0
 10
302.4500862923724
 20
-305.3630887865041
 30
0.0
 10
301.5546557921151
 20
-306.258519286603
 30
0.0
 10
300.450086292792
 20
-306.2585192865009
 30
0.0
  0
SPLINE
  5
8D
330
88
100
AcDbEntity
  8
Layer 1
 62
   177
420
  3027090
370
     9
100
AcDbSpline
210
0.0
220
0.0
230
1.0
 70
    11
 71
     3
 72
    17
 73
    13
 74
     0
 42
0.0000000001
 43
0.0000000001
 12
1.0
 22
0.0
 32
0.0
 13
1.0
 23
0.0
 33
0.0
 40
0.0
 40
0.0
 40
0.0
 40
0.0
 40
1.0
 40
1.0
 40
1.0
 40
2.0
 40
2.0
 40
2.0
 40
3.0
 40
3.0
 40
3.0
 40
4.0
 40
4.0
 40
4.0
 40
4.0
 10
335.9500826611036
 20
-306.2585179439446
 30
0.0
 10
334.8455131617741
 20
-306.2585179438458
 30
0.0
 10
333.9500826616785
 20
-305.3630874435885
 30
0.0
 10
333.9500826617773
 20
-304.2585179442654
 30
0.0
 10
333.95008266188
 20
-303.1539484449391
 30
0.0
 10
334.8455131621334
 20
-302.2585179448441
 30
0.0
 10
335.9500826614604
 20
-302.258517944943
 30
0.0
 10
337.0546521607835
 20
-302.2585179450418
 30
0.0
 10
337.9500826608817
 20
-303.1539484452991
 30
0.0
 10
337.950082660779
 20
-304.2585179446254
 30
0.0
 10
337.9500826606802
 20
-305.3630874439485
 30
0.0
 10
337.0546521604267
 20
-306.2585179440434
 30
0.0
 10
335.9500826611036
 20
-306.2585179439446
 30
0.0
  0
POLYLINE
  5
8E
330
88
100
AcDbEntity
  8
Layer 1
 62
   240
420
 15539236
370
     9
100
AcDb2dPolyline
 66
     1
 10
0.0
 20
0.0
 30
0.0
  0
VERTEX
  5
8F
330
8E
100
AcDbEntity
  8
Layer 1
 62
   240
420
 15539236
370
     9
100
AcDbVertex
100
AcDb2dVertex
 10
317.5333346359621
 20
-322.010018282934
 30
0.0
  0
VERTEX
  5
90
330
8E
100
AcDbEntity
  8
Layer 1
 62
   240
420
 15539236
370
     9
100
AcDbVertex
100
AcDb2dVertex
 10
313.9668079609855
 20
-314.2585297073163
 30
0.0
  0
VERTEX
  5
91
330
8E
100
AcDbEntity
  8
Layer 1
 62
   240
420
 15539236
370
     9
100
AcDbVertex
100
AcDb2dVertex
 10
291.9668079664854
 20
-314.2585297053437
 30
0.0
  0
VERTEX
  5
92
330
8E
100
AcDbEntity
  8
Layer 1
 62
   240
420
 15539236
370
     9
100
AcDbVertex
100
AcDb2dVertex
 10
291.9668079682815
 20
-294.2585297103464
 30
0.0
  0
VERTEX
  5
93
330
8E
100
AcDbEntity
  8
Layer 1
 62
   240
420
 15539236
370
     9
100
AcDbVertex
100
AcDb2dVertex
 10
344.9500837593853
 20
-294.2585287879206
 30
0.0
  0
VERTEX
  5
94
330
8E
100
AcDbEntity
  8
Layer 1
 62
   240
420
 15539236
370
     9
100
AcDbVertex
100
AcDb2dVertex
 10
344.9500837568942
 20
-322.0085293425933
 30
0.0
  0
VERTEX
  5
95
330
8E
100
AcDbEntity
  8
Layer 1
 62
   240
420
 15539236
370
     9
100
AcDbVertex
100
AcDb2dVertex
 10
317.5326496141791
 20
-322.0085293401311
 30
0.0
  0
SEQEND
  5
96
330
8E
100
AcDbEntity
  8
Layer 1
 62
   240
420
 15539236
370
     9
  0
ENDBLK
  5
8B
330
88
100
AcDbEntity
  8
0
100
AcDbBlockEnd
  0
BLOCK
  5
99
330
97
100
AcDbEntity
  8
0
100
AcDbBlockBegin
  2
block 10
 70
     0
 10
0.0
 20
0.0
 30
0.0
  3
block 10
  1

  0
INSERT
  5
9C
330
97
100
AcDbEntity
  8
Layer 1
100
AcDbBlockReference
  2
block 11
 10
0.0
 20
0.0
 30
0.0
  0
INSERT
  5
B0
330
97
100
AcDbEntity
  8
Layer 1
100
AcDbBlockReference
  2
block 12
 10
0.0
 20
0.0
 30
0.0
  0
ENDBLK
  5
9A
330
97
100
AcDbEntity
  8
0
100
AcDbBlockEnd
  0
BLOCK
  5
9D
330
9B
100
AcDbEntity
  8
0
100
AcDbBlockBegin
  2
block 11
 70
     0
 10
0.0
 20
0.0
 30
0.0
  3
block 11
  1

  0
SPLINE
  5
9F
330
9B
100
AcDbEntity
  8
Layer 1
 62
   177
420
  3027090
370
     9
100
AcDbSpline
210
0.0
220
0.0
230
1.0
 70
    11
 71
     3
 72
    17
 73
    13
 74
     0
 42
0.0000000001
 43
0.0000000001
 12
1.0
 22
0.0
 32
0.0
 13
1.0
 23
0.0
 33
0.0
 40
0.0
 40
0.0
 40
0.0
 40
0.0
 40
1.0
 40
1.0
 40
1.0
 40
2.0
 40
2.0
 40
2.0
 40
3.0
 40
3.0
 40
3.0
 40
4.0
 40
4.0
 40
4.0
 40
4.0
 10
195.4583660078401
 20
-287.245987341522
 30
0.0
 10
195.4583660078401
 20
-288.0744153968704
 30
0.0
 10
194.7867829694181
 20
-288.745998452258
 30
0.0
 10
193.9583549349962
 20
-288.745998452258
 30
0.0
 10
193.1299269005743
 20
-288.745998452258
 30
0.0
 10
192.4583791399259
 20
-288.0744153968704
 30
0.0
 10
192.4583791399259
 20
-287.245987341522
 30
0.0
 10
192.4583791399259
 20
-286.4175592861734
 30
0.0
 10
193.1299269005743
 20
-285.7459762307858
 30
0.0
 10
193.9583549349962
 20
-285.7459762307858
 30
0.0
 10
194.7867829694181
 20
-285.7459762307858
 30
0.0
 10
195.4583660078401
 20
-286.4175592861734
 30
0.0
 10
195.4583660078401
 20
-287.245987341522
 30
0.0
  0
SPLINE
  5
A0
330
9B
100
AcDbEntity
  8
Layer 1
 62
   177
420
  3027090
370
     9
100
AcDbSpline
210
0.0
220
0.0
230
1.0
 70
    11
 71
     3
 72
    17
 73
    13
 74
     0
 42
0.0000000001
 43
0.0000000001
 12
1.0
 22
0.0
 32
0.0
 13
1.0
 23
0.0
 33
0.0
 40
0.0
 40
0.0
 40
0.0
 40
0.0
 40
1.0
 40
1.0
 40
1.0
 40
2.0
 40
2.0
 40
2.0
 40
3.0
 40
3.0
 40
3.0
 40
4.0
 40
4.0
 40
4.0
 40
4.0
 10
195.4583660078401
 20
-318.2459817782167
 30
0.0
 10
195.4583660078401
 20
-319.0744098335651
 30
0.0
 10
194.7867829694181
 20
-319.7459928889523
 30
0.0
 10
193.9583549349962
 20
-319.7459928889523
 30
0.0
 10
193.1299269005743
 20
-319.7459928889523
 30
0.0
 10
192.4583791399259
 20
-319.0744098335651
 30
0.0
 10
192.4583791399259
 20
-318.2459817782167
 30
0.0
 10
192.4583791399259
 20
-317.4175537228678
 30
0.0
 10
193.1299269005743
 20
-316.7459706674805
 30
0.0
 10
193.9583549349962
 20
-316.7459706674805
 30
0.0
 10
194.7867829694181
 20
-316.7459706674805
 30
0.0
 10
195.4583660078401
 20
-317.4175537228678
 30
0.0
 10
195.4583660078401
 20
-318.2459817782167
 30
0.0
  0
SPLINE
  5
A1
330
9B
100
AcDbEntity
  8
Layer 1
 62
   177
420
  3027090
370
     9
100
AcDbSpline
210
0.0
220
0.0
230
1.0
 70
    11
 71
     3
 72
    17
 73
    13
 74
     0
 42
0.0000000001
 43
0.0000000001
 12
1.0
 22
0.0
 32
0.0
 13
1.0
 23
0.0
 33
0.0
 40
0.0
 40
0.0
 40
0.0
 40
0.0
 40
1.0
 40
1.0
 40
1.0
 40
2.0
 40
2.0
 40
2.0
 40
3.0
 40
3.0
 40
3.0
 40
4.0
 40
4.0
 40
4.0
 40
4.0
 10
226.4583596614069
 20
-318.2459817782167
 30
0.0
 10
226.4583596614069
 20
-319.0744098335651
 30
0.0
 10
225.7867766229842
 20
-319.7459928889523
 30
0.0
 10
224.9583485885662
 20
-319.7459928889523
 30
0.0
 10
224.1299205541443
 20
-319.7459928889523
 30
0.0
 10
223.4583727934966
 20
-319.0744098335651
 30
0.0
 10
223.4583727934966
 20
-318.2459817782167
 30
0.0
 10
223.4583727934966
 20
-317.4175537228678
 30
0.0
 10
224.1299205541443
 20
-316.7459706674805
 30
0.0
 10
224.9583485885662
 20
-316.7459706674805
 30
0.0
 10
225.7867766229842
 20
-316.7459706674805
 30
0.0
 10
226.4583596614069
 20
-317.4175537228678
 30
0.0
 10
226.4583596614069
 20
-318.2459817782167
 30
0.0
  0
SPLINE
  5
A2
330
9B
100
AcDbEntity
  8
Layer 1
 62
   177
420
  3027090
370
     9
100
AcDbSpline
210
0.0
220
0.0
230
1.0
 70
    11
 71
     3
 72
    17
 73
    13
 74
     0
 42
0.0000000001
 43
0.0000000001
 12
1.0
 22
0.0
 32
0.0
 13
1.0
 23
0.0
 33
0.0
 40
0.0
 40
0.0
 40
0.0
 40
0.0
 40
1.0
 40
1.0
 40
1.0
 40
2.0
 40
2.0
 40
2.0
 40
3.0
 40
3.0
 40
3.0
 40
4.0
 40
4.0
 40
4.0
 40
4.0
 10
226.4583596614069
 20
-287.245987341522
 30
0.0
 10
226.4583596614069
 20
-288.0744153968704
 30
0.0
 10
225.7867766229842
 20
-288.745998452258
 30
0.0
 10
224.9583838663405
 20
-288.745998452258
 30
0.0
 10
224.1299558319225
 20
-288.745998452258
 30
0.0
 10
223.4583727934966
 20
-288.0744153968704
 30
0.0
 10
223.4583727934966
 20
-287.245987341522
 30
0.0
 10
223.4583727934966
 20
-286.4175592861734
 30
0.0
 10
224.1299558319225
 20
-285.7459762307858
 30
0.0
 10
224.9583838663405
 20
-285.7459762307858
 30
0.0
 10
225.7867766229842
 20
-285.7459762307858
 30
0.0
 10
226.4583596614069
 20
-286.4175592861734
 30
0.0
 10
226.4583596614069
 20
-287.245987341522
 30
0.0
  0
SPLINE
  5
A3
330
9B
100
AcDbEntity
  8
Layer 1
 62
   177
420
  3027090
370
     9
100
AcDbSpline
210
0.0
220
0.0
230
1.0
 70
    11
 71
     3
 72
    17
 73
    13
 74
     0
 42
0.0000000001
 43
0.0000000001
 12
1.0
 22
0.0
 32
0.0
 13
1.0
 23
0.0
 33
0.0
 40
0.0
 40
0.0
 40
0.0
 40
0.0
 40
1.0
 40
1.0
 40
1.0
 40
2.0
 40
2.0
 40
2.0
 40
3.0
 40
3.0
 40
3.0
 40
4.0
 40
4.0
 40
4.0
 40
4.0
 10
220.9583778572793
 20
-302.7459845598689
 30
0.0
 10
220.9583778572793
 20
-309.0972545582811
 30
0.0
 10
215.8096568775243
 20
-314.2459756681053
 30
0.0
 10
209.4583517617812
 20
-314.2459756681053
 30
0.0
 10
203.1070819238162
 20
-314.2459756681053
 30
0.0
 10
197.9583609440574
 20
-309.0972545582811
 30
0.0
 10
197.9583609440574
 20
-302.7459845598689
 30
0.0
 10
197.9583609440574
 20
-296.3947145614571
 30
0.0
 10
203.1070819238162
 20
-291.2459934516332
 30
0.0
 10
209.4583517617812
 20
-291.2459934516332
 30
0.0
 10
215.8096568775243
 20
-291.2459934516332
 30
0.0
 10
220.9583778572793
 20
-296.3947145614571
 30
0.0
 10
220.9583778572793
 20
-302.7459845598689
 30
0.0
  0
POLYLINE
  5
A4
330
9B
100
AcDbEntity
  8
Layer 1
 62
   240
420
 15539236
370
     9
100
AcDb2dPolyline
 66
     1
 10
0.0
 20
0.0
 30
0.0
  0
VERTEX
  5
A5
330
A4
100
AcDbEntity
  8
Layer 1
 62
   240
420
 15539236
370
     9
100
AcDbVertex
100
AcDb2dVertex
 10
191.0324161207562
 20
-323.7371442768435
 30
0.0
  0
VERTEX
  5
A6
330
A4
100
AcDbEntity
  8
Layer 1
 62
   240
420
 15539236
370
     9
100
AcDbVertex
100
AcDb2dVertex
 10
227.0324349245388
 20
-323.7371442768435
 30
0.0
  0
VERTEX
  5
A7
330
A4
100
AcDbEntity
  8
Layer 1
 62
   240
420
 15539236
370
     9
100
AcDbVertex
100
AcDb2dVertex
 10
230.0324245818776
 20
-320.7371220553717
 30
0.0
  0
VERTEX
  5
A8
330
A4
100
AcDbEntity
  8
Layer 1
 62
   240
420
 15539236
370
     9
100
AcDbVertex
100
AcDb2dVertex
 10
230.0324245818776
 20
-284.7371376199269
 30
0.0
  0
VERTEX
  5
A9
330
A4
100
AcDbEntity
  8
Layer 1
 62
   240
420
 15539236
370
     9
100
AcDbVertex
100
AcDb2dVertex
 10
227.0324349245388
 20
-281.7371506762325
 30
0.0
  0
VERTEX
  5
AA
330
A4
100
AcDbEntity
  8
Layer 1
 62
   240
420
 15539236
370
     9
100
AcDbVertex
100
AcDb2dVertex
 10
191.0324161207562
 20
-281.7371506762325
 30
0.0
  0
VERTEX
  5
AB
330
A4
100
AcDbEntity
  8
Layer 1
 62
   240
420
 15539236
370
     9
100
AcDbVertex
100
AcDb2dVertex
 10
188.0324292528458
 20
-284.7371376199269
 30
0.0
  0
VERTEX
  5
AC
330
A4
100
AcDbEntity
  8
Layer 1
 62
   240
420
 15539236
370
     9
100
AcDbVertex
100
AcDb2dVertex
 10
188.0324292528458
 20
-320.7371220553717
 30
0.0
  0
VERTEX
  5
AD
330
A4
100
AcDbEntity
  8
Layer 1
 62
   240
420
 15539236
370
     9
100
AcDbVertex
100
AcDb2dVertex
 10
191.0324161207562
 20
-323.7371442768435
 30
0.0
  0
SEQEND
  5
AE
330
A4
100
AcDbEntity
  8
Layer 1
 62
   240
420
 15539236
370
     9
  0
ENDBLK
  5
9E
330
9B
100
AcDbEntity
  8
0
100
AcDbBlockEnd
  0
BLOCK
  5
B1
330
AF
100
AcDbEntity
  8
0
100
AcDbBlockBegin
  2
block 12
 70
     0
 10
0.0
 20
0.0
 30
0.0
  3
block 12
  1

  0
SPLINE
  5
B3
330
AF
100
AcDbEntity
  8
Layer 1
 62
   177
420
  3027090
370
     9
100
AcDbSpline
210
0.0
220
0.0
230
1.0
 70
    11
 71
     3
 72
    17
 73
    13
 74
     0
 42
0.0000000001
 43
0.0000000001
 12
1.0
 22
0.0
 32
0.0
 13
1.0
 23
0.0
 33
0.0
 40
0.0
 40
0.0
 40
0.0
 40
0.0
 40
1.0
 40
1.0
 40
1.0
 40
2.0
 40
2.0
 40
2.0
 40
3.0
 40
3.0
 40
3.0
 40
4.0
 40
4.0
 40
4.0
 40
4.0
 10
150.5379920600587
 20
-287.2548244403965
 30
0.0
 10
150.5379920600587
 20
-288.0832524957413
 30
0.0
 10
149.866409021636
 20
-288.7548355511324
 30
0.0
 10
149.0379809872148
 20
-288.7548355511324
 30
0.0
 10
148.2095529527929
 20
-288.7548355511324
 30
0.0
 10
147.5380051921478
 20
-288.0832524957413
 30
0.0
 10
147.5380051921478
 20
-287.2548244403965
 30
0.0
 10
147.5380051921478
 20
-286.4263963850482
 30
0.0
 10
148.2095529527929
 20
-285.7548133296567
 30
0.0
 10
149.0379809872148
 20
-285.7548133296567
 30
0.0
 10
149.866409021636
 20
-285.7548133296567
 30
0.0
 10
150.5379920600587
 20
-286.4263963850482
 30
0.0
 10
150.5379920600587
 20
-287.2548244403965
 30
0.0
  0
SPLINE
  5
B4
330
AF
100
AcDbEntity
  8
Layer 1
 62
   177
420
  3027090
370
     9
100
AcDbSpline
210
0.0
220
0.0
230
1.0
 70
    11
 71
     3
 72
    17
 73
    13
 74
     0
 42
0.0000000001
 43
0.0000000001
 12
1.0
 22
0.0
 32
0.0
 13
1.0
 23
0.0
 33
0.0
 40
0.0
 40
0.0
 40
0.0
 40
0.0
 40
1.0
 40
1.0
 40
1.0
 40
2.0
 40
2.0
 40
2.0
 40
3.0
 40
3.0
 40
3.0
 40
4.0
 40
4.0
 40
4.0
 40
4.0
 10
150.5379920600587
 20
-318.2548188770912
 30
0.0
 10
150.5379920600587
 20
-319.0832469324363
 30
0.0
 10
149.866409021636
 20
-319.7548299878274
 30
0.0
 10
149.0379809872148
 20
-319.7548299878274
 30
0.0
 10
148.2095529527929
 20
-319.7548299878274
 30
0.0
 10
147.5380051921478
 20
-319.0832469324363
 30
0.0
 10
147.5380051921478
 20
-318.2548188770912
 30
0.0
 10
147.5380051921478
 20
-317.4263908217422
 30
0.0
 10
148.2095529527929
 20
-316.7548077663549
 30
0.0
 10
149.0379809872148
 20
-316.7548077663549
 30
0.0
 10
149.866409021636
 20
-316.7548077663549
 30
0.0
 10
150.5379920600587
 20
-317.4263908217422
 30
0.0
 10
150.5379920600587
 20
-318.2548188770912
 30
0.0
  0
SPLINE
  5
B5
330
AF
100
AcDbEntity
  8
Layer 1
 62
   177
420
  3027090
370
     9
100
AcDbSpline
210
0.0
220
0.0
230
1.0
 70
    11
 71
     3
 72
    17
 73
    13
 74
     0
 42
0.0000000001
 43
0.0000000001
 12
1.0
 22
0.0
 32
0.0
 13
1.0
 23
0.0
 33
0.0
 40
0.0
 40
0.0
 40
0.0
 40
0.0
 40
1.0
 40
1.0
 40
1.0
 40
2.0
 40
2.0
 40
2.0
 40
3.0
 40
3.0
 40
3.0
 40
4.0
 40
4.0
 40
4.0
 40
4.0
 10
181.5379857136255
 20
-318.2548188770912
 30
0.0
 10
181.5379857136255
 20
-319.0832469324363
 30
0.0
 10
180.8664026752028
 20
-319.7548299878274
 30
0.0
 10
180.0379746407848
 20
-319.7548299878274
 30
0.0
 10
179.2095466063629
 20
-319.7548299878274
 30
0.0
 10
178.5379988457184
 20
-319.0832469324363
 30
0.0
 10
178.5379988457184
 20
-318.2548188770912
 30
0.0
 10
178.5379988457184
 20
-317.4263908217422
 30
0.0
 10
179.2095466063629
 20
-316.7548077663549
 30
0.0
 10
180.0379746407848
 20
-316.7548077663549
 30
0.0
 10
180.8664026752028
 20
-316.7548077663549
 30
0.0
 10
181.5379857136255
 20
-317.4263908217422
 30
0.0
 10
181.5379857136255
 20
-318.2548188770912
 30
0.0
  0
SPLINE
  5
B6
330
AF
100
AcDbEntity
  8
Layer 1
 62
   177
420
  3027090
370
     9
100
AcDbSpline
210
0.0
220
0.0
230
1.0
 70
    11
 71
     3
 72
    17
 73
    13
 74
     0
 42
0.0000000001
 43
0.0000000001
 12
1.0
 22
0.0
 32
0.0
 13
1.0
 23
0.0
 33
0.0
 40
0.0
 40
0.0
 40
0.0
 40
0.0
 40
1.0
 40
1.0
 40
1.0
 40
2.0
 40
2.0
 40
2.0
 40
3.0
 40
3.0
 40
3.0
 40
4.0
 40
4.0
 40
4.0
 40
4.0
 10
181.5379857136255
 20
-287.2548244403965
 30
0.0
 10
181.5379857136255
 20
-288.0832524957413
 30
0.0
 10
180.8664026752028
 20
-288.7548355511324
 30
0.0
 10
180.0380099185591
 20
-288.7548355511324
 30
0.0
 10
179.2095818841411
 20
-288.7548355511324
 30
0.0
 10
178.5379988457184
 20
-288.0832524957413
 30
0.0
 10
178.5379988457184
 20
-287.2548244403965
 30
0.0
 10
178.5379988457184
 20
-286.4263963850482
 30
0.0
 10
179.2095818841411
 20
-285.7548133296567
 30
0.0
 10
180.0380099185591
 20
-285.7548133296567
 30
0.0
 10
180.8664026752028
 20
-285.7548133296567
 30
0.0
 10
181.5379857136255
 20
-286.4263963850482
 30
0.0
 10
181.5379857136255
 20
-287.2548244403965
 30
0.0
  0
SPLINE
  5
B7
330
AF
100
AcDbEntity
  8
Layer 1
 62
   177
420
  3027090
370
     9
100
AcDbSpline
210
0.0
220
0.0
230
1.0
 70
    11
 71
     3
 72
    17
 73
    13
 74
     0
 42
0.0000000001
 43
0.0000000001
 12
1.0
 22
0.0
 32
0.0
 13
1.0
 23
0.0
 33
0.0
 40
0.0
 40
0.0
 40
0.0
 40
0.0
 40
1.0
 40
1.0
 40
1.0
 40
2.0
 40
2.0
 40
2.0
 40
3.0
 40
3.0
 40
3.0
 40
4.0
 40
4.0
 40
4.0
 40
4.0
 10
176.0380039094973
 20
-302.7548216587434
 30
0.0
 10
176.0380039094973
 20
-309.1060916571556
 30
0.0
 10
170.8892829297429
 20
-314.2548127669797
 30
0.0
 10
164.5379778139998
 20
-314.2548127669797
 30
0.0
 10
158.1867079760342
 20
-314.2548127669797
 30
0.0
 10
153.0379869962759
 20
-309.1060916571556
 30
0.0
 10
153.0379869962759
 20
-302.7548216587434
 30
0.0
 10
153.0379869962759
 20
-296.4035516603315
 30
0.0
 10
158.1867079760342
 20
-291.2548305505076
 30
0.0
 10
164.5379778139998
 20
-291.2548305505076
 30
0.0
 10
170.8892829297429
 20
-291.2548305505076
 30
0.0
 10
176.0380039094973
 20
-296.4035516603315
 30
0.0
 10
176.0380039094973
 20
-302.7548216587434
 30
0.0
  0
POLYLINE
  5
B8
330
AF
100
AcDbEntity
  8
Layer 1
 62
   240
420
 15539236
370
     9
100
AcDb2dPolyline
 66
     1
 10
0.0
 20
0.0
 30
0.0
  0
VERTEX
  5
B9
330
B8
100
AcDbEntity
  8
Layer 1
 62
   240
420
 15539236
370
     9
100
AcDbVertex
100
AcDb2dVertex
 10
146.1120421729748
 20
-323.745981375718
 30
0.0
  0
VERTEX
  5
BA
330
B8
100
AcDbEntity
  8
Layer 1
 62
   240
420
 15539236
370
     9
100
AcDbVertex
100
AcDb2dVertex
 10
182.1120609767568
 20
-323.745981375718
 30
0.0
  0
VERTEX
  5
BB
330
B8
100
AcDbEntity
  8
Layer 1
 62
   240
420
 15539236
370
     9
100
AcDbVertex
100
AcDb2dVertex
 10
185.1120506340956
 20
-320.7459591542423
 30
0.0
  0
VERTEX
  5
BC
330
B8
100
AcDbEntity
  8
Layer 1
 62
   240
420
 15539236
370
     9
100
AcDbVertex
100
AcDb2dVertex
 10
185.1120506340956
 20
-284.7459747188013
 30
0.0
  0
VERTEX
  5
BD
330
B8
100
AcDbEntity
  8
Layer 1
 62
   240
420
 15539236
370
     9
100
AcDbVertex
100
AcDb2dVertex
 10
182.1120609767568
 20
-281.745987775107
 30
0.0
  0
VERTEX
  5
BE
330
B8
100
AcDbEntity
  8
Layer 1
 62
   240
420
 15539236
370
     9
100
AcDbVertex
100
AcDb2dVertex
 10
146.1120421729748
 20
-281.745987775107
 30
0.0
  0
VERTEX
  5
BF
330
B8
100
AcDbEntity
  8
Layer 1
 62
   240
420
 15539236
370
     9
100
AcDbVertex
100
AcDb2dVertex
 10
143.1120553050638
 20
-284.7459747188013
 30
0.0
  0
VERTEX
  5
C0
330
B8
100
AcDbEntity
  8
Layer 1
 62
   240
420
 15539236
370
     9
100
AcDbVertex
100
AcDb2dVertex
 10
143.1120553050638
 20
-320.7459591542423
 30
0.0
  0
VERTEX
  5
C1
330
B8
100
AcDbEntity
  8
Layer 1
 62
   240
420
 15539236
370
     9
100
AcDbVertex
100
AcDb2dVertex
 10
146.1120421729748
 20
-323.745981375718
 30
0.0
  0
SEQEND
  5
C2
330
B8
100
AcDbEntity
  8
Layer 1
 62
   240
420
 15539236
370
     9
  0
ENDBLK
  5
B2
330
AF
100
AcDbEntity
  8
0
100
AcDbBlockEnd
  0
ENDSEC
  0
SECTION
  2
ENTITIES
  0
INSERT
  5
42
330
1F
100
AcDbEntity
  8
Layer 1
100
AcDbBlockReference
  2
block 2
 10
0.0
 20
0.0
 30
0.0
  0
ENDSEC
  0
SECTION
  2
OBJECTS
  0
DICTIONARY
  5
C
330
0
100
AcDbDictionary
281
     1
  3
ACAD_GROUP
350
D
  3
ACAD_LAYOUT
350
1A
  3
ACAD_MATERIAL
350
3B
  3
ACAD_MLEADERSTYLE
350
C4
  3
ACAD_MLINESTYLE
350
17
  3
ACAD_PLOTSETTINGS
350
19
  3
ACAD_PLOTSTYLENAME
350
E
  3
ACAD_TABLESTYLE
350
C3
  3
ACAD_VISUALSTYLE
350
2A
  0
SUN
  5
3F
330
29
100
AcDbSun
 90
        1
290
     0
 63
     7
421
 16777215
 40
1.0
291
     1
 91
  2455826
 92
 54000000
292
     0
 70
     2
 71
   256
280
     1
  0
DICTIONARY
  5
D
102
{ACAD_REACTORS
330
C
102
}
330
C
100
AcDbDictionary
281
     1
  0
DICTIONARY
  5
1A
102
{ACAD_REACTORS
330
C
102
}
330
C
100
AcDbDictionary
281
     1
  3
Layout1
350
1E
  3
Layout2
350
26
  3
Model
350
22
  0
DICTIONARY
  5
3B
102
{ACAD_REACTORS
330
C
102
}
330
C
100
AcDbDictionary
281
     1
  3
ByBlock
350
3D
  3
ByLayer
350
3C
  3
Global
350
3E
  0
DICTIONARY
  5
C4
102
{ACAD_REACTORS
330
C
102
}
330
C
100
AcDbDictionary
281
     1
  0
DICTIONARY
  5
17
102
{ACAD_REACTORS
330
C
102
}
330
C
100
AcDbDictionary
281
     1
  3
Standard
350
18
  0
DICTIONARY
  5
19
102
{ACAD_REACTORS
330
C
102
}
330
C
100
AcDbDictionary
281
     1
  0
ACDBDICTIONARYWDFLT
  5
E
102
{ACAD_REACTORS
330
C
102
}
330
C
100
AcDbDictionary
281
     1
  3
Normal
350
F
100
AcDbDictionaryWithDefault
340
F
  0
DICTIONARY
  5
C3
102
{ACAD_REACTORS
330
C
102
}
330
C
100
AcDbDictionary
281
     1
  0
DICTIONARY
  5
2A
102
{ACAD_REACTORS
330
C
102
}
330
C
100
AcDbDictionary
281
     1
  3
2dWireframe
350
2F
  3
3D Hidden
350
31
  3
3dWireframe
350
30
  3
Basic
350
32
  3
Brighten
350
36
  3
ColorChange
350
3A
  3
Conceptual
350
34
  3
Dim
350
35
  3
Facepattern
350
39
  3
Flat
350
2B
  3
FlatWithEdges
350
2C
  3
Gouraud
350
2D
  3
GouraudWithEdges
350
2E
  3
Linepattern
350
38
  3
Realistic
350
33
  3
Thicken
350
37
  0
LAYOUT
  5
1E
102
{ACAD_REACTORS
330
1A
102
}
330
1A
100
AcDbPlotSettings
  1

  2
none_device
  4

  6

 40
0.0
 41
0.0
 42
0.0
 43
0.0
 44
0.0
 45
0.0
 46
0.0
 47
0.0
 48
0.0
 49
0.0
140
0.0
141
0.0
142
1.0
143
1.0
 70
   688
 72
     0
 73
     0
 74
     5
  7

 75
    16
 76
     0
 77
     2
 78
   300
147
1.0
148
0.0
149
0.0
100
AcDbLayout
  1
Layout1
 70
     1
 71
     1
 10
0.0
 20
0.0
 11
12.0
 21
9.0
 12
0.0
 22
0.0
 32
0.0
 14
1.000000000000000E+20
 24
1.000000000000000E+20
 34
1.000000000000000E+20
 15
-1.000000000000000E+20
 25
-1.000000000000000E+20
 35
-1.000000000000000E+20
146
0.0
 13
0.0
 23
0.0
 33
0.0
 16
1.0
 26
0.0
 36
0.0
 17
0.0
 27
1.0
 37
0.0
 76
     0
330
1B
  0
LAYOUT
  5
26
102
{ACAD_REACTORS
330
1A
102
}
330
1A
100
AcDbPlotSettings
  1

  2
none_device
  4

  6

 40
0.0
 41
0.0
 42
0.0
 43
0.0
 44
0.0
 45
0.0
 46
0.0
 47
0.0
 48
0.0
 49
0.0
140
0.0
141
0.0
142
1.0
143
1.0
 70
   688
 72
     0
 73
     0
 74
     5
  7

 75
    16
 76
     0
 77
     2
 78
   300
147
1.0
148
0.0
149
0.0
100
AcDbLayout
  1
Layout2
 70
     1
 71
     2
 10
0.0
 20
0.0
 11
0.0
 21
0.0
 12
0.0
 22
0.0
 32
0.0
 14
0.0
 24
0.0
 34
0.0
 15
0.0
 25
0.0
 35
0.0
146
0.0
 13
0.0
 23
0.0
 33
0.0
 16
1.0
 26
0.0
 36
0.0
 17
0.0
 27
1.0
 37
0.0
 76
     0
330
23
  0
LAYOUT
  5
22
102
{ACAD_REACTORS
330
1A
102
}
330
1A
100
AcDbPlotSettings
  1

  2
none_device
  4

  6

 40
0.0
 41
0.0
 42
0.0
 43
0.0
 44
0.0
 45
0.0
 46
0.0
 47
0.0
 48
0.0
 49
0.0
140
0.0
141
0.0
142
1.0
143
1.0
 70
  1712
 72
     0
 73
     0
 74
     0
  7

 75
     0
 76
     0
 77
     2
 78
   300
147
1.0
148
0.0
149
0.0
100
AcDbLayout
  1
Model
 70
     1
 71
     0
 10
0.0
 20
0.0
 11
12.0
 21
9.0
 12
0.0
 22
0.0
 32
0.0
 14
1.000000000000000E+20
 24
1.000000000000000E+20
 34
1.000000000000000E+20
 15
-1.000000000000000E+20
 25
-1.000000000000000E+20
 35
-1.000000000000000E+20
146
0.0
 13
0.0
 23
0.0
 33
0.0
 16
1.0
 26
0.0
 36
0.0
 17
0.0
 27
1.0
 37
0.0
 76
     0
330
1F
331
29
  0
MATERIAL
  5
3D
102
{ACAD_REACTORS
330
3B
102
}
330
3B
100
AcDbMaterial
  1
ByBlock
 72
     1
 94
      127
  0
MATERIAL
  5
3C
102
{ACAD_REACTORS
330
3B
102
}
330
3B
100
AcDbMaterial
  1
ByLayer
 72
     1
 94
      127
  0
MATERIAL
  5
3E
102
{ACAD_REACTORS
330
3B
102
}
330
3B
100
AcDbMaterial
  1
Global
 72
     1
 94
      127
  0
MLINESTYLE
  5
18
102
{ACAD_REACTORS
330
17
102
}
330
17
100
AcDbMlineStyle
  2
Standard
 70
     0
  3

 62
   256
 51
90.0
 52
90.0
 71
     2
 49
0.5
 62
   256
  6
BYLAYER
 49
-0.5
 62
   256
  6
BYLAYER
  0
ACDBPLACEHOLDER
  5
F
102
{ACAD_REACTORS
330
E
102
}
330
E
  0
VISUALSTYLE
  5
2F
102
{ACAD_REACTORS
330
2A
102
}
330
2A
100
AcDbVisualStyle
  2
2dWireframe
 70
     4
177
     2
291
     0
 71
     0
176
     1
 72
     2
176
     1
 73
     0
176
     1
 90
        0
176
     1
 40
-0.6
176
     1
 41
-30.0
176
     1
 62
     5
 63
     7
421
 16777215
176
     1
 74
     1
176
     1
 91
        4
176
     1
 64
     7
176
     1
 65
   257
176
     1
 75
     1
176
     1
175
     1
176
     1
 42
1.0
176
     1
 92
        0
176
     1
 66
   257
176
     1
 43
1.0
176
     1
 76
     1
176
     1
 77
     6
176
     1
 78
     2
176
     1
 67
     7
176
     1
 79
     5
176
     1
170
     0
176
     1
171
     0
176
     1
290
     0
176
     1
 93
        1
176
     1
 44
0.0
176
     1
173
     0
176
     1
  0
VISUALSTYLE
  5
31
102
{ACAD_REACTORS
330
2A
102
}
330
2A
100
AcDbVisualStyle
  2
3D Hidden
 70
     6
177
     2
291
     0
 71
     1
176
     1
 72
     2
176
     1
 73
     2
176
     1
 90
        0
176
     1
 40
-0.6
176
     1
 41
-30.0
176
     1
 62
     5
 63
     7
421
 16777215
176
     1
 74
     2
176
     1
 91
        2
176
     1
 64
     7
176
     1
 65
   257
176
     1
 75
     2
176
     1
175
     1
176
     1
 42
40.0
176
     1
 92
        0
176
     1
 66
   257
176
     1
 43
1.0
176
     1
 76
     1
176
     1
 77
     6
176
     1
 78
     2
176
     1
 67
     7
176
     1
 79
     3
176
     1
170
     0
176
     1
171
     0
176
     1
290
     0
176
     1
 93
        1
176
     1
 44
0.0
176
     1
173
     0
176
     1
  0
VISUALSTYLE
  5
30
102
{ACAD_REACTORS
330
2A
102
}
330
2A
100
AcDbVisualStyle
  2
3dWireframe
 70
     5
177
     2
291
     0
 71
     0
176
     1
 72
     2
176
     1
 73
     0
176
     1
 90
        0
176
     1
 40
-0.6
176
     1
 41
-30.0
176
     1
 62
     5
 63
     7
421
 16777215
176
     1
 74
     1
176
     1
 91
        4
176
     1
 64
     7
176
     1
 65
   257
176
     1
 75
     1
176
     1
175
     1
176
     1
 42
1.0
176
     1
 92
        0
176
     1
 66
   257
176
     1
 43
1.0
176
     1
 76
     1
176
     1
 77
     6
176
     1
 78
     2
176
     1
 67
     7
176
     1
 79
     5
176
     1
170
     0
176
     1
171
     0
176
     1
290
     0
176
     1
 93
        1
176
     1
 44
0.0
176
     1
173
     0
176
     1
  0
VISUALSTYLE
  5
32
102
{ACAD_REACTORS
330
2A
102
}
330
2A
100
AcDbVisualStyle
  2
Basic
 70
     7
177
     2
291
     1
 71
     1
176
     1
 72
     0
176
     1
 73
     1
176
     1
 90
        0
176
     1
 40
-0.6
176
     1
 41
-30.0
176
     1
 62
     5
 63
     7
421
 16777215
176
     1
 74
     0
176
     1
 91
        4
176
     1
 64
     7
176
     1
 65
   257
176
     1
 75
     1
176
     1
175
     1
176
     1
 42
1.0
176
     1
 92
        8
176
     1
 66
     7
176
     1
 43
1.0
176
     1
 76
     1
176
     1
 77
     6
176
     1
 78
     2
176
     1
 67
     7
176
     1
 79
     5
176
     1
170
     0
176
     1
171
     0
176
     1
290
     0
176
     1
 93
        1
176
     1
 44
0.0
176
     1
173
     0
176
     1
  0
VISUALSTYLE
  5
36
102
{ACAD_REACTORS
330
2A
102
}
330
2A
100
AcDbVisualStyle
  2
Brighten
 70
    12
177
     2
291
     1
 71
     2
176
     1
 72
     2
176
     1
 73
     0
176
     1
 90
        0
176
     1
 40
-0.6
176
     1
 41
-30.0
176
     1
 62
     5
 63
     7
421
 16777215
176
     1
 74
     1
176
     1
 91
        4
176
     1
 64
     7
176
     1
 65
   257
176
     1
 75
     1
176
     1
175
     1
176
     1
 42
1.0
176
     1
 92
        8
176
     1
 66
     7
176
     1
 43
1.0
176
     1
 76
     1
176
     1
 77
     6
176
     1
 78
     2
176
     1
 67
     7
176
     1
 79
     5
176
     1
170
     0
176
     1
171
     0
176
     1
290
     0
176
     1
 93
        1
176
     1
 44
50.0
176
     1
173
     0
176
     1
  0
VISUALSTYLE
  5
3A
102
{ACAD_REACTORS
330
2A
102
}
330
2A
100
AcDbVisualStyle
  2
ColorChange
 70
    16
177
     2
291
     1
 71
     2
176
     1
 72
     2
176
     1
 73
     3
176
     1
 90
        0
176
     1
 40
-0.6
176
     1
 41
-30.0
176
     1
 62
     5
 63
     8
421
  8421504
176
     1
 74
     1
176
     1
 91
        4
176
     1
 64
     7
176
     1
 65
   257
176
     1
 75
     1
176
     1
175
     1
176
     1
 42
1.0
176
     1
 92
        8
176
     1
 66
     8
424
  8421504
176
     1
 43
1.0
176
     1
 76
     1
176
     1
 77
     6
176
     1
 78
     2
176
     1
 67
     7
176
     1
 79
     5
176
     1
170
     0
176
     1
171
     0
176
     1
290
     0
176
     1
 93
        1
176
     1
 44
0.0
176
     1
173
     0
176
     1
  0
VISUALSTYLE
  5
34
102
{ACAD_REACTORS
330
2A
102
}
330
2A
100
AcDbVisualStyle
  2
Conceptual
 70
     9
177
     2
291
     0
 71
     3
176
     1
 72
     2
176
     1
 73
     0
176
     1
 90
        0
176
     1
 40
-0.6
176
     1
 41
-30.0
176
     1
 62
     5
 63
     7
421
 16777215
176
     1
 74
     2
176
     1
 91
        2
176
     1
 64
     7
176
     1
 65
   257
176
     1
 75
     1
176
     1
175
     1
176
     1
 42
40.0
176
     1
 92
        8
176
     1
 66
     7
176
     1
 43
1.0
176
     1
 76
     1
176
     1
 77
     6
176
     1
 78
     2
176
     1
 67
     7
176
     1
 79
     3
176
     1
170
     0
176
     1
171
     0
176
     1
290
     0
176
     1
 93
        1
176
     1
 44
0.0
176
     1
173
     0
176
     1
  0
VISUALSTYLE
  5
35
102
{ACAD_REACTORS
330
2A
102
}
330
2A
100
AcDbVisualStyle
  2
Dim
 70
    11
177
     2
291
     1
 71
     2
176
     1
 72
     2
176
     1
 73
     0
176
     1
 90
        0
176
     1
 40
-0.6
176
     1
 41
-30.0
176
     1
 62
     5
 63
     7
421
 16777215
176
     1
 74
     1
176
     1
 91
        4
176
     1
 64
     7
176
     1
 65
   257
176
     1
 75
     1
176
     1
175
     1
176
     1
 42
1.0
176
     1
 92
        8
176
     1
 66
     7
176
     1
 43
1.0
176
     1
 76
     1
176
     1
 77
     6
176
     1
 78
     2
176
     1
 67
     7
176
     1
 79
     5
176
     1
170
     0
176
     1
171
     0
176
     1
290
     0
176
     1
 93
        1
176
     1
 44
-50.0
176
     1
173
     0
176
     1
  0
VISUALSTYLE
  5
39
102
{ACAD_REACTORS
330
2A
102
}
330
2A
100
AcDbVisualStyle
  2
Facepattern
 70
    15
177
     2
291
     1
 71
     2
176
     1
 72
     2
176
     1
 73
     0
176
     1
 90
        0
176
     1
 40
-0.6
176
     1
 41
-30.0
176
     1
 62
     5
 63
     7
421
 16777215
176
     1
 74
     1
176
     1
 91
        4
176
     1
 64
     7
176
     1
 65
   257
176
     1
 75
     1
176
     1
175
     1
176
     1
 42
1.0
176
     1
 92
        8
176
     1
 66
     7
176
     1
 43
1.0
176
     1
 76
     1
176
     1
 77
     6
176
     1
 78
     2
176
     1
 67
     7
176
     1
 79
     5
176
     1
170
     0
176
     1
171
     0
176
     1
290
     0
176
     1
 93
        1
176
     1
 44
0.0
176
     1
173
     0
176
     1
  0
VISUALSTYLE
  5
2B
102
{ACAD_REACTORS
330
2A
102
}
330
2A
100
AcDbVisualStyle
  2
Flat
 70
     0
177
     2
291
     1
 71
     2
176
     1
 72
     1
176
     1
 73
     1
176
     1
 90
        2
176
     1
 40
-0.6
176
     1
 41
30.0
176
     1
 62
     5
 63
     7
421
 16777215
176
     1
 74
     0
176
     1
 91
        4
176
     1
 64
     7
176
     1
 65
   257
176
     1
 75
     1
176
     1
175
     1
176
     1
 42
1.0
176
     1
 92
        8
176
     1
 66
     7
176
     1
 43
1.0
176
     1
 76
     1
176
     1
 77
     6
176
     1
 78
     2
176
     1
 67
     7
176
     1
 79
     5
176
     1
170
     0
176
     1
171
     0
176
     1
290
     0
176
     1
 93
       13
176
     1
 44
0.0
176
     1
173
     0
176
     1
  0
VISUALSTYLE
  5
2C
102
{ACAD_REACTORS
330
2A
102
}
330
2A
100
AcDbVisualStyle
  2
FlatWithEdges
 70
     1
177
     2
291
     1
 71
     2
176
     1
 72
     1
176
     1
 73
     1
176
     1
 90
        2
176
     1
 40
-0.6
176
     1
 41
30.0
176
     1
 62
     5
 63
     7
421
 16777215
176
     1
 74
     1
176
     1
 91
        4
176
     1
 64
     7
176
     1
 65
   257
176
     1
 75
     1
176
     1
175
     1
176
     1
 42
1.0
176
     1
 92
        0
176
     1
 66
   257
176
     1
 43
1.0
176
     1
 76
     1
176
     1
 77
     6
176
     1
 78
     2
176
     1
 67
     7
176
     1
 79
     5
176
     1
170
     0
176
     1
171
     0
176
     1
290
     0
176
     1
 93
       13
176
     1
 44
0.0
176
     1
173
     0
176
     1
  0
VISUALSTYLE
  5
2D
102
{ACAD_REACTORS
330
2A
102
}
330
2A
100
AcDbVisualStyle
  2
Gouraud
 70
     2
177
     2
291
     1
 71
     2
176
     1
 72
     2
176
     1
 73
     1
176
     1
 90
        2
176
     1
 40
-0.6
176
     1
 41
30.0
176
     1
 62
     5
 63
     7
421
 16777215
176
     1
 74
     0
176
     1
 91
        4
176
     1
 64
     7
176
     1
 65
   257
176
     1
 75
     1
176
     1
175
     1
176
     1
 42
1.0
176
     1
 92
        0
176
     1
 66
     7
176
     1
 43
1.0
176
     1
 76
     1
176
     1
 77
     6
176
     1
 78
     2
176
     1
 67
     7
176
     1
 79
     5
176
     1
170
     0
176
     1
171
     0
176
     1
290
     0
176
     1
 93
       13
176
     1
 44
0.0
176
     1
173
     0
176
     1
  0
VISUALSTYLE
  5
2E
102
{ACAD_REACTORS
330
2A
102
}
330
2A
100
AcDbVisualStyle
  2
GouraudWithEdges
 70
     3
177
     2
291
     1
 71
     2
176
     1
 72
     2
176
     1
 73
     1
176
     1
 90
        2
176
     1
 40
-0.6
176
     1
 41
30.0
176
     1
 62
     5
 63
     7
421
 16777215
176
     1
 74
     1
176
     1
 91
        4
176
     1
 64
     7
176
     1
 65
   257
176
     1
 75
     1
176
     1
175
     1
176
     1
 42
1.0
176
     1
 92
        0
176
     1
 66
   257
176
     1
 43
1.0
176
     1
 76
     1
176
     1
 77
     6
176
     1
 78
     2
176
     1
 67
     7
176
     1
 79
     5
176
     1
170
     0
176
     1
171
     0
176
     1
290
     0
176
     1
 93
       13
176
     1
 44
0.0
176
     1
173
     0
176
     1
  0
VISUALSTYLE
  5
38
102
{ACAD_REACTORS
330
2A
102
}
330
2A
100
AcDbVisualStyle
  2
Linepattern
 70
    14
177
     2
291
     1
 71
     2
176
     1
 72
     2
176
     1
 73
     0
176
     1
 90
        0
176
     1
 40
-0.6
176
     1
 41
-30.0
176
     1
 62
     5
 63
     7
421
 16777215
176
     1
 74
     1
176
     1
 91
        4
176
     1
 64
     7
176
     1
 65
   257
176
     1
 75
     7
176
     1
175
     7
176
     1
 42
1.0
176
     1
 92
        8
176
     1
 66
     7
176
     1
 43
1.0
176
     1
 76
     1
176
     1
 77
     6
176
     1
 78
     2
176
     1
 67
     7
176
     1
 79
     5
176
     1
170
     0
176
     1
171
     0
176
     1
290
     0
176
     1
 93
        1
176
     1
 44
0.0
176
     1
173
     0
176
     1
  0
VISUALSTYLE
  5
33
102
{ACAD_REACTORS
330
2A
102
}
330
2A
100
AcDbVisualStyle
  2
Realistic
 70
     8
177
     2
291
     0
 71
     2
176
     1
 72
     2
176
     1
 73
     0
176
     1
 90
        0
176
     1
 40
-0.6
176
     1
 41
-30.0
176
     1
 62
     5
 63
     7
421
 16777215
176
     1
 74
     1
176
     1
 91
        0
176
     1
 64
     7
176
     1
 65
   257
176
     1
 75
     1
176
     1
175
     1
176
     1
 42
1.0
176
     1
 92
        8
176
     1
 66
     8
424
  7895160
176
     1
 43
1.0
176
     1
 76
     1
176
     1
 77
     6
176
     1
 78
     2
176
     1
 67
     7
176
     1
 79
     5
176
     1
170
     0
176
     1
171
     0
176
     1
290
     0
176
     1
 93
       13
176
     1
 44
0.0
176
     1
173
     0
176
     1
  0
VISUALSTYLE
  5
37
102
{ACAD_REACTORS
330
2A
102
}
330
2A
100
AcDbVisualStyle
  2
Thicken
 70
    13
177
     2
291
     1
 71
     2
176
     1
 72
     2
176
     1
 73
     0
176
     1
 90
        0
176
     1
 40
-0.6
176
     1
 41
-30.0
176
     1
 62
     5
 63
     7
421
 16777215
176
     1
 74
     1
176
     1
 91
        4
176
     1
 64
     7
176
     1
 65
   257
176
     1
 75
     1
176
     1
175
     1
176
     1
 42
1.0
176
     1
 92
       12
176
     1
 66
     7
176
     1
 43
1.0
176
     1
 76
     1
176
     1
 77
     6
176
     1
 78
     2
176
     1
 67
     7
176
     1
 79
     5
176
     1
170
     0
176
     1
171
     0
176
     1
290
     0
176
     1
 93
        1
176
     1
 44
0.0
176
     1
173
     0
176
     1
  0
ENDSEC
  0
EOF
