  0
SECTION
  2
HEADER
  9
$ACADVER
  1
AC1024
  9
$ACADMAINTVER
 70
     6
  9
$DWGCODEPAGE
  3
ANSI_1252
  9
$INSBASE
 10
0.0
 20
0.0
 30
0.0
  9
$EXTMIN
 10
1.000000000000000E+20
 20
1.000000000000000E+20
 30
1.000000000000000E+20
  9
$EXTMAX
 10
-1.000000000000000E+20
 20
-1.000000000000000E+20
 30
-1.000000000000000E+20
  9
$LIMMIN
 10
0.0
 20
0.0
  9
$LIMMAX
 10
12.0
 20
9.0
  9
$ORTHOMODE
 70
     0
  9
$REGENMODE
 70
     1
  9
$FILLMODE
 70
     1
  9
$QTEXTMODE
 70
     0
  9
$MIRRTEXT
 70
     1
  9
$LTSCALE
 40
1.0
  9
$ATTMODE
 70
     1
  9
$TEXTSIZE
 40
0.2
  9
$TRACEWID
 40
0.05
  9
$TEXTSTYLE
  7
Standard
  9
$CLAYER
  8
0
  9
$CELTYPE
  6
ByLayer
  9
$CECOLOR
 62
   256
  9
$CELTSCALE
 40
1.0
  9
$DISPSILH
 70
     0
  9
$DIMSCALE
 40
1.0
  9
$DIMASZ
 40
0.18
  9
$DIMEXO
 40
0.0625
  9
$DIMDLI
 40
0.38
  9
$DIMRND
 40
0.0
  9
$DIMDLE
 40
0.0
  9
$DIMEXE
 40
0.18
  9
$DIMTP
 40
0.0
  9
$DIMTM
 40
0.0
  9
$DIMTXT
 40
0.18
  9
$DIMCEN
 40
0.09
  9
$DIMTSZ
 40
0.0
  9
$DIMTOL
 70
     0
  9
$DIMLIM
 70
     0
  9
$DIMTIH
 70
     1
  9
$DIMTOH
 70
     1
  9
$DIMSE1
 70
     0
  9
$DIMSE2
 70
     0
  9
$DIMTAD
 70
     0
  9
$DIMZIN
 70
     0
  9
$DIMBLK
  1

  9
$DIMASO
 70
     1
  9
$DIMSHO
 70
     1
  9
$DIMPOST
  1

  9
$DIMAPOST
  1

  9
$DIMALT
 70
     0
  9
$DIMALTD
 70
     2
  9
$DIMALTF
 40
25.4
  9
$DIMLFAC
 40
1.0
  9
$DIMTOFL
 70
     0
  9
$DIMTVP
 40
0.0
  9
$DIMTIX
 70
     0
  9
$DIMSOXD
 70
     0
  9
$DIMSAH
 70
     0
  9
$DIMBLK1
  1

  9
$DIMBLK2
  1

  9
$DIMSTYLE
  2
Standard
  9
$DIMCLRD
 70
     0
  9
$DIMCLRE
 70
     0
  9
$DIMCLRT
 70
     0
  9
$DIMTFAC
 40
1.0
  9
$DIMGAP
 40
0.09
  9
$DIMJUST
 70
     0
  9
$DIMSD1
 70
     0
  9
$DIMSD2
 70
     0
  9
$DIMTOLJ
 70
     1
  9
$DIMTZIN
 70
     0
  9
$DIMALTZ
 70
     0
  9
$DIMALTTZ
 70
     0
  9
$DIMUPT
 70
     0
  9
$DIMDEC
 70
     4
  9
$DIMTDEC
 70
     4
  9
$DIMALTU
 70
     2
  9
$DIMALTTD
 70
     2
  9
$DIMTXSTY
  7
Standard
  9
$DIMAUNIT
 70
     0
  9
$DIMADEC
 70
     0
  9
$DIMALTRND
 40
0.0
  9
$DIMAZIN
 70
     0
  9
$DIMDSEP
 70
    46
  9
$DIMATFIT
 70
     3
  9
$DIMFRAC
 70
     0
  9
$DIMLDRBLK
  1

  9
$DIMLUNIT
 70
     2
  9
$DIMLWD
 70
    -2
  9
$DIMLWE
 70
    -2
  9
$DIMTMOVE
 70
     0
  9
$DIMFXL
 40
1.0
  9
$DIMFXLON
 70
     0
  9
$DIMJOGANG
 40
0.7853981633974483
  9
$DIMTFILL
 70
     0
  9
$DIMTFILLCLR
 70
     0
  9
$DIMARCSYM
 70
     0
  9
$DIMLTYPE
  6

  9
$DIMLTEX1
  6

  9
$DIMLTEX2
  6

  9
$DIMTXTDIRECTION
 70
     0
  9
$LUNITS
 70
     2
  9
$LUPREC
 70
     4
  9
$SKETCHINC
 40
0.1
  9
$FILLETRAD
 40
0.5
  9
$AUNITS
 70
     0
  9
$AUPREC
 70
     0
  9
$MENU
  1
.
  9
$ELEVATION
 40
0.0
  9
$PELEVATION
 40
0.0
  9
$THICKNESS
 40
0.0
  9
$LIMCHECK
 70
     0
  9
$CHAMFERA
 40
0.5
  9
$CHAMFERB
 40
0.5
  9
$CHAMFERC
 40
1.0
  9
$CHAMFERD
 40
0.0
  9
$SKPOLY
 70
     0
  9
$TDCREATE
 40
2457392.547750452
  9
$TDUCREATE
 40
2457392.547750452
  9
$TDUPDATE
 40
2457392.547750498
  9
$TDUUPDATE
 40
2457392.547750498
  9
$TDINDWG
 40
0.0000000116
  9
$TDUSRTIMER
 40
0.0000000116
  9
$USRTIMER
 70
     1
  9
$ANGBASE
 50
0.0
  9
$ANGDIR
 70
     0
  9
$PDMODE
 70
     0
  9
$PDSIZE
 40
0.0
  9
$PLINEWID
 40
0.0
  9
$SPLFRAME
 70
     0
  9
$SPLINETYPE
 70
     6
  9
$SPLINESEGS
 70
     8
  9
$HANDSEED
  5
73
  9
$SURFTAB1
 70
     6
  9
$SURFTAB2
 70
     6
  9
$SURFTYPE
 70
     6
  9
$SURFU
 70
     6
  9
$SURFV
 70
     6
  9
$UCSBASE
  2

  9
$UCSNAME
  2

  9
$UCSORG
 10
0.0
 20
0.0
 30
0.0
  9
$UCSXDIR
 10
1.0
 20
0.0
 30
0.0
  9
$UCSYDIR
 10
0.0
 20
1.0
 30
0.0
  9
$UCSORTHOREF
  2

  9
$UCSORTHOVIEW
 70
     0
  9
$UCSORGTOP
 10
0.0
 20
0.0
 30
0.0
  9
$UCSORGBOTTOM
 10
0.0
 20
0.0
 30
0.0
  9
$UCSORGLEFT
 10
0.0
 20
0.0
 30
0.0
  9
$UCSORGRIGHT
 10
0.0
 20
0.0
 30
0.0
  9
$UCSORGFRONT
 10
0.0
 20
0.0
 30
0.0
  9
$UCSORGBACK
 10
0.0
 20
0.0
 30
0.0
  9
$PUCSBASE
  2

  9
$PUCSNAME
  2

  9
$PUCSORG
 10
0.0
 20
0.0
 30
0.0
  9
$PUCSXDIR
 10
1.0
 20
0.0
 30
0.0
  9
$PUCSYDIR
 10
0.0
 20
1.0
 30
0.0
  9
$PUCSORTHOREF
  2

  9
$PUCSORTHOVIEW
 70
     0
  9
$PUCSORGTOP
 10
0.0
 20
0.0
 30
0.0
  9
$PUCSORGBOTTOM
 10
0.0
 20
0.0
 30
0.0
  9
$PUCSORGLEFT
 10
0.0
 20
0.0
 30
0.0
  9
$PUCSORGRIGHT
 10
0.0
 20
0.0
 30
0.0
  9
$PUCSORGFRONT
 10
0.0
 20
0.0
 30
0.0
  9
$PUCSORGBACK
 10
0.0
 20
0.0
 30
0.0
  9
$USERI1
 70
     0
  9
$USERI2
 70
     0
  9
$USERI3
 70
     0
  9
$USERI4
 70
     0
  9
$USERI5
 70
     0
  9
$USERR1
 40
0.0
  9
$USERR2
 40
0.0
  9
$USERR3
 40
0.0
  9
$USERR4
 40
0.0
  9
$USERR5
 40
0.0
  9
$WORLDVIEW
 70
     1
  9
$SHADEDGE
 70
     3
  9
$SHADEDIF
 70
    70
  9
$TILEMODE
 70
     1
  9
$MAXACTVP
 70
    64
  9
$PINSBASE
 10
0.0
 20
0.0
 30
0.0
  9
$PLIMCHECK
 70
     0
  9
$PEXTMIN
 10
1.000000000000000E+20
 20
1.000000000000000E+20
 30
1.000000000000000E+20
  9
$PEXTMAX
 10
-1.000000000000000E+20
 20
-1.000000000000000E+20
 30
-1.000000000000000E+20
  9
$PLIMMIN
 10
0.0
 20
0.0
  9
$PLIMMAX
 10
12.0
 20
9.0
  9
$UNITMODE
 70
     0
  9
$VISRETAIN
 70
     1
  9
$PLINEGEN
 70
     0
  9
$PSLTSCALE
 70
     1
  9
$TREEDEPTH
 70
  3020
  9
$CMLSTYLE
  2
Standard
  9
$CMLJUST
 70
     0
  9
$CMLSCALE
 40
1.0
  9
$PROXYGRAPHICS
 70
     1
  9
$MEASUREMENT
 70
     0
  9
$CELWEIGHT
370
    -1
  9
$ENDCAPS
280
     0
  9
$JOINSTYLE
280
     0
  9
$LWDISPLAY
290
     1
  9
$INSUNITS
 70
     1
  9
$HYPERLINKBASE
  1

  9
$STYLESHEET
  1

  9
$XEDIT
290
     1
  9
$CEPSNTYPE
380
     0
  9
$PSTYLEMODE
290
     1
  9
$FINGERPRINTGUID
  2
{52D2A96C-BBAA-4369-AA3B-6BC2437A5ECE}
  9
$VERSIONGUID
  2
{FAEB1C32-E019-11D5-929B-00C0DF256EC4}
  9
$EXTNAMES
290
     1
  9
$PSVPSCALE
 40
0.0
  9
$OLESTARTUP
290
     0
  9
$SORTENTS
280
   127
  9
$INDEXCTL
280
     0
  9
$HIDETEXT
280
     1
  9
$XCLIPFRAME
280
     2
  9
$HALOGAP
280
     0
  9
$OBSCOLOR
 70
   257
  9
$OBSLTYPE
280
     0
  9
$INTERSECTIONDISPLAY
280
     0
  9
$INTERSECTIONCOLOR
 70
   257
  9
$DIMASSOC
280
     2
  9
$PROJECTNAME
  1

  9
$CAMERADISPLAY
290
     0
  9
$LENSLENGTH
 40
50.0
  9
$CAMERAHEIGHT
 40
0.0
  9
$STEPSPERSEC
 40
2.0
  9
$STEPSIZE
 40
6.0
  9
$3DDWFPREC
 40
2.0
  9
$PSOLWIDTH
 40
0.25
  9
$PSOLHEIGHT
 40
4.0
  9
$LOFTANG1
 40
1.570796326794897
  9
$LOFTANG2
 40
1.570796326794897
  9
$LOFTMAG1
 40
0.0
  9
$LOFTMAG2
 40
0.0
  9
$LOFTPARAM
 70
     7
  9
$LOFTNORMALS
280
     1
  9
$LATITUDE
 40
37.795
  9
$LONGITUDE
 40
-122.394
  9
$NORTHDIRECTION
 40
0.0
  9
$TIMEZONE
 70
 -8000
  9
$LIGHTGLYPHDISPLAY
280
     1
  9
$TILEMODELIGHTSYNCH
280
     1
  9
$CMATERIAL
347
3C
  9
$SOLIDHIST
280
     1
  9
$SHOWHIST
280
     1
  9
$DWFFRAME
280
     2
  9
$DGNFRAME
280
     2
  9
$REALWORLDSCALE
290
     1
  9
$INTERFERECOLOR
 62
   256
  9
$CSHADOW
280
     0
  9
$SHADOWPLANELOCATION
 40
0.0
  0
ENDSEC
  0
SECTION
  2
CLASSES
  0
CLASS
  1
ACDBDICTIONARYWDFLT
  2
AcDbDictionaryWithDefault
  3
ObjectDBX Classes
 90
        0
 91
        4
280
     0
281
     0
  0
CLASS
  1
VISUALSTYLE
  2
AcDbVisualStyle
  3
ObjectDBX Classes
 90
     4095
 91
        4
280
     0
281
     0
  0
CLASS
  1
MATERIAL
  2
AcDbMaterial
  3
ObjectDBX Classes
 90
     1153
 91
        4
280
     0
281
     0
  0
CLASS
  1
SUN
  2
AcDbSun
  3
SCENEOE
 90
     1024
 91
        4
280
     0
281
     0
  0
ENDSEC
  0
SECTION
  2
TABLES
  0
TABLE
  2
VPORT
  5
8
330
0
100
AcDbSymbolTable
 70
     1
  0
VPORT
  5
29
330
8
100
AcDbSymbolTableRecord
100
AcDbViewportTableRecord
  2
*Active
 70
     0
 10
0.0
 20
0.0
 11
1.0
 21
1.0
 12
0.0
 22
0.0
 13
0.0
 23
0.0
 14
0.5
 24
0.5
 15
0.5
 25
0.5
 16
0.0
 26
0.0
 36
1.0
 17
300.0004582583334
 27
-300.0004582583334
 37
0.0
 40
600.0009165166667
 41
1.0
 42
50.0
 43
0.0
 44
0.0
 50
0.0
 51
0.0
 71
     0
 72
   100
 73
     1
 74
     3
 75
     0
 76
     0
 77
     0
 78
     0
281
     0
 65
     1
110
0.0
120
0.0
130
0.0
111
1.0
121
0.0
131
0.0
112
0.0
122
1.0
132
0.0
 79
     0
146
0.0
 60
     3
 61
     5
292
     1
282
     1
141
0.0
142
0.0
 63
   250
361
3F
  0
ENDTAB
  0
TABLE
  2
LTYPE
  5
5
330
0
100
AcDbSymbolTable
 70
     1
  0
LTYPE
  5
14
330
5
100
AcDbSymbolTableRecord
100
AcDbLinetypeTableRecord
  2
ByBlock
 70
     0
  3

 72
    65
 73
     0
 40
0.0
  0
LTYPE
  5
15
330
5
100
AcDbSymbolTableRecord
100
AcDbLinetypeTableRecord
  2
ByLayer
 70
     0
  3

 72
    65
 73
     0
 40
0.0
  0
LTYPE
  5
16
330
5
100
AcDbSymbolTableRecord
100
AcDbLinetypeTableRecord
  2
Continuous
 70
     0
  3
Solid line
 72
    65
 73
     0
 40
0.0
  0
ENDTAB
  0
TABLE
  2
LAYER
  5
2
330
0
100
AcDbSymbolTable
 70
     2
  0
LAYER
  5
10
330
2
100
AcDbSymbolTableRecord
100
AcDbLayerTableRecord
  2
0
 70
     0
 62
     7
  6
Continuous
370
    -3
390
F
347
3E
  0
LAYER
  5
40
330
2
100
AcDbSymbolTableRecord
100
AcDbLayerTableRecord
  2
Layer 1
 70
     0
 62
     7
  6
Continuous
370
    -3
390
F
347
3E
  0
ENDTAB
  0
TABLE
  2
STYLE
  5
3
330
0
100
AcDbSymbolTable
 70
     1
  0
STYLE
  5
11
330
3
100
AcDbSymbolTableRecord
100
AcDbTextStyleTableRecord
  2
Standard
 70
     0
 40
0.0
 41
1.0
 50
0.0
 71
     0
 42
0.2
  3
txt
  4

  0
ENDTAB
  0
TABLE
  2
VIEW
  5
6
330
0
100
AcDbSymbolTable
 70
     0
  0
ENDTAB
  0
TABLE
  2
UCS
  5
7
330
0
100
AcDbSymbolTable
 70
     0
  0
ENDTAB
  0
TABLE
  2
APPID
  5
9
330
0
100
AcDbSymbolTable
 70
     1
  0
APPID
  5
12
330
9
100
AcDbSymbolTableRecord
100
AcDbRegAppTableRecord
  2
ACAD
 70
     0
  0
ENDTAB
  0
TABLE
  2
DIMSTYLE
  5
A
330
0
100
AcDbSymbolTable
 70
     1
100
AcDbDimStyleTable
  0
DIMSTYLE
105
27
330
A
100
AcDbSymbolTableRecord
100
AcDbDimStyleTableRecord
  2
Standard
 70
     0
178
     0
340
11
  0
ENDTAB
  0
TABLE
  2
BLOCK_RECORD
  5
1
330
0
100
AcDbSymbolTable
 70
     4
  0
BLOCK_RECORD
  5
1F
330
1
100
AcDbSymbolTableRecord
100
AcDbBlockTableRecord
  2
*Model_Space
340
22
 70
     0
280
     1
281
     0
  0
BLOCK_RECORD
  5
1B
330
1
100
AcDbSymbolTableRecord
100
AcDbBlockTableRecord
  2
*Paper_Space
340
1E
 70
     0
280
     1
281
     0
  0
BLOCK_RECORD
  5
23
330
1
100
AcDbSymbolTableRecord
100
AcDbBlockTableRecord
  2
*Paper_Space0
340
26
 70
     0
280
     1
281
     0
  0
BLOCK_RECORD
  5
41
330
1
100
AcDbSymbolTableRecord
100
AcDbBlockTableRecord
  2
block 2
340
0
102
{BLKREFS
331
42
102
}
 70
     0
280
     1
281
     0
  0
BLOCK_RECORD
  5
45
330
1
100
AcDbSymbolTableRecord
100
AcDbBlockTableRecord
  2
block 3
340
0
102
{BLKREFS
331
46
102
}
 70
     0
280
     1
281
     0
  0
BLOCK_RECORD
  5
5F
330
1
100
AcDbSymbolTableRecord
100
AcDbBlockTableRecord
  2
block 4
340
0
102
{BLKREFS
331
60
102
}
 70
     0
280
     1
281
     0
  0
ENDTAB
  0
ENDSEC
  0
SECTION
  2
BLOCKS
  0
BLOCK
  5
20
330
1F
100
AcDbEntity
  8
0
100
AcDbBlockBegin
  2
*Model_Space
 70
     0
 10
0.0
 20
0.0
 30
0.0
  3
*Model_Space
  1

  0
ENDBLK
  5
21
330
1F
100
AcDbEntity
  8
0
100
AcDbBlockEnd
  0
BLOCK
  5
1C
330
1B
100
AcDbEntity
 67
     1
  8
0
100
AcDbBlockBegin
  2
*Paper_Space
 70
     0
 10
0.0
 20
0.0
 30
0.0
  3
*Paper_Space
  1

  0
ENDBLK
  5
1D
330
1B
100
AcDbEntity
 67
     1
  8
0
100
AcDbBlockEnd
  0
BLOCK
  5
24
330
23
100
AcDbEntity
  8
0
100
AcDbBlockBegin
  2
*Paper_Space0
 70
     0
 10
0.0
 20
0.0
 30
0.0
  3
*Paper_Space0
  1

  0
ENDBLK
  5
25
330
23
100
AcDbEntity
  8
0
100
AcDbBlockEnd
  0
BLOCK
  5
43
330
41
100
AcDbEntity
  8
0
100
AcDbBlockBegin
  2
block 2
 70
     0
 10
0.0
 20
0.0
 30
0.0
  3
block 2
  1

  0
INSERT
  5
46
330
41
100
AcDbEntity
  8
Layer 1
100
AcDbBlockReference
  2
block 3
 10
0.0
 20
0.0
 30
0.0
  0
INSERT
  5
60
330
41
100
AcDbEntity
  8
Layer 1
100
AcDbBlockReference
  2
block 4
 10
0.0
 20
0.0
 30
0.0
  0
ENDBLK
  5
44
330
41
100
AcDbEntity
  8
0
100
AcDbBlockEnd
  0
BLOCK
  5
47
330
45
100
AcDbEntity
  8
0
100
AcDbBlockBegin
  2
block 3
 70
     0
 10
0.0
 20
0.0
 30
0.0
  3
block 3
  1

  0
POLYLINE
  5
49
330
45
100
AcDbEntity
  8
Layer 1
 62
   240
420
 15539236
370
     9
100
AcDb2dPolyline
 66
     1
 10
0.0
 20
0.0
 30
0.0
  0
VERTEX
  5
4A
330
49
100
AcDbEntity
  8
Layer 1
 62
   240
420
 15539236
370
     9
100
AcDbVertex
100
AcDb2dVertex
 10
296.7939696317503
 20
-103.9403124568258
 30
0.0
  0
VERTEX
  5
4B
330
49
100
AcDbEntity
  8
Layer 1
 62
   240
420
 15539236
370
     9
100
AcDbVertex
100
AcDb2dVertex
 10
305.418841852912
 20
-138.4405585598951
 30
0.0
  0
SEQEND
  5
4C
330
49
100
AcDbEntity
  8
Layer 1
 62
   240
420
 15539236
370
     9
  0
POLYLINE
  5
4D
330
45
100
AcDbEntity
  8
Layer 1
 62
   240
420
 15539236
370
     9
100
AcDb2dPolyline
 66
     1
 10
0.0
 20
0.0
 30
0.0
  0
VERTEX
  5
4E
330
4D
100
AcDbEntity
  8
Layer 1
 62
   240
420
 15539236
370
     9
100
AcDbVertex
100
AcDb2dVertex
 10
570.4669476693509
 20
-88.44030577809292
 30
0.0
  0
VERTEX
  5
4F
330
4D
100
AcDbEntity
  8
Layer 1
 62
   240
420
 15539236
370
     9
100
AcDbVertex
100
AcDb2dVertex
 10
520.8471424646144
 20
-88.44031077929854
 30
0.0
  0
SEQEND
  5
50
330
4D
100
AcDbEntity
  8
Layer 1
 62
   240
420
 15539236
370
     9
  0
POLYLINE
  5
51
330
45
100
AcDbEntity
  8
Layer 1
 62
   240
420
 15539236
370
     9
100
AcDb2dPolyline
 66
     1
 10
0.0
 20
0.0
 30
0.0
  0
VERTEX
  5
52
330
51
100
AcDbEntity
  8
Layer 1
 62
   240
420
 15539236
370
     9
100
AcDbVertex
100
AcDb2dVertex
 10
575.4669519193886
 20
-145.0780442924039
 30
0.0
  0
VERTEX
  5
53
330
51
100
AcDbEntity
  8
Layer 1
 62
   240
420
 15539236
370
     9
100
AcDbVertex
100
AcDb2dVertex
 10
575.4669635871251
 20
-113.3885270641901
 30
0.0
  0
SEQEND
  5
54
330
51
100
AcDbEntity
  8
Layer 1
 62
   240
420
 15539236
370
     9
  0
SPLINE
  5
55
330
45
100
AcDbEntity
  8
Layer 1
 62
   240
420
 15539236
370
     9
100
AcDbSpline
210
0.0
220
0.0
230
1.0
 70
     8
 71
     3
 72
    11
 73
     7
 74
     0
 42
0.0000000001
 43
0.0000000001
 12
1.0
 22
0.0
 32
0.0
 13
1.0
 23
0.0
 33
0.0
 40
0.0
 40
0.0
 40
0.0
 40
0.0
 40
1.0
 40
1.0
 40
1.0
 40
2.0
 40
2.0
 40
2.0
 40
2.0
 10
498.4669631555265
 20
-506.4401699660616
 30
0.0
 10
498.4669631555265
 20
-506.4401699660616
 30
0.0
 10
498.4669611143087
 20
-138.4406927218666
 30
0.0
 10
498.4669614939995
 20
-138.4404237057857
 30
0.0
 10
498.4669614939995
 20
-138.4404237057857
 30
0.0
 10
305.4185789246427
 20
-138.4406328328159
 30
0.0
 10
305.4185789246427
 20
-138.4406328328159
 30
0.0
  0
SPLINE
  5
56
330
45
100
AcDbEntity
  8
Layer 1
 62
   240
420
 15539236
370
     9
100
AcDbSpline
210
0.0
220
0.0
230
1.0
 70
     8
 71
     3
 72
   347
 73
   343
 74
     0
 42
0.0000000001
 43
0.0000000001
 12
1.0
 22
0.0
 32
0.0
 13
1.0
 23
0.0
 33
0.0
 40
0.0
 40
0.0
 40
0.0
 40
0.0
 40
1.0
 40
1.0
 40
1.0
 40
2.0
 40
2.0
 40
2.0
 40
3.0
 40
3.0
 40
3.0
 40
4.0
 40
4.0
 40
4.0
 40
5.0
 40
5.0
 40
5.0
 40
6.0
 40
6.0
 40
6.0
 40
7.0
 40
7.0
 40
7.0
 40
8.0
 40
8.0
 40
8.0
 40
9.0
 40
9.0
 40
9.0
 40
10.0
 40
10.0
 40
10.0
 40
11.0
 40
11.0
 40
11.0
 40
12.0
 40
12.0
 40
12.0
 40
13.0
 40
13.0
 40
13.0
 40
14.0
 40
14.0
 40
14.0
 40
15.0
 40
15.0
 40
15.0
 40
16.0
 40
16.0
 40
16.0
 40
17.0
 40
17.0
 40
17.0
 40
18.0
 40
18.0
 40
18.0
 40
19.0
 40
19.0
 40
19.0
 40
20.0
 40
20.0
 40
20.0
 40
21.0
 40
21.0
 40
21.0
 40
22.0
 40
22.0
 40
22.0
 40
23.0
 40
23.0
 40
23.0
 40
24.0
 40
24.0
 40
24.0
 40
25.0
 40
25.0
 40
25.0
 40
26.0
 40
26.0
 40
26.0
 40
27.0
 40
27.0
 40
27.0
 40
28.0
 40
28.0
 40
28.0
 40
29.0
 40
29.0
 40
29.0
 40
30.0
 40
30.0
 40
30.0
 40
31.0
 40
31.0
 40
31.0
 40
32.0
 40
32.0
 40
32.0
 40
33.0
 40
33.0
 40
33.0
 40
34.0
 40
34.0
 40
34.0
 40
35.0
 40
35.0
 40
35.0
 40
36.0
 40
36.0
 40
36.0
 40
37.0
 40
37.0
 40
37.0
 40
38.0
 40
38.0
 40
38.0
 40
39.0
 40
39.0
 40
39.0
 40
40.0
 40
40.0
 40
40.0
 40
41.0
 40
41.0
 40
41.0
 40
42.0
 40
42.0
 40
42.0
 40
43.0
 40
43.0
 40
43.0
 40
44.0
 40
44.0
 40
44.0
 40
45.0
 40
45.0
 40
45.0
 40
46.0
 40
46.0
 40
46.0
 40
47.0
 40
47.0
 40
47.0
 40
48.0
 40
48.0
 40
48.0
 40
49.0
 40
49.0
 40
49.0
 40
50.0
 40
50.0
 40
50.0
 40
51.0
 40
51.0
 40
51.0
 40
52.0
 40
52.0
 40
52.0
 40
53.0
 40
53.0
 40
53.0
 40
54.0
 40
54.0
 40
54.0
 40
55.0
 40
55.0
 40
55.0
 40
56.0
 40
56.0
 40
56.0
 40
57.0
 40
57.0
 40
57.0
 40
58.0
 40
58.0
 40
58.0
 40
59.0
 40
59.0
 40
59.0
 40
60.0
 40
60.0
 40
60.0
 40
61.0
 40
61.0
 40
61.0
 40
62.0
 40
62.0
 40
62.0
 40
63.0
 40
63.0
 40
63.0
 40
64.0
 40
64.0
 40
64.0
 40
65.0
 40
65.0
 40
65.0
 40
66.0
 40
66.0
 40
66.0
 40
67.0
 40
67.0
 40
67.0
 40
68.0
 40
68.0
 40
68.0
 40
69.0
 40
69.0
 40
69.0
 40
70.0
 40
70.0
 40
70.0
 40
71.0
 40
71.0
 40
71.0
 40
72.0
 40
72.0
 40
72.0
 40
73.0
 40
73.0
 40
73.0
 40
74.0
 40
74.0
 40
74.0
 40
75.0
 40
75.0
 40
75.0
 40
76.0
 40
76.0
 40
76.0
 40
77.0
 40
77.0
 40
77.0
 40
78.0
 40
78.0
 40
78.0
 40
79.0
 40
79.0
 40
79.0
 40
80.0
 40
80.0
 40
80.0
 40
81.0
 40
81.0
 40
81.0
 40
82.0
 40
82.0
 40
82.0
 40
83.0
 40
83.0
 40
83.0
 40
84.0
 40
84.0
 40
84.0
 40
85.0
 40
85.0
 40
85.0
 40
86.0
 40
86.0
 40
86.0
 40
87.0
 40
87.0
 40
87.0
 40
88.0
 40
88.0
 40
88.0
 40
89.0
 40
89.0
 40
89.0
 40
90.0
 40
90.0
 40
90.0
 40
91.0
 40
91.0
 40
91.0
 40
92.0
 40
92.0
 40
92.0
 40
93.0
 40
93.0
 40
93.0
 40
94.0
 40
94.0
 40
94.0
 40
95.0
 40
95.0
 40
95.0
 40
96.0
 40
96.0
 40
96.0
 40
97.0
 40
97.0
 40
97.0
 40
98.0
 40
98.0
 40
98.0
 40
99.0
 40
99.0
 40
99.0
 40
100.0
 40
100.0
 40
100.0
 40
101.0
 40
101.0
 40
101.0
 40
102.0
 40
102.0
 40
102.0
 40
103.0
 40
103.0
 40
103.0
 40
104.0
 40
104.0
 40
104.0
 40
105.0
 40
105.0
 40
105.0
 40
106.0
 40
106.0
 40
106.0
 40
107.0
 40
107.0
 40
107.0
 40
108.0
 40
108.0
 40
108.0
 40
109.0
 40
109.0
 40
109.0
 40
110.0
 40
110.0
 40
110.0
 40
111.0
 40
111.0
 40
111.0
 40
112.0
 40
112.0
 40
112.0
 40
113.0
 40
113.0
 40
113.0
 40
114.0
 40
114.0
 40
114.0
 40
114.0
 10
575.4669519193886
 20
-145.0780442924039
 30
0.0
 10
575.4669519192089
 20
-145.4406380372068
 30
0.0
 10
575.1681149646132
 20
-145.7319576715446
 30
0.0
 10
574.8056388642548
 20
-145.7227218479828
 30
0.0
 10
574.8056388642548
 20
-145.7227218479828
 30
0.0
 10
574.7699025120099
 20
-145.7218112923818
 30
0.0
 10
574.7699025120099
 20
-145.7218112923818
 30
0.0
 10
574.5440099998148
 20
-145.7160555932213
 30
0.0
 10
574.3489208138565
 20
-145.5856031996949
 30
0.0
 10
574.2258450973853
 20
-145.3960961466466
 30
0.0
 10
573.8935496767693
 20
-144.8844409825659
 30
0.0
 10
573.257792201193
 20
-144.5880646315135
 30
0.0
 10
572.5736151855278
 20
-144.7620131582207
 30
0.0
 10
572.0514364415259
 20
-144.894774448235
 30
0.0
 10
571.6330016953415
 20
-145.3236773119166
 30
0.0
 10
571.5097304848383
 20
-145.8481774639466
 30
0.0
 10
571.2779310740028
 20
-146.8344485139738
 30
0.0
 10
572.0199584317331
 20
-147.7120112432454
 30
0.0
 10
572.9669515474517
 20
-147.7120112437119
 30
0.0
 10
573.4920177159463
 20
-147.7120112439724
 30
0.0
 10
573.9540729761168
 20
-147.4422294746454
 30
0.0
 10
574.2220636955637
 20
-147.0337195680064
 30
0.0
 10
574.3486275288911
 20
-146.8407928135196
 30
0.0
 10
574.5504560763923
 20
-146.710719124139
 30
0.0
 10
574.7811919225278
 20
-146.7110444099671
 30
0.0
 10
574.7811919225278
 20
-146.7110444099671
 30
0.0
 10
574.8229720012461
 20
-146.7111033105151
 30
0.0
 10
574.8229720012461
 20
-146.7111033105151
 30
0.0
 10
575.1787777963459
 20
-146.7116049169421
 30
0.0
 10
575.4669496475032
 20
-147.0001833123268
 30
0.0
 10
575.4669496473261
 20
-147.3559894610064
 30
0.0
 10
575.4669496473261
 20
-147.3559894610064
 30
0.0
 10
575.4669524826155
 20
-184.19029853913
 30
0.0
 10
575.4669524826155
 20
-184.19029853913
 30
0.0
 10
575.4669524826155
 20
-184.19029853913
 30
0.0
 10
570.4669524838648
 20
-184.190298537109
 30
0.0
 10
570.4669524838648
 20
-184.190298537109
 30
0.0
 10
570.4669524838648
 20
-184.190298537109
 30
0.0
 10
570.4669512029385
 20
-191.9402670988248
 30
0.0
 10
570.4669512029385
 20
-191.9402670988248
 30
0.0
 10
570.46695120266
 20
-192.3544938557234
 30
0.0
 10
570.1311441722985
 20
-192.6902857581834
 30
0.0
 10
569.7169174158197
 20
-192.6902670973719
 30
0.0
 10
569.7169174158197
 20
-192.6902670973719
 30
0.0
 10
565.7925461695186
 20
-192.6900903054505
 30
0.0
 10
565.7925461695186
 20
-192.6900903054505
 30
0.0
 10
565.4847466569161
 20
-192.6900764391623
 30
0.0
 10
565.2089431196885
 20
-192.5014599921446
 30
0.0
 10
565.0975865245834
 20
-192.2145100855831
 30
0.0
 10
564.2995508364447
 20
-190.1580870606717
 30
0.0
 10
562.2961923906638
 20
-188.690301457272
 30
0.0
 10
559.9666593657521
 20
-188.6903014552439
 30
0.0
 10
559.9666593657521
 20
-188.6903014552439
 30
0.0
 10
557.3669864335966
 20
-188.6903014531028
 30
0.0
 10
557.3669864335966
 20
-188.6903014531028
 30
0.0
 10
556.814701683824
 20
-188.6903014526206
 30
0.0
 10
556.3669864333494
 20
-189.1380167024095
 30
0.0
 10
556.3669864329747
 20
-189.6903014521785
 30
0.0
 10
556.3669864329747
 20
-189.6903014521785
 30
0.0
 10
556.3669864269184
 20
-198.6903014493637
 30
0.0
 10
556.3669864269184
 20
-198.6903014493637
 30
0.0
 10
556.3669864265411
 20
-199.2425861991995
 30
0.0
 10
556.814701676524
 20
-199.6903014496156
 30
0.0
 10
557.3669864263608
 20
-199.6903014497863
 30
0.0
 10
557.3669864263608
 20
-199.6903014497863
 30
0.0
 10
559.9666593598074
 20
-199.6903014507957
 30
0.0
 10
559.9666593598074
 20
-199.6903014507957
 30
0.0
 10
562.2958945202879
 20
-199.6903014515077
 30
0.0
 10
564.2990385104576
 20
-198.2228911812293
 30
0.0
 10
565.0972803423903
 20
-196.1668816270256
 30
0.0
 10
565.2086444388658
 20
-195.8800441835326
 30
0.0
 10
565.4843486806352
 20
-195.691499792832
 30
0.0
 10
565.7920460571113
 20
-195.6914257480526
 30
0.0
 10
565.7920460571113
 20
-195.6914257480526
 30
0.0
 10
569.7167707189247
 20
-195.6904812961494
 30
0.0
 10
569.7167707189247
 20
-195.6904812961494
 30
0.0
 10
570.1310547534368
 20
-195.690381602191
 30
0.0
 10
570.4669512001869
 20
-196.0261972282478
 30
0.0
 10
570.4669511999084
 20
-196.4404812747506
 30
0.0
 10
570.4669511999084
 20
-196.4404812747506
 30
0.0
 10
570.4669524757858
 20
-204.1902985321096
 30
0.0
 10
570.4669524757858
 20
-204.1902985321096
 30
0.0
 10
570.4669524757858
 20
-204.1902985321096
 30
0.0
 10
575.4669524745301
 20
-204.1902985341309
 30
0.0
 10
575.4669524745301
 20
-204.1902985341309
 30
0.0
 10
575.4669524745301
 20
-204.1902985341309
 30
0.0
 10
575.4669532470357
 20
-245.8280453453982
 30
0.0
 10
575.4669532470357
 20
-245.8280453453982
 30
0.0
 10
575.466953246856
 20
-246.1906390902011
 30
0.0
 10
575.1681162922641
 20
-246.4819587245389
 30
0.0
 10
574.8056401919018
 20
-246.4727229009771
 30
0.0
 10
574.8056401919018
 20
-246.4727229009771
 30
0.0
 10
574.7699038396584
 20
-246.4718123453764
 30
0.0
 10
574.7699038396584
 20
-246.4718123453764
 30
0.0
 10
574.5440113274618
 20
-246.4660566462156
 30
0.0
 10
574.3489221415009
 20
-246.3356042526892
 30
0.0
 10
574.2258464250363
 20
-246.1460971996409
 30
0.0
 10
573.8935510044164
 20
-245.6344420355602
 30
0.0
 10
573.2577935288413
 20
-245.3380656845075
 30
0.0
 10
572.5736165131749
 20
-245.512014211215
 30
0.0
 10
572.0514377691704
 20
-245.6447755012299
 30
0.0
 10
571.6330030229925
 20
-246.0736783649109
 30
0.0
 10
571.5097318124892
 20
-246.5981785169409
 30
0.0
 10
571.2779324016512
 20
-247.5844495669681
 30
0.0
 10
572.0199597593802
 20
-248.4620122962397
 30
0.0
 10
572.9669528751026
 20
-248.4620122967062
 30
0.0
 10
573.4920190435947
 20
-248.4620122969667
 30
0.0
 10
573.9540743037638
 20
-248.1922305276397
 30
0.0
 10
574.222065023207
 20
-247.7837206210007
 30
0.0
 10
574.3486288565344
 20
-247.5907938665136
 30
0.0
 10
574.5504574040407
 20
-247.4607201771333
 30
0.0
 10
574.7811932501749
 20
-247.461045462961
 30
0.0
 10
574.7811932501749
 20
-247.461045462961
 30
0.0
 10
574.8229733288931
 20
-247.4611043635094
 30
0.0
 10
574.8229733288931
 20
-247.4611043635094
 30
0.0
 10
575.1787791239968
 20
-247.461605969936
 30
0.0
 10
575.4669509751465
 20
-247.7501843653208
 30
0.0
 10
575.4669509749745
 20
-248.1059905140007
 30
0.0
 10
575.4669509749745
 20
-248.1059905140007
 30
0.0
 10
575.4669532235162
 20
-289.9402985524287
 30
0.0
 10
575.4669532235162
 20
-289.9402985524287
 30
0.0
 10
575.4669532235162
 20
-289.9402985524287
 30
0.0
 10
570.4669532247653
 20
-289.9402985504079
 30
0.0
 10
570.4669532247653
 20
-289.9402985504079
 30
0.0
 10
570.4669532247653
 20
-289.9402985504079
 30
0.0
 10
570.4669525296898
 20
-297.6902635795552
 30
0.0
 10
570.4669525296898
 20
-297.6902635795552
 30
0.0
 10
570.4669525294113
 20
-298.1044903364537
 30
0.0
 10
570.1311454990498
 20
-298.4402822389143
 30
0.0
 10
569.7169187425721
 20
-298.4402635781029
 30
0.0
 10
569.7169187425721
 20
-298.4402635781029
 30
0.0
 10
565.7925474962673
 20
-298.4400867861811
 30
0.0
 10
565.7925474962673
 20
-298.4400867861811
 30
0.0
 10
565.4847479836673
 20
-298.4400729198923
 30
0.0
 10
565.208944446437
 20
-298.2514564728743
 30
0.0
 10
565.0975878513322
 20
-297.9645065663137
 30
0.0
 10
564.2995521631959
 20
-295.9080835414026
 30
0.0
 10
562.2961937174113
 20
-294.4402979380023
 30
0.0
 10
559.9666606924995
 20
-294.4402979359739
 30
0.0
 10
559.9666606924995
 20
-294.4402979359739
 30
0.0
 10
557.3669877603439
 20
-294.4402979338332
 30
0.0
 10
557.3669877603439
 20
-294.4402979338332
 30
0.0
 10
556.8147030105753
 20
-294.4402979333506
 30
0.0
 10
556.3669877600969
 20
-294.8880131831398
 30
0.0
 10
556.3669877597234
 20
-295.4402979329085
 30
0.0
 10
556.3669877597234
 20
-295.4402979329085
 30
0.0
 10
556.366987753662
 20
-304.4402979300937
 30
0.0
 10
556.366987753662
 20
-304.4402979300937
 30
0.0
 10
556.3669877532923
 20
-304.9925826799291
 30
0.0
 10
556.8147030032727
 20
-305.4402979303446
 30
0.0
 10
557.3669877531082
 20
-305.4402979305166
 30
0.0
 10
557.3669877531082
 20
-305.4402979305166
 30
0.0
 10
559.966660686551
 20
-305.4402979315254
 30
0.0
 10
559.966660686551
 20
-305.4402979315254
 30
0.0
 10
562.2958958470391
 20
-305.4402979322383
 30
0.0
 10
564.299039837209
 20
-303.972887661959
 30
0.0
 10
565.0972816691377
 20
-301.9168781077558
 30
0.0
 10
565.2086457656184
 20
-301.6300406642626
 30
0.0
 10
565.4843500073865
 20
-301.4414962735617
 30
0.0
 10
565.7920473838626
 20
-301.4414222287829
 30
0.0
 10
565.7920473838626
 20
-301.4414222287829
 30
0.0
 10
569.7167720456761
 20
-301.4404777768798
 30
0.0
 10
569.7167720456761
 20
-301.4404777768798
 30
0.0
 10
570.1310560801842
 20
-301.4403780829219
 30
0.0
 10
570.4669525269381
 20
-301.7761937089781
 30
0.0
 10
570.4669525266597
 20
-302.1904777554809
 30
0.0
 10
570.4669525266597
 20
-302.1904777554809
 30
0.0
 10
570.4669532166863
 20
-309.9402985454085
 30
0.0
 10
570.4669532166863
 20
-309.9402985454085
 30
0.0
 10
570.4669532166863
 20
-309.9402985454085
 30
0.0
 10
575.4669532154333
 20
-309.9402985474279
 30
0.0
 10
575.4669532154333
 20
-309.9402985474279
 30
0.0
 10
575.4669532154333
 20
-309.9402985474279
 30
0.0
 10
575.466954573674
 20
-352.2030456492788
 30
0.0
 10
575.466954573674
 20
-352.2030456492788
 30
0.0
 10
575.4669545734905
 20
-352.5656393940816
 30
0.0
 10
575.1681176188947
 20
-352.8569590284198
 30
0.0
 10
574.8056415185401
 20
-352.8477232048587
 30
0.0
 10
574.8056415185401
 20
-352.8477232048587
 30
0.0
 10
574.7699051662967
 20
-352.846812649257
 30
0.0
 10
574.7699051662967
 20
-352.846812649257
 30
0.0
 10
574.5440126541015
 20
-352.8410569500962
 30
0.0
 10
574.3489234681393
 20
-352.7106045565704
 30
0.0
 10
574.2258477516707
 20
-352.5210975035218
 30
0.0
 10
573.8935523310547
 20
-352.0094423394411
 30
0.0
 10
573.2577948554796
 20
-351.7130659883883
 30
0.0
 10
572.5736178398132
 20
-351.8870145150962
 30
0.0
 10
572.0514390958087
 20
-352.0197758051105
 30
0.0
 10
571.6330043496243
 20
-352.4486786687921
 30
0.0
 10
571.5097331391199
 20
-352.9731788208224
 30
0.0
 10
571.2779337282857
 20
-353.959449870849
 30
0.0
 10
572.0199610860185
 20
-354.8370126001205
 30
0.0
 10
572.966954201741
 20
-354.8370126005871
 30
0.0
 10
573.492020370233
 20
-354.8370126008476
 30
0.0
 10
573.9540756304023
 20
-354.5672308315213
 30
0.0
 10
574.2220663498454
 20
-354.1587209248815
 30
0.0
 10
574.3486301831728
 20
-353.9657941703942
 30
0.0
 10
574.550458730679
 20
-353.8357204810142
 30
0.0
 10
574.7811945768105
 20
-353.8360457668426
 30
0.0
 10
574.7811945768105
 20
-353.8360457668426
 30
0.0
 10
574.8229746555314
 20
-353.8361046673899
 30
0.0
 10
574.8229746555314
 20
-353.8361046673899
 30
0.0
 10
575.1787804506351
 20
-353.8366062738169
 30
0.0
 10
575.4669523017848
 20
-354.1251846692014
 30
0.0
 10
575.4669523016128
 20
-354.4809908178813
 30
0.0
 10
575.4669523016128
 20
-354.4809908178813
 30
0.0
 10
575.4669545407703
 20
-395.6902978928561
 30
0.0
 10
575.4669545407703
 20
-395.6902978928561
 30
0.0
 10
575.4669545407703
 20
-395.6902978928561
 30
0.0
 10
570.4669545420195
 20
-395.6902978908366
 30
0.0
 10
570.4669545420195
 20
-395.6902978908366
 30
0.0
 10
570.4669545420195
 20
-395.6902978908366
 30
0.0
 10
570.4669552021802
 20
-403.4402664525525
 30
0.0
 10
570.4669552021802
 20
-403.4402664525525
 30
0.0
 10
570.4669552019004
 20
-403.8544932094511
 30
0.0
 10
570.1311481715363
 20
-404.1902851119117
 30
0.0
 10
569.7169214150574
 20
-404.1902664511002
 30
0.0
 10
569.7169214150574
 20
-404.1902664511002
 30
0.0
 10
565.7925501687564
 20
-404.1900896591787
 30
0.0
 10
565.7925501687564
 20
-404.1900896591787
 30
0.0
 10
565.4847506561526
 20
-404.1900757928897
 30
0.0
 10
565.2089471189262
 20
-404.0014593458716
 30
0.0
 10
565.0975905238213
 20
-403.714509439311
 30
0.0
 10
564.2995548356812
 20
-401.6580864144
 30
0.0
 10
562.2961963899043
 20
-400.1903008109996
 30
0.0
 10
559.9666633649887
 20
-400.1903008089712
 30
0.0
 10
559.9666633649887
 20
-400.1903008089712
 30
0.0
 10
557.3669904328369
 20
-400.1903008068305
 30
0.0
 10
557.3669904328369
 20
-400.1903008068305
 30
0.0
 10
556.8147056830644
 20
-400.1903008063479
 30
0.0
 10
556.366990432586
 20
-400.6380160561378
 30
0.0
 10
556.3669904322164
 20
-401.1903008059065
 30
0.0
 10
556.3669904322164
 20
-401.1903008059065
 30
0.0
 10
556.3669904261549
 20
-410.1903008030916
 30
0.0
 10
556.3669904261549
 20
-410.1903008030916
 30
0.0
 10
556.3669904257814
 20
-410.7425855529271
 30
0.0
 10
556.8147056757618
 20
-411.190300803342
 30
0.0
 10
557.3669904255974
 20
-411.1903008035139
 30
0.0
 10
557.3669904255974
 20
-411.1903008035139
 30
0.0
 10
559.9666633590439
 20
-411.1903008045227
 30
0.0
 10
559.9666633590439
 20
-411.1903008045227
 30
0.0
 10
562.2958985195321
 20
-411.1903008052356
 30
0.0
 10
564.2990425096942
 20
-409.7228905349563
 30
0.0
 10
565.0972843416268
 20
-407.6668809807532
 30
0.0
 10
565.2086484381075
 20
-407.38004353726
 30
0.0
 10
565.4843526798757
 20
-407.1914991465591
 30
0.0
 10
565.7920500563517
 20
-407.1914251017802
 30
0.0
 10
565.7920500563517
 20
-407.1914251017802
 30
0.0
 10
569.7167747181652
 20
-407.1904806498771
 30
0.0
 10
569.7167747181652
 20
-407.1904806498771
 30
0.0
 10
570.1310587526772
 20
-407.1903809559192
 30
0.0
 10
570.4669551994248
 20
-407.5261965819754
 30
0.0
 10
570.4669551991462
 20
-407.9404806284782
 30
0.0
 10
570.4669551991462
 20
-407.9404806284782
 30
0.0
 10
570.466954533938
 20
-415.6902978858373
 30
0.0
 10
570.466954533938
 20
-415.6902978858373
 30
0.0
 10
570.466954533938
 20
-415.6902978858373
 30
0.0
 10
575.4669545326886
 20
-415.6902978878567
 30
0.0
 10
575.4669545326886
 20
-415.6902978878567
 30
0.0
 10
575.4669545326886
 20
-415.6902978878567
 30
0.0
 10
575.466954554681
 20
-457.9530465877736
 30
0.0
 10
575.466954554681
 20
-457.9530465877736
 30
0.0
 10
575.4669545545013
 20
-458.3156403325746
 30
0.0
 10
575.1681175999056
 20
-458.6069599669153
 30
0.0
 10
574.8056414995498
 20
-458.5977241433567
 30
0.0
 10
574.8056414995498
 20
-458.5977241433567
 30
0.0
 10
574.7699051473062
 20
-458.5968135877525
 30
0.0
 10
574.7699051473062
 20
-458.5968135877525
 30
0.0
 10
574.544012635111
 20
-458.5910578885898
 30
0.0
 10
574.3489234491489
 20
-458.4606054950634
 30
0.0
 10
574.2258477326777
 20
-458.2710984420179
 30
0.0
 10
573.8935523120604
 20
-457.7594432779353
 30
0.0
 10
573.2577948364853
 20
-457.4630669268832
 30
0.0
 10
572.5736178208241
 20
-457.637015453593
 30
0.0
 10
572.0514390768183
 20
-457.769776743606
 30
0.0
 10
571.633004330634
 20
-458.1986796072857
 30
0.0
 10
571.5097331201307
 20
-458.7231797593172
 30
0.0
 10
571.2779337092952
 20
-459.7094508093458
 30
0.0
 10
572.0199610670255
 20
-460.587013538616
 30
0.0
 10
572.9669541827467
 20
-460.5870135390819
 30
0.0
 10
573.4920203512388
 20
-460.5870135393431
 30
0.0
 10
573.9540756114092
 20
-460.3172317700155
 30
0.0
 10
574.2220663308549
 20
-459.9087218633783
 30
0.0
 10
574.3486301641823
 20
-459.715795108889
 30
0.0
 10
574.5504587116847
 20
-459.5857214195097
 30
0.0
 10
574.7811945578163
 20
-459.5860467053368
 30
0.0
 10
574.7811945578163
 20
-459.5860467053368
 30
0.0
 10
574.8229746365384
 20
-459.5861056058835
 30
0.0
 10
574.8229746365384
 20
-459.5861056058835
 30
0.0
 10
575.1787804316409
 20
-459.586607212315
 30
0.0
 10
575.4669522827955
 20
-459.8751856076956
 30
0.0
 10
575.4669522826185
 20
-460.2309917563774
 30
0.0
 10
575.4669522826185
 20
-460.2309917563774
 30
0.0
 10
575.4669639456076
 20
-506.4402989656555
 30
0.0
 10
575.4669639456076
 20
-506.4402989656555
 30
0.0
 10
575.4669639456076
 20
-506.4402989656555
 30
0.0
 10
551.4406796970617
 20
-506.440298960801
 30
0.0
 10
551.4406796970617
 20
-506.440298960801
 30
0.0
 10
551.4406796970617
 20
-506.440298960801
 30
0.0
 10
551.4406796959399
 20
-511.4402989595525
 30
0.0
 10
551.4406796959399
 20
-511.4402989595525
 30
0.0
 10
551.4406796959399
 20
-511.4402989595525
 30
0.0
 10
538.1147119061702
 20
-511.4402988280542
 30
0.0
 10
538.1147119061702
 20
-511.4402988280542
 30
0.0
 10
537.7521181613726
 20
-511.4402988278919
 30
0.0
 10
537.4607985270216
 20
-511.1414618733108
 30
0.0
 10
537.470034350566
 20
-510.7789857729518
 30
0.0
 10
537.470034350566
 20
-510.7789857729518
 30
0.0
 10
537.4709449061663
 20
-510.7432494207083
 30
0.0
 10
537.4709449061663
 20
-510.7432494207083
 30
0.0
 10
537.4767006053188
 20
-510.5173569085093
 30
0.0
 10
537.6071529988311
 20
-510.3222677225439
 30
0.0
 10
537.7966600518758
 20
-510.1991920060682
 30
0.0
 10
538.3083152159411
 20
-509.8668965854279
 30
0.0
 10
538.604691566965
 20
-509.231139109838
 30
0.0
 10
538.4307430402276
 20
-508.5469620941793
 30
0.0
 10
538.2979817501896
 20
-508.0247833501851
 30
0.0
 10
537.8690788864888
 20
-507.606348604018
 30
0.0
 10
537.3445787344533
 20
-507.4830773935424
 30
0.0
 10
536.3583076844171
 20
-507.2512779827467
 30
0.0
 10
535.4807449551789
 20
-507.9933053405194
 30
0.0
 10
535.4807449547554
 20
-508.9402984562406
 30
0.0
 10
535.4807449545154
 20
-509.4653646247326
 30
0.0
 10
535.7505267238643
 20
-509.9274198848883
 30
0.0
 10
536.1590366305155
 20
-510.1954106043173
 30
0.0
 10
536.3519633850086
 20
-510.3219744376338
 30
0.0
 10
536.4820370743976
 20
-510.523802985133
 30
0.0
 10
536.4817117885789
 20
-510.7545388312678
 30
0.0
 10
536.4817117885789
 20
-510.7545388312678
 30
0.0
 10
536.4816528880315
 20
-510.7963189099861
 30
0.0
 10
536.4816528880315
 20
-510.7963189099861
 30
0.0
 10
536.4811512816206
 20
-511.1521247050885
 30
0.0
 10
536.1925728862515
 20
-511.4402965562535
 30
0.0
 10
535.8367667375703
 20
-511.440296556095
 30
0.0
 10
535.8367667375703
 20
-511.440296556095
 30
0.0
 10
522.4932483267843
 20
-511.4402989548956
 30
0.0
 10
522.4932483267843
 20
-511.4402989548956
 30
0.0
 10
522.4932483267843
 20
-511.4402989548956
 30
0.0
 10
522.493248327684
 20
-506.4402989561442
 30
0.0
 10
522.493248327684
 20
-506.4402989561442
 30
0.0
 10
522.493248327684
 20
-506.4402989561442
 30
0.0
 10
498.4669631555265
 20
-506.4401699660616
 30
0.0
 10
498.4669631555265
 20
-506.4401699660616
 30
0.0
  0
SPLINE
  5
57
330
45
100
AcDbEntity
  8
Layer 1
 62
   177
420
  3027090
370
     9
100
AcDbSpline
210
0.0
220
0.0
230
1.0
 70
    11
 71
     3
 72
    17
 73
    13
 74
     0
 42
0.0000000001
 43
0.0000000001
 12
1.0
 22
0.0
 32
0.0
 13
1.0
 23
0.0
 33
0.0
 40
0.0
 40
0.0
 40
0.0
 40
0.0
 40
1.0
 40
1.0
 40
1.0
 40
2.0
 40
2.0
 40
2.0
 40
3.0
 40
3.0
 40
3.0
 40
4.0
 40
4.0
 40
4.0
 40
4.0
 10
302.1671214986042
 20
-99.94038440821988
 30
0.0
 10
302.1671214983821
 20
-101.1830250949592
 30
0.0
 10
301.159762185502
 20
-102.1903844074764
 30
0.0
 10
299.9171214987595
 20
-102.1903844072534
 30
0.0
 10
298.6744808120206
 20
-102.1903844070301
 30
0.0
 10
297.6671214995037
 20
-101.1830250941509
 30
0.0
 10
297.6671214997263
 20
-99.94038440741167
 30
0.0
 10
297.6671214999516
 20
-98.69774372067207
 30
0.0
 10
298.6744808128284
 20
-97.69038440815515
 30
0.0
 10
299.9171214995674
 20
-97.69038440837846
 30
0.0
 10
301.1597621863093
 20
-97.69038440860146
 30
0.0
 10
302.1671214988262
 20
-98.69774372148028
 30
0.0
 10
302.1671214986042
 20
-99.94038440821988
 30
0.0
  0
POLYLINE
  5
58
330
45
100
AcDbEntity
  8
Layer 1
 62
   240
420
 15539236
370
     9
100
AcDb2dPolyline
 66
     1
 10
0.0
 20
0.0
 30
0.0
  0
VERTEX
  5
59
330
58
100
AcDbEntity
  8
Layer 1
 62
   240
420
 15539236
370
     9
100
AcDbVertex
100
AcDb2dVertex
 10
575.4669476636213
 20
-113.3885270641901
 30
0.0
  0
VERTEX
  5
5A
330
58
100
AcDbEntity
  8
Layer 1
 62
   240
420
 15539236
370
     9
100
AcDbVertex
100
AcDb2dVertex
 10
570.4669476648705
 20
-113.388527063292
 30
0.0
  0
VERTEX
  5
5B
330
58
100
AcDbEntity
  8
Layer 1
 62
   240
420
 15539236
370
     9
100
AcDbVertex
100
AcDb2dVertex
 10
570.4669476693585
 20
-88.38852706954195
 30
0.0
  0
SEQEND
  5
5C
330
58
100
AcDbEntity
  8
Layer 1
 62
   240
420
 15539236
370
     9
  0
SPLINE
  5
5D
330
45
100
AcDbEntity
  8
Layer 1
 62
   177
420
  3027090
370
     9
100
AcDbSpline
210
0.0
220
0.0
230
1.0
 70
    11
 71
     3
 72
    17
 73
    13
 74
     0
 42
0.0000000001
 43
0.0000000001
 12
1.0
 22
0.0
 32
0.0
 13
1.0
 23
0.0
 33
0.0
 40
0.0
 40
0.0
 40
0.0
 40
0.0
 40
1.0
 40
1.0
 40
1.0
 40
2.0
 40
2.0
 40
2.0
 40
3.0
 40
3.0
 40
3.0
 40
4.0
 40
4.0
 40
4.0
 40
4.0
 10
310.3599590560481
 20
-132.7124188101144
 30
0.0
 10
310.3599590558248
 20
-133.955059496854
 30
0.0
 10
309.3525997429485
 20
-134.9624188093706
 30
0.0
 10
308.1099590562064
 20
-134.9624188091476
 30
0.0
 10
306.8673183694681
 20
-134.9624188089243
 30
0.0
 10
305.8599590569511
 20
-133.9550594960458
 30
0.0
 10
305.8599590571732
 20
-132.7124188093062
 30
0.0
 10
305.8599590573991
 20
-131.4697781225666
 30
0.0
 10
306.8673183702753
 20
-130.4624188100493
 30
0.0
 10
308.1099590570136
 20
-130.4624188102727
 30
0.0
 10
309.3525997437571
 20
-130.4624188104956
 30
0.0
 10
310.3599590562727
 20
-131.4697781233748
 30
0.0
 10
310.3599590560481
 20
-132.7124188101144
 30
0.0
  0
SPLINE
  5
5E
330
45
100
AcDbEntity
  8
Layer 1
 62
   240
420
 15539236
370
     9
100
AcDbSpline
210
0.0
220
0.0
230
1.0
 70
     8
 71
     3
 72
   185
 73
   181
 74
     0
 42
0.0000000001
 43
0.0000000001
 12
1.0
 22
0.0
 32
0.0
 13
1.0
 23
0.0
 33
0.0
 40
0.0
 40
0.0
 40
0.0
 40
0.0
 40
1.0
 40
1.0
 40
1.0
 40
2.0
 40
2.0
 40
2.0
 40
3.0
 40
3.0
 40
3.0
 40
4.0
 40
4.0
 40
4.0
 40
5.0
 40
5.0
 40
5.0
 40
6.0
 40
6.0
 40
6.0
 40
7.0
 40
7.0
 40
7.0
 40
8.0
 40
8.0
 40
8.0
 40
9.0
 40
9.0
 40
9.0
 40
10.0
 40
10.0
 40
10.0
 40
11.0
 40
11.0
 40
11.0
 40
12.0
 40
12.0
 40
12.0
 40
13.0
 40
13.0
 40
13.0
 40
14.0
 40
14.0
 40
14.0
 40
15.0
 40
15.0
 40
15.0
 40
16.0
 40
16.0
 40
16.0
 40
17.0
 40
17.0
 40
17.0
 40
18.0
 40
18.0
 40
18.0
 40
19.0
 40
19.0
 40
19.0
 40
20.0
 40
20.0
 40
20.0
 40
21.0
 40
21.0
 40
21.0
 40
22.0
 40
22.0
 40
22.0
 40
23.0
 40
23.0
 40
23.0
 40
24.0
 40
24.0
 40
24.0
 40
25.0
 40
25.0
 40
25.0
 40
26.0
 40
26.0
 40
26.0
 40
27.0
 40
27.0
 40
27.0
 40
28.0
 40
28.0
 40
28.0
 40
29.0
 40
29.0
 40
29.0
 40
30.0
 40
30.0
 40
30.0
 40
31.0
 40
31.0
 40
31.0
 40
32.0
 40
32.0
 40
32.0
 40
33.0
 40
33.0
 40
33.0
 40
34.0
 40
34.0
 40
34.0
 40
35.0
 40
35.0
 40
35.0
 40
36.0
 40
36.0
 40
36.0
 40
37.0
 40
37.0
 40
37.0
 40
38.0
 40
38.0
 40
38.0
 40
39.0
 40
39.0
 40
39.0
 40
40.0
 40
40.0
 40
40.0
 40
41.0
 40
41.0
 40
41.0
 40
42.0
 40
42.0
 40
42.0
 40
43.0
 40
43.0
 40
43.0
 40
44.0
 40
44.0
 40
44.0
 40
45.0
 40
45.0
 40
45.0
 40
46.0
 40
46.0
 40
46.0
 40
47.0
 40
47.0
 40
47.0
 40
48.0
 40
48.0
 40
48.0
 40
49.0
 40
49.0
 40
49.0
 40
50.0
 40
50.0
 40
50.0
 40
51.0
 40
51.0
 40
51.0
 40
52.0
 40
52.0
 40
52.0
 40
53.0
 40
53.0
 40
53.0
 40
54.0
 40
54.0
 40
54.0
 40
55.0
 40
55.0
 40
55.0
 40
56.0
 40
56.0
 40
56.0
 40
57.0
 40
57.0
 40
57.0
 40
58.0
 40
58.0
 40
58.0
 40
59.0
 40
59.0
 40
59.0
 40
60.0
 40
60.0
 40
60.0
 40
60.0
 10
520.8471424646144
 20
-88.44031077929854
 30
0.0
 10
520.4913363159333
 20
-88.44031077917245
 30
0.0
 10
520.2027579205848
 20
-88.72848263036471
 30
0.0
 10
520.2022563142085
 20
-89.08428842546748
 30
0.0
 10
520.2022563142085
 20
-89.08428842546748
 30
0.0
 10
520.202197413665
 20
-89.12606850418575
 30
0.0
 10
520.202197413665
 20
-89.12606850418575
 30
0.0
 10
520.2018721278667
 20
-89.35680435032059
 30
0.0
 10
520.331945817275
 20
-89.55863289780599
 30
0.0
 10
520.524872571781
 20
-89.6851967311064
 30
0.0
 10
520.9333824784541
 20
-89.95318745049629
 30
0.0
 10
521.2031642478413
 20
-90.41524271063145
 30
0.0
 10
521.2031642476578
 20
-90.9403088791235
 30
0.0
 10
521.2031642473125
 20
-91.88730199484529
 30
0.0
 10
520.3256015181437
 20
-92.62932935269174
 30
0.0
 10
519.3393304680869
 20
-92.39752994198909
 30
0.0
 10
518.8148303160386
 20
-92.27425873155808
 30
0.0
 10
518.3859274523019
 20
-91.8558239854321
 30
0.0
 10
518.2531661622177
 20
-91.33364524144656
 30
0.0
 10
518.0792176354174
 20
-90.6494682258055
 30
0.0
 10
518.3755939863848
 20
-90.01371075019063
 30
0.0
 10
518.8872491504205
 20
-89.68141532950278
 30
0.0
 10
519.0767562034525
 20
-89.55833961300915
 30
0.0
 10
519.2072085969506
 20
-89.36325042703061
 30
0.0
 10
519.2129642960775
 20
-89.13735791483383
 30
0.0
 10
519.2129642960775
 20
-89.13735791483383
 30
0.0
 10
519.2138748516791
 20
-89.10162156258967
 30
0.0
 10
519.2138748516791
 20
-89.10162156258967
 30
0.0
 10
519.2231106751915
 20
-88.73914546222997
 30
0.0
 10
518.9317910408123
 20
-88.44030850767497
 30
0.0
 10
518.5691972960107
 20
-88.44030850754437
 30
0.0
 10
518.5691972960107
 20
-88.44030850754437
 30
0.0
 10
459.7405455608149
 20
-88.44030821233234
 30
0.0
 10
459.7405455608149
 20
-88.44030821233234
 30
0.0
 10
459.7405455608149
 20
-88.44030821233234
 30
0.0
 10
459.7405455592453
 20
-93.44030821108248
 30
0.0
 10
459.7405455592453
 20
-93.44030821108248
 30
0.0
 10
459.7405455592453
 20
-93.44030821108248
 30
0.0
 10
451.9907311060123
 20
-93.44030862194056
 30
0.0
 10
451.9907311060123
 20
-93.44030862194056
 30
0.0
 10
451.5764470595095
 20
-93.44030862186612
 30
0.0
 10
451.2406314336188
 20
-93.77620506878466
 30
0.0
 10
451.2407311277827
 20
-94.19048910329509
 30
0.0
 10
451.2407311277827
 20
-94.19048910329509
 30
0.0
 10
451.2416755816225
 20
-98.11521376510855
 30
0.0
 10
451.2416755816225
 20
-98.11521376510855
 30
0.0
 10
451.2417496265559
 20
-98.4229111415856
 30
0.0
 10
451.4302940173941
 20
-98.69861538325843
 30
0.0
 10
451.7171314609394
 20
-98.80997947959666
 30
0.0
 10
453.7731410155378
 20
-99.60822131051088
 30
0.0
 10
455.2405512868079
 20
-101.6113652999539
 30
0.0
 10
455.2405512872455
 20
-103.9406004604415
 30
0.0
 10
455.2405512872455
 20
-103.9406004604415
 30
0.0
 10
455.2405512875201
 20
-106.5402733938856
 30
0.0
 10
455.2405512875201
 20
-106.5402733938856
 30
0.0
 10
455.240551287619
 20
-107.092558143722
 30
0.0
 10
454.7928360374229
 20
-107.5402733939235
 30
0.0
 10
454.2405512875914
 20
-107.5402733938243
 30
0.0
 10
454.2405512875914
 20
-107.5402733938243
 30
0.0
 10
445.2405512904061
 20
-107.5402733922079
 30
0.0
 10
445.2405512904061
 20
-107.5402733922079
 30
0.0
 10
444.6882665406375
 20
-107.5402733921087
 30
0.0
 10
444.2405512906249
 20
-107.0925581418508
 30
0.0
 10
444.2405512908367
 20
-106.5402733920811
 30
0.0
 10
444.2405512908367
 20
-106.5402733920811
 30
0.0
 10
444.240551291694
 20
-103.9406004599269
 30
0.0
 10
444.240551291694
 20
-103.9406004599269
 30
0.0
 10
444.240551292568
 20
-101.6110674350138
 30
0.0
 10
445.7083368949821
 20
-99.6077089885098
 30
0.0
 10
447.7647599194972
 20
-98.80967329935518
 30
0.0
 10
448.0517098260058
 20
-98.69831670410973
 30
0.0
 10
448.2403262728852
 20
-98.42251316678679
 30
0.0
 10
448.2403401390249
 20
-98.11471365418522
 30
0.0
 10
448.2403401390249
 20
-98.11471365418522
 30
0.0
 10
448.2405169290032
 20
-94.19034240788254
 30
0.0
 10
448.2405169290032
 20
-94.19034240788254
 30
0.0
 10
448.2405355896113
 20
-93.77611565140431
 30
0.0
 10
447.9047436869851
 20
-93.44030862120678
 30
0.0
 10
447.4905169300904
 20
-93.44030862113235
 30
0.0
 10
447.4905169300904
 20
-93.44030862113235
 30
0.0
 10
439.7405455642447
 20
-93.44030820479672
 30
0.0
 10
439.7405455642447
 20
-93.44030820479672
 30
0.0
 10
439.7405455642447
 20
-93.44030820479672
 30
0.0
 10
439.7405455658143
 20
-88.44030820604658
 30
0.0
 10
439.7405455658143
 20
-88.44030820604658
 30
0.0
 10
439.7405455658143
 20
-88.44030820604658
 30
0.0
 10
380.8943505780153
 20
-88.3885289598731
 30
0.0
 10
380.8943505780153
 20
-88.3885289598731
 30
0.0
 10
380.5385444293303
 20
-88.38852895974732
 30
0.0
 10
380.2499660339844
 20
-88.67670081093925
 30
0.0
 10
380.2494644276094
 20
-89.03250660604203
 30
0.0
 10
380.2494644276094
 20
-89.03250660604203
 30
0.0
 10
380.2494055270658
 20
-89.0742866847603
 30
0.0
 10
380.2494055270658
 20
-89.0742866847603
 30
0.0
 10
380.2490802412677
 20
-89.30502253089514
 30
0.0
 10
380.3791539306759
 20
-89.50685107838054
 30
0.0
 10
380.5720806851793
 20
-89.63341491168096
 30
0.0
 10
380.9805905918511
 20
-89.90140563107084
 30
0.0
 10
381.2503723612422
 20
-90.36346089120599
 30
0.0
 10
381.250372361051
 20
-90.88852705969805
 30
0.0
 10
381.2503723607135
 20
-91.83552017541984
 30
0.0
 10
380.3728096315407
 20
-92.57754753326628
 30
0.0
 10
379.386538581484
 20
-92.34574812256363
 30
0.0
 10
378.8620384294358
 20
-92.22247691213263
 30
0.0
 10
378.4331355657028
 20
-91.80404216600664
 30
0.0
 10
378.3003742756147
 20
-91.2818634220211
 30
0.0
 10
378.1264257488144
 20
-90.59768640638005
 30
0.0
 10
378.4228020997818
 20
-89.96192893076517
 30
0.0
 10
378.9344572638176
 20
-89.62963351007733
 30
0.0
 10
379.1239643168534
 20
-89.50655779358402
 30
0.0
 10
379.2544167103516
 20
-89.31146860760549
 30
0.0
 10
379.2601724094784
 20
-89.0855760954087
 30
0.0
 10
379.2601724094784
 20
-89.0855760954087
 30
0.0
 10
379.2610829650787
 20
-89.04983974316485
 30
0.0
 10
379.2610829650787
 20
-89.04983974316485
 30
0.0
 10
379.2703187885885
 20
-88.68736364280451
 30
0.0
 10
378.9789991542132
 20
-88.38852668824951
 30
0.0
 10
378.6164054094116
 20
-88.38852668811924
 30
0.0
 10
378.6164054094116
 20
-88.38852668811924
 30
0.0
 10
334.9676484279966
 20
-88.44029907568795
 30
0.0
 10
334.9676484279966
 20
-88.44029907568795
 30
0.0
 10
334.9676484279966
 20
-88.44029907568795
 30
0.0
 10
334.9676484264231
 20
-93.44029907443809
 30
0.0
 10
334.9676484264231
 20
-93.44029907443809
 30
0.0
 10
334.9676484264231
 20
-93.44029907443809
 30
0.0
 10
327.2178191700519
 20
-93.44029907526556
 30
0.0
 10
327.2178191700519
 20
-93.44029907526556
 30
0.0
 10
326.8035351235491
 20
-93.44029907519145
 30
0.0
 10
326.4677194976584
 20
-93.77619552210999
 30
0.0
 10
326.4678191918223
 20
-94.19047955662042
 30
0.0
 10
326.4678191918223
 20
-94.19047955662042
 30
0.0
 10
326.4687636456634
 20
-98.11520421843387
 30
0.0
 10
326.4687636456634
 20
-98.11520421843387
 30
0.0
 10
326.468837690593
 20
-98.42290159491093
 30
0.0
 10
326.6573820814299
 20
-98.69860583658343
 30
0.0
 10
326.944219524979
 20
-98.80996993292166
 30
0.0
 10
329.0002290795774
 20
-99.60821176383621
 30
0.0
 10
330.4676393508436
 20
-101.6113557532793
 30
0.0
 10
330.4676393512851
 20
-103.9405909137668
 30
0.0
 10
330.4676393512851
 20
-103.9405909137668
 30
0.0
 10
330.4676393515572
 20
-106.5402638472109
 30
0.0
 10
330.4676393515572
 20
-106.5402638472109
 30
0.0
 10
330.4676393516586
 20
-107.0925485970473
 30
0.0
 10
330.0199241014639
 20
-107.5402638472488
 30
0.0
 10
329.4676393516271
 20
-107.5402638471496
 30
0.0
 10
329.4676393516271
 20
-107.5402638471496
 30
0.0
 10
320.4676393544432
 20
-107.5402638455332
 30
0.0
 10
320.4676393544432
 20
-107.5402638455332
 30
0.0
 10
319.9153546046732
 20
-107.540263845434
 30
0.0
 10
319.4676393546646
 20
-107.0925485951761
 30
0.0
 10
319.4676393548725
 20
-106.5402638454064
 30
0.0
 10
319.4676393548725
 20
-106.5402638454064
 30
0.0
 10
319.4676393557336
 20
-103.9405909132522
 30
0.0
 10
319.4676393557336
 20
-103.9405909132522
 30
0.0
 10
319.4676393566089
 20
-101.6110578883391
 30
0.0
 10
320.9354249590191
 20
-99.60769944183512
 30
0.0
 10
322.9918479835368
 20
-98.80966375267985
 30
0.0
 10
323.2787978900416
 20
-98.69830715743504
 30
0.0
 10
323.4674143369223
 20
-98.4225036201121
 30
0.0
 10
323.4674282030606
 20
-98.11470410751053
 30
0.0
 10
323.4674282030606
 20
-98.11470410751053
 30
0.0
 10
323.4676049930441
 20
-94.19033286120786
 30
0.0
 10
323.4676049930441
 20
-94.19033286120786
 30
0.0
 10
323.4676236536509
 20
-93.77610610472964
 30
0.0
 10
323.1318317510247
 20
-93.44029907453178
 30
0.0
 10
322.7176049941274
 20
-93.44029907445734
 30
0.0
 10
322.7176049941274
 20
-93.44029907445734
 30
0.0
 10
314.9676484314213
 20
-93.44029906815233
 30
0.0
 10
314.9676484314213
 20
-93.44029906815233
 30
0.0
 10
314.9676484314213
 20
-93.44029906815233
 30
0.0
 10
314.9676484329947
 20
-88.44029906940217
 30
0.0
 10
314.9676484329947
 20
-88.44029906940217
 30
0.0
 10
314.9676484329947
 20
-88.44029906940217
 30
0.0
 10
264.895685416951
 20
-88.44029905013389
 30
0.0
 10
264.895685416951
 20
-88.44029905013389
 30
0.0
 10
264.895685416951
 20
-88.44029905013389
 30
0.0
 10
266.3070230047327
 20
-103.940258068152
 30
0.0
 10
266.3070230047327
 20
-103.940258068152
 30
0.0
 10
266.3070230047327
 20
-103.940258068152
 30
0.0
 10
296.794255326759
 20
-103.9402580714465
 30
0.0
 10
296.794255326759
 20
-103.9402580714465
 30
0.0
  0
ENDBLK
  5
48
330
45
100
AcDbEntity
  8
0
100
AcDbBlockEnd
  0
BLOCK
  5
61
330
5F
100
AcDbEntity
  8
0
100
AcDbBlockBegin
  2
block 4
 70
     0
 10
0.0
 20
0.0
 30
0.0
  3
block 4
  1

  0
SPLINE
  5
63
330
5F
100
AcDbEntity
  8
Layer 1
 62
   240
420
 15539236
370
     9
100
AcDbSpline
210
0.0
220
0.0
230
1.0
 70
     8
 71
     3
 72
   134
 73
   130
 74
     0
 42
0.0000000001
 43
0.0000000001
 12
1.0
 22
0.0
 32
0.0
 13
1.0
 23
0.0
 33
0.0
 40
0.0
 40
0.0
 40
0.0
 40
0.0
 40
1.0
 40
1.0
 40
1.0
 40
2.0
 40
2.0
 40
2.0
 40
3.0
 40
3.0
 40
3.0
 40
4.0
 40
4.0
 40
4.0
 40
5.0
 40
5.0
 40
5.0
 40
6.0
 40
6.0
 40
6.0
 40
7.0
 40
7.0
 40
7.0
 40
8.0
 40
8.0
 40
8.0
 40
9.0
 40
9.0
 40
9.0
 40
10.0
 40
10.0
 40
10.0
 40
11.0
 40
11.0
 40
11.0
 40
12.0
 40
12.0
 40
12.0
 40
13.0
 40
13.0
 40
13.0
 40
14.0
 40
14.0
 40
14.0
 40
15.0
 40
15.0
 40
15.0
 40
16.0
 40
16.0
 40
16.0
 40
17.0
 40
17.0
 40
17.0
 40
18.0
 40
18.0
 40
18.0
 40
19.0
 40
19.0
 40
19.0
 40
20.0
 40
20.0
 40
20.0
 40
21.0
 40
21.0
 40
21.0
 40
22.0
 40
22.0
 40
22.0
 40
23.0
 40
23.0
 40
23.0
 40
24.0
 40
24.0
 40
24.0
 40
25.0
 40
25.0
 40
25.0
 40
26.0
 40
26.0
 40
26.0
 40
27.0
 40
27.0
 40
27.0
 40
28.0
 40
28.0
 40
28.0
 40
29.0
 40
29.0
 40
29.0
 40
30.0
 40
30.0
 40
30.0
 40
31.0
 40
31.0
 40
31.0
 40
32.0
 40
32.0
 40
32.0
 40
33.0
 40
33.0
 40
33.0
 40
34.0
 40
34.0
 40
34.0
 40
35.0
 40
35.0
 40
35.0
 40
36.0
 40
36.0
 40
36.0
 40
37.0
 40
37.0
 40
37.0
 40
38.0
 40
38.0
 40
38.0
 40
39.0
 40
39.0
 40
39.0
 40
40.0
 40
40.0
 40
40.0
 40
41.0
 40
41.0
 40
41.0
 40
42.0
 40
42.0
 40
42.0
 40
43.0
 40
43.0
 40
43.0
 40
43.0
 10
186.3561106558742
 20
-103.9402580600541
 30
0.0
 10
186.3561106558742
 20
-103.9402580600541
 30
0.0
 10
261.3073833725138
 20
-103.940258068152
 30
0.0
 10
261.3073833725138
 20
-103.940258068152
 30
0.0
 10
261.3073833725138
 20
-103.940258068152
 30
0.0
 10
259.8960457847319
 20
-88.44029905013389
 30
0.0
 10
259.8960457847319
 20
-88.44029905013389
 30
0.0
 10
259.8960457847319
 20
-88.44029905013389
 30
0.0
 10
221.3002985883815
 20
-88.44029903528208
 30
0.0
 10
221.3002985883815
 20
-88.44029903528208
 30
0.0
 10
220.9444924397012
 20
-88.44029903515566
 30
0.0
 10
220.655914044355
 20
-88.72847088634792
 30
0.0
 10
220.655412437977
 20
-89.08427668145102
 30
0.0
 10
220.655412437977
 20
-89.08427668145102
 30
0.0
 10
220.6553535374339
 20
-89.12605676016928
 30
0.0
 10
220.6553535374339
 20
-89.12605676016928
 30
0.0
 10
220.6550282516369
 20
-89.35679260630413
 30
0.0
 10
220.7851019410445
 20
-89.55862115378952
 30
0.0
 10
220.9780286955492
 20
-89.68518498708994
 30
0.0
 10
221.3865386022223
 20
-89.95317570647983
 30
0.0
 10
221.6563203716128
 20
-90.41523096661466
 30
0.0
 10
221.6563203714241
 20
-90.94029713510672
 30
0.0
 10
221.6563203710847
 20
-91.8872902508285
 30
0.0
 10
220.7787576419132
 20
-92.62931760867528
 30
0.0
 10
219.7924865918536
 20
-92.39751819797262
 30
0.0
 10
219.2679864398076
 20
-92.27424698754129
 30
0.0
 10
218.8390835760701
 20
-91.85581224141531
 30
0.0
 10
218.7063222859846
 20
-91.33363349743009
 30
0.0
 10
218.532373759185
 20
-90.64945648178903
 30
0.0
 10
218.8287501101524
 20
-90.01369900617384
 30
0.0
 10
219.3404052741881
 20
-89.68140358548631
 30
0.0
 10
219.5299123272201
 20
-89.55832786899268
 30
0.0
 10
219.6603647207196
 20
-89.36323868301382
 30
0.0
 10
219.6661204198489
 20
-89.13734617081737
 30
0.0
 10
219.6661204198489
 20
-89.13734617081737
 30
0.0
 10
219.667030975447
 20
-89.1016098185732
 30
0.0
 10
219.667030975447
 20
-89.1016098185732
 30
0.0
 10
219.6762667989591
 20
-88.73913371821351
 30
0.0
 10
219.3849471645818
 20
-88.4402967636585
 30
0.0
 10
219.0223534197783
 20
-88.44029676352791
 30
0.0
 10
219.0223534197783
 20
-88.44029676352791
 30
0.0
 10
160.1937032826473
 20
-88.4402967206422
 30
0.0
 10
160.1937032826473
 20
-88.4402967206422
 30
0.0
 10
160.1937032826473
 20
-88.4402967206422
 30
0.0
 10
160.1937032810751
 20
-93.44029671939235
 30
0.0
 10
160.1937032810751
 20
-93.44029671939235
 30
0.0
 10
160.1937032810751
 20
-93.44029671939235
 30
0.0
 10
152.4438740247039
 20
-93.44029672021982
 30
0.0
 10
152.4438740247039
 20
-93.44029672021982
 30
0.0
 10
152.0295899782011
 20
-93.4402967201457
 30
0.0
 10
151.6937743523092
 20
-93.77619316706424
 30
0.0
 10
151.6938740464724
 20
-94.19047720157467
 30
0.0
 10
151.6938740464724
 20
-94.19047720157467
 30
0.0
 10
151.6948185003147
 20
-98.11520186338812
 30
0.0
 10
151.6948185003147
 20
-98.11520186338812
 30
0.0
 10
151.694892545245
 20
-98.42289923986517
 30
0.0
 10
151.8834369360819
 20
-98.69860348153767
 30
0.0
 10
152.1702743796297
 20
-98.80996757787592
 30
0.0
 10
154.2262839342281
 20
-99.60820940879046
 30
0.0
 10
155.6936942054956
 20
-101.6113533982335
 30
0.0
 10
155.6936942059345
 20
-103.9405885587211
 30
0.0
 10
155.6936942059345
 20
-103.9405885587211
 30
0.0
 10
155.6936942062079
 20
-106.5402614921651
 30
0.0
 10
155.6936942062079
 20
-106.5402614921651
 30
0.0
 10
155.6936942063106
 20
-107.0925462420015
 30
0.0
 10
155.2459789561152
 20
-107.540261492203
 30
0.0
 10
154.6936942062791
 20
-107.5402614921039
 30
0.0
 10
154.6936942062791
 20
-107.5402614921039
 30
0.0
 10
145.6936942090939
 20
-107.5402614904874
 30
0.0
 10
145.6936942090939
 20
-107.5402614904874
 30
0.0
 10
145.1414094593252
 20
-107.5402614903883
 30
0.0
 10
144.6936942093159
 20
-107.0925462401303
 30
0.0
 10
144.6936942095245
 20
-106.5402614903607
 30
0.0
 10
144.6936942095245
 20
-106.5402614903607
 30
0.0
 10
144.6936942103831
 20
-103.9405885582064
 30
0.0
 10
144.6936942103831
 20
-103.9405885582064
 30
0.0
 10
144.6936942112603
 20
-101.6110555332934
 30
0.0
 10
146.1614798136698
 20
-99.60769708678937
 30
0.0
 10
148.2179028381875
 20
-98.80966139763412
 30
0.0
 10
148.5048527446943
 20
-98.6983048023893
 30
0.0
 10
148.6934691915743
 20
-98.42250126506636
 30
0.0
 10
148.693483057712
 20
-98.1147017524648
 30
0.0
 10
148.693483057712
 20
-98.1147017524648
 30
0.0
 10
148.6936598476942
 20
-94.19033050616213
 30
0.0
 10
148.6936598476942
 20
-94.19033050616213
 30
0.0
 10
148.6936785083016
 20
-93.77610374968388
 30
0.0
 10
148.3578866056767
 20
-93.44029671948603
 30
0.0
 10
147.9436598487781
 20
-93.44029671941159
 30
0.0
 10
147.9436598487781
 20
-93.44029671941159
 30
0.0
 10
140.1937032860746
 20
-93.44029671310659
 30
0.0
 10
140.1937032860746
 20
-93.44029671310659
 30
0.0
 10
140.1937032860746
 20
-93.44029671310659
 30
0.0
 10
140.1937032876467
 20
-88.44029671435644
 30
0.0
 10
140.1937032876467
 20
-88.44029671435644
 30
0.0
 10
140.1937032876467
 20
-88.44029671435644
 30
0.0
 10
81.34750696202339
 20
-88.38852959561717
 30
0.0
 10
81.34750696202339
 20
-88.38852959561717
 30
0.0
 10
80.99170081334348
 20
-88.38852959549075
 30
0.0
 10
80.70312241799755
 20
-88.67670144668301
 30
0.0
 10
80.70262081161867
 20
-89.0325072417861
 30
0.0
 10
80.70262081161867
 20
-89.0325072417861
 30
0.0
 10
80.70256191107644
 20
-89.07428732050437
 30
0.0
 10
80.70256191107644
 20
-89.07428732050437
 30
0.0
 10
80.70223662527951
 20
-89.30502316663922
 30
0.0
 10
80.8323103146871
 20
-89.50685171412461
 30
0.0
 10
81.02523706919115
 20
-89.63341554742503
 30
0.0
 10
81.43374697586488
 20
-89.90140626681492
 30
0.0
 10
81.70352874525538
 20
-90.36346152694973
 30
0.0
 10
81.70352874506608
 20
-90.88852769544181
 30
0.0
 10
81.70352874472663
 20
-91.83552081116359
 30
0.0
 10
80.82596601555514
 20
-92.57754816901036
 30
0.0
 10
79.83969496549584
 20
-92.3457487583077
 30
0.0
 10
79.31519481345016
 20
-92.22247754787671
 30
0.0
 10
78.88629194971207
 20
-91.80404280175071
 30
0.0
 10
78.7535306596272
 20
-91.28186405776518
 30
0.0
 10
78.57958213282693
 20
-90.59768704212412
 30
0.0
 10
78.87595848379499
 20
-89.96192956650893
 30
0.0
 10
79.38761364783008
 20
-89.6296341458214
 30
0.0
 10
79.57712070086271
 20
-89.50655842932777
 30
0.0
 10
79.70757309436152
 20
-89.31146924334924
 30
0.0
 10
79.71332879349153
 20
-89.08557673115277
 30
0.0
 10
79.71332879349153
 20
-89.08557673115277
 30
0.0
 10
79.71423934908866
 20
-89.04984037890861
 30
0.0
 10
79.71423934908866
 20
-89.04984037890861
 30
0.0
 10
79.72347517260167
 20
-88.68736427854859
 30
0.0
 10
79.43215553822374
 20
-88.38852732399359
 30
0.0
 10
79.06956179342089
 20
-88.388527323863
 30
0.0
 10
79.06956179342089
 20
-88.388527323863
 30
0.0
 10
29.46713431245869
 20
-88.38852731019834
 30
0.0
 10
29.46713431245869
 20
-88.38852731019834
 30
0.0
  0
POLYLINE
  5
64
330
5F
100
AcDbEntity
  8
Layer 1
 62
   240
420
 15539236
370
     9
100
AcDb2dPolyline
 66
     1
 10
0.0
 20
0.0
 30
0.0
  0
VERTEX
  5
65
330
64
100
AcDbEntity
  8
Layer 1
 62
   240
420
 15539236
370
     9
100
AcDbVertex
100
AcDb2dVertex
 10
177.7312370636253
 20
-138.4405768755922
 30
0.0
  0
VERTEX
  5
66
330
64
100
AcDbEntity
  8
Layer 1
 62
   240
420
 15539236
370
     9
100
AcDbVertex
100
AcDb2dVertex
 10
186.3561138796251
 20
-103.9403124454334
 30
0.0
  0
SEQEND
  5
67
330
64
100
AcDbEntity
  8
Layer 1
 62
   240
420
 15539236
370
     9
  0
SPLINE
  5
68
330
5F
100
AcDbEntity
  8
Layer 1
 62
   240
420
 15539236
370
     9
100
AcDbSpline
210
0.0
220
0.0
230
1.0
 70
     8
 71
     3
 72
   356
 73
   352
 74
     0
 42
0.0000000001
 43
0.0000000001
 12
1.0
 22
0.0
 32
0.0
 13
1.0
 23
0.0
 33
0.0
 40
0.0
 40
0.0
 40
0.0
 40
0.0
 40
1.0
 40
1.0
 40
1.0
 40
2.0
 40
2.0
 40
2.0
 40
3.0
 40
3.0
 40
3.0
 40
4.0
 40
4.0
 40
4.0
 40
5.0
 40
5.0
 40
5.0
 40
6.0
 40
6.0
 40
6.0
 40
7.0
 40
7.0
 40
7.0
 40
8.0
 40
8.0
 40
8.0
 40
9.0
 40
9.0
 40
9.0
 40
10.0
 40
10.0
 40
10.0
 40
11.0
 40
11.0
 40
11.0
 40
12.0
 40
12.0
 40
12.0
 40
13.0
 40
13.0
 40
13.0
 40
14.0
 40
14.0
 40
14.0
 40
15.0
 40
15.0
 40
15.0
 40
16.0
 40
16.0
 40
16.0
 40
17.0
 40
17.0
 40
17.0
 40
18.0
 40
18.0
 40
18.0
 40
19.0
 40
19.0
 40
19.0
 40
20.0
 40
20.0
 40
20.0
 40
21.0
 40
21.0
 40
21.0
 40
22.0
 40
22.0
 40
22.0
 40
23.0
 40
23.0
 40
23.0
 40
24.0
 40
24.0
 40
24.0
 40
25.0
 40
25.0
 40
25.0
 40
26.0
 40
26.0
 40
26.0
 40
27.0
 40
27.0
 40
27.0
 40
28.0
 40
28.0
 40
28.0
 40
29.0
 40
29.0
 40
29.0
 40
30.0
 40
30.0
 40
30.0
 40
31.0
 40
31.0
 40
31.0
 40
32.0
 40
32.0
 40
32.0
 40
33.0
 40
33.0
 40
33.0
 40
34.0
 40
34.0
 40
34.0
 40
35.0
 40
35.0
 40
35.0
 40
36.0
 40
36.0
 40
36.0
 40
37.0
 40
37.0
 40
37.0
 40
38.0
 40
38.0
 40
38.0
 40
39.0
 40
39.0
 40
39.0
 40
40.0
 40
40.0
 40
40.0
 40
41.0
 40
41.0
 40
41.0
 40
42.0
 40
42.0
 40
42.0
 40
43.0
 40
43.0
 40
43.0
 40
44.0
 40
44.0
 40
44.0
 40
45.0
 40
45.0
 40
45.0
 40
46.0
 40
46.0
 40
46.0
 40
47.0
 40
47.0
 40
47.0
 40
48.0
 40
48.0
 40
48.0
 40
49.0
 40
49.0
 40
49.0
 40
50.0
 40
50.0
 40
50.0
 40
51.0
 40
51.0
 40
51.0
 40
52.0
 40
52.0
 40
52.0
 40
53.0
 40
53.0
 40
53.0
 40
54.0
 40
54.0
 40
54.0
 40
55.0
 40
55.0
 40
55.0
 40
56.0
 40
56.0
 40
56.0
 40
57.0
 40
57.0
 40
57.0
 40
58.0
 40
58.0
 40
58.0
 40
59.0
 40
59.0
 40
59.0
 40
60.0
 40
60.0
 40
60.0
 40
61.0
 40
61.0
 40
61.0
 40
62.0
 40
62.0
 40
62.0
 40
63.0
 40
63.0
 40
63.0
 40
64.0
 40
64.0
 40
64.0
 40
65.0
 40
65.0
 40
65.0
 40
66.0
 40
66.0
 40
66.0
 40
67.0
 40
67.0
 40
67.0
 40
68.0
 40
68.0
 40
68.0
 40
69.0
 40
69.0
 40
69.0
 40
70.0
 40
70.0
 40
70.0
 40
71.0
 40
71.0
 40
71.0
 40
72.0
 40
72.0
 40
72.0
 40
73.0
 40
73.0
 40
73.0
 40
74.0
 40
74.0
 40
74.0
 40
75.0
 40
75.0
 40
75.0
 40
76.0
 40
76.0
 40
76.0
 40
77.0
 40
77.0
 40
77.0
 40
78.0
 40
78.0
 40
78.0
 40
79.0
 40
79.0
 40
79.0
 40
80.0
 40
80.0
 40
80.0
 40
81.0
 40
81.0
 40
81.0
 40
82.0
 40
82.0
 40
82.0
 40
83.0
 40
83.0
 40
83.0
 40
84.0
 40
84.0
 40
84.0
 40
85.0
 40
85.0
 40
85.0
 40
86.0
 40
86.0
 40
86.0
 40
87.0
 40
87.0
 40
87.0
 40
88.0
 40
88.0
 40
88.0
 40
89.0
 40
89.0
 40
89.0
 40
90.0
 40
90.0
 40
90.0
 40
91.0
 40
91.0
 40
91.0
 40
92.0
 40
92.0
 40
92.0
 40
93.0
 40
93.0
 40
93.0
 40
94.0
 40
94.0
 40
94.0
 40
95.0
 40
95.0
 40
95.0
 40
96.0
 40
96.0
 40
96.0
 40
97.0
 40
97.0
 40
97.0
 40
98.0
 40
98.0
 40
98.0
 40
99.0
 40
99.0
 40
99.0
 40
100.0
 40
100.0
 40
100.0
 40
101.0
 40
101.0
 40
101.0
 40
102.0
 40
102.0
 40
102.0
 40
103.0
 40
103.0
 40
103.0
 40
104.0
 40
104.0
 40
104.0
 40
105.0
 40
105.0
 40
105.0
 40
106.0
 40
106.0
 40
106.0
 40
107.0
 40
107.0
 40
107.0
 40
108.0
 40
108.0
 40
108.0
 40
109.0
 40
109.0
 40
109.0
 40
110.0
 40
110.0
 40
110.0
 40
111.0
 40
111.0
 40
111.0
 40
112.0
 40
112.0
 40
112.0
 40
113.0
 40
113.0
 40
113.0
 40
114.0
 40
114.0
 40
114.0
 40
115.0
 40
115.0
 40
115.0
 40
116.0
 40
116.0
 40
116.0
 40
117.0
 40
117.0
 40
117.0
 40
117.0
 10
177.7313418228795
 20
-138.4403894684901
 30
0.0
 10
177.7313418228795
 20
-138.4403894684901
 30
0.0
 10
88.46732292408772
 20
-138.440397950376
 30
0.0
 10
88.46732292408772
 20
-138.440397950376
 30
0.0
 10
88.46732292408772
 20
-138.440397950376
 30
0.0
 10
88.46732477305495
 20
-189.051003784992
 30
0.0
 10
88.46732477305495
 20
-189.051003784992
 30
0.0
 10
88.46732477305495
 20
-189.051003784992
 30
0.0
 10
88.46731562513237
 20
-506.3791346333669
 30
0.0
 10
88.46731562513237
 20
-506.3791346333669
 30
0.0
 10
88.46731562513237
 20
-506.3791346333669
 30
0.0
 10
88.46731562420351
 20
-511.4403093213165
 30
0.0
 10
88.46731562420351
 20
-511.4403093213165
 30
0.0
 10
88.46731562420351
 20
-511.4403093213165
 30
0.0
 10
63.98256745815875
 20
-511.4402987462485
 30
0.0
 10
63.98256745815875
 20
-511.4402987462485
 30
0.0
 10
63.61997371335591
 20
-511.44029874609
 30
0.0
 10
63.32865407900429
 20
-511.1414617915083
 30
0.0
 10
63.33788990254939
 20
-510.77898569115
 30
0.0
 10
63.33788990254939
 20
-510.77898569115
 30
0.0
 10
63.33880045814973
 20
-510.7432493389026
 30
0.0
 10
63.33880045814973
 20
-510.7432493389026
 30
0.0
 10
63.34455615730027
 20
-510.5173568267074
 30
0.0
 10
63.47500855081704
 20
-510.322267640742
 30
0.0
 10
63.66451560386059
 20
-510.1991919242625
 30
0.0
 10
64.17617076792583
 20
-509.8668965036221
 30
0.0
 10
64.47254711895037
 20
-509.2311390280323
 30
0.0
 10
64.2985985922117
 20
-508.5469620123742
 30
0.0
 10
64.16583730217367
 20
-508.0247832683826
 30
0.0
 10
63.73693443847344
 20
-507.6063485222162
 30
0.0
 10
63.21243428643899
 20
-507.4830773117367
 30
0.0
 10
62.22616323640119
 20
-507.2512779009449
 30
0.0
 10
61.34860050716297
 20
-507.9933052587137
 30
0.0
 10
61.34860050673817
 20
-508.9402983744348
 30
0.0
 10
61.34860050650138
 20
-509.4653645429275
 30
0.0
 10
61.61838227584953
 20
-509.9274198030864
 30
0.0
 10
62.0268921825008
 20
-510.1954105225154
 30
0.0
 10
62.2198189369933
 20
-510.3219743558319
 30
0.0
 10
62.34989262638227
 20
-510.5238029033272
 30
0.0
 10
62.3495673405648
 20
-510.7545387494621
 30
0.0
 10
62.3495673405648
 20
-510.7545387494621
 30
0.0
 10
62.34950844001873
 20
-510.7963188281803
 30
0.0
 10
62.34950844001873
 20
-510.7963188281803
 30
0.0
 10
62.34900683360777
 20
-511.1521246232834
 30
0.0
 10
62.06042843823617
 20
-511.4402964744517
 30
0.0
 10
61.70462228955627
 20
-511.4402964742893
 30
0.0
 10
61.70462228955627
 20
-511.4402964742893
 30
0.0
 10
54.96758829040627
 20
-511.5888877473531
 30
0.0
 10
54.96758829040627
 20
-511.5888877473531
 30
0.0
 10
54.96758829040627
 20
-511.5888877473531
 30
0.0
 10
54.96758829040627
 20
-506.4402986573313
 30
0.0
 10
54.96758829040627
 20
-506.4402986573313
 30
0.0
 10
54.96758829040627
 20
-506.4402986573313
 30
0.0
 10
24.46731553832845
 20
-506.4402986573313
 30
0.0
 10
24.46731553832845
 20
-506.4402986573313
 30
0.0
 10
24.46731553832845
 20
-506.4402986573313
 30
0.0
 10
24.46731524785825
 20
-460.338043480948
 30
0.0
 10
24.46731524785825
 20
-460.338043480948
 30
0.0
 10
24.46731524800584
 20
-459.9754497361464
 30
0.0
 10
24.76615220257336
 20
-459.6841301017807
 30
0.0
 10
25.12862830293241
 20
-459.6933659253116
 30
0.0
 10
25.12862830293241
 20
-459.6933659253116
 30
0.0
 10
25.16436465517722
 20
-459.694276480912
 30
0.0
 10
25.16436465517722
 20
-459.694276480912
 30
0.0
 10
25.39025716737304
 20
-459.7000321800504
 30
0.0
 10
25.58534635334548
 20
-459.8304845735588
 30
0.0
 10
25.70842206983076
 20
-460.0199916265972
 30
0.0
 10
26.04071749049615
 20
-460.5316467906483
 30
0.0
 10
26.67647496609691
 20
-460.828023141644
 30
0.0
 10
27.36065198174663
 20
-460.6540746148745
 30
0.0
 10
27.88283072573698
 20
-460.5213133248114
 30
0.0
 10
28.30126547188285
 20
-460.0924104610933
 30
0.0
 10
28.42453668233729
 20
-459.5679103090546
 30
0.0
 10
28.65633609308486
 20
-458.581639259005
 30
0.0
 10
27.91430873527755
 20
-457.7040765298014
 30
0.0
 10
26.96731561955576
 20
-457.7040765294202
 30
0.0
 10
26.4422494510637
 20
-457.7040765292053
 30
0.0
 10
25.980194190917
 20
-457.973858298572
 30
0.0
 10
25.71220347150787
 20
-458.3823682052368
 30
0.0
 10
25.58563963819911
 20
-458.5752949597331
 30
0.0
 10
25.38381109070761
 20
-458.7053686491336
 30
0.0
 10
25.15307524457277
 20
-458.7050433633245
 30
0.0
 10
25.15307524457277
 20
-458.7050433633245
 30
0.0
 10
25.1112951658545
 20
-458.704984462781
 30
0.0
 10
25.1112951658545
 20
-458.704984462781
 30
0.0
 10
24.75548937075205
 20
-458.704482856388
 30
0.0
 10
24.46731751957231
 20
-458.4159044610261
 30
0.0
 10
24.4673175197154
 20
-458.0600983123513
 30
0.0
 10
24.4673175197154
 20
-458.0600983123513
 30
0.0
 10
24.46731691995268
 20
-415.6902977883445
 30
0.0
 10
24.46731691995268
 20
-415.6902977883445
 30
0.0
 10
24.46731691995268
 20
-415.6902977883445
 30
0.0
 10
29.46731691870283
 20
-415.690297789916
 30
0.0
 10
29.46731691870283
 20
-415.690297789916
 30
0.0
 10
29.46731691870283
 20
-415.690297789916
 30
0.0
 10
29.46731684668559
 20
-407.9403307881128
 30
0.0
 10
29.46731684668559
 20
-407.9403307881128
 30
0.0
 10
29.46731684692751
 20
-407.5261040312143
 30
0.0
 10
29.80312387726076
 20
-407.1903121287241
 30
0.0
 10
30.21735063373835
 20
-407.1903307894984
 30
0.0
 10
30.21735063373835
 20
-407.1903307894984
 30
0.0
 10
34.14172188004135
 20
-407.1905075810669
 30
0.0
 10
34.14172188004135
 20
-407.1905075810669
 30
0.0
 10
34.44952139264323
 20
-407.190521447329
 30
0.0
 10
34.72532492989014
 20
-407.3791378943214
 30
0.0
 10
34.83668152501944
 20
-407.666087800873
 30
0.0
 10
35.63471721334306
 20
-409.7225108257128
 30
0.0
 10
37.63807565925416
 20
-411.1902964289329
 30
0.0
 10
39.9676086841672
 20
-411.1902964307508
 30
0.0
 10
39.9676086841672
 20
-411.1902964307508
 30
0.0
 10
42.56728161632142
 20
-411.1902964326592
 30
0.0
 10
42.56728161632142
 20
-411.1902964326592
 30
0.0
 10
43.11956636609142
 20
-411.1902964330917
 30
0.0
 10
43.56728161653001
 20
-410.7425811832628
 30
0.0
 10
43.56728161685215
 20
-410.190296433494
 30
0.0
 10
43.56728161685215
 20
-410.190296433494
 30
0.0
 10
43.56728162210574
 20
-401.1902964363089
 30
0.0
 10
43.56728162210574
 20
-401.1902964363089
 30
0.0
 10
43.56728162242755
 20
-400.6380116864734
 30
0.0
 10
43.11956637240702
 20
-400.1902964360964
 30
0.0
 10
42.56728162257029
 20
-400.1902964359758
 30
0.0
 10
42.56728162257029
 20
-400.1902964359758
 30
0.0
 10
39.96760868912624
 20
-400.1902964351993
 30
0.0
 10
39.96760868912624
 20
-400.1902964351993
 30
0.0
 10
37.63837352863867
 20
-400.1902964346968
 30
0.0
 10
35.63522953860301
 20
-401.6577067051559
 30
0.0
 10
34.83698770685844
 20
-403.7137162594308
 30
0.0
 10
34.7256236104034
 20
-404.0005537029331
 30
0.0
 10
34.44991936865454
 20
-404.1890980936583
 30
0.0
 10
34.14222199217717
 20
-404.1891721384654
 30
0.0
 10
34.14222199217717
 20
-404.1891721384654
 30
0.0
 10
30.21749733036371
 20
-404.1901165907215
 30
0.0
 10
30.21749733036371
 20
-404.1901165907215
 30
0.0
 10
29.8032132958536
 20
-404.1902162847172
 30
0.0
 10
29.46731684907078
 20
-403.8544006586899
 30
0.0
 10
29.46731684931206
 20
-403.4401166121871
 30
0.0
 10
29.46731684931206
 20
-403.4401166121871
 30
0.0
 10
29.46731692498827
 20
-395.6902977949155
 30
0.0
 10
29.46731692498827
 20
-395.6902977949155
 30
0.0
 10
29.46731692498827
 20
-395.6902977949155
 30
0.0
 10
24.46731692623812
 20
-395.690297793344
 30
0.0
 10
24.46731692623812
 20
-395.690297793344
 30
0.0
 10
24.46731692623812
 20
-395.690297793344
 30
0.0
 10
24.4673169490255
 20
-354.5880424583463
 30
0.0
 10
24.4673169490255
 20
-354.5880424583463
 30
0.0
 10
24.46731694917181
 20
-354.2254487135435
 30
0.0
 10
24.76615390373997
 20
-353.9341290791784
 30
0.0
 10
25.12863000409966
 20
-353.9433649027087
 30
0.0
 10
25.12863000409966
 20
-353.9433649027087
 30
0.0
 10
25.16436635634351
 20
-353.9442754583064
 30
0.0
 10
25.16436635634351
 20
-353.9442754583064
 30
0.0
 10
25.39025886854029
 20
-353.9500311574467
 30
0.0
 10
25.58534805451337
 20
-354.0804835509558
 30
0.0
 10
25.70842377099738
 20
-354.2699906039929
 30
0.0
 10
26.04071919166276
 20
-354.7816457680441
 30
0.0
 10
26.67647666726417
 20
-355.0780221190391
 30
0.0
 10
27.36065368291324
 20
-354.9040735922709
 30
0.0
 10
27.88283242690487
 20
-354.7713123022078
 30
0.0
 10
28.30126717304947
 20
-354.3424094384903
 30
0.0
 10
28.42453838350518
 20
-353.8179092864485
 30
0.0
 10
28.65633779425147
 20
-352.8316382364014
 30
0.0
 10
27.91431043644416
 20
-351.9540755071965
 30
0.0
 10
26.96731732072173
 20
-351.9540755068134
 30
0.0
 10
26.44225115222967
 20
-351.9540755066017
 30
0.0
 10
25.98019589208297
 20
-352.2238572759703
 30
0.0
 10
25.71220517267512
 20
-352.6323671826332
 30
0.0
 10
25.58564133936508
 20
-352.8252939371308
 30
0.0
 10
25.38381279187487
 20
-352.95536762653
 30
0.0
 10
25.15307694573939
 20
-352.9550423407209
 30
0.0
 10
25.15307694573939
 20
-352.9550423407209
 30
0.0
 10
25.11129686702111
 20
-352.9549834401787
 30
0.0
 10
25.11129686702111
 20
-352.9549834401787
 30
0.0
 10
24.75549107191898
 20
-352.9544818337837
 30
0.0
 10
24.4673192207402
 20
-352.6659034384237
 30
0.0
 10
24.46731922088138
 20
-352.3100972897438
 30
0.0
 10
24.46731922088138
 20
-352.3100972897438
 30
0.0
 10
24.46731616955496
 20
-309.9402977750456
 30
0.0
 10
24.46731616955496
 20
-309.9402977750456
 30
0.0
 10
24.46731616955496
 20
-309.9402977750456
 30
0.0
 10
29.46731616830511
 20
-309.9402977766171
 30
0.0
 10
29.46731616830511
 20
-309.9402977766171
 30
0.0
 10
29.46731616830511
 20
-309.9402977766171
 30
0.0
 10
29.46731652924221
 20
-302.1903348120351
 30
0.0
 10
29.46731652924221
 20
-302.1903348120351
 30
0.0
 10
29.46731652948413
 20
-301.7761080551366
 30
0.0
 10
29.80312355981674
 20
-301.4403161526465
 30
0.0
 10
30.21735031629497
 20
-301.4403348134207
 30
0.0
 10
30.21735031629497
 20
-301.4403348134207
 30
0.0
 10
34.14172156259797
 20
-301.4405116049892
 30
0.0
 10
34.14172156259797
 20
-301.4405116049892
 30
0.0
 10
34.44952107519921
 20
-301.4405254712514
 30
0.0
 10
34.72532461244611
 20
-301.6291419182437
 30
0.0
 10
34.83668120757541
 20
-301.9160918247953
 30
0.0
 10
35.63471689589904
 20
-303.9725148496352
 30
0.0
 10
37.63807534181046
 20
-305.4403004528552
 30
0.0
 10
39.96760836672317
 20
-305.4403004546731
 30
0.0
 10
39.96760836672317
 20
-305.4403004546731
 30
0.0
 10
42.5672812988774
 20
-305.4403004565816
 30
0.0
 10
42.5672812988774
 20
-305.4403004565816
 30
0.0
 10
43.11956604864675
 20
-305.4403004570141
 30
0.0
 10
43.56728129908599
 20
-304.9925852071851
 30
0.0
 10
43.56728129940876
 20
-304.4403004574164
 30
0.0
 10
43.56728129940876
 20
-304.4403004574164
 30
0.0
 10
43.56728130466107
 20
-295.4403004602312
 30
0.0
 10
43.56728130466107
 20
-295.4403004602312
 30
0.0
 10
43.56728130498384
 20
-294.8880157103957
 30
0.0
 10
43.119566054963
 20
-294.4403004600194
 30
0.0
 10
42.56728130512627
 20
-294.4403004598988
 30
0.0
 10
42.56728130512627
 20
-294.4403004598988
 30
0.0
 10
39.96760837168222
 20
-294.4403004591217
 30
0.0
 10
39.96760837168222
 20
-294.4403004591217
 30
0.0
 10
37.63837321119529
 20
-294.4403004586192
 30
0.0
 10
35.63522922115899
 20
-295.9077107290776
 30
0.0
 10
34.83698738941377
 20
-297.9637202833532
 30
0.0
 10
34.72562329295938
 20
-298.2505577268554
 30
0.0
 10
34.44991905121116
 20
-298.4391021175813
 30
0.0
 10
34.14222167473443
 20
-298.439176162388
 30
0.0
 10
34.14222167473443
 20
-298.439176162388
 30
0.0
 10
30.21749701292033
 20
-298.4401206146438
 30
0.0
 10
30.21749701292033
 20
-298.4401206146438
 30
0.0
 10
29.80321297840958
 20
-298.4402203086395
 30
0.0
 10
29.46731653162676
 20
-298.1044046826129
 30
0.0
 10
29.46731653186868
 20
-297.6901206361094
 30
0.0
 10
29.46731653186868
 20
-297.6901206361094
 30
0.0
 10
29.46731617458991
 20
-289.9402977816166
 30
0.0
 10
29.46731617458991
 20
-289.9402977816166
 30
0.0
 10
29.46731617458991
 20
-289.9402977816166
 30
0.0
 10
24.4673161758404
 20
-289.940297780045
 30
0.0
 10
24.4673161758404
 20
-289.940297780045
 30
0.0
 10
24.4673161758404
 20
-289.940297780045
 30
0.0
 10
24.46731478130069
 20
-248.2130452664904
 30
0.0
 10
24.46731478130069
 20
-248.2130452664904
 30
0.0
 10
24.46731478144764
 20
-247.8504515216879
 30
0.0
 10
24.76615173601516
 20
-247.5591318873232
 30
0.0
 10
25.12862783637485
 20
-247.5683677108522
 30
0.0
 10
25.12862783637485
 20
-247.5683677108522
 30
0.0
 10
25.16436418861902
 20
-247.5692782664509
 30
0.0
 10
25.16436418861902
 20
-247.5692782664509
 30
0.0
 10
25.39025670081548
 20
-247.5750339655915
 30
0.0
 10
25.58534588678792
 20
-247.705486359099
 30
0.0
 10
25.70842160327321
 20
-247.8949934121371
 30
0.0
 10
26.04071702393795
 20
-248.4066485761873
 30
0.0
 10
26.67647449953936
 20
-248.7030249271835
 30
0.0
 10
27.36065151518843
 20
-248.5290764004144
 30
0.0
 10
27.88283025917942
 20
-248.3963151103533
 30
0.0
 10
28.30126500532466
 20
-247.9674122466341
 30
0.0
 10
28.42453621577974
 20
-247.4429120945933
 30
0.0
 10
28.65633562652666
 20
-246.4566410445449
 30
0.0
 10
27.91430826871936
 20
-245.5790783153397
 30
0.0
 10
26.96731515299757
 20
-245.5790783149579
 30
0.0
 10
26.4422489845055
 20
-245.5790783147448
 30
0.0
 10
25.9801937243588
 20
-245.8488600841145
 30
0.0
 10
25.71220300494967
 20
-246.2573699907763
 30
0.0
 10
25.58563917164155
 20
-246.4502967452756
 30
0.0
 10
25.38381062415006
 20
-246.5803704346732
 30
0.0
 10
25.15307477801522
 20
-246.580045148866
 30
0.0
 10
25.15307477801522
 20
-246.580045148866
 30
0.0
 10
25.11129469929694
 20
-246.5799862483215
 30
0.0
 10
25.11129469929694
 20
-246.5799862483215
 30
0.0
 10
24.75548890419385
 20
-246.5794846419269
 30
0.0
 10
24.46731705301475
 20
-246.2909062465679
 30
0.0
 10
24.46731705315721
 20
-245.9351000978883
 30
0.0
 10
24.46731705315721
 20
-245.9351000978883
 30
0.0
 10
24.46731484280562
 20
-204.1902984346169
 30
0.0
 10
24.46731484280562
 20
-204.1902984346169
 30
0.0
 10
24.46731484280562
 20
-204.1902984346169
 30
0.0
 10
29.46731484155577
 20
-204.1902984361884
 30
0.0
 10
29.46731484155577
 20
-204.1902984361884
 30
0.0
 10
29.46731484155577
 20
-204.1902984361884
 30
0.0
 10
29.46731520249287
 20
-196.4403344623014
 30
0.0
 10
29.46731520249287
 20
-196.4403344623014
 30
0.0
 10
29.46731520273478
 20
-196.0261077054029
 30
0.0
 10
29.80312223306739
 20
-195.690315802913
 30
0.0
 10
30.21734898954563
 20
-195.6903344636873
 30
0.0
 10
30.21734898954563
 20
-195.6903344636873
 30
0.0
 10
34.1417202358483
 20
-195.6905112552558
 30
0.0
 10
34.1417202358483
 20
-195.6905112552558
 30
0.0
 10
34.44951974845019
 20
-195.6905251215176
 30
0.0
 10
34.72532328569613
 20
-195.8791415685093
 30
0.0
 10
34.83667988082543
 20
-196.1660914750616
 30
0.0
 10
35.6347155691497
 20
-198.2225144999015
 30
0.0
 10
37.63807401506144
 20
-199.6903001031205
 30
0.0
 10
39.96760703997447
 20
-199.6903001049391
 30
0.0
 10
39.96760703997447
 20
-199.6903001049391
 30
0.0
 10
42.5672799721287
 20
-199.6903001068482
 30
0.0
 10
42.5672799721287
 20
-199.6903001068482
 30
0.0
 10
43.11956472189902
 20
-199.6903001072797
 30
0.0
 10
43.56727997233665
 20
-199.242584857451
 30
0.0
 10
43.56727997265878
 20
-198.6903001076823
 30
0.0
 10
43.56727997265878
 20
-198.6903001076823
 30
0.0
 10
43.56727997791173
 20
-189.6903001104972
 30
0.0
 10
43.56727997791173
 20
-189.6903001104972
 30
0.0
 10
43.56727997823451
 20
-189.1380153606611
 30
0.0
 10
43.11956472821366
 20
-188.690300110285
 30
0.0
 10
42.56727997837757
 20
-188.6903001101644
 30
0.0
 10
42.56727997837757
 20
-188.6903001101644
 30
0.0
 10
39.96760704493352
 20
-188.6903001093876
 30
0.0
 10
39.96760704493352
 20
-188.6903001093876
 30
0.0
 10
37.63837188444531
 20
-188.6903001088852
 30
0.0
 10
35.63522789441029
 20
-190.1577103793432
 30
0.0
 10
34.83698606266539
 20
-192.2137199336191
 30
0.0
 10
34.72562196621068
 20
-192.5005573771211
 30
0.0
 10
34.44991772446182
 20
-192.6891017678473
 30
0.0
 10
34.14222034798444
 20
-192.6891758126537
 30
0.0
 10
34.14222034798444
 20
-192.6891758126537
 30
0.0
 10
30.21749568617099
 20
-192.6901202649098
 30
0.0
 10
30.21749568617099
 20
-192.6901202649098
 30
0.0
 10
29.80321165166024
 20
-192.6902199589055
 30
0.0
 10
29.46731520487742
 20
-192.3544043328782
 30
0.0
 10
29.46731520511998
 20
-191.9401202863757
 30
0.0
 10
29.46731520511998
 20
-191.9401202863757
 30
0.0
 10
29.46731484784185
 20
-184.1902984411878
 30
0.0
 10
29.46731484784185
 20
-184.1902984411878
 30
0.0
 10
29.46731484784185
 20
-184.1902984411878
 30
0.0
 10
24.46731484909106
 20
-184.190298439616
 30
0.0
 10
24.46731484909106
 20
-184.190298439616
 30
0.0
 10
24.46731484909106
 20
-184.190298439616
 30
0.0
 10
24.4673153040467
 20
-147.4630411855799
 30
0.0
 10
24.4673153040467
 20
-147.4630411855799
 30
0.0
 10
24.46731530419364
 20
-147.1004474407773
 30
0.0
 10
24.76615225876116
 20
-146.8091278064129
 30
0.0
 10
25.12862835912086
 20
-146.818363629942
 30
0.0
 10
25.12862835912086
 20
-146.818363629942
 30
0.0
 10
25.16436471136503
 20
-146.8192741855407
 30
0.0
 10
25.16436471136503
 20
-146.8192741855407
 30
0.0
 10
25.39025722356149
 20
-146.825029884681
 30
0.0
 10
25.58534640953393
 20
-146.9554822781888
 30
0.0
 10
25.70842212601922
 20
-147.1449893312268
 30
0.0
 10
26.04071754668396
 20
-147.656644495277
 30
0.0
 10
26.67647502228472
 20
-147.9530208462733
 30
0.0
 10
27.36065203793444
 20
-147.7790723195042
 30
0.0
 10
27.88283078192543
 20
-147.6463110294424
 30
0.0
 10
28.30126552807067
 20
-147.2174081657236
 30
0.0
 10
28.42453673852606
 20
-146.692908013683
 30
0.0
 10
28.65633614927267
 20
-145.7066369636343
 30
0.0
 10
27.91430879146536
 20
-144.8290742344294
 30
0.0
 10
26.96731567574357
 20
-144.8290742340476
 30
0.0
 10
26.44224950725151
 20
-144.8290742338346
 30
0.0
 10
25.98019424710481
 20
-145.0988560032042
 30
0.0
 10
25.71220352769567
 20
-145.5073659098661
 30
0.0
 10
25.58563969438692
 20
-145.7002926643647
 30
0.0
 10
25.38381114689543
 20
-145.830366353763
 30
0.0
 10
25.15307530076122
 20
-145.8300410679554
 30
0.0
 10
25.15307530076122
 20
-145.8300410679554
 30
0.0
 10
25.11129522204295
 20
-145.8299821674116
 30
0.0
 10
25.11129522204295
 20
-145.8299821674116
 30
0.0
 10
24.75548942693986
 20
-145.829480561017
 30
0.0
 10
24.46731757576076
 20
-145.5409021656576
 30
0.0
 10
24.46731757590322
 20
-145.1850960169777
 30
0.0
 10
24.46731757590322
 20
-145.1850960169777
 30
0.0
 10
24.46731595696777
 20
-113.3884703995821
 30
0.0
 10
24.46731595696777
 20
-113.3884703995821
 30
0.0
  0
SPLINE
  5
69
330
5F
100
AcDbEntity
  8
Layer 1
 62
   177
420
  3027090
370
     9
100
AcDbSpline
210
0.0
220
0.0
230
1.0
 70
    11
 71
     3
 72
    17
 73
    13
 74
     0
 42
0.0000000001
 43
0.0000000001
 12
1.0
 22
0.0
 32
0.0
 13
1.0
 23
0.0
 33
0.0
 40
0.0
 40
0.0
 40
0.0
 40
0.0
 40
1.0
 40
1.0
 40
1.0
 40
2.0
 40
2.0
 40
2.0
 40
3.0
 40
3.0
 40
3.0
 40
4.0
 40
4.0
 40
4.0
 40
4.0
 10
185.4829627166627
 20
-99.94038477678615
 30
0.0
 10
185.4829627164393
 20
-101.1830254635258
 30
0.0
 10
184.4756034035605
 20
-102.1903847760426
 30
0.0
 10
183.2329627168212
 20
-102.1903847758193
 30
0.0
 10
181.9903220300813
 20
-102.1903847755964
 30
0.0
 10
180.9829627175644
 20
-101.1830254627175
 30
0.0
 10
180.9829627177877
 20
-99.94038477597792
 30
0.0
 10
180.9829627180104
 20
-98.69774408923864
 30
0.0
 10
181.9903220308892
 20
-97.69038477672142
 30
0.0
 10
183.2329627176288
 20
-97.6903847769444
 30
0.0
 10
184.4756034043684
 20
-97.69038477716772
 30
0.0
 10
185.4829627168853
 20
-98.69774409004687
 30
0.0
 10
185.4829627166627
 20
-99.94038477678615
 30
0.0
  0
SPLINE
  5
6A
330
5F
100
AcDbEntity
  8
Layer 1
 62
   177
420
  3027090
370
     9
100
AcDbSpline
210
0.0
220
0.0
230
1.0
 70
    11
 71
     3
 72
    17
 73
    13
 74
     0
 42
0.0000000001
 43
0.0000000001
 12
1.0
 22
0.0
 32
0.0
 13
1.0
 23
0.0
 33
0.0
 40
0.0
 40
0.0
 40
0.0
 40
0.0
 40
1.0
 40
1.0
 40
1.0
 40
2.0
 40
2.0
 40
2.0
 40
3.0
 40
3.0
 40
3.0
 40
4.0
 40
4.0
 40
4.0
 40
4.0
 10
241.3253636896892
 20
-99.94038440821988
 30
0.0
 10
241.3253636894659
 20
-101.1830250949592
 30
0.0
 10
240.3180043765858
 20
-102.1903844074764
 30
0.0
 10
239.0753636898475
 20
-102.1903844072534
 30
0.0
 10
237.8327230031079
 20
-102.1903844070301
 30
0.0
 10
236.825363690591
 20
-101.1830250941509
 30
0.0
 10
236.8253636908143
 20
-99.94038440741167
 30
0.0
 10
236.825363691037
 20
-98.69774372067238
 30
0.0
 10
237.8327230039174
 20
-97.69038440815515
 30
0.0
 10
239.0753636906554
 20
-97.69038440837846
 30
0.0
 10
240.318004377395
 20
-97.69038440860146
 30
0.0
 10
241.3253636899119
 20
-98.6977437214806
 30
0.0
 10
241.3253636896892
 20
-99.94038440821988
 30
0.0
  0
POLYLINE
  5
6B
330
5F
100
AcDbEntity
  8
Layer 1
 62
   240
420
 15539236
370
     9
100
AcDb2dPolyline
 66
     1
 10
0.0
 20
0.0
 30
0.0
  0
VERTEX
  5
6C
330
6B
100
AcDbEntity
  8
Layer 1
 62
   240
420
 15539236
370
     9
100
AcDbVertex
100
AcDb2dVertex
 10
29.46731531340477
 20
-88.3885260761235
 30
0.0
  0
VERTEX
  5
6D
330
6B
100
AcDbEntity
  8
Layer 1
 62
   240
420
 15539236
370
     9
100
AcDbVertex
100
AcDb2dVertex
 10
29.46731530891577
 20
-113.3885260698736
 30
0.0
  0
VERTEX
  5
6E
330
6B
100
AcDbEntity
  8
Layer 1
 62
   240
420
 15539236
370
     9
100
AcDbVertex
100
AcDb2dVertex
 10
24.4673153101653
 20
-113.3885260689755
 30
0.0
  0
SEQEND
  5
6F
330
6B
100
AcDbEntity
  8
Layer 1
 62
   240
420
 15539236
370
     9
  0
SPLINE
  5
70
330
5F
100
AcDbEntity
  8
Layer 1
 62
   177
420
  3027090
370
     9
100
AcDbSpline
210
0.0
220
0.0
230
1.0
 70
    11
 71
     3
 72
    17
 73
    13
 74
     0
 42
0.0000000001
 43
0.0000000001
 12
1.0
 22
0.0
 32
0.0
 13
1.0
 23
0.0
 33
0.0
 40
0.0
 40
0.0
 40
0.0
 40
0.0
 40
1.0
 40
1.0
 40
1.0
 40
2.0
 40
2.0
 40
2.0
 40
3.0
 40
3.0
 40
3.0
 40
4.0
 40
4.0
 40
4.0
 40
4.0
 10
177.2899505109937
 20
-132.7132590180615
 30
0.0
 10
177.2899505107704
 20
-133.9558997048011
 30
0.0
 10
176.2825911978915
 20
-134.9632590173177
 30
0.0
 10
175.0399505111519
 20
-134.9632590170944
 30
0.0
 10
173.7973098244123
 20
-134.9632590168711
 30
0.0
 10
172.7899505118954
 20
-133.9558997039929
 30
0.0
 10
172.7899505121187
 20
-132.7132590172533
 30
0.0
 10
172.789950512342
 20
-131.4706183305137
 30
0.0
 10
173.7973098252209
 20
-130.4632590179955
 30
0.0
 10
175.0399505119598
 20
-130.4632590182188
 30
0.0
 10
176.2825911986994
 20
-130.4632590184421
 30
0.0
 10
177.289950511217
 20
-131.4706183313219
 30
0.0
 10
177.2899505109937
 20
-132.7132590180615
 30
0.0
  0
ENDBLK
  5
62
330
5F
100
AcDbEntity
  8
0
100
AcDbBlockEnd
  0
ENDSEC
  0
SECTION
  2
ENTITIES
  0
INSERT
  5
42
330
1F
100
AcDbEntity
  8
Layer 1
100
AcDbBlockReference
  2
block 2
 10
0.0
 20
0.0
 30
0.0
  0
ENDSEC
  0
SECTION
  2
OBJECTS
  0
DICTIONARY
  5
C
330
0
100
AcDbDictionary
281
     1
  3
ACAD_GROUP
350
D
  3
ACAD_LAYOUT
350
1A
  3
ACAD_MATERIAL
350
3B
  3
ACAD_MLEADERSTYLE
350
72
  3
ACAD_MLINESTYLE
350
17
  3
ACAD_PLOTSETTINGS
350
19
  3
ACAD_PLOTSTYLENAME
350
E
  3
ACAD_TABLESTYLE
350
71
  3
ACAD_VISUALSTYLE
350
2A
  0
SUN
  5
3F
330
29
100
AcDbSun
 90
        1
290
     0
 63
     7
421
 16777215
 40
1.0
291
     1
 91
  2455826
 92
 54000000
292
     0
 70
     2
 71
   256
280
     1
  0
DICTIONARY
  5
D
102
{ACAD_REACTORS
330
C
102
}
330
C
100
AcDbDictionary
281
     1
  0
DICTIONARY
  5
1A
102
{ACAD_REACTORS
330
C
102
}
330
C
100
AcDbDictionary
281
     1
  3
Layout1
350
1E
  3
Layout2
350
26
  3
Model
350
22
  0
DICTIONARY
  5
3B
102
{ACAD_REACTORS
330
C
102
}
330
C
100
AcDbDictionary
281
     1
  3
ByBlock
350
3D
  3
ByLayer
350
3C
  3
Global
350
3E
  0
DICTIONARY
  5
72
102
{ACAD_REACTORS
330
C
102
}
330
C
100
AcDbDictionary
281
     1
  0
DICTIONARY
  5
17
102
{ACAD_REACTORS
330
C
102
}
330
C
100
AcDbDictionary
281
     1
  3
Standard
350
18
  0
DICTIONARY
  5
19
102
{ACAD_REACTORS
330
C
102
}
330
C
100
AcDbDictionary
281
     1
  0
ACDBDICTIONARYWDFLT
  5
E
102
{ACAD_REACTORS
330
C
102
}
330
C
100
AcDbDictionary
281
     1
  3
Normal
350
F
100
AcDbDictionaryWithDefault
340
F
  0
DICTIONARY
  5
71
102
{ACAD_REACTORS
330
C
102
}
330
C
100
AcDbDictionary
281
     1
  0
DICTIONARY
  5
2A
102
{ACAD_REACTORS
330
C
102
}
330
C
100
AcDbDictionary
281
     1
  3
2dWireframe
350
2F
  3
3D Hidden
350
31
  3
3dWireframe
350
30
  3
Basic
350
32
  3
Brighten
350
36
  3
ColorChange
350
3A
  3
Conceptual
350
34
  3
Dim
350
35
  3
Facepattern
350
39
  3
Flat
350
2B
  3
FlatWithEdges
350
2C
  3
Gouraud
350
2D
  3
GouraudWithEdges
350
2E
  3
Linepattern
350
38
  3
Realistic
350
33
  3
Thicken
350
37
  0
LAYOUT
  5
1E
102
{ACAD_REACTORS
330
1A
102
}
330
1A
100
AcDbPlotSettings
  1

  2
none_device
  4

  6

 40
0.0
 41
0.0
 42
0.0
 43
0.0
 44
0.0
 45
0.0
 46
0.0
 47
0.0
 48
0.0
 49
0.0
140
0.0
141
0.0
142
1.0
143
1.0
 70
   688
 72
     0
 73
     0
 74
     5
  7

 75
    16
 76
     0
 77
     2
 78
   300
147
1.0
148
0.0
149
0.0
100
AcDbLayout
  1
Layout1
 70
     1
 71
     1
 10
0.0
 20
0.0
 11
12.0
 21
9.0
 12
0.0
 22
0.0
 32
0.0
 14
1.000000000000000E+20
 24
1.000000000000000E+20
 34
1.000000000000000E+20
 15
-1.000000000000000E+20
 25
-1.000000000000000E+20
 35
-1.000000000000000E+20
146
0.0
 13
0.0
 23
0.0
 33
0.0
 16
1.0
 26
0.0
 36
0.0
 17
0.0
 27
1.0
 37
0.0
 76
     0
330
1B
  0
LAYOUT
  5
26
102
{ACAD_REACTORS
330
1A
102
}
330
1A
100
AcDbPlotSettings
  1

  2
none_device
  4

  6

 40
0.0
 41
0.0
 42
0.0
 43
0.0
 44
0.0
 45
0.0
 46
0.0
 47
0.0
 48
0.0
 49
0.0
140
0.0
141
0.0
142
1.0
143
1.0
 70
   688
 72
     0
 73
     0
 74
     5
  7

 75
    16
 76
     0
 77
     2
 78
   300
147
1.0
148
0.0
149
0.0
100
AcDbLayout
  1
Layout2
 70
     1
 71
     2
 10
0.0
 20
0.0
 11
0.0
 21
0.0
 12
0.0
 22
0.0
 32
0.0
 14
0.0
 24
0.0
 34
0.0
 15
0.0
 25
0.0
 35
0.0
146
0.0
 13
0.0
 23
0.0
 33
0.0
 16
1.0
 26
0.0
 36
0.0
 17
0.0
 27
1.0
 37
0.0
 76
     0
330
23
  0
LAYOUT
  5
22
102
{ACAD_REACTORS
330
1A
102
}
330
1A
100
AcDbPlotSettings
  1

  2
none_device
  4

  6

 40
0.0
 41
0.0
 42
0.0
 43
0.0
 44
0.0
 45
0.0
 46
0.0
 47
0.0
 48
0.0
 49
0.0
140
0.0
141
0.0
142
1.0
143
1.0
 70
  1712
 72
     0
 73
     0
 74
     0
  7

 75
     0
 76
     0
 77
     2
 78
   300
147
1.0
148
0.0
149
0.0
100
AcDbLayout
  1
Model
 70
     1
 71
     0
 10
0.0
 20
0.0
 11
12.0
 21
9.0
 12
0.0
 22
0.0
 32
0.0
 14
1.000000000000000E+20
 24
1.000000000000000E+20
 34
1.000000000000000E+20
 15
-1.000000000000000E+20
 25
-1.000000000000000E+20
 35
-1.000000000000000E+20
146
0.0
 13
0.0
 23
0.0
 33
0.0
 16
1.0
 26
0.0
 36
0.0
 17
0.0
 27
1.0
 37
0.0
 76
     0
330
1F
331
29
  0
MATERIAL
  5
3D
102
{ACAD_REACTORS
330
3B
102
}
330
3B
100
AcDbMaterial
  1
ByBlock
 72
     1
 94
      127
  0
MATERIAL
  5
3C
102
{ACAD_REACTORS
330
3B
102
}
330
3B
100
AcDbMaterial
  1
ByLayer
 72
     1
 94
      127
  0
MATERIAL
  5
3E
102
{ACAD_REACTORS
330
3B
102
}
330
3B
100
AcDbMaterial
  1
Global
 72
     1
 94
      127
  0
MLINESTYLE
  5
18
102
{ACAD_REACTORS
330
17
102
}
330
17
100
AcDbMlineStyle
  2
Standard
 70
     0
  3

 62
   256
 51
90.0
 52
90.0
 71
     2
 49
0.5
 62
   256
  6
BYLAYER
 49
-0.5
 62
   256
  6
BYLAYER
  0
ACDBPLACEHOLDER
  5
F
102
{ACAD_REACTORS
330
E
102
}
330
E
  0
VISUALSTYLE
  5
2F
102
{ACAD_REACTORS
330
2A
102
}
330
2A
100
AcDbVisualStyle
  2
2dWireframe
 70
     4
177
     2
291
     0
 71
     0
176
     1
 72
     2
176
     1
 73
     0
176
     1
 90
        0
176
     1
 40
-0.6
176
     1
 41
-30.0
176
     1
 62
     5
 63
     7
421
 16777215
176
     1
 74
     1
176
     1
 91
        4
176
     1
 64
     7
176
     1
 65
   257
176
     1
 75
     1
176
     1
175
     1
176
     1
 42
1.0
176
     1
 92
        0
176
     1
 66
   257
176
     1
 43
1.0
176
     1
 76
     1
176
     1
 77
     6
176
     1
 78
     2
176
     1
 67
     7
176
     1
 79
     5
176
     1
170
     0
176
     1
171
     0
176
     1
290
     0
176
     1
 93
        1
176
     1
 44
0.0
176
     1
173
     0
176
     1
  0
VISUALSTYLE
  5
31
102
{ACAD_REACTORS
330
2A
102
}
330
2A
100
AcDbVisualStyle
  2
3D Hidden
 70
     6
177
     2
291
     0
 71
     1
176
     1
 72
     2
176
     1
 73
     2
176
     1
 90
        0
176
     1
 40
-0.6
176
     1
 41
-30.0
176
     1
 62
     5
 63
     7
421
 16777215
176
     1
 74
     2
176
     1
 91
        2
176
     1
 64
     7
176
     1
 65
   257
176
     1
 75
     2
176
     1
175
     1
176
     1
 42
40.0
176
     1
 92
        0
176
     1
 66
   257
176
     1
 43
1.0
176
     1
 76
     1
176
     1
 77
     6
176
     1
 78
     2
176
     1
 67
     7
176
     1
 79
     3
176
     1
170
     0
176
     1
171
     0
176
     1
290
     0
176
     1
 93
        1
176
     1
 44
0.0
176
     1
173
     0
176
     1
  0
VISUALSTYLE
  5
30
102
{ACAD_REACTORS
330
2A
102
}
330
2A
100
AcDbVisualStyle
  2
3dWireframe
 70
     5
177
     2
291
     0
 71
     0
176
     1
 72
     2
176
     1
 73
     0
176
     1
 90
        0
176
     1
 40
-0.6
176
     1
 41
-30.0
176
     1
 62
     5
 63
     7
421
 16777215
176
     1
 74
     1
176
     1
 91
        4
176
     1
 64
     7
176
     1
 65
   257
176
     1
 75
     1
176
     1
175
     1
176
     1
 42
1.0
176
     1
 92
        0
176
     1
 66
   257
176
     1
 43
1.0
176
     1
 76
     1
176
     1
 77
     6
176
     1
 78
     2
176
     1
 67
     7
176
     1
 79
     5
176
     1
170
     0
176
     1
171
     0
176
     1
290
     0
176
     1
 93
        1
176
     1
 44
0.0
176
     1
173
     0
176
     1
  0
VISUALSTYLE
  5
32
102
{ACAD_REACTORS
330
2A
102
}
330
2A
100
AcDbVisualStyle
  2
Basic
 70
     7
177
     2
291
     1
 71
     1
176
     1
 72
     0
176
     1
 73
     1
176
     1
 90
        0
176
     1
 40
-0.6
176
     1
 41
-30.0
176
     1
 62
     5
 63
     7
421
 16777215
176
     1
 74
     0
176
     1
 91
        4
176
     1
 64
     7
176
     1
 65
   257
176
     1
 75
     1
176
     1
175
     1
176
     1
 42
1.0
176
     1
 92
        8
176
     1
 66
     7
176
     1
 43
1.0
176
     1
 76
     1
176
     1
 77
     6
176
     1
 78
     2
176
     1
 67
     7
176
     1
 79
     5
176
     1
170
     0
176
     1
171
     0
176
     1
290
     0
176
     1
 93
        1
176
     1
 44
0.0
176
     1
173
     0
176
     1
  0
VISUALSTYLE
  5
36
102
{ACAD_REACTORS
330
2A
102
}
330
2A
100
AcDbVisualStyle
  2
Brighten
 70
    12
177
     2
291
     1
 71
     2
176
     1
 72
     2
176
     1
 73
     0
176
     1
 90
        0
176
     1
 40
-0.6
176
     1
 41
-30.0
176
     1
 62
     5
 63
     7
421
 16777215
176
     1
 74
     1
176
     1
 91
        4
176
     1
 64
     7
176
     1
 65
   257
176
     1
 75
     1
176
     1
175
     1
176
     1
 42
1.0
176
     1
 92
        8
176
     1
 66
     7
176
     1
 43
1.0
176
     1
 76
     1
176
     1
 77
     6
176
     1
 78
     2
176
     1
 67
     7
176
     1
 79
     5
176
     1
170
     0
176
     1
171
     0
176
     1
290
     0
176
     1
 93
        1
176
     1
 44
50.0
176
     1
173
     0
176
     1
  0
VISUALSTYLE
  5
3A
102
{ACAD_REACTORS
330
2A
102
}
330
2A
100
AcDbVisualStyle
  2
ColorChange
 70
    16
177
     2
291
     1
 71
     2
176
     1
 72
     2
176
     1
 73
     3
176
     1
 90
        0
176
     1
 40
-0.6
176
     1
 41
-30.0
176
     1
 62
     5
 63
     8
421
  8421504
176
     1
 74
     1
176
     1
 91
        4
176
     1
 64
     7
176
     1
 65
   257
176
     1
 75
     1
176
     1
175
     1
176
     1
 42
1.0
176
     1
 92
        8
176
     1
 66
     8
424
  8421504
176
     1
 43
1.0
176
     1
 76
     1
176
     1
 77
     6
176
     1
 78
     2
176
     1
 67
     7
176
     1
 79
     5
176
     1
170
     0
176
     1
171
     0
176
     1
290
     0
176
     1
 93
        1
176
     1
 44
0.0
176
     1
173
     0
176
     1
  0
VISUALSTYLE
  5
34
102
{ACAD_REACTORS
330
2A
102
}
330
2A
100
AcDbVisualStyle
  2
Conceptual
 70
     9
177
     2
291
     0
 71
     3
176
     1
 72
     2
176
     1
 73
     0
176
     1
 90
        0
176
     1
 40
-0.6
176
     1
 41
-30.0
176
     1
 62
     5
 63
     7
421
 16777215
176
     1
 74
     2
176
     1
 91
        2
176
     1
 64
     7
176
     1
 65
   257
176
     1
 75
     1
176
     1
175
     1
176
     1
 42
40.0
176
     1
 92
        8
176
     1
 66
     7
176
     1
 43
1.0
176
     1
 76
     1
176
     1
 77
     6
176
     1
 78
     2
176
     1
 67
     7
176
     1
 79
     3
176
     1
170
     0
176
     1
171
     0
176
     1
290
     0
176
     1
 93
        1
176
     1
 44
0.0
176
     1
173
     0
176
     1
  0
VISUALSTYLE
  5
35
102
{ACAD_REACTORS
330
2A
102
}
330
2A
100
AcDbVisualStyle
  2
Dim
 70
    11
177
     2
291
     1
 71
     2
176
     1
 72
     2
176
     1
 73
     0
176
     1
 90
        0
176
     1
 40
-0.6
176
     1
 41
-30.0
176
     1
 62
     5
 63
     7
421
 16777215
176
     1
 74
     1
176
     1
 91
        4
176
     1
 64
     7
176
     1
 65
   257
176
     1
 75
     1
176
     1
175
     1
176
     1
 42
1.0
176
     1
 92
        8
176
     1
 66
     7
176
     1
 43
1.0
176
     1
 76
     1
176
     1
 77
     6
176
     1
 78
     2
176
     1
 67
     7
176
     1
 79
     5
176
     1
170
     0
176
     1
171
     0
176
     1
290
     0
176
     1
 93
        1
176
     1
 44
-50.0
176
     1
173
     0
176
     1
  0
VISUALSTYLE
  5
39
102
{ACAD_REACTORS
330
2A
102
}
330
2A
100
AcDbVisualStyle
  2
Facepattern
 70
    15
177
     2
291
     1
 71
     2
176
     1
 72
     2
176
     1
 73
     0
176
     1
 90
        0
176
     1
 40
-0.6
176
     1
 41
-30.0
176
     1
 62
     5
 63
     7
421
 16777215
176
     1
 74
     1
176
     1
 91
        4
176
     1
 64
     7
176
     1
 65
   257
176
     1
 75
     1
176
     1
175
     1
176
     1
 42
1.0
176
     1
 92
        8
176
     1
 66
     7
176
     1
 43
1.0
176
     1
 76
     1
176
     1
 77
     6
176
     1
 78
     2
176
     1
 67
     7
176
     1
 79
     5
176
     1
170
     0
176
     1
171
     0
176
     1
290
     0
176
     1
 93
        1
176
     1
 44
0.0
176
     1
173
     0
176
     1
  0
VISUALSTYLE
  5
2B
102
{ACAD_REACTORS
330
2A
102
}
330
2A
100
AcDbVisualStyle
  2
Flat
 70
     0
177
     2
291
     1
 71
     2
176
     1
 72
     1
176
     1
 73
     1
176
     1
 90
        2
176
     1
 40
-0.6
176
     1
 41
30.0
176
     1
 62
     5
 63
     7
421
 16777215
176
     1
 74
     0
176
     1
 91
        4
176
     1
 64
     7
176
     1
 65
   257
176
     1
 75
     1
176
     1
175
     1
176
     1
 42
1.0
176
     1
 92
        8
176
     1
 66
     7
176
     1
 43
1.0
176
     1
 76
     1
176
     1
 77
     6
176
     1
 78
     2
176
     1
 67
     7
176
     1
 79
     5
176
     1
170
     0
176
     1
171
     0
176
     1
290
     0
176
     1
 93
       13
176
     1
 44
0.0
176
     1
173
     0
176
     1
  0
VISUALSTYLE
  5
2C
102
{ACAD_REACTORS
330
2A
102
}
330
2A
100
AcDbVisualStyle
  2
FlatWithEdges
 70
     1
177
     2
291
     1
 71
     2
176
     1
 72
     1
176
     1
 73
     1
176
     1
 90
        2
176
     1
 40
-0.6
176
     1
 41
30.0
176
     1
 62
     5
 63
     7
421
 16777215
176
     1
 74
     1
176
     1
 91
        4
176
     1
 64
     7
176
     1
 65
   257
176
     1
 75
     1
176
     1
175
     1
176
     1
 42
1.0
176
     1
 92
        0
176
     1
 66
   257
176
     1
 43
1.0
176
     1
 76
     1
176
     1
 77
     6
176
     1
 78
     2
176
     1
 67
     7
176
     1
 79
     5
176
     1
170
     0
176
     1
171
     0
176
     1
290
     0
176
     1
 93
       13
176
     1
 44
0.0
176
     1
173
     0
176
     1
  0
VISUALSTYLE
  5
2D
102
{ACAD_REACTORS
330
2A
102
}
330
2A
100
AcDbVisualStyle
  2
Gouraud
 70
     2
177
     2
291
     1
 71
     2
176
     1
 72
     2
176
     1
 73
     1
176
     1
 90
        2
176
     1
 40
-0.6
176
     1
 41
30.0
176
     1
 62
     5
 63
     7
421
 16777215
176
     1
 74
     0
176
     1
 91
        4
176
     1
 64
     7
176
     1
 65
   257
176
     1
 75
     1
176
     1
175
     1
176
     1
 42
1.0
176
     1
 92
        0
176
     1
 66
     7
176
     1
 43
1.0
176
     1
 76
     1
176
     1
 77
     6
176
     1
 78
     2
176
     1
 67
     7
176
     1
 79
     5
176
     1
170
     0
176
     1
171
     0
176
     1
290
     0
176
     1
 93
       13
176
     1
 44
0.0
176
     1
173
     0
176
     1
  0
VISUALSTYLE
  5
2E
102
{ACAD_REACTORS
330
2A
102
}
330
2A
100
AcDbVisualStyle
  2
GouraudWithEdges
 70
     3
177
     2
291
     1
 71
     2
176
     1
 72
     2
176
     1
 73
     1
176
     1
 90
        2
176
     1
 40
-0.6
176
     1
 41
30.0
176
     1
 62
     5
 63
     7
421
 16777215
176
     1
 74
     1
176
     1
 91
        4
176
     1
 64
     7
176
     1
 65
   257
176
     1
 75
     1
176
     1
175
     1
176
     1
 42
1.0
176
     1
 92
        0
176
     1
 66
   257
176
     1
 43
1.0
176
     1
 76
     1
176
     1
 77
     6
176
     1
 78
     2
176
     1
 67
     7
176
     1
 79
     5
176
     1
170
     0
176
     1
171
     0
176
     1
290
     0
176
     1
 93
       13
176
     1
 44
0.0
176
     1
173
     0
176
     1
  0
VISUALSTYLE
  5
38
102
{ACAD_REACTORS
330
2A
102
}
330
2A
100
AcDbVisualStyle
  2
Linepattern
 70
    14
177
     2
291
     1
 71
     2
176
     1
 72
     2
176
     1
 73
     0
176
     1
 90
        0
176
     1
 40
-0.6
176
     1
 41
-30.0
176
     1
 62
     5
 63
     7
421
 16777215
176
     1
 74
     1
176
     1
 91
        4
176
     1
 64
     7
176
     1
 65
   257
176
     1
 75
     7
176
     1
175
     7
176
     1
 42
1.0
176
     1
 92
        8
176
     1
 66
     7
176
     1
 43
1.0
176
     1
 76
     1
176
     1
 77
     6
176
     1
 78
     2
176
     1
 67
     7
176
     1
 79
     5
176
     1
170
     0
176
     1
171
     0
176
     1
290
     0
176
     1
 93
        1
176
     1
 44
0.0
176
     1
173
     0
176
     1
  0
VISUALSTYLE
  5
33
102
{ACAD_REACTORS
330
2A
102
}
330
2A
100
AcDbVisualStyle
  2
Realistic
 70
     8
177
     2
291
     0
 71
     2
176
     1
 72
     2
176
     1
 73
     0
176
     1
 90
        0
176
     1
 40
-0.6
176
     1
 41
-30.0
176
     1
 62
     5
 63
     7
421
 16777215
176
     1
 74
     1
176
     1
 91
        0
176
     1
 64
     7
176
     1
 65
   257
176
     1
 75
     1
176
     1
175
     1
176
     1
 42
1.0
176
     1
 92
        8
176
     1
 66
     8
424
  7895160
176
     1
 43
1.0
176
     1
 76
     1
176
     1
 77
     6
176
     1
 78
     2
176
     1
 67
     7
176
     1
 79
     5
176
     1
170
     0
176
     1
171
     0
176
     1
290
     0
176
     1
 93
       13
176
     1
 44
0.0
176
     1
173
     0
176
     1
  0
VISUALSTYLE
  5
37
102
{ACAD_REACTORS
330
2A
102
}
330
2A
100
AcDbVisualStyle
  2
Thicken
 70
    13
177
     2
291
     1
 71
     2
176
     1
 72
     2
176
     1
 73
     0
176
     1
 90
        0
176
     1
 40
-0.6
176
     1
 41
-30.0
176
     1
 62
     5
 63
     7
421
 16777215
176
     1
 74
     1
176
     1
 91
        4
176
     1
 64
     7
176
     1
 65
   257
176
     1
 75
     1
176
     1
175
     1
176
     1
 42
1.0
176
     1
 92
       12
176
     1
 66
     7
176
     1
 43
1.0
176
     1
 76
     1
176
     1
 77
     6
176
     1
 78
     2
176
     1
 67
     7
176
     1
 79
     5
176
     1
170
     0
176
     1
171
     0
176
     1
290
     0
176
     1
 93
        1
176
     1
 44
0.0
176
     1
173
     0
176
     1
  0
ENDSEC
  0
EOF
