  0
SECTION
  2
HEADER
  9
$ACADVER
  1
AC1024
  9
$ACADMAINTVER
 70
     6
  9
$DWGCODEPAGE
  3
ANSI_1252
  9
$INSBASE
 10
0.0
 20
0.0
 30
0.0
  9
$EXTMIN
 10
1.000000000000000E+20
 20
1.000000000000000E+20
 30
1.000000000000000E+20
  9
$EXTMAX
 10
-1.000000000000000E+20
 20
-1.000000000000000E+20
 30
-1.000000000000000E+20
  9
$LIMMIN
 10
0.0
 20
0.0
  9
$LIMMAX
 10
12.0
 20
9.0
  9
$ORTHOMODE
 70
     0
  9
$REGENMODE
 70
     1
  9
$FILLMODE
 70
     1
  9
$QTEXTMODE
 70
     0
  9
$MIRRTEXT
 70
     1
  9
$LTSCALE
 40
1.0
  9
$ATTMODE
 70
     1
  9
$TEXTSIZE
 40
0.2
  9
$TRACEWID
 40
0.05
  9
$TEXTSTYLE
  7
Standard
  9
$CLAYER
  8
0
  9
$CELTYPE
  6
ByLayer
  9
$CECOLOR
 62
   256
  9
$CELTSCALE
 40
1.0
  9
$DISPSILH
 70
     0
  9
$DIMSCALE
 40
1.0
  9
$DIMASZ
 40
0.18
  9
$DIMEXO
 40
0.0625
  9
$DIMDLI
 40
0.38
  9
$DIMRND
 40
0.0
  9
$DIMDLE
 40
0.0
  9
$DIMEXE
 40
0.18
  9
$DIMTP
 40
0.0
  9
$DIMTM
 40
0.0
  9
$DIMTXT
 40
0.18
  9
$DIMCEN
 40
0.09
  9
$DIMTSZ
 40
0.0
  9
$DIMTOL
 70
     0
  9
$DIMLIM
 70
     0
  9
$DIMTIH
 70
     1
  9
$DIMTOH
 70
     1
  9
$DIMSE1
 70
     0
  9
$DIMSE2
 70
     0
  9
$DIMTAD
 70
     0
  9
$DIMZIN
 70
     0
  9
$DIMBLK
  1

  9
$DIMASO
 70
     1
  9
$DIMSHO
 70
     1
  9
$DIMPOST
  1

  9
$DIMAPOST
  1

  9
$DIMALT
 70
     0
  9
$DIMALTD
 70
     2
  9
$DIMALTF
 40
25.4
  9
$DIMLFAC
 40
1.0
  9
$DIMTOFL
 70
     0
  9
$DIMTVP
 40
0.0
  9
$DIMTIX
 70
     0
  9
$DIMSOXD
 70
     0
  9
$DIMSAH
 70
     0
  9
$DIMBLK1
  1

  9
$DIMBLK2
  1

  9
$DIMSTYLE
  2
Standard
  9
$DIMCLRD
 70
     0
  9
$DIMCLRE
 70
     0
  9
$DIMCLRT
 70
     0
  9
$DIMTFAC
 40
1.0
  9
$DIMGAP
 40
0.09
  9
$DIMJUST
 70
     0
  9
$DIMSD1
 70
     0
  9
$DIMSD2
 70
     0
  9
$DIMTOLJ
 70
     1
  9
$DIMTZIN
 70
     0
  9
$DIMALTZ
 70
     0
  9
$DIMALTTZ
 70
     0
  9
$DIMUPT
 70
     0
  9
$DIMDEC
 70
     4
  9
$DIMTDEC
 70
     4
  9
$DIMALTU
 70
     2
  9
$DIMALTTD
 70
     2
  9
$DIMTXSTY
  7
Standard
  9
$DIMAUNIT
 70
     0
  9
$DIMADEC
 70
     0
  9
$DIMALTRND
 40
0.0
  9
$DIMAZIN
 70
     0
  9
$DIMDSEP
 70
    46
  9
$DIMATFIT
 70
     3
  9
$DIMFRAC
 70
     0
  9
$DIMLDRBLK
  1

  9
$DIMLUNIT
 70
     2
  9
$DIMLWD
 70
    -2
  9
$DIMLWE
 70
    -2
  9
$DIMTMOVE
 70
     0
  9
$DIMFXL
 40
1.0
  9
$DIMFXLON
 70
     0
  9
$DIMJOGANG
 40
0.7853981633974483
  9
$DIMTFILL
 70
     0
  9
$DIMTFILLCLR
 70
     0
  9
$DIMARCSYM
 70
     0
  9
$DIMLTYPE
  6

  9
$DIMLTEX1
  6

  9
$DIMLTEX2
  6

  9
$DIMTXTDIRECTION
 70
     0
  9
$LUNITS
 70
     2
  9
$LUPREC
 70
     4
  9
$SKETCHINC
 40
0.1
  9
$FILLETRAD
 40
0.5
  9
$AUNITS
 70
     0
  9
$AUPREC
 70
     0
  9
$MENU
  1
.
  9
$ELEVATION
 40
0.0
  9
$PELEVATION
 40
0.0
  9
$THICKNESS
 40
0.0
  9
$LIMCHECK
 70
     0
  9
$CHAMFERA
 40
0.5
  9
$CHAMFERB
 40
0.5
  9
$CHAMFERC
 40
1.0
  9
$CHAMFERD
 40
0.0
  9
$SKPOLY
 70
     0
  9
$TDCREATE
 40
2457399.674424676
  9
$TDUCREATE
 40
2457399.674424676
  9
$TDUPDATE
 40
2457399.674425949
  9
$TDUUPDATE
 40
2457399.674425949
  9
$TDINDWG
 40
0.0000000116
  9
$TDUSRTIMER
 40
0.0000000116
  9
$USRTIMER
 70
     1
  9
$ANGBASE
 50
0.0
  9
$ANGDIR
 70
     0
  9
$PDMODE
 70
     0
  9
$PDSIZE
 40
0.0
  9
$PLINEWID
 40
0.0
  9
$SPLFRAME
 70
     0
  9
$SPLINETYPE
 70
     6
  9
$SPLINESEGS
 70
     8
  9
$HANDSEED
  5
9F
  9
$SURFTAB1
 70
     6
  9
$SURFTAB2
 70
     6
  9
$SURFTYPE
 70
     6
  9
$SURFU
 70
     6
  9
$SURFV
 70
     6
  9
$UCSBASE
  2

  9
$UCSNAME
  2

  9
$UCSORG
 10
0.0
 20
0.0
 30
0.0
  9
$UCSXDIR
 10
1.0
 20
0.0
 30
0.0
  9
$UCSYDIR
 10
0.0
 20
1.0
 30
0.0
  9
$UCSORTHOREF
  2

  9
$UCSORTHOVIEW
 70
     0
  9
$UCSORGTOP
 10
0.0
 20
0.0
 30
0.0
  9
$UCSORGBOTTOM
 10
0.0
 20
0.0
 30
0.0
  9
$UCSORGLEFT
 10
0.0
 20
0.0
 30
0.0
  9
$UCSORGRIGHT
 10
0.0
 20
0.0
 30
0.0
  9
$UCSORGFRONT
 10
0.0
 20
0.0
 30
0.0
  9
$UCSORGBACK
 10
0.0
 20
0.0
 30
0.0
  9
$PUCSBASE
  2

  9
$PUCSNAME
  2

  9
$PUCSORG
 10
0.0
 20
0.0
 30
0.0
  9
$PUCSXDIR
 10
1.0
 20
0.0
 30
0.0
  9
$PUCSYDIR
 10
0.0
 20
1.0
 30
0.0
  9
$PUCSORTHOREF
  2

  9
$PUCSORTHOVIEW
 70
     0
  9
$PUCSORGTOP
 10
0.0
 20
0.0
 30
0.0
  9
$PUCSORGBOTTOM
 10
0.0
 20
0.0
 30
0.0
  9
$PUCSORGLEFT
 10
0.0
 20
0.0
 30
0.0
  9
$PUCSORGRIGHT
 10
0.0
 20
0.0
 30
0.0
  9
$PUCSORGFRONT
 10
0.0
 20
0.0
 30
0.0
  9
$PUCSORGBACK
 10
0.0
 20
0.0
 30
0.0
  9
$USERI1
 70
     0
  9
$USERI2
 70
     0
  9
$USERI3
 70
     0
  9
$USERI4
 70
     0
  9
$USERI5
 70
     0
  9
$USERR1
 40
0.0
  9
$USERR2
 40
0.0
  9
$USERR3
 40
0.0
  9
$USERR4
 40
0.0
  9
$USERR5
 40
0.0
  9
$WORLDVIEW
 70
     1
  9
$SHADEDGE
 70
     3
  9
$SHADEDIF
 70
    70
  9
$TILEMODE
 70
     1
  9
$MAXACTVP
 70
    64
  9
$PINSBASE
 10
0.0
 20
0.0
 30
0.0
  9
$PLIMCHECK
 70
     0
  9
$PEXTMIN
 10
1.000000000000000E+20
 20
1.000000000000000E+20
 30
1.000000000000000E+20
  9
$PEXTMAX
 10
-1.000000000000000E+20
 20
-1.000000000000000E+20
 30
-1.000000000000000E+20
  9
$PLIMMIN
 10
0.0
 20
0.0
  9
$PLIMMAX
 10
12.0
 20
9.0
  9
$UNITMODE
 70
     0
  9
$VISRETAIN
 70
     1
  9
$PLINEGEN
 70
     0
  9
$PSLTSCALE
 70
     1
  9
$TREEDEPTH
 70
  3020
  9
$CMLSTYLE
  2
Standard
  9
$CMLJUST
 70
     0
  9
$CMLSCALE
 40
1.0
  9
$PROXYGRAPHICS
 70
     1
  9
$MEASUREMENT
 70
     0
  9
$CELWEIGHT
370
    -1
  9
$ENDCAPS
280
     0
  9
$JOINSTYLE
280
     0
  9
$LWDISPLAY
290
     1
  9
$INSUNITS
 70
     1
  9
$HYPERLINKBASE
  1

  9
$STYLESHEET
  1

  9
$XEDIT
290
     1
  9
$CEPSNTYPE
380
     0
  9
$PSTYLEMODE
290
     1
  9
$FINGERPRINTGUID
  2
{A0171348-C1C5-47E1-AEB7-2B2A6899FD7F}
  9
$VERSIONGUID
  2
{FAEB1C32-E019-11D5-929B-00C0DF256EC4}
  9
$EXTNAMES
290
     1
  9
$PSVPSCALE
 40
0.0
  9
$OLESTARTUP
290
     0
  9
$SORTENTS
280
   127
  9
$INDEXCTL
280
     0
  9
$HIDETEXT
280
     1
  9
$XCLIPFRAME
280
     2
  9
$HALOGAP
280
     0
  9
$OBSCOLOR
 70
   257
  9
$OBSLTYPE
280
     0
  9
$INTERSECTIONDISPLAY
280
     0
  9
$INTERSECTIONCOLOR
 70
   257
  9
$DIMASSOC
280
     2
  9
$PROJECTNAME
  1

  9
$CAMERADISPLAY
290
     0
  9
$LENSLENGTH
 40
50.0
  9
$CAMERAHEIGHT
 40
0.0
  9
$STEPSPERSEC
 40
2.0
  9
$STEPSIZE
 40
6.0
  9
$3DDWFPREC
 40
2.0
  9
$PSOLWIDTH
 40
0.25
  9
$PSOLHEIGHT
 40
4.0
  9
$LOFTANG1
 40
1.570796326794897
  9
$LOFTANG2
 40
1.570796326794897
  9
$LOFTMAG1
 40
0.0
  9
$LOFTMAG2
 40
0.0
  9
$LOFTPARAM
 70
     7
  9
$LOFTNORMALS
280
     1
  9
$LATITUDE
 40
37.795
  9
$LONGITUDE
 40
-122.394
  9
$NORTHDIRECTION
 40
0.0
  9
$TIMEZONE
 70
 -8000
  9
$LIGHTGLYPHDISPLAY
280
     1
  9
$TILEMODELIGHTSYNCH
280
     1
  9
$CMATERIAL
347
3C
  9
$SOLIDHIST
280
     1
  9
$SHOWHIST
280
     1
  9
$DWFFRAME
280
     2
  9
$DGNFRAME
280
     2
  9
$REALWORLDSCALE
290
     1
  9
$INTERFERECOLOR
 62
   256
  9
$CSHADOW
280
     0
  9
$SHADOWPLANELOCATION
 40
0.0
  0
ENDSEC
  0
SECTION
  2
CLASSES
  0
CLASS
  1
ACDBDICTIONARYWDFLT
  2
AcDbDictionaryWithDefault
  3
ObjectDBX Classes
 90
        0
 91
        4
280
     0
281
     0
  0
CLASS
  1
VISUALSTYLE
  2
AcDbVisualStyle
  3
ObjectDBX Classes
 90
     4095
 91
        4
280
     0
281
     0
  0
CLASS
  1
MATERIAL
  2
AcDbMaterial
  3
ObjectDBX Classes
 90
     1153
 91
        4
280
     0
281
     0
  0
CLASS
  1
SUN
  2
AcDbSun
  3
SCENEOE
 90
     1024
 91
        4
280
     0
281
     0
  0
ENDSEC
  0
SECTION
  2
TABLES
  0
TABLE
  2
VPORT
  5
8
330
0
100
AcDbSymbolTable
 70
     1
  0
VPORT
  5
29
330
8
100
AcDbSymbolTableRecord
100
AcDbViewportTableRecord
  2
*Active
 70
     0
 10
0.0
 20
0.0
 11
1.0
 21
1.0
 12
0.0
 22
0.0
 13
0.0
 23
0.0
 14
0.5
 24
0.5
 15
0.5
 25
0.5
 16
0.0
 26
0.0
 36
1.0
 17
300.0004582583334
 27
-300.0004582583334
 37
0.0
 40
600.0009165166667
 41
1.0
 42
50.0
 43
0.0
 44
0.0
 50
0.0
 51
0.0
 71
     0
 72
   100
 73
     1
 74
     3
 75
     0
 76
     0
 77
     0
 78
     0
281
     0
 65
     1
110
0.0
120
0.0
130
0.0
111
1.0
121
0.0
131
0.0
112
0.0
122
1.0
132
0.0
 79
     0
146
0.0
 60
     3
 61
     5
292
     1
282
     1
141
0.0
142
0.0
 63
   250
361
3F
  0
ENDTAB
  0
TABLE
  2
LTYPE
  5
5
330
0
100
AcDbSymbolTable
 70
     1
  0
LTYPE
  5
14
330
5
100
AcDbSymbolTableRecord
100
AcDbLinetypeTableRecord
  2
ByBlock
 70
     0
  3

 72
    65
 73
     0
 40
0.0
  0
LTYPE
  5
15
330
5
100
AcDbSymbolTableRecord
100
AcDbLinetypeTableRecord
  2
ByLayer
 70
     0
  3

 72
    65
 73
     0
 40
0.0
  0
LTYPE
  5
16
330
5
100
AcDbSymbolTableRecord
100
AcDbLinetypeTableRecord
  2
Continuous
 70
     0
  3
Solid line
 72
    65
 73
     0
 40
0.0
  0
ENDTAB
  0
TABLE
  2
LAYER
  5
2
330
0
100
AcDbSymbolTable
 70
     2
  0
LAYER
  5
10
330
2
100
AcDbSymbolTableRecord
100
AcDbLayerTableRecord
  2
0
 70
     0
 62
     7
  6
Continuous
370
    -3
390
F
347
3E
  0
LAYER
  5
40
330
2
100
AcDbSymbolTableRecord
100
AcDbLayerTableRecord
  2
Layer 1
 70
     0
 62
     7
  6
Continuous
370
    -3
390
F
347
3E
  0
ENDTAB
  0
TABLE
  2
STYLE
  5
3
330
0
100
AcDbSymbolTable
 70
     1
  0
STYLE
  5
11
330
3
100
AcDbSymbolTableRecord
100
AcDbTextStyleTableRecord
  2
Standard
 70
     0
 40
0.0
 41
1.0
 50
0.0
 71
     0
 42
0.2
  3
txt
  4

  0
ENDTAB
  0
TABLE
  2
VIEW
  5
6
330
0
100
AcDbSymbolTable
 70
     0
  0
ENDTAB
  0
TABLE
  2
UCS
  5
7
330
0
100
AcDbSymbolTable
 70
     0
  0
ENDTAB
  0
TABLE
  2
APPID
  5
9
330
0
100
AcDbSymbolTable
 70
     1
  0
APPID
  5
12
330
9
100
AcDbSymbolTableRecord
100
AcDbRegAppTableRecord
  2
ACAD
 70
     0
  0
ENDTAB
  0
TABLE
  2
DIMSTYLE
  5
A
330
0
100
AcDbSymbolTable
 70
     1
100
AcDbDimStyleTable
  0
DIMSTYLE
105
27
330
A
100
AcDbSymbolTableRecord
100
AcDbDimStyleTableRecord
  2
Standard
 70
     0
178
     0
340
11
  0
ENDTAB
  0
TABLE
  2
BLOCK_RECORD
  5
1
330
0
100
AcDbSymbolTable
 70
     4
  0
BLOCK_RECORD
  5
1F
330
1
100
AcDbSymbolTableRecord
100
AcDbBlockTableRecord
  2
*Model_Space
340
22
 70
     0
280
     1
281
     0
  0
BLOCK_RECORD
  5
1B
330
1
100
AcDbSymbolTableRecord
100
AcDbBlockTableRecord
  2
*Paper_Space
340
1E
 70
     0
280
     1
281
     0
  0
BLOCK_RECORD
  5
23
330
1
100
AcDbSymbolTableRecord
100
AcDbBlockTableRecord
  2
*Paper_Space0
340
26
 70
     0
280
     1
281
     0
  0
BLOCK_RECORD
  5
41
330
1
100
AcDbSymbolTableRecord
100
AcDbBlockTableRecord
  2
block 2
340
0
102
{BLKREFS
331
42
102
}
 70
     0
280
     1
281
     0
  0
BLOCK_RECORD
  5
45
330
1
100
AcDbSymbolTableRecord
100
AcDbBlockTableRecord
  2
block 3
340
0
102
{BLKREFS
331
46
102
}
 70
     0
280
     1
281
     0
  0
BLOCK_RECORD
  5
60
330
1
100
AcDbSymbolTableRecord
100
AcDbBlockTableRecord
  2
block 4
340
0
102
{BLKREFS
331
61
102
}
 70
     0
280
     1
281
     0
  0
ENDTAB
  0
ENDSEC
  0
SECTION
  2
BLOCKS
  0
BLOCK
  5
20
330
1F
100
AcDbEntity
  8
0
100
AcDbBlockBegin
  2
*Model_Space
 70
     0
 10
0.0
 20
0.0
 30
0.0
  3
*Model_Space
  1

  0
ENDBLK
  5
21
330
1F
100
AcDbEntity
  8
0
100
AcDbBlockEnd
  0
BLOCK
  5
1C
330
1B
100
AcDbEntity
 67
     1
  8
0
100
AcDbBlockBegin
  2
*Paper_Space
 70
     0
 10
0.0
 20
0.0
 30
0.0
  3
*Paper_Space
  1

  0
ENDBLK
  5
1D
330
1B
100
AcDbEntity
 67
     1
  8
0
100
AcDbBlockEnd
  0
BLOCK
  5
24
330
23
100
AcDbEntity
  8
0
100
AcDbBlockBegin
  2
*Paper_Space0
 70
     0
 10
0.0
 20
0.0
 30
0.0
  3
*Paper_Space0
  1

  0
ENDBLK
  5
25
330
23
100
AcDbEntity
  8
0
100
AcDbBlockEnd
  0
BLOCK
  5
43
330
41
100
AcDbEntity
  8
0
100
AcDbBlockBegin
  2
block 2
 70
     0
 10
0.0
 20
0.0
 30
0.0
  3
block 2
  1

  0
INSERT
  5
46
330
41
100
AcDbEntity
  8
Layer 1
100
AcDbBlockReference
  2
block 3
 10
0.0
 20
0.0
 30
0.0
  0
INSERT
  5
61
330
41
100
AcDbEntity
  8
Layer 1
100
AcDbBlockReference
  2
block 4
 10
0.0
 20
0.0
 30
0.0
  0
ENDBLK
  5
44
330
41
100
AcDbEntity
  8
0
100
AcDbBlockEnd
  0
BLOCK
  5
47
330
45
100
AcDbEntity
  8
0
100
AcDbBlockBegin
  2
block 3
 70
     0
 10
0.0
 20
0.0
 30
0.0
  3
block 3
  1

  0
SPLINE
  5
49
330
45
100
AcDbEntity
  8
Layer 1
 62
   240
420
 15539236
370
     9
100
AcDbSpline
210
0.0
220
0.0
230
1.0
 70
     8
 71
     3
 72
    26
 73
    22
 74
     0
 42
0.0000000001
 43
0.0000000001
 12
1.0
 22
0.0
 32
0.0
 13
1.0
 23
0.0
 33
0.0
 40
0.0
 40
0.0
 40
0.0
 40
0.0
 40
1.0
 40
1.0
 40
1.0
 40
2.0
 40
2.0
 40
2.0
 40
3.0
 40
3.0
 40
3.0
 40
4.0
 40
4.0
 40
4.0
 40
5.0
 40
5.0
 40
5.0
 40
6.0
 40
6.0
 40
6.0
 40
7.0
 40
7.0
 40
7.0
 40
7.0
 10
91.2004485214389
 20
-506.5888896863608
 30
0.0
 10
91.2004485214389
 20
-506.5888896863608
 30
0.0
 10
121.5472385048757
 20
-444.5799185964183
 30
0.0
 10
121.5472385048757
 20
-444.5799185964183
 30
0.0
 10
122.7560723405998
 20
-442.1098536434891
 30
0.0
 10
123.7451182560225
 20
-437.8389032644035
 30
0.0
 10
123.7451183169149
 20
-435.0889031387615
 30
0.0
 10
123.7451183169149
 20
-435.0889031387615
 30
0.0
 10
123.7451240896933
 20
-189.0889484629531
 30
0.0
 10
123.7451240896933
 20
-189.0889484629531
 30
0.0
 10
123.7451241541539
 20
-186.3389483657897
 30
0.0
 10
125.0647914056508
 20
-182.266601558396
 30
0.0
 10
126.6777165703407
 20
-180.0392775398183
 30
0.0
 10
126.6777165703407
 20
-180.0392775398183
 30
0.0
 10
160.2789113671301
 20
-133.6386433246905
 30
0.0
 10
160.2789113671301
 20
-133.6386433246905
 30
0.0
 10
161.8918365318205
 20
-131.4113193061131
 30
0.0
 10
163.2115037335647
 20
-127.3389637543986
 30
0.0
 10
163.211503737216
 20
-124.5889638010899
 30
0.0
 10
163.211503737216
 20
-124.5889638010899
 30
0.0
 10
163.2115037783791
 20
-93.5888869821097
 30
0.0
 10
163.2115037783791
 20
-93.5888869821097
 30
0.0
  0
POLYLINE
  5
4A
330
45
100
AcDbEntity
  8
Layer 1
 62
   240
420
 15539236
370
     9
100
AcDb2dPolyline
 66
     1
 10
0.0
 20
0.0
 30
0.0
  0
VERTEX
  5
4B
330
4A
100
AcDbEntity
  8
Layer 1
 62
   240
420
 15539236
370
     9
100
AcDbVertex
100
AcDb2dVertex
 10
87.70044445386931
 20
-506.5888891841819
 30
0.0
  0
VERTEX
  5
4C
330
4A
100
AcDbEntity
  8
Layer 1
 62
   240
420
 15539236
370
     9
100
AcDbVertex
100
AcDb2dVertex
 10
91.2004485214389
 20
-506.5888896863608
 30
0.0
  0
SEQEND
  5
4D
330
4A
100
AcDbEntity
  8
Layer 1
 62
   240
420
 15539236
370
     9
  0
POLYLINE
  5
4E
330
45
100
AcDbEntity
  8
Layer 1
 62
   240
420
 15539236
370
     9
100
AcDb2dPolyline
 66
     1
 10
0.0
 20
0.0
 30
0.0
  0
VERTEX
  5
4F
330
4E
100
AcDbEntity
  8
Layer 1
 62
   240
420
 15539236
370
     9
100
AcDbVertex
100
AcDb2dVertex
 10
27.20044294615133
 20
-118.5888888576833
 30
0.0
  0
VERTEX
  5
50
330
4E
100
AcDbEntity
  8
Layer 1
 62
   240
420
 15539236
370
     9
100
AcDbVertex
100
AcDb2dVertex
 10
27.20044652223099
 20
-133.5886635344818
 30
0.0
  0
SEQEND
  5
51
330
4E
100
AcDbEntity
  8
Layer 1
 62
   240
420
 15539236
370
     9
  0
SPLINE
  5
52
330
45
100
AcDbEntity
  8
Layer 1
 62
   240
420
 15539236
370
     9
100
AcDbSpline
210
0.0
220
0.0
230
1.0
 70
     8
 71
     3
 72
    59
 73
    55
 74
     0
 42
0.0000000001
 43
0.0000000001
 12
1.0
 22
0.0
 32
0.0
 13
1.0
 23
0.0
 33
0.0
 40
0.0
 40
0.0
 40
0.0
 40
0.0
 40
1.0
 40
1.0
 40
1.0
 40
2.0
 40
2.0
 40
2.0
 40
3.0
 40
3.0
 40
3.0
 40
4.0
 40
4.0
 40
4.0
 40
5.0
 40
5.0
 40
5.0
 40
6.0
 40
6.0
 40
6.0
 40
7.0
 40
7.0
 40
7.0
 40
8.0
 40
8.0
 40
8.0
 40
9.0
 40
9.0
 40
9.0
 40
10.0
 40
10.0
 40
10.0
 40
11.0
 40
11.0
 40
11.0
 40
12.0
 40
12.0
 40
12.0
 40
13.0
 40
13.0
 40
13.0
 40
14.0
 40
14.0
 40
14.0
 40
15.0
 40
15.0
 40
15.0
 40
16.0
 40
16.0
 40
16.0
 40
17.0
 40
17.0
 40
17.0
 40
18.0
 40
18.0
 40
18.0
 40
18.0
 10
27.20044294615133
 20
-118.5888888576833
 30
0.0
 10
27.20044294615133
 20
-118.5888888576833
 30
0.0
 10
32.20044294489859
 20
-118.5888888576833
 30
0.0
 10
32.20044294489859
 20
-118.5888888576833
 30
0.0
 10
32.20044294489859
 20
-118.5888888576833
 30
0.0
 10
32.20044294589515
 20
-115.0888895698879
 30
0.0
 10
32.20044294589515
 20
-115.0888895698879
 30
0.0
 10
32.20044294589515
 20
-115.0888895698879
 30
0.0
 10
32.20044294608574
 20
-110.8389233585165
 30
0.0
 10
32.20044294608574
 20
-110.8389233585165
 30
0.0
 10
32.20044294610435
 20
-110.424696601618
 30
0.0
 10
32.53624997625695
 20
-110.0889046989475
 30
0.0
 10
32.95047673273519
 20
-110.0889233594991
 30
0.0
 10
32.95047673273519
 20
-110.0889233594991
 30
0.0
 10
36.87484797903787
 20
-110.0891001489526
 30
0.0
 10
36.87484797903787
 20
-110.0891001489526
 30
0.0
 10
37.18264749163943
 20
-110.0891140150491
 30
0.0
 10
37.45845102898772
 20
-110.277730461892
 30
0.0
 10
37.56980762427167
 20
-110.5646803683843
 30
0.0
 10
38.36784331370351
 20
-112.6211033927938
 30
0.0
 10
40.3712017604055
 20
-114.0888889949339
 30
0.0
 10
42.70073478531854
 20
-114.0888889954973
 30
0.0
 10
42.70073478531854
 20
-114.0888889954973
 30
0.0
 10
45.30040771747309
 20
-114.0888889960055
 30
0.0
 10
45.30040771747309
 20
-114.0888889960055
 30
0.0
 10
45.85269246724244
 20
-114.0888889961403
 30
0.0
 10
46.30040771743975
 20
-113.64117374607
 30
0.0
 10
46.30040771746511
 20
-113.0888889963013
 30
0.0
 10
46.30040771746511
 20
-113.0888889963013
 30
0.0
 10
46.30040771786906
 20
-104.0888889991161
 30
0.0
 10
46.30040771786906
 20
-104.0888889991161
 30
0.0
 10
46.30040771789344
 20
-103.53660424928
 30
0.0
 10
45.85269246763163
 20
-103.0888889991456
 30
0.0
 10
45.30040771779554
 20
-103.0888889993221
 30
0.0
 10
45.30040771779554
 20
-103.0888889993221
 30
0.0
 10
42.70073478435118
 20
-103.0888889999458
 30
0.0
 10
42.70073478435118
 20
-103.0888889999458
 30
0.0
 10
40.3714996238636
 20
-103.0888890006985
 30
0.0
 10
38.3683556346182
 20
-104.5562992722356
 30
0.0
 10
37.57011380398087
 20
-106.6123088269418
 30
0.0
 10
37.45874970768145
 20
-106.8991462705037
 30
0.0
 10
37.18304546603397
 20
-107.0876906613785
 30
0.0
 10
36.87534808955692
 20
-107.0877647063504
 30
0.0
 10
36.87534808955692
 20
-107.0877647063504
 30
0.0
 10
32.95062342774347
 20
-107.0887091607209
 30
0.0
 10
32.95062342774347
 20
-107.0887091607209
 30
0.0
 10
32.53633939323304
 20
-107.0888088549399
 30
0.0
 10
32.20044294626958
 20
-106.7529932290936
 30
0.0
 10
32.20044294628787
 20
-106.3387091825908
 30
0.0
 10
32.20044294628787
 20
-106.3387091825908
 30
0.0
 10
32.20044597643597
 20
-88.58888771503186
 30
0.0
 10
32.20044597643597
 20
-88.58888771503186
 30
0.0
 10
32.20044597643597
 20
-88.58888771503186
 30
0.0
 10
81.20044989629254
 20
-88.58888705029165
 30
0.0
 10
81.20044989629254
 20
-88.58888705029165
 30
0.0
  0
POLYLINE
  5
53
330
45
100
AcDbEntity
  8
Layer 1
 62
   240
420
 15539236
370
     9
100
AcDb2dPolyline
 66
     1
 10
0.0
 20
0.0
 30
0.0
  0
VERTEX
  5
54
330
53
100
AcDbEntity
  8
Layer 1
 62
   240
420
 15539236
370
     9
100
AcDbVertex
100
AcDb2dVertex
 10
152.8958877661174
 20
-93.58888705083824
 30
0.0
  0
VERTEX
  5
55
330
53
100
AcDbEntity
  8
Layer 1
 62
   240
420
 15539236
370
     9
100
AcDbVertex
100
AcDb2dVertex
 10
152.8958877674649
 20
-88.58888705208744
 30
0.0
  0
VERTEX
  5
56
330
53
100
AcDbEntity
  8
Layer 1
 62
   240
420
 15539236
370
     9
100
AcDbVertex
100
AcDb2dVertex
 10
163.211504881178
 20
-88.58888705208744
 30
0.0
  0
VERTEX
  5
57
330
53
100
AcDbEntity
  8
Layer 1
 62
   240
420
 15539236
370
     9
100
AcDbVertex
100
AcDb2dVertex
 10
163.2115048798311
 20
-93.58888705083824
 30
0.0
  0
SEQEND
  5
58
330
53
100
AcDbEntity
  8
Layer 1
 62
   240
420
 15539236
370
     9
  0
SPLINE
  5
59
330
45
100
AcDbEntity
  8
Layer 1
 62
   240
420
 15539236
370
     9
100
AcDbSpline
210
0.0
220
0.0
230
1.0
 70
     8
 71
     3
 72
   107
 73
   103
 74
     0
 42
0.0000000001
 43
0.0000000001
 12
1.0
 22
0.0
 32
0.0
 13
1.0
 23
0.0
 33
0.0
 40
0.0
 40
0.0
 40
0.0
 40
0.0
 40
1.0
 40
1.0
 40
1.0
 40
2.0
 40
2.0
 40
2.0
 40
3.0
 40
3.0
 40
3.0
 40
4.0
 40
4.0
 40
4.0
 40
5.0
 40
5.0
 40
5.0
 40
6.0
 40
6.0
 40
6.0
 40
7.0
 40
7.0
 40
7.0
 40
8.0
 40
8.0
 40
8.0
 40
9.0
 40
9.0
 40
9.0
 40
10.0
 40
10.0
 40
10.0
 40
11.0
 40
11.0
 40
11.0
 40
12.0
 40
12.0
 40
12.0
 40
13.0
 40
13.0
 40
13.0
 40
14.0
 40
14.0
 40
14.0
 40
15.0
 40
15.0
 40
15.0
 40
16.0
 40
16.0
 40
16.0
 40
17.0
 40
17.0
 40
17.0
 40
18.0
 40
18.0
 40
18.0
 40
19.0
 40
19.0
 40
19.0
 40
20.0
 40
20.0
 40
20.0
 40
21.0
 40
21.0
 40
21.0
 40
22.0
 40
22.0
 40
22.0
 40
23.0
 40
23.0
 40
23.0
 40
24.0
 40
24.0
 40
24.0
 40
25.0
 40
25.0
 40
25.0
 40
26.0
 40
26.0
 40
26.0
 40
27.0
 40
27.0
 40
27.0
 40
28.0
 40
28.0
 40
28.0
 40
29.0
 40
29.0
 40
29.0
 40
30.0
 40
30.0
 40
30.0
 40
31.0
 40
31.0
 40
31.0
 40
32.0
 40
32.0
 40
32.0
 40
33.0
 40
33.0
 40
33.0
 40
34.0
 40
34.0
 40
34.0
 40
34.0
 10
81.20044989629254
 20
-88.58888705029165
 30
0.0
 10
81.20044989629254
 20
-88.58888705029165
 30
0.0
 10
81.20044989584368
 20
-93.5888870490418
 30
0.0
 10
81.20044989584368
 20
-93.5888870490418
 30
0.0
 10
81.20044989584368
 20
-93.5888870490418
 30
0.0
 10
88.95041871231565
 20
-93.58888683464276
 30
0.0
 10
88.95041871231565
 20
-93.58888683464276
 30
0.0
 10
89.36464546921452
 20
-93.58888683464276
 30
0.0
 10
89.70043737190008
 20
-93.92469386478031
 30
0.0
 10
89.70041871136709
 20
-94.33892062125854
 30
0.0
 10
89.70041871136709
 20
-94.33892062125854
 30
0.0
 10
89.70024192208945
 20
-98.26329186756121
 30
0.0
 10
89.70024192208945
 20
-98.26329186756121
 30
0.0
 10
89.70022805600698
 20
-98.57109138016277
 30
0.0
 10
89.51161160917634
 20
-98.8468949175194
 30
0.0
 10
89.22466170268952
 20
-98.95825151281619
 30
0.0
 10
87.16823867831556
 20
-99.75628720234043
 30
0.0
 10
85.70045307626533
 20
-101.7596456491082
 30
0.0
 10
85.70045307580685
 20
-104.0891786740212
 30
0.0
 10
85.70045307580685
 20
-104.0891786740212
 30
0.0
 10
85.70045307541508
 20
-106.6888516061755
 30
0.0
 10
85.70045307541508
 20
-106.6888516061755
 30
0.0
 10
85.70045307530536
 20
-107.2411363559448
 30
0.0
 10
86.1481683253955
 20
-107.6888516061226
 30
0.0
 10
86.70045307516422
 20
-107.6888516061226
 30
0.0
 10
86.70045307516422
 20
-107.6888516061226
 30
0.0
 10
95.7004530723494
 20
-107.6888516061226
 30
0.0
 10
95.7004530723494
 20
-107.6888516061226
 30
0.0
 10
96.2527378221855
 20
-107.6888516061226
 30
0.0
 10
96.70045307230002
 20
-107.2411363558406
 30
0.0
 10
96.70045307209853
 20
-106.6888516060041
 30
0.0
 10
96.70045307209853
 20
-106.6888516060041
 30
0.0
 10
96.70045307135833
 20
-104.0891786725601
 30
0.0
 10
96.70045307135833
 20
-104.0891786725601
 30
0.0
 10
96.7004530705007
 20
-101.7599435120725
 30
0.0
 10
95.23304279887381
 20
-99.7567995228932
 30
0.0
 10
93.17703324413169
 20
-98.95855769234797
 30
0.0
 10
92.89019580056464
 20
-98.84719359606137
 30
0.0
 10
92.70165140967796
 20
-98.57148935442257
 30
0.0
 10
92.70157736469157
 20
-98.26379197794552
 30
0.0
 10
92.70157736469157
 20
-98.26379197794552
 30
0.0
 10
92.7006329101456
 20
-94.33906731613206
 30
0.0
 10
92.7006329101456
 20
-94.33906731613206
 30
0.0
 10
92.70053321590797
 20
-93.92478328162163
 30
0.0
 10
93.03634884173857
 20
-93.58888683464276
 30
0.0
 10
93.45063288824139
 20
-93.58888683464276
 30
0.0
 10
93.45063288824139
 20
-93.58888683464276
 30
0.0
 10
101.2004498908443
 20
-93.58888705083791
 30
0.0
 10
101.2004498908443
 20
-93.58888705083791
 30
0.0
 10
101.2004498908443
 20
-93.58888705083791
 30
0.0
 10
101.2004498912931
 20
-88.58888705208777
 30
0.0
 10
101.2004498912931
 20
-88.58888705208777
 30
0.0
 10
101.2004498912931
 20
-88.58888705208777
 30
0.0
 10
133.2110105039125
 20
-88.58888705208744
 30
0.0
 10
133.2110105039125
 20
-88.58888705208744
 30
0.0
 10
133.2110105039125
 20
-88.58888705208744
 30
0.0
 10
133.2110105025656
 20
-93.58888705083824
 30
0.0
 10
133.2110105025656
 20
-93.58888705083824
 30
0.0
 10
133.2110105025656
 20
-93.58888705083824
 30
0.0
 10
140.9609768064772
 20
-93.58888683464276
 30
0.0
 10
140.9609768064772
 20
-93.58888683464276
 30
0.0
 10
141.3752035633757
 20
-93.58888683464276
 30
0.0
 10
141.7109954660619
 20
-93.92469386478031
 30
0.0
 10
141.7109768055289
 20
-94.33892062125854
 30
0.0
 10
141.7109768055289
 20
-94.33892062125854
 30
0.0
 10
141.7108000162513
 20
-98.26329186756121
 30
0.0
 10
141.7108000162513
 20
-98.26329186756121
 30
0.0
 10
141.7107861501688
 20
-98.57109138016277
 30
0.0
 10
141.5221697033379
 20
-98.8468949175194
 30
0.0
 10
141.2352197968514
 20
-98.95825151281619
 30
0.0
 10
139.1787967724774
 20
-99.75628720234043
 30
0.0
 10
137.7110111704272
 20
-101.7596456491082
 30
0.0
 10
137.7110111699681
 20
-104.0891786740212
 30
0.0
 10
137.7110111699681
 20
-104.0891786740212
 30
0.0
 10
137.7110111695766
 20
-106.6888516061755
 30
0.0
 10
137.7110111695766
 20
-106.6888516061755
 30
0.0
 10
137.7110111694669
 20
-107.2411363559448
 30
0.0
 10
138.158726419557
 20
-107.6888516061226
 30
0.0
 10
138.7110111693258
 20
-107.6888516061226
 30
0.0
 10
138.7110111693258
 20
-107.6888516061226
 30
0.0
 10
147.7110111665109
 20
-107.6888516061226
 30
0.0
 10
147.7110111665109
 20
-107.6888516061226
 30
0.0
 10
148.2632959163473
 20
-107.6888516061226
 30
0.0
 10
148.7110111664616
 20
-107.2411363558406
 30
0.0
 10
148.7110111662601
 20
-106.6888516060041
 30
0.0
 10
148.7110111662601
 20
-106.6888516060041
 30
0.0
 10
148.7110111655196
 20
-104.0891786725601
 30
0.0
 10
148.7110111655196
 20
-104.0891786725601
 30
0.0
 10
148.7110111646622
 20
-101.7599435120725
 30
0.0
 10
147.2436008930356
 20
-99.7567995228932
 30
0.0
 10
145.1875913382932
 20
-98.95855769234797
 30
0.0
 10
144.9007538947265
 20
-98.84719359606137
 30
0.0
 10
144.7122095038392
 20
-98.57148935442257
 30
0.0
 10
144.7121354588531
 20
-98.26379197794552
 30
0.0
 10
144.7121354588531
 20
-98.26379197794552
 30
0.0
 10
144.7111910043071
 20
-94.33906731613206
 30
0.0
 10
144.7111910043071
 20
-94.33906731613206
 30
0.0
 10
144.7110913100695
 20
-93.92478328162163
 30
0.0
 10
145.0469069359004
 20
-93.58888683464276
 30
0.0
 10
145.4611909824029
 20
-93.58888683464276
 30
0.0
 10
145.4611909824029
 20
-93.58888683464276
 30
0.0
 10
152.8958877661174
 20
-93.58888705083824
 30
0.0
 10
152.8958877661174
 20
-93.58888705083824
 30
0.0
  0
SPLINE
  5
5A
330
45
100
AcDbEntity
  8
Layer 1
 62
   177
420
  3027090
370
     9
100
AcDbSpline
210
0.0
220
0.0
230
1.0
 70
     8
 71
     3
 72
    50
 73
    46
 74
     0
 42
0.0000000001
 43
0.0000000001
 12
1.0
 22
0.0
 32
0.0
 13
1.0
 23
0.0
 33
0.0
 40
0.0
 40
0.0
 40
0.0
 40
0.0
 40
1.0
 40
1.0
 40
1.0
 40
2.0
 40
2.0
 40
2.0
 40
3.0
 40
3.0
 40
3.0
 40
4.0
 40
4.0
 40
4.0
 40
5.0
 40
5.0
 40
5.0
 40
6.0
 40
6.0
 40
6.0
 40
7.0
 40
7.0
 40
7.0
 40
8.0
 40
8.0
 40
8.0
 40
9.0
 40
9.0
 40
9.0
 40
10.0
 40
10.0
 40
10.0
 40
11.0
 40
11.0
 40
11.0
 40
12.0
 40
12.0
 40
12.0
 40
13.0
 40
13.0
 40
13.0
 40
14.0
 40
14.0
 40
14.0
 40
15.0
 40
15.0
 40
15.0
 40
15.0
 10
112.3573773607069
 20
-209.9163055497098
 30
0.0
 10
116.0028416748632
 20
-209.1703348545296
 30
0.0
 10
118.7450968344479
 20
-205.9448301439661
 30
0.0
 10
118.7450968344479
 20
-202.0788374230325
 30
0.0
 10
118.7450968344479
 20
-198.2082597805043
 30
0.0
 10
115.996333395426
 20
-194.9796902384568
 30
0.0
 10
112.3444034030075
 20
-194.238725682515
 30
0.0
 10
112.3444034030075
 20
-194.238725682515
 30
0.0
 10
112.3452042239338
 20
-194.2389836844925
 30
0.0
 10
112.3452042239338
 20
-194.2389836844925
 30
0.0
 10
112.425751267265
 20
-194.0395553772035
 30
0.0
 10
112.4700969861009
 20
-193.8216251779993
 30
0.0
 10
112.4700969861211
 20
-193.5933374811995
 30
0.0
 10
112.4700969862064
 20
-192.6406462880325
 30
0.0
 10
111.6977881798738
 20
-191.8683374815603
 30
0.0
 10
110.7450969867068
 20
-191.8683374814763
 30
0.0
 10
109.7924057935405
 20
-191.86833748139
 30
0.0
 10
109.0200969870689
 20
-192.6406462877226
 30
0.0
 10
109.0200969869842
 20
-193.5933374808896
 30
0.0
 10
109.0200969869637
 20
-193.8216833253447
 30
0.0
 10
109.0644652994256
 20
-194.0396663951791
 30
0.0
 10
109.145051305039
 20
-194.2391360710571
 30
0.0
 10
109.145051305039
 20
-194.2391360710571
 30
0.0
 10
109.1328163121882
 20
-194.241369296355
 30
0.0
 10
109.1328163121882
 20
-194.241369296355
 30
0.0
 10
105.4873519980319
 20
-194.9873399915354
 30
0.0
 10
102.7450968384477
 20
-198.2128447020989
 30
0.0
 10
102.7450968384477
 20
-202.0788374230325
 30
0.0
 10
102.7450968384477
 20
-205.9491453952735
 30
0.0
 10
105.493477267968
 20
-209.1775347236934
 30
0.0
 10
109.1450269729328
 20
-209.9187942542198
 30
0.0
 10
109.1450269729328
 20
-209.9187942542198
 30
0.0
 10
109.1451128978523
 20
-209.9183864417896
 30
0.0
 10
109.1451128978523
 20
-209.9183864417896
 30
0.0
 10
109.0644879215489
 20
-210.1178974803685
 30
0.0
 10
109.0200970096266
 20
-210.335933419473
 30
0.0
 10
109.020097009606
 20
-210.5643374115857
 30
0.0
 10
109.0200970095207
 20
-211.5170286047514
 30
0.0
 10
109.7924058158523
 20
-212.2893374112233
 30
0.0
 10
110.74509700902
 20
-212.2893374113083
 30
0.0
 10
111.6977882021863
 20
-212.289337411394
 30
0.0
 10
112.4700970086579
 20
-211.517028605061
 30
0.0
 10
112.4700970087439
 20
-210.5643374118947
 30
0.0
 10
112.470097008765
 20
-210.326163705046
 30
0.0
 10
112.4218273401186
 20
-210.0992639833787
 30
0.0
 10
112.3345369589562
 20
-209.8928872030462
 30
0.0
  0
SPLINE
  5
5B
330
45
100
AcDbEntity
  8
Layer 1
 62
   177
420
  3027090
370
     9
100
AcDbSpline
210
0.0
220
0.0
230
1.0
 70
     8
 71
     3
 72
    50
 73
    46
 74
     0
 42
0.0000000001
 43
0.0000000001
 12
1.0
 22
0.0
 32
0.0
 13
1.0
 23
0.0
 33
0.0
 40
0.0
 40
0.0
 40
0.0
 40
0.0
 40
1.0
 40
1.0
 40
1.0
 40
2.0
 40
2.0
 40
2.0
 40
3.0
 40
3.0
 40
3.0
 40
4.0
 40
4.0
 40
4.0
 40
5.0
 40
5.0
 40
5.0
 40
6.0
 40
6.0
 40
6.0
 40
7.0
 40
7.0
 40
7.0
 40
8.0
 40
8.0
 40
8.0
 40
9.0
 40
9.0
 40
9.0
 40
10.0
 40
10.0
 40
10.0
 40
11.0
 40
11.0
 40
11.0
 40
12.0
 40
12.0
 40
12.0
 40
13.0
 40
13.0
 40
13.0
 40
14.0
 40
14.0
 40
14.0
 40
15.0
 40
15.0
 40
15.0
 40
15.0
 10
112.3573746692261
 20
-429.9357481430617
 30
0.0
 10
116.0028389833823
 20
-429.1897774478813
 30
0.0
 10
118.7450941429668
 20
-425.964272737319
 30
0.0
 10
118.7450941429668
 20
-422.0982800163877
 30
0.0
 10
118.7450941429668
 20
-418.2277023738559
 30
0.0
 10
115.9963307039452
 20
-414.9991328318085
 30
0.0
 10
112.3444007115264
 20
-414.2581682758679
 30
0.0
 10
112.3444007115264
 20
-414.2581682758679
 30
0.0
 10
112.3452015324533
 20
-414.2584262778458
 30
0.0
 10
112.3452015324533
 20
-414.2584262778458
 30
0.0
 10
112.4257485757844
 20
-414.0589979705578
 30
0.0
 10
112.47009429462
 20
-413.8410677713522
 30
0.0
 10
112.4700942946406
 20
-413.6127800745518
 30
0.0
 10
112.4700942947253
 20
-412.6600888813836
 30
0.0
 10
111.697785488393
 20
-411.8877800749152
 30
0.0
 10
110.745094295226
 20
-411.8877800748305
 30
0.0
 10
109.7924031020596
 20
-411.887780074742
 30
0.0
 10
109.0200942955881
 20
-412.6600888810736
 30
0.0
 10
109.0200942955034
 20
-413.6127800742412
 30
0.0
 10
109.0200942954825
 20
-413.841125918697
 30
0.0
 10
109.0644626079451
 20
-414.0591089885318
 30
0.0
 10
109.1450486135581
 20
-414.2585786644088
 30
0.0
 10
109.1450486135581
 20
-414.2585786644088
 30
0.0
 10
109.1328136207073
 20
-414.260811889706
 30
0.0
 10
109.1328136207073
 20
-414.260811889706
 30
0.0
 10
105.487349306551
 20
-415.0067825848903
 30
0.0
 10
102.7450941469669
 20
-418.2322872954526
 30
0.0
 10
102.7450941469669
 20
-422.0982800163877
 30
0.0
 10
102.7450941469669
 20
-425.9685879886252
 30
0.0
 10
105.4934745764872
 20
-429.1969773170451
 30
0.0
 10
109.1450242814516
 20
-429.938236847574
 30
0.0
 10
109.1450242814516
 20
-429.938236847574
 30
0.0
 10
109.1451102063718
 20
-429.9378290351436
 30
0.0
 10
109.1451102063718
 20
-429.9378290351436
 30
0.0
 10
109.0644852300681
 20
-430.1373400737208
 30
0.0
 10
109.0200943181457
 20
-430.3553760128263
 30
0.0
 10
109.0200943181255
 20
-430.583780004938
 30
0.0
 10
109.0200943180402
 20
-431.5364711981056
 30
0.0
 10
109.7924031243718
 20
-432.3087800045785
 30
0.0
 10
110.7450943175391
 20
-432.3087800046625
 30
0.0
 10
111.6977855107055
 20
-432.3087800047472
 30
0.0
 10
112.470094317177
 20
-431.5364711984124
 30
0.0
 10
112.4700943172633
 20
-430.5837800052486
 30
0.0
 10
112.4700943172845
 20
-430.3456062983986
 30
0.0
 10
112.421824648638
 20
-430.1187065767304
 30
0.0
 10
112.3345342674757
 20
-429.9123297964011
 30
0.0
  0
SPLINE
  5
5C
330
45
100
AcDbEntity
  8
Layer 1
 62
   177
420
  3027090
370
     9
100
AcDbSpline
210
0.0
220
0.0
230
1.0
 70
    11
 71
     3
 72
    17
 73
    13
 74
     0
 42
0.0000000001
 43
0.0000000001
 12
1.0
 22
0.0
 32
0.0
 13
1.0
 23
0.0
 33
0.0
 40
0.0
 40
0.0
 40
0.0
 40
0.0
 40
1.0
 40
1.0
 40
1.0
 40
2.0
 40
2.0
 40
2.0
 40
3.0
 40
3.0
 40
3.0
 40
4.0
 40
4.0
 40
4.0
 40
4.0
 10
118.7450901887515
 20
-312.0788361335034
 30
0.0
 10
118.7450901887515
 20
-316.4971141307989
 30
0.0
 10
115.1633681880467
 20
-320.0788361315035
 30
0.0
 10
110.7450901907514
 20
-320.0788361315035
 30
0.0
 10
106.3268121934558
 20
-320.0788361315035
 30
0.0
 10
102.7450901927513
 20
-316.4971141307989
 30
0.0
 10
102.7450901927513
 20
-312.0788361335034
 30
0.0
 10
102.7450901927513
 20
-307.6605581362078
 30
0.0
 10
106.3268121934558
 20
-304.0788361355033
 30
0.0
 10
110.7450901907514
 20
-304.0788361355033
 30
0.0
 10
115.1633681880467
 20
-304.0788361355033
 30
0.0
 10
118.7450901887515
 20
-307.6605581362078
 30
0.0
 10
118.7450901887515
 20
-312.0788361335034
 30
0.0
  0
SPLINE
  5
5D
330
45
100
AcDbEntity
  8
Layer 1
 62
   177
420
  3027090
370
     9
100
AcDbSpline
210
0.0
220
0.0
230
1.0
 70
    11
 71
     3
 72
    17
 73
    13
 74
     0
 42
0.0000000001
 43
0.0000000001
 12
1.0
 22
0.0
 32
0.0
 13
1.0
 23
0.0
 33
0.0
 40
0.0
 40
0.0
 40
0.0
 40
0.0
 40
1.0
 40
1.0
 40
1.0
 40
2.0
 40
2.0
 40
2.0
 40
3.0
 40
3.0
 40
3.0
 40
4.0
 40
4.0
 40
4.0
 40
4.0
 10
112.2450901283979
 20
-300.5788365019534
 30
0.0
 10
112.2450901283979
 20
-301.407263626446
 30
0.0
 10
111.5735172532662
 20
-302.0788365015784
 30
0.0
 10
110.7450901287736
 20
-302.0788365015784
 30
0.0
 10
109.9166630042803
 20
-302.0788365015784
 30
0.0
 10
109.2450901291489
 20
-301.407263626446
 30
0.0
 10
109.2450901291489
 20
-300.5788365019534
 30
0.0
 10
109.2450901291489
 20
-299.7504093774611
 30
0.0
 10
109.9166630042803
 20
-299.0788365023284
 30
0.0
 10
110.7450901287736
 20
-299.0788365023284
 30
0.0
 10
111.5735172532662
 20
-299.0788365023284
 30
0.0
 10
112.2450901283979
 20
-299.7504093774611
 30
0.0
 10
112.2450901283979
 20
-300.5788365019534
 30
0.0
  0
SPLINE
  5
5E
330
45
100
AcDbEntity
  8
Layer 1
 62
   177
420
  3027090
370
     9
100
AcDbSpline
210
0.0
220
0.0
230
1.0
 70
    11
 71
     3
 72
    17
 73
    13
 74
     0
 42
0.0000000001
 43
0.0000000001
 12
1.0
 22
0.0
 32
0.0
 13
1.0
 23
0.0
 33
0.0
 40
0.0
 40
0.0
 40
0.0
 40
0.0
 40
1.0
 40
1.0
 40
1.0
 40
2.0
 40
2.0
 40
2.0
 40
3.0
 40
3.0
 40
3.0
 40
4.0
 40
4.0
 40
4.0
 40
4.0
 10
112.2450901283979
 20
-323.5788362948721
 30
0.0
 10
112.2450901283979
 20
-324.4072634193648
 30
0.0
 10
111.5735172532662
 20
-325.0788362944971
 30
0.0
 10
110.7450901287736
 20
-325.0788362944971
 30
0.0
 10
109.9166630042803
 20
-325.0788362944971
 30
0.0
 10
109.2450901291489
 20
-324.4072634193648
 30
0.0
 10
109.2450901291489
 20
-323.5788362948721
 30
0.0
 10
109.2450901291489
 20
-322.7504091703795
 30
0.0
 10
109.9166630042803
 20
-322.0788362952472
 30
0.0
 10
110.7450901287736
 20
-322.0788362952472
 30
0.0
 10
111.5735172532662
 20
-322.0788362952472
 30
0.0
 10
112.2450901283979
 20
-322.7504091703795
 30
0.0
 10
112.2450901283979
 20
-323.5788362948721
 30
0.0
  0
SPLINE
  5
5F
330
45
100
AcDbEntity
  8
Layer 1
 62
   240
420
 15539236
370
     9
100
AcDbSpline
210
0.0
220
0.0
230
1.0
 70
     8
 71
     3
 72
   356
 73
   352
 74
     0
 42
0.0000000001
 43
0.0000000001
 12
1.0
 22
0.0
 32
0.0
 13
1.0
 23
0.0
 33
0.0
 40
0.0
 40
0.0
 40
0.0
 40
0.0
 40
1.0
 40
1.0
 40
1.0
 40
2.0
 40
2.0
 40
2.0
 40
3.0
 40
3.0
 40
3.0
 40
4.0
 40
4.0
 40
4.0
 40
5.0
 40
5.0
 40
5.0
 40
6.0
 40
6.0
 40
6.0
 40
7.0
 40
7.0
 40
7.0
 40
8.0
 40
8.0
 40
8.0
 40
9.0
 40
9.0
 40
9.0
 40
10.0
 40
10.0
 40
10.0
 40
11.0
 40
11.0
 40
11.0
 40
12.0
 40
12.0
 40
12.0
 40
13.0
 40
13.0
 40
13.0
 40
14.0
 40
14.0
 40
14.0
 40
15.0
 40
15.0
 40
15.0
 40
16.0
 40
16.0
 40
16.0
 40
17.0
 40
17.0
 40
17.0
 40
18.0
 40
18.0
 40
18.0
 40
19.0
 40
19.0
 40
19.0
 40
20.0
 40
20.0
 40
20.0
 40
21.0
 40
21.0
 40
21.0
 40
22.0
 40
22.0
 40
22.0
 40
23.0
 40
23.0
 40
23.0
 40
24.0
 40
24.0
 40
24.0
 40
25.0
 40
25.0
 40
25.0
 40
26.0
 40
26.0
 40
26.0
 40
27.0
 40
27.0
 40
27.0
 40
28.0
 40
28.0
 40
28.0
 40
29.0
 40
29.0
 40
29.0
 40
30.0
 40
30.0
 40
30.0
 40
31.0
 40
31.0
 40
31.0
 40
32.0
 40
32.0
 40
32.0
 40
33.0
 40
33.0
 40
33.0
 40
34.0
 40
34.0
 40
34.0
 40
35.0
 40
35.0
 40
35.0
 40
36.0
 40
36.0
 40
36.0
 40
37.0
 40
37.0
 40
37.0
 40
38.0
 40
38.0
 40
38.0
 40
39.0
 40
39.0
 40
39.0
 40
40.0
 40
40.0
 40
40.0
 40
41.0
 40
41.0
 40
41.0
 40
42.0
 40
42.0
 40
42.0
 40
43.0
 40
43.0
 40
43.0
 40
44.0
 40
44.0
 40
44.0
 40
45.0
 40
45.0
 40
45.0
 40
46.0
 40
46.0
 40
46.0
 40
47.0
 40
47.0
 40
47.0
 40
48.0
 40
48.0
 40
48.0
 40
49.0
 40
49.0
 40
49.0
 40
50.0
 40
50.0
 40
50.0
 40
51.0
 40
51.0
 40
51.0
 40
52.0
 40
52.0
 40
52.0
 40
53.0
 40
53.0
 40
53.0
 40
54.0
 40
54.0
 40
54.0
 40
55.0
 40
55.0
 40
55.0
 40
56.0
 40
56.0
 40
56.0
 40
57.0
 40
57.0
 40
57.0
 40
58.0
 40
58.0
 40
58.0
 40
59.0
 40
59.0
 40
59.0
 40
60.0
 40
60.0
 40
60.0
 40
61.0
 40
61.0
 40
61.0
 40
62.0
 40
62.0
 40
62.0
 40
63.0
 40
63.0
 40
63.0
 40
64.0
 40
64.0
 40
64.0
 40
65.0
 40
65.0
 40
65.0
 40
66.0
 40
66.0
 40
66.0
 40
67.0
 40
67.0
 40
67.0
 40
68.0
 40
68.0
 40
68.0
 40
69.0
 40
69.0
 40
69.0
 40
70.0
 40
70.0
 40
70.0
 40
71.0
 40
71.0
 40
71.0
 40
72.0
 40
72.0
 40
72.0
 40
73.0
 40
73.0
 40
73.0
 40
74.0
 40
74.0
 40
74.0
 40
75.0
 40
75.0
 40
75.0
 40
76.0
 40
76.0
 40
76.0
 40
77.0
 40
77.0
 40
77.0
 40
78.0
 40
78.0
 40
78.0
 40
79.0
 40
79.0
 40
79.0
 40
80.0
 40
80.0
 40
80.0
 40
81.0
 40
81.0
 40
81.0
 40
82.0
 40
82.0
 40
82.0
 40
83.0
 40
83.0
 40
83.0
 40
84.0
 40
84.0
 40
84.0
 40
85.0
 40
85.0
 40
85.0
 40
86.0
 40
86.0
 40
86.0
 40
87.0
 40
87.0
 40
87.0
 40
88.0
 40
88.0
 40
88.0
 40
89.0
 40
89.0
 40
89.0
 40
90.0
 40
90.0
 40
90.0
 40
91.0
 40
91.0
 40
91.0
 40
92.0
 40
92.0
 40
92.0
 40
93.0
 40
93.0
 40
93.0
 40
94.0
 40
94.0
 40
94.0
 40
95.0
 40
95.0
 40
95.0
 40
96.0
 40
96.0
 40
96.0
 40
97.0
 40
97.0
 40
97.0
 40
98.0
 40
98.0
 40
98.0
 40
99.0
 40
99.0
 40
99.0
 40
100.0
 40
100.0
 40
100.0
 40
101.0
 40
101.0
 40
101.0
 40
102.0
 40
102.0
 40
102.0
 40
103.0
 40
103.0
 40
103.0
 40
104.0
 40
104.0
 40
104.0
 40
105.0
 40
105.0
 40
105.0
 40
106.0
 40
106.0
 40
106.0
 40
107.0
 40
107.0
 40
107.0
 40
108.0
 40
108.0
 40
108.0
 40
109.0
 40
109.0
 40
109.0
 40
110.0
 40
110.0
 40
110.0
 40
111.0
 40
111.0
 40
111.0
 40
112.0
 40
112.0
 40
112.0
 40
113.0
 40
113.0
 40
113.0
 40
114.0
 40
114.0
 40
114.0
 40
115.0
 40
115.0
 40
115.0
 40
116.0
 40
116.0
 40
116.0
 40
117.0
 40
117.0
 40
117.0
 40
117.0
 10
87.70044445386931
 20
-506.5888885581917
 30
0.0
 10
87.70044445386931
 20
-506.5888885581917
 30
0.0
 10
83.4504782424976
 20
-506.5888885578105
 30
0.0
 10
83.4504782424976
 20
-506.5888885578105
 30
0.0
 10
83.03625148559905
 20
-506.588888557772
 30
0.0
 10
82.70045958294268
 20
-506.2530815276043
 30
0.0
 10
82.7004782435129
 20
-505.8388547711254
 30
0.0
 10
82.7004782435129
 20
-505.8388547711254
 30
0.0
 10
82.70065503314348
 20
-501.9144835248243
 30
0.0
 10
82.70065503314348
 20
-501.9144835248243
 30
0.0
 10
82.70066889925353
 20
-501.6066840122206
 30
0.0
 10
82.8892853461092
 20
-501.3308804748812
 30
0.0
 10
83.17623525260564
 20
-501.2195238796107
 30
0.0
 10
85.23265827705114
 20
-500.421488190272
 30
0.0
 10
86.70044387928137
 20
-498.4181297436377
 30
0.0
 10
86.70044387994938
 20
-496.0885967187214
 30
0.0
 10
86.70044387994938
 20
-496.0885967187214
 30
0.0
 10
86.70044388057472
 20
-493.4889237865698
 30
0.0
 10
86.70044388057472
 20
-493.4889237865698
 30
0.0
 10
86.7004438807345
 20
-492.9366390367972
 30
0.0
 10
86.25272863068382
 20
-492.4889237865806
 30
0.0
 10
85.7004438809151
 20
-492.4889237865312
 30
0.0
 10
85.7004438809151
 20
-492.4889237865312
 30
0.0
 10
76.70044388372992
 20
-492.4889237857233
 30
0.0
 10
76.70044388372992
 20
-492.4889237857233
 30
0.0
 10
76.14815913389319
 20
-492.4889237856739
 30
0.0
 10
75.70044388373887
 20
-492.9366390359149
 30
0.0
 10
75.70044388389096
 20
-493.4889237857516
 30
0.0
 10
75.70044388389096
 20
-493.4889237857516
 30
0.0
 10
75.7004438843979
 20
-496.0885967191944
 30
0.0
 10
75.7004438843979
 20
-496.0885967191944
 30
0.0
 10
75.70044388504601
 20
-498.4178318796826
 30
0.0
 10
77.16785415649291
 20
-500.4209758689944
 30
0.0
 10
79.22386371116347
 20
-501.2192176997238
 30
0.0
 10
79.51070115472089
 20
-501.3305817960383
 30
0.0
 10
79.69924554558318
 20
-501.6062860376935
 30
0.0
 10
79.69931959054166
 20
-501.9139834141702
 30
0.0
 10
79.69931959054166
 20
-501.9139834141702
 30
0.0
 10
79.70026404473471
 20
-505.838708075983
 30
0.0
 10
79.70026404473471
 20
-505.838708075983
 30
0.0
 10
79.70036373893512
 20
-506.2529921104957
 30
0.0
 10
79.364548113075
 20
-506.5888885574435
 30
0.0
 10
78.95026406657186
 20
-506.5888885574049
 30
0.0
 10
78.95026406657186
 20
-506.5888885574049
 30
0.0
 10
71.200448526438
 20
-506.5888896863608
 30
0.0
 10
71.200448526438
 20
-506.5888896863608
 30
0.0
 10
71.200448526438
 20
-506.5888896863608
 30
0.0
 10
71.200448526438
 20
-511.5888896851084
 30
0.0
 10
71.200448526438
 20
-511.5888896851084
 30
0.0
 10
71.200448526438
 20
-511.5888896851084
 30
0.0
 10
57.20000023541958
 20
-511.5888896851084
 30
0.0
 10
57.20000023541958
 20
-511.5888896851084
 30
0.0
 10
57.20000023541958
 20
-511.5888896851084
 30
0.0
 10
57.20000023541958
 20
-506.5888896863608
 30
0.0
 10
57.20000023541958
 20
-506.5888896863608
 30
0.0
 10
57.20000023541958
 20
-506.5888896863608
 30
0.0
 10
49.45003399369986
 20
-506.5888885578105
 30
0.0
 10
49.45003399369986
 20
-506.5888885578105
 30
0.0
 10
49.035807236801
 20
-506.588888557772
 30
0.0
 10
48.70001533414464
 20
-506.2530815276043
 30
0.0
 10
48.70003399471516
 20
-505.8388547711254
 30
0.0
 10
48.70003399471516
 20
-505.8388547711254
 30
0.0
 10
48.70021078434542
 20
-501.9144835248243
 30
0.0
 10
48.70021078434542
 20
-501.9144835248243
 30
0.0
 10
48.70022465045547
 20
-501.6066840122206
 30
0.0
 10
48.88884109731082
 20
-501.3308804748812
 30
0.0
 10
49.17579100380791
 20
-501.2195238796107
 30
0.0
 10
51.23221402825278
 20
-500.421488190272
 30
0.0
 10
52.69999963048364
 20
-498.4181297436377
 30
0.0
 10
52.69999963115133
 20
-496.0885967187214
 30
0.0
 10
52.69999963115133
 20
-496.0885967187214
 30
0.0
 10
52.69999963177634
 20
-493.4889237865698
 30
0.0
 10
52.69999963177634
 20
-493.4889237865698
 30
0.0
 10
52.69999963193612
 20
-492.9366390367972
 30
0.0
 10
52.25228438188608
 20
-492.4889237865806
 30
0.0
 10
51.69999963211737
 20
-492.4889237865312
 30
0.0
 10
51.69999963211737
 20
-492.4889237865312
 30
0.0
 10
42.69999963493218
 20
-492.4889237857233
 30
0.0
 10
42.69999963493218
 20
-492.4889237857233
 30
0.0
 10
42.14771488509513
 20
-492.4889237856739
 30
0.0
 10
41.69999963494082
 20
-492.9366390359149
 30
0.0
 10
41.69999963509289
 20
-493.4889237857516
 30
0.0
 10
41.69999963509289
 20
-493.4889237857516
 30
0.0
 10
41.69999963559984
 20
-496.0885967191944
 30
0.0
 10
41.69999963559984
 20
-496.0885967191944
 30
0.0
 10
41.69999963624795
 20
-498.4178318796826
 30
0.0
 10
43.16740990769453
 20
-500.4209758689944
 30
0.0
 10
45.22341946236542
 20
-501.2192176997238
 30
0.0
 10
45.51025690592316
 20
-501.3305817960383
 30
0.0
 10
45.69880129678481
 20
-501.6062860376935
 30
0.0
 10
45.6988753417433
 20
-501.9139834141702
 30
0.0
 10
45.6988753417433
 20
-501.9139834141702
 30
0.0
 10
45.69981979593634
 20
-505.838708075983
 30
0.0
 10
45.69981979593634
 20
-505.838708075983
 30
0.0
 10
45.69991949013707
 20
-506.2529921104957
 30
0.0
 10
45.36410386427663
 20
-506.5888885574435
 30
0.0
 10
44.94981981777381
 20
-506.5888885574049
 30
0.0
 10
44.94981981777381
 20
-506.5888885574049
 30
0.0
 10
27.20044664068574
 20
-506.5888896863608
 30
0.0
 10
27.20044664068574
 20
-506.5888896863608
 30
0.0
 10
27.20044664068574
 20
-506.5888896863608
 30
0.0
 10
27.20045170373801
 20
-481.5888873947654
 30
0.0
 10
27.20045170373801
 20
-481.5888873947654
 30
0.0
 10
27.20045170373801
 20
-481.5888873947654
 30
0.0
 10
32.20045170248783
 20
-481.5888873947654
 30
0.0
 10
32.20045170248783
 20
-481.5888873947654
 30
0.0
 10
32.20045170248783
 20
-481.5888873947654
 30
0.0
 10
32.20045219805115
 20
-473.8389206023409
 30
0.0
 10
32.20045219805115
 20
-473.8389206023409
 30
0.0
 10
32.20045219806975
 20
-473.424693845443
 30
0.0
 10
32.53625922822237
 20
-473.0889019427712
 30
0.0
 10
32.95048598470061
 20
-473.0889206033215
 30
0.0
 10
32.95048598470061
 20
-473.0889206033215
 30
0.0
 10
36.87485723100328
 20
-473.0890973927795
 30
0.0
 10
36.87485723100328
 20
-473.0890973927795
 30
0.0
 10
37.18265674360452
 20
-473.0891112588754
 30
0.0
 10
37.45846028095345
 20
-473.2777277057169
 30
0.0
 10
37.56981687623708
 20
-473.5646776122076
 30
0.0
 10
38.36785256566925
 20
-475.6211006366169
 30
0.0
 10
40.37121101237092
 20
-477.0888862387588
 30
0.0
 10
42.70074403728395
 20
-477.0888862393229
 30
0.0
 10
42.70074403728395
 20
-477.0888862393229
 30
0.0
 10
45.30041696943818
 20
-477.0888862398311
 30
0.0
 10
45.30041696943818
 20
-477.0888862398311
 30
0.0
 10
45.85270171920786
 20
-477.0888862399652
 30
0.0
 10
46.30041696940517
 20
-476.6411709898969
 30
0.0
 10
46.30041696943052
 20
-476.0888862401276
 30
0.0
 10
46.30041696943052
 20
-476.0888862401276
 30
0.0
 10
46.30041696983415
 20
-467.088886242943
 30
0.0
 10
46.30041696983415
 20
-467.088886242943
 30
0.0
 10
46.30041696985885
 20
-466.5366014931031
 30
0.0
 10
45.85270171959705
 20
-466.0888862429706
 30
0.0
 10
45.30041696976064
 20
-466.088886243147
 30
0.0
 10
45.30041696976064
 20
-466.088886243147
 30
0.0
 10
42.70074403631691
 20
-466.0888862437714
 30
0.0
 10
42.70074403631691
 20
-466.0888862437714
 30
0.0
 10
40.37150887582902
 20
-466.0888862445235
 30
0.0
 10
38.36836488658361
 20
-467.5562965160618
 30
0.0
 10
37.57012305594628
 20
-469.6123060707654
 30
0.0
 10
37.45875895964686
 20
-469.8991435143287
 30
0.0
 10
37.18305471799939
 20
-470.0876879052047
 30
0.0
 10
36.87535734152234
 20
-470.0877619501773
 30
0.0
 10
36.87535734152234
 20
-470.0877619501773
 30
0.0
 10
32.95063267970888
 20
-470.0887064045472
 30
0.0
 10
32.95063267970888
 20
-470.0887064045472
 30
0.0
 10
32.53634864519877
 20
-470.0888060987636
 30
0.0
 10
32.20045219823467
 20
-469.7529904729186
 30
0.0
 10
32.20045219825328
 20
-469.3387064264157
 30
0.0
 10
32.20045219825328
 20
-469.3387064264157
 30
0.0
 10
32.20045170248848
 20
-461.5888873997648
 30
0.0
 10
32.20045170248848
 20
-461.5888873997648
 30
0.0
 10
32.20045170248848
 20
-461.5888873997648
 30
0.0
 10
27.20045170373801
 20
-461.5888873997648
 30
0.0
 10
27.20045170373801
 20
-461.5888873997648
 30
0.0
 10
27.20045170373801
 20
-461.5888873997648
 30
0.0
 10
27.20045167972852
 20
-415.8388888148162
 30
0.0
 10
27.20045167972852
 20
-415.8388888148162
 30
0.0
 10
27.20045167972852
 20
-415.8388888148162
 30
0.0
 10
32.20045167848027
 20
-415.8388888139166
 30
0.0
 10
32.20045167848027
 20
-415.8388888139166
 30
0.0
 10
32.20045167848027
 20
-415.8388888139166
 30
0.0
 10
32.20045177750759
 20
-408.0889208505729
 30
0.0
 10
32.20045177750759
 20
-408.0889208505729
 30
0.0
 10
32.20045177752588
 20
-407.674694093675
 30
0.0
 10
32.53625880767849
 20
-407.3389021910065
 30
0.0
 10
32.95048556415672
 20
-407.3389208515574
 30
0.0
 10
32.95048556415672
 20
-407.3389208515574
 30
0.0
 10
36.8748568104594
 20
-407.3390976410115
 30
0.0
 10
36.8748568104594
 20
-407.3390976410115
 30
0.0
 10
37.1826563230616
 20
-407.3391115071075
 30
0.0
 10
37.45845986040925
 20
-407.527727953949
 30
0.0
 10
37.5698164556932
 20
-407.8146778604429
 30
0.0
 10
38.36785214512504
 20
-409.8711008848521
 30
0.0
 10
40.37121059182704
 20
-411.3388864869909
 30
0.0
 10
42.70074361674007
 20
-411.338886487555
 30
0.0
 10
42.70074361674007
 20
-411.338886487555
 30
0.0
 10
45.3004165488943
 20
-411.3388864880632
 30
0.0
 10
45.3004165488943
 20
-411.3388864880632
 30
0.0
 10
45.85270129866397
 20
-411.3388864881973
 30
0.0
 10
46.30041654886129
 20
-410.8911712381289
 30
0.0
 10
46.30041654888632
 20
-410.3388864883596
 30
0.0
 10
46.30041654888632
 20
-410.3388864883596
 30
0.0
 10
46.30041654929026
 20
-401.3388864911751
 30
0.0
 10
46.30041654929026
 20
-401.3388864911751
 30
0.0
 10
46.30041654931497
 20
-400.7866017413384
 30
0.0
 10
45.85270129905317
 20
-400.3388864912026
 30
0.0
 10
45.30041654921676
 20
-400.3388864913791
 30
0.0
 10
45.30041654921676
 20
-400.3388864913791
 30
0.0
 10
42.70074361577271
 20
-400.3388864920035
 30
0.0
 10
42.70074361577271
 20
-400.3388864920035
 30
0.0
 10
40.37150845528513
 20
-400.3388864927555
 30
0.0
 10
38.36836446603973
 20
-401.8062967642939
 30
0.0
 10
37.57012263540241
 20
-403.8623063190013
 30
0.0
 10
37.4587585391033
 20
-404.1491437625607
 30
0.0
 10
37.18305429745583
 20
-404.3376881534368
 30
0.0
 10
36.87535692097845
 20
-404.3377621984094
 30
0.0
 10
36.87535692097845
 20
-404.3377621984094
 30
0.0
 10
32.950632259165
 20
-404.3387066527792
 30
0.0
 10
32.950632259165
 20
-404.3387066527792
 30
0.0
 10
32.53634822465457
 20
-404.3388063469995
 30
0.0
 10
32.20045177769079
 20
-404.0029907211506
 30
0.0
 10
32.2004517777094
 20
-403.5887066746478
 30
0.0
 10
32.2004517777094
 20
-403.5887066746478
 30
0.0
 10
32.20045167488676
 20
-395.8388888189154
 30
0.0
 10
32.20045167488676
 20
-395.8388888189154
 30
0.0
 10
32.20045167488676
 20
-395.8388888189154
 30
0.0
 10
27.20045167613597
 20
-395.8388888198151
 30
0.0
 10
27.20045167613597
 20
-395.8388888198151
 30
0.0
 10
27.20045167613597
 20
-395.8388888198151
 30
0.0
 10
27.2004520681467
 20
-370.838816879882
 30
0.0
 10
27.2004520681467
 20
-370.838816879882
 30
0.0
 10
27.2004520681467
 20
-370.838816879882
 30
0.0
 10
32.20045553349687
 20
-370.8388904306404
 30
0.0
 10
32.20045553349687
 20
-370.8388904306404
 30
0.0
 10
32.20045553349687
 20
-370.8388904306404
 30
0.0
 10
32.20045553510209
 20
-335.0888908104507
 30
0.0
 10
32.20045553510209
 20
-335.0888908104507
 30
0.0
 10
32.20045553510209
 20
-335.0888908104507
 30
0.0
 10
27.20045262871413
 20
-335.0889536565873
 30
0.0
 10
27.20045262871413
 20
-335.0889536565873
 30
0.0
 10
27.20045262871413
 20
-335.0889536565873
 30
0.0
 10
27.20045302072101
 20
-310.0888894743869
 30
0.0
 10
27.20045302072101
 20
-310.0888894743869
 30
0.0
 10
27.20045302072101
 20
-310.0888894743869
 30
0.0
 10
32.20045301946859
 20
-310.0888894734885
 30
0.0
 10
32.20045301946859
 20
-310.0888894734885
 30
0.0
 10
32.20045301946859
 20
-310.0888894734885
 30
0.0
 10
32.20045303913891
 20
-302.3389235287568
 30
0.0
 10
32.20045303913891
 20
-302.3389235287568
 30
0.0
 10
32.20045303915784
 20
-301.9246967718582
 30
0.0
 10
32.53626006931014
 20
-301.5889048691871
 30
0.0
 10
32.95048682578837
 20
-301.5889235297387
 30
0.0
 10
32.95048682578837
 20
-301.5889235297387
 30
0.0
 10
36.87485807209104
 20
-301.5891003191928
 30
0.0
 10
36.87485807209104
 20
-301.5891003191928
 30
0.0
 10
37.18265758469261
 20
-301.5891141852894
 30
0.0
 10
37.45846112204089
 20
-301.7777306321322
 30
0.0
 10
37.56981771732485
 20
-302.0646805386241
 30
0.0
 10
38.36785340675669
 20
-304.1211035630334
 30
0.0
 10
40.37121185345869
 20
-305.5888891651741
 30
0.0
 10
42.7007448783714
 20
-305.5888891657375
 30
0.0
 10
42.7007448783714
 20
-305.5888891657375
 30
0.0
 10
45.30041781052595
 20
-305.5888891662457
 30
0.0
 10
45.30041781052595
 20
-305.5888891662457
 30
0.0
 10
45.85270256029562
 20
-305.5888891663805
 30
0.0
 10
46.30041781049294
 20
-305.1411739163103
 30
0.0
 10
46.30041781051796
 20
-304.5888891665415
 30
0.0
 10
46.30041781051796
 20
-304.5888891665415
 30
0.0
 10
46.30041781092191
 20
-295.588889169356
 30
0.0
 10
46.30041781092191
 20
-295.588889169356
 30
0.0
 10
46.30041781094662
 20
-295.03660441952
 30
0.0
 10
45.85270256068449
 20
-294.5888891693852
 30
0.0
 10
45.3004178108484
 20
-294.588889169562
 30
0.0
 10
45.3004178108484
 20
-294.588889169562
 30
0.0
 10
42.70074487740435
 20
-294.588889170186
 30
0.0
 10
42.70074487740435
 20
-294.588889170186
 30
0.0
 10
40.37150971691678
 20
-294.5888891709387
 30
0.0
 10
38.36836572767105
 20
-296.0562994424758
 30
0.0
 10
37.57012389703405
 20
-298.112308997182
 30
0.0
 10
37.45875980073463
 20
-298.3991464407445
 30
0.0
 10
37.18305555908716
 20
-298.5876908316187
 30
0.0
 10
36.87535818261043
 20
-298.5877648765907
 30
0.0
 10
36.87535818261043
 20
-298.5877648765907
 30
0.0
 10
32.95063352079664
 20
-298.5887093309611
 30
0.0
 10
32.95063352079664
 20
-298.5887093309611
 30
0.0
 10
32.53634948628622
 20
-298.5888090251798
 30
0.0
 10
32.20045303932244
 20
-298.2529933993338
 30
0.0
 10
32.20045303934105
 20
-297.838709352831
 30
0.0
 10
32.20045303934105
 20
-297.838709352831
 30
0.0
 10
32.20045301587893
 20
-290.0888894784879
 30
0.0
 10
32.20045301587893
 20
-290.0888894784879
 30
0.0
 10
32.20045301587893
 20
-290.0888894784879
 30
0.0
 10
27.20045301712814
 20
-290.0888894793863
 30
0.0
 10
27.20045301712814
 20
-290.0888894793863
 30
0.0
 10
27.20045301712814
 20
-290.0888894793863
 30
0.0
 10
27.20044195631356
 20
-265.088888062999
 30
0.0
 10
27.20044195631356
 20
-265.088888062999
 30
0.0
 10
27.20044195631356
 20
-265.088888062999
 30
0.0
 10
32.20044195506499
 20
-265.0888880632237
 30
0.0
 10
32.20044195506499
 20
-265.0888880632237
 30
0.0
 10
32.20044195506499
 20
-265.0888880632237
 30
0.0
 10
32.20043917337986
 20
-229.3388911345161
 30
0.0
 10
32.20043917337986
 20
-229.3388911345161
 30
0.0
 10
32.20043917337986
 20
-229.3388911345161
 30
0.0
 10
27.20043917462908
 20
-229.3388911342909
 30
0.0
 10
27.20043917462908
 20
-229.3388911342909
 30
0.0
 10
27.20043917462908
 20
-229.3388911342909
 30
0.0
 10
27.20045378536349
 20
-204.3388894610886
 30
0.0
 10
27.20045378536349
 20
-204.3388894610886
 30
0.0
 10
27.20045378536349
 20
-204.3388894610886
 30
0.0
 10
32.20045378411075
 20
-204.3388894601896
 30
0.0
 10
32.20045378411075
 20
-204.3388894601896
 30
0.0
 10
32.20045378411075
 20
-204.3388894601896
 30
0.0
 10
32.20045463720567
 20
-196.5889240201105
 30
0.0
 10
32.20045463720567
 20
-196.5889240201105
 30
0.0
 10
32.2004546372246
 20
-196.1746972632122
 30
0.0
 10
32.53626166737689
 20
-195.8389053605421
 30
0.0
 10
32.95048842385512
 20
-195.8389240210924
 30
0.0
 10
32.95048842385512
 20
-195.8389240210924
 30
0.0
 10
36.8748596701578
 20
-195.8391008105465
 30
0.0
 10
36.8748596701578
 20
-195.8391008105465
 30
0.0
 10
37.18265918275936
 20
-195.8391146766428
 30
0.0
 10
37.45846272010765
 20
-196.0277311234866
 30
0.0
 10
37.56981931539161
 20
-196.3146810299779
 30
0.0
 10
38.36785500482344
 20
-198.3711040543874
 30
0.0
 10
40.37121345152544
 20
-199.8388896565278
 30
0.0
 10
42.70074647643815
 20
-199.8388896570916
 30
0.0
 10
42.70074647643815
 20
-199.8388896570916
 30
0.0
 10
45.3004194085927
 20
-199.8388896575991
 30
0.0
 10
45.3004194085927
 20
-199.8388896575991
 30
0.0
 10
45.85270415836238
 20
-199.8388896577339
 30
0.0
 10
46.30041940855969
 20
-199.3911744076633
 30
0.0
 10
46.30041940858472
 20
-198.8388896578953
 30
0.0
 10
46.30041940858472
 20
-198.8388896578953
 30
0.0
 10
46.30041940898867
 20
-189.8388896607101
 30
0.0
 10
46.30041940898867
 20
-189.8388896607101
 30
0.0
 10
46.30041940901337
 20
-189.2866049108736
 30
0.0
 10
45.85270415875124
 20
-188.8388896607392
 30
0.0
 10
45.30041940891515
 20
-188.8388896609154
 30
0.0
 10
45.30041940891515
 20
-188.8388896609154
 30
0.0
 10
42.70074647547111
 20
-188.8388896615398
 30
0.0
 10
42.70074647547111
 20
-188.8388896615398
 30
0.0
 10
40.37151131498354
 20
-188.8388896622925
 30
0.0
 10
38.36836732573781
 20
-190.3062999338292
 30
0.0
 10
37.5701254951008
 20
-192.3623094885357
 30
0.0
 10
37.45876139880138
 20
-192.6491469320976
 30
0.0
 10
37.18305715715391
 20
-192.8376913229724
 30
0.0
 10
36.87535978067718
 20
-192.8377653679447
 30
0.0
 10
36.87535978067718
 20
-192.8377653679447
 30
0.0
 10
32.9506351188634
 20
-192.8387098223145
 30
0.0
 10
32.9506351188634
 20
-192.8387098223145
 30
0.0
 10
32.53635108435297
 20
-192.8388095165339
 30
0.0
 10
32.20045463738919
 20
-192.5029938906875
 30
0.0
 10
32.2004546374078
 20
-192.0887098441854
 30
0.0
 10
32.2004546374078
 20
-192.0887098441854
 30
0.0
 10
32.20045378052109
 20
-184.338889465189
 30
0.0
 10
32.20045378052109
 20
-184.338889465189
 30
0.0
 10
32.20045378052109
 20
-184.338889465189
 30
0.0
 10
27.20045378176966
 20
-184.3388894660874
 30
0.0
 10
27.20045378176966
 20
-184.3388894660874
 30
0.0
 10
27.20045378176966
 20
-184.3388894660874
 30
0.0
 10
27.20045020562647
 20
-159.3386644794928
 30
0.0
 10
27.20045020562647
 20
-159.3386644794928
 30
0.0
 10
27.20045020562647
 20
-159.3386644794928
 30
0.0
 10
32.20045407147545
 20
-159.3388907404767
 30
0.0
 10
32.20045407147545
 20
-159.3388907404767
 30
0.0
 10
32.20045407147545
 20
-159.3388907404767
 30
0.0
 10
32.20045407263147
 20
-133.5888876951562
 30
0.0
 10
32.20045407263147
 20
-133.5888876951562
 30
0.0
 10
32.20045407263147
 20
-133.5888876951562
 30
0.0
 10
27.20044652223099
 20
-133.5886635344818
 30
0.0
 10
27.20044652223099
 20
-133.5886635344818
 30
0.0
  0
ENDBLK
  5
48
330
45
100
AcDbEntity
  8
0
100
AcDbBlockEnd
  0
BLOCK
  5
62
330
60
100
AcDbEntity
  8
0
100
AcDbBlockBegin
  2
block 4
 70
     0
 10
0.0
 20
0.0
 30
0.0
  3
block 4
  1

  0
POLYLINE
  5
64
330
60
100
AcDbEntity
  8
Layer 1
 62
   240
420
 15539236
370
     9
100
AcDb2dPolyline
 66
     1
 10
0.0
 20
0.0
 30
0.0
  0
VERTEX
  5
65
330
64
100
AcDbEntity
  8
Layer 1
 62
   240
420
 15539236
370
     9
100
AcDbVertex
100
AcDb2dVertex
 10
573.1809885551161
 20
-290.0888910360134
 30
0.0
  0
VERTEX
  5
9C
330
64
100
AcDbEntity
  8
0
100
AcDbVertex
100
AcDb2dVertex
 10
573.1809885551161
 20
-290.0888910360134
 30
0.0
  0
SEQEND
  5
66
330
64
100
AcDbEntity
  8
Layer 1
 62
   240
420
 15539236
370
     9
  0
SPLINE
  5
67
330
60
100
AcDbEntity
  8
Layer 1
 62
   240
420
 15539236
370
     9
100
AcDbSpline
210
0.0
220
0.0
230
1.0
 70
     8
 71
     3
 72
   347
 73
   343
 74
     0
 42
0.0000000001
 43
0.0000000001
 12
1.0
 22
0.0
 32
0.0
 13
1.0
 23
0.0
 33
0.0
 40
0.0
 40
0.0
 40
0.0
 40
0.0
 40
1.0
 40
1.0
 40
1.0
 40
2.0
 40
2.0
 40
2.0
 40
3.0
 40
3.0
 40
3.0
 40
4.0
 40
4.0
 40
4.0
 40
5.0
 40
5.0
 40
5.0
 40
6.0
 40
6.0
 40
6.0
 40
7.0
 40
7.0
 40
7.0
 40
8.0
 40
8.0
 40
8.0
 40
9.0
 40
9.0
 40
9.0
 40
10.0
 40
10.0
 40
10.0
 40
11.0
 40
11.0
 40
11.0
 40
12.0
 40
12.0
 40
12.0
 40
13.0
 40
13.0
 40
13.0
 40
14.0
 40
14.0
 40
14.0
 40
15.0
 40
15.0
 40
15.0
 40
16.0
 40
16.0
 40
16.0
 40
17.0
 40
17.0
 40
17.0
 40
18.0
 40
18.0
 40
18.0
 40
19.0
 40
19.0
 40
19.0
 40
20.0
 40
20.0
 40
20.0
 40
21.0
 40
21.0
 40
21.0
 40
22.0
 40
22.0
 40
22.0
 40
23.0
 40
23.0
 40
23.0
 40
24.0
 40
24.0
 40
24.0
 40
25.0
 40
25.0
 40
25.0
 40
26.0
 40
26.0
 40
26.0
 40
27.0
 40
27.0
 40
27.0
 40
28.0
 40
28.0
 40
28.0
 40
29.0
 40
29.0
 40
29.0
 40
30.0
 40
30.0
 40
30.0
 40
31.0
 40
31.0
 40
31.0
 40
32.0
 40
32.0
 40
32.0
 40
33.0
 40
33.0
 40
33.0
 40
34.0
 40
34.0
 40
34.0
 40
35.0
 40
35.0
 40
35.0
 40
36.0
 40
36.0
 40
36.0
 40
37.0
 40
37.0
 40
37.0
 40
38.0
 40
38.0
 40
38.0
 40
39.0
 40
39.0
 40
39.0
 40
40.0
 40
40.0
 40
40.0
 40
41.0
 40
41.0
 40
41.0
 40
42.0
 40
42.0
 40
42.0
 40
43.0
 40
43.0
 40
43.0
 40
44.0
 40
44.0
 40
44.0
 40
45.0
 40
45.0
 40
45.0
 40
46.0
 40
46.0
 40
46.0
 40
47.0
 40
47.0
 40
47.0
 40
48.0
 40
48.0
 40
48.0
 40
49.0
 40
49.0
 40
49.0
 40
50.0
 40
50.0
 40
50.0
 40
51.0
 40
51.0
 40
51.0
 40
52.0
 40
52.0
 40
52.0
 40
53.0
 40
53.0
 40
53.0
 40
54.0
 40
54.0
 40
54.0
 40
55.0
 40
55.0
 40
55.0
 40
56.0
 40
56.0
 40
56.0
 40
57.0
 40
57.0
 40
57.0
 40
58.0
 40
58.0
 40
58.0
 40
59.0
 40
59.0
 40
59.0
 40
60.0
 40
60.0
 40
60.0
 40
61.0
 40
61.0
 40
61.0
 40
62.0
 40
62.0
 40
62.0
 40
63.0
 40
63.0
 40
63.0
 40
64.0
 40
64.0
 40
64.0
 40
65.0
 40
65.0
 40
65.0
 40
66.0
 40
66.0
 40
66.0
 40
67.0
 40
67.0
 40
67.0
 40
68.0
 40
68.0
 40
68.0
 40
69.0
 40
69.0
 40
69.0
 40
70.0
 40
70.0
 40
70.0
 40
71.0
 40
71.0
 40
71.0
 40
72.0
 40
72.0
 40
72.0
 40
73.0
 40
73.0
 40
73.0
 40
74.0
 40
74.0
 40
74.0
 40
75.0
 40
75.0
 40
75.0
 40
76.0
 40
76.0
 40
76.0
 40
77.0
 40
77.0
 40
77.0
 40
78.0
 40
78.0
 40
78.0
 40
79.0
 40
79.0
 40
79.0
 40
80.0
 40
80.0
 40
80.0
 40
81.0
 40
81.0
 40
81.0
 40
82.0
 40
82.0
 40
82.0
 40
83.0
 40
83.0
 40
83.0
 40
84.0
 40
84.0
 40
84.0
 40
85.0
 40
85.0
 40
85.0
 40
86.0
 40
86.0
 40
86.0
 40
87.0
 40
87.0
 40
87.0
 40
88.0
 40
88.0
 40
88.0
 40
89.0
 40
89.0
 40
89.0
 40
90.0
 40
90.0
 40
90.0
 40
91.0
 40
91.0
 40
91.0
 40
92.0
 40
92.0
 40
92.0
 40
93.0
 40
93.0
 40
93.0
 40
94.0
 40
94.0
 40
94.0
 40
95.0
 40
95.0
 40
95.0
 40
96.0
 40
96.0
 40
96.0
 40
97.0
 40
97.0
 40
97.0
 40
98.0
 40
98.0
 40
98.0
 40
99.0
 40
99.0
 40
99.0
 40
100.0
 40
100.0
 40
100.0
 40
101.0
 40
101.0
 40
101.0
 40
102.0
 40
102.0
 40
102.0
 40
103.0
 40
103.0
 40
103.0
 40
104.0
 40
104.0
 40
104.0
 40
105.0
 40
105.0
 40
105.0
 40
106.0
 40
106.0
 40
106.0
 40
107.0
 40
107.0
 40
107.0
 40
108.0
 40
108.0
 40
108.0
 40
109.0
 40
109.0
 40
109.0
 40
110.0
 40
110.0
 40
110.0
 40
111.0
 40
111.0
 40
111.0
 40
112.0
 40
112.0
 40
112.0
 40
113.0
 40
113.0
 40
113.0
 40
114.0
 40
114.0
 40
114.0
 40
114.0
 10
573.1809986342412
 20
-88.58888780442919
 30
0.0
 10
573.1809986342412
 20
-88.58888780442919
 30
0.0
 10
573.1809977485226
 20
-133.5887781683974
 30
0.0
 10
573.1809977485226
 20
-133.5887781683974
 30
0.0
 10
573.1809977485226
 20
-133.5887781683974
 30
0.0
 10
568.1809901981214
 20
-133.5889468921688
 30
0.0
 10
568.1809901981214
 20
-133.5889468921688
 30
0.0
 10
568.1809901981214
 20
-133.5889468921688
 30
0.0
 10
568.1809899906499
 20
-141.3388583337307
 30
0.0
 10
568.1809899906499
 20
-141.3388583337307
 30
0.0
 10
568.180989990519
 20
-141.7530850906292
 30
0.0
 10
567.8451829602743
 20
-142.0888769932092
 30
0.0
 10
567.4309562037954
 20
-142.088858332546
 30
0.0
 10
567.4309562037954
 20
-142.088858332546
 30
0.0
 10
563.5065849574943
 20
-142.0886815420349
 30
0.0
 10
563.5065849574943
 20
-142.0886815420349
 30
0.0
 10
563.1987854448944
 20
-142.0886676758562
 30
0.0
 10
562.9229819075967
 20
-141.900051228939
 30
0.0
 10
562.8116253123899
 20
-141.6131013224175
 30
0.0
 10
562.0135896235092
 20
-139.556678297792
 30
0.0
 10
560.0102311772034
 20
-138.0888926951129
 30
0.0
 10
557.680698152291
 20
-138.0888926939219
 30
0.0
 10
557.680698152291
 20
-138.0888926939219
 30
0.0
 10
555.0810252201355
 20
-138.0888926927129
 30
0.0
 10
555.0810252201355
 20
-138.0888926927129
 30
0.0
 10
554.5287404703662
 20
-138.08889269243
 30
0.0
 10
554.0810252200508
 20
-138.5366079423789
 30
0.0
 10
554.0810252198744
 20
-139.0888926921477
 30
0.0
 10
554.0810252198744
 20
-139.0888926921477
 30
0.0
 10
554.0810252170489
 20
-148.0888926893328
 30
0.0
 10
554.0810252170489
 20
-148.0888926893328
 30
0.0
 10
554.0810252168725
 20
-148.6411774391689
 30
0.0
 10
554.5287404670153
 20
-149.0888926894246
 30
0.0
 10
555.0810252168513
 20
-149.0888926893964
 30
0.0
 10
555.0810252168513
 20
-149.0888926893964
 30
0.0
 10
557.6806981502941
 20
-149.0888926894734
 30
0.0
 10
557.6806981502941
 20
-149.0888926894734
 30
0.0
 10
560.0099333107823
 20
-149.0888926893486
 30
0.0
 10
562.0130773004227
 20
-147.6214824183502
 30
0.0
 10
562.8113191316141
 20
-145.5654728638603
 30
0.0
 10
562.9226832279916
 20
-145.2786354203266
 30
0.0
 10
563.1983874696897
 20
-145.0900910295275
 30
0.0
 10
563.5060848461665
 20
-145.0900169846371
 30
0.0
 10
563.5060848461665
 20
-145.0900169846371
 30
0.0
 10
567.4308095079792
 20
-145.0890725313241
 30
0.0
 10
567.4308095079792
 20
-145.0890725313241
 30
0.0
 10
567.8450935424912
 20
-145.0889728372168
 30
0.0
 10
568.1809899893652
 20
-145.4247884631536
 30
0.0
 10
568.180989989235
 20
-145.8390725096564
 30
0.0
 10
568.180989989235
 20
-145.8390725096564
 30
0.0
 10
568.1809901981214
 20
-153.5889995339624
 30
0.0
 10
568.1809901981214
 20
-153.5889995339624
 30
0.0
 10
568.1809901981214
 20
-153.5889995339624
 30
0.0
 10
573.1809940639663
 20
-153.5888292306142
 30
0.0
 10
573.1809940639663
 20
-153.5888292306142
 30
0.0
 10
573.1809940639663
 20
-153.5888292306142
 30
0.0
 10
573.1809977485226
 20
-184.3387828216815
 30
0.0
 10
573.1809977485226
 20
-184.3387828216815
 30
0.0
 10
573.1809977485226
 20
-184.3387828216815
 30
0.0
 10
568.1809901981214
 20
-184.3389515454526
 30
0.0
 10
568.1809901981214
 20
-184.3389515454526
 30
0.0
 10
568.1809901981214
 20
-184.3389515454526
 30
0.0
 10
568.1809899906499
 20
-192.0888629870148
 30
0.0
 10
568.1809899906499
 20
-192.0888629870148
 30
0.0
 10
568.180989990519
 20
-192.5030897439133
 30
0.0
 10
567.8451829602743
 20
-192.8388816464933
 30
0.0
 10
567.4309562037954
 20
-192.8388629858301
 30
0.0
 10
567.4309562037954
 20
-192.8388629858301
 30
0.0
 10
563.5065849574943
 20
-192.8386861953191
 30
0.0
 10
563.5065849574943
 20
-192.8386861953191
 30
0.0
 10
563.1987854448944
 20
-192.8386723291404
 30
0.0
 10
562.9229819075967
 20
-192.6500558822231
 30
0.0
 10
562.8116253123899
 20
-192.3631059757016
 30
0.0
 10
562.0135896235092
 20
-190.3066829510761
 30
0.0
 10
560.0102311772034
 20
-188.838897348397
 30
0.0
 10
557.680698152291
 20
-188.8388973472061
 30
0.0
 10
557.680698152291
 20
-188.8388973472061
 30
0.0
 10
555.0810252201355
 20
-188.8388973459971
 30
0.0
 10
555.0810252201355
 20
-188.8388973459971
 30
0.0
 10
554.5287404703662
 20
-188.8388973457141
 30
0.0
 10
554.0810252200508
 20
-189.2866125956631
 30
0.0
 10
554.0810252198744
 20
-189.8388973454321
 30
0.0
 10
554.0810252198744
 20
-189.8388973454321
 30
0.0
 10
554.0810252170489
 20
-198.8388973426173
 30
0.0
 10
554.0810252170489
 20
-198.8388973426173
 30
0.0
 10
554.0810252168725
 20
-199.3911820924531
 30
0.0
 10
554.5287404670153
 20
-199.8388973427088
 30
0.0
 10
555.0810252168513
 20
-199.8388973426805
 30
0.0
 10
555.0810252168513
 20
-199.8388973426805
 30
0.0
 10
557.6806981502941
 20
-199.8388973427575
 30
0.0
 10
557.6806981502941
 20
-199.8388973427575
 30
0.0
 10
560.0099333107823
 20
-199.8388973426324
 30
0.0
 10
562.0130773004227
 20
-198.3714870716344
 30
0.0
 10
562.8113191316141
 20
-196.3154775171438
 30
0.0
 10
562.9226832279916
 20
-196.0286400736108
 30
0.0
 10
563.1983874696897
 20
-195.840095682811
 30
0.0
 10
563.5060848461665
 20
-195.8400216379216
 30
0.0
 10
563.5060848461665
 20
-195.8400216379216
 30
0.0
 10
567.4308095079792
 20
-195.8390771846083
 30
0.0
 10
567.4308095079792
 20
-195.8390771846083
 30
0.0
 10
567.8450935424912
 20
-195.8389774905009
 30
0.0
 10
568.1809899893652
 20
-196.1747931164377
 30
0.0
 10
568.180989989235
 20
-196.5890771629405
 30
0.0
 10
568.180989989235
 20
-196.5890771629405
 30
0.0
 10
568.1809901981214
 20
-204.3390041872462
 30
0.0
 10
568.1809901981214
 20
-204.3390041872462
 30
0.0
 10
568.1809901981214
 20
-204.3390041872462
 30
0.0
 10
573.1809940639663
 20
-204.3388338838983
 30
0.0
 10
573.1809940639663
 20
-204.3388338838983
 30
0.0
 10
573.1809940639663
 20
-204.3388338838983
 30
0.0
 10
573.1810024003414
 20
-229.3388926909176
 30
0.0
 10
573.1810024003414
 20
-229.3388926909176
 30
0.0
 10
573.1810024003414
 20
-229.3388926909176
 30
0.0
 10
568.1810024015945
 20
-229.3388926909176
 30
0.0
 10
568.1810024015945
 20
-229.3388926909176
 30
0.0
 10
568.1810024015945
 20
-229.3388926909176
 30
0.0
 10
568.1809996183006
 20
-265.0888896196255
 30
0.0
 10
568.1809996183006
 20
-265.0888896196255
 30
0.0
 10
568.1809996183006
 20
-265.0888896196255
 30
0.0
 10
573.180999617052
 20
-265.0888896196255
 30
0.0
 10
573.180999617052
 20
-265.0888896196255
 30
0.0
 10
573.180999617052
 20
-265.0888896196255
 30
0.0
 10
573.1809885551161
 20
-290.0888910360134
 30
0.0
 10
573.1809885551161
 20
-290.0888910360134
 30
0.0
 10
573.1809885551161
 20
-290.0888910360134
 30
0.0
 10
568.1809885563646
 20
-290.0888910348904
 30
0.0
 10
568.1809885563646
 20
-290.0888910348904
 30
0.0
 10
568.1809885563646
 20
-290.0888910348904
 30
0.0
 10
568.1809886449082
 20
-297.8388549258715
 30
0.0
 10
568.1809886449082
 20
-297.8388549258715
 30
0.0
 10
568.1809886447779
 20
-298.2530816827701
 30
0.0
 10
567.8451816145325
 20
-298.58887358535
 30
0.0
 10
567.4309548580537
 20
-298.5888549246868
 30
0.0
 10
567.4309548580537
 20
-298.5888549246868
 30
0.0
 10
563.5065836117526
 20
-298.5886781341758
 30
0.0
 10
563.5065836117526
 20
-298.5886781341758
 30
0.0
 10
563.1987840991527
 20
-298.5886642679964
 30
0.0
 10
562.9229805618558
 20
-298.4000478210798
 30
0.0
 10
562.8116239666481
 20
-298.1130979145584
 30
0.0
 10
562.0135882777713
 20
-296.0566748899328
 30
0.0
 10
560.0102298314656
 20
-294.5888892872531
 30
0.0
 10
557.6806968065493
 20
-294.5888892860621
 30
0.0
 10
557.6806968065493
 20
-294.5888892860621
 30
0.0
 10
555.0810238743977
 20
-294.5888892848532
 30
0.0
 10
555.0810238743977
 20
-294.5888892848532
 30
0.0
 10
554.5287391246252
 20
-294.5888892845708
 30
0.0
 10
554.0810238743097
 20
-295.0366045345191
 30
0.0
 10
554.0810238741365
 20
-295.5888892842879
 30
0.0
 10
554.0810238741365
 20
-295.5888892842879
 30
0.0
 10
554.0810238713073
 20
-304.588889281473
 30
0.0
 10
554.0810238713073
 20
-304.588889281473
 30
0.0
 10
554.0810238711347
 20
-305.1411740313098
 30
0.0
 10
554.5287391212736
 20
-305.5888892815648
 30
0.0
 10
555.0810238711097
 20
-305.5888892815366
 30
0.0
 10
555.0810238711097
 20
-305.5888892815366
 30
0.0
 10
557.6806968045563
 20
-305.5888892816136
 30
0.0
 10
557.6806968045563
 20
-305.5888892816136
 30
0.0
 10
560.0099319650412
 20
-305.5888892814891
 30
0.0
 10
562.013075954681
 20
-304.1214790104911
 30
0.0
 10
562.811317785873
 20
-302.0654694560005
 30
0.0
 10
562.9226818822505
 20
-301.7786320124669
 30
0.0
 10
563.1983861239486
 20
-301.5900876216671
 30
0.0
 10
563.5060835004247
 20
-301.5900135767773
 30
0.0
 10
563.5060835004247
 20
-301.5900135767773
 30
0.0
 10
567.4308081622414
 20
-301.589069123465
 30
0.0
 10
567.4308081622414
 20
-301.589069123465
 30
0.0
 10
567.8450921967502
 20
-301.5889694293576
 30
0.0
 10
568.1809886436241
 20
-301.9247850552944
 30
0.0
 10
568.1809886434938
 20
-302.3390691017972
 30
0.0
 10
568.1809886434938
 20
-302.3390691017972
 30
0.0
 10
568.1809885518772
 20
-310.088891029891
 30
0.0
 10
568.1809885518772
 20
-310.088891029891
 30
0.0
 10
568.1809885518772
 20
-310.088891029891
 30
0.0
 10
573.1809885506248
 20
-310.088891031014
 30
0.0
 10
573.1809885506248
 20
-310.088891031014
 30
0.0
 10
573.1809885506248
 20
-310.088891031014
 30
0.0
 10
573.18098894151
 20
-335.0889552132144
 30
0.0
 10
573.18098894151
 20
-335.0889552132144
 30
0.0
 10
573.18098894151
 20
-335.0889552132144
 30
0.0
 10
568.180986035122
 20
-335.0888923668533
 30
0.0
 10
568.180986035122
 20
-335.0888923668533
 30
0.0
 10
568.180986035122
 20
-335.0888923668533
 30
0.0
 10
568.180986035122
 20
-370.8388919870423
 30
0.0
 10
568.180986035122
 20
-370.8388919870423
 30
0.0
 10
568.180986035122
 20
-370.8388919870423
 30
0.0
 10
573.1809895004723
 20
-370.8388184365097
 30
0.0
 10
573.1809895004723
 20
-370.8388184365097
 30
0.0
 10
573.1809895004723
 20
-370.8388184365097
 30
0.0
 10
573.1809898913606
 20
-395.8388903764421
 30
0.0
 10
573.1809898913606
 20
-395.8388903764421
 30
0.0
 10
573.1809898913606
 20
-395.8388903764421
 30
0.0
 10
568.1809898926092
 20
-395.8388903753192
 30
0.0
 10
568.1809898926092
 20
-395.8388903753192
 30
0.0
 10
568.1809898926092
 20
-395.8388903753192
 30
0.0
 10
568.1809859534254
 20
-403.5888572942162
 30
0.0
 10
568.1809859534254
 20
-403.5888572942162
 30
0.0
 10
568.1809859532951
 20
-404.0030840511147
 30
0.0
 10
567.845178923053
 20
-404.3388759536947
 30
0.0
 10
567.4309521665748
 20
-404.3388572930315
 30
0.0
 10
567.4309521665748
 20
-404.3388572930315
 30
0.0
 10
563.5065809202737
 20
-404.3386805025205
 30
0.0
 10
563.5065809202737
 20
-404.3386805025205
 30
0.0
 10
563.1987814076738
 20
-404.3386666363411
 30
0.0
 10
562.922977870373
 20
-404.1500501894245
 30
0.0
 10
562.811621275166
 20
-403.863100282903
 30
0.0
 10
562.0135855862892
 20
-401.8066772582775
 30
0.0
 10
560.0102271399828
 20
-400.3388916555978
 30
0.0
 10
557.6806941150704
 20
-400.3388916544068
 30
0.0
 10
557.6806941150704
 20
-400.3388916544068
 30
0.0
 10
555.0810211829149
 20
-400.3388916531978
 30
0.0
 10
555.0810211829149
 20
-400.3388916531978
 30
0.0
 10
554.5287364331463
 20
-400.3388916529155
 30
0.0
 10
554.0810211828269
 20
-400.7866069028638
 30
0.0
 10
554.0810211826537
 20
-401.3388916526325
 30
0.0
 10
554.0810211826537
 20
-401.3388916526325
 30
0.0
 10
554.0810211798283
 20
-410.3388916498177
 30
0.0
 10
554.0810211798283
 20
-410.3388916498177
 30
0.0
 10
554.0810211796519
 20
-410.8911763996545
 30
0.0
 10
554.5287364297947
 20
-411.3388916499095
 30
0.0
 10
555.0810211796307
 20
-411.3388916498813
 30
0.0
 10
555.0810211796307
 20
-411.3388916498813
 30
0.0
 10
557.6806941130735
 20
-411.3388916499583
 30
0.0
 10
557.6806941130735
 20
-411.3388916499583
 30
0.0
 10
560.0099292735617
 20
-411.3388916498338
 30
0.0
 10
562.013073263202
 20
-409.8714813788358
 30
0.0
 10
562.8113150943935
 20
-407.8154718243452
 30
0.0
 10
562.9226791907709
 20
-407.5286343808115
 30
0.0
 10
563.1983834324691
 20
-407.3400899900118
 30
0.0
 10
563.5060808089457
 20
-407.340015945122
 30
0.0
 10
563.5060808089457
 20
-407.340015945122
 30
0.0
 10
567.4308054707586
 20
-407.3390714918096
 30
0.0
 10
567.4308054707586
 20
-407.3390714918096
 30
0.0
 10
567.8450895052706
 20
-407.3389717977023
 30
0.0
 10
568.1809859521413
 20
-407.6747874236391
 30
0.0
 10
568.1809859520105
 20
-408.0890714701419
 30
0.0
 10
568.1809859520105
 20
-408.0890714701419
 30
0.0
 10
568.1809898881179
 20
-415.8388903703197
 30
0.0
 10
568.1809898881179
 20
-415.8388903703197
 30
0.0
 10
568.1809898881179
 20
-415.8388903703197
 30
0.0
 10
573.1809898868694
 20
-415.8388903714427
 30
0.0
 10
573.1809898868694
 20
-415.8388903714427
 30
0.0
 10
573.1809898868694
 20
-415.8388903714427
 30
0.0
 10
573.1809918442183
 20
-461.5888889563906
 30
0.0
 10
573.1809918442183
 20
-461.5888889563906
 30
0.0
 10
573.1809918442183
 20
-461.5888889563906
 30
0.0
 10
568.1809918454668
 20
-461.5888889561686
 30
0.0
 10
568.1809918454668
 20
-461.5888889561686
 30
0.0
 10
568.1809918454668
 20
-461.5888889561686
 30
0.0
 10
568.1809899065405
 20
-469.3388563876214
 30
0.0
 10
568.1809899065405
 20
-469.3388563876214
 30
0.0
 10
568.1809899064095
 20
-469.75308314452
 30
0.0
 10
567.8451828761648
 20
-470.0888750471
 30
0.0
 10
567.430956119686
 20
-470.0888563864368
 30
0.0
 10
567.430956119686
 20
-470.0888563864368
 30
0.0
 10
563.5065848733849
 20
-470.0886795959283
 30
0.0
 10
563.5065848733849
 20
-470.0886795959283
 30
0.0
 10
563.198785360785
 20
-470.0886657297464
 30
0.0
 10
562.922981823488
 20
-469.900049282831
 30
0.0
 10
562.8116252282804
 20
-469.6130993763095
 30
0.0
 10
562.0135895394004
 20
-467.5566763516841
 30
0.0
 10
560.010231093094
 20
-466.088890749003
 30
0.0
 10
557.6806980681816
 20
-466.0888907478146
 30
0.0
 10
557.6806980681816
 20
-466.0888907478146
 30
0.0
 10
555.08102513603
 20
-466.0888907466044
 30
0.0
 10
555.08102513603
 20
-466.0888907466044
 30
0.0
 10
554.5287403862575
 20
-466.088890746322
 30
0.0
 10
554.081025135942
 20
-466.5366059962704
 30
0.0
 10
554.0810251357656
 20
-467.0888907460391
 30
0.0
 10
554.0810251357656
 20
-467.0888907460391
 30
0.0
 10
554.0810251329395
 20
-476.0888907432243
 30
0.0
 10
554.0810251329395
 20
-476.0888907432243
 30
0.0
 10
554.081025132767
 20
-476.641175493061
 30
0.0
 10
554.5287403829059
 20
-477.0888907433161
 30
0.0
 10
555.081025132742
 20
-477.0888907432878
 30
0.0
 10
555.081025132742
 20
-477.0888907432878
 30
0.0
 10
557.6806980661886
 20
-477.0888907433661
 30
0.0
 10
557.6806980661886
 20
-477.0888907433661
 30
0.0
 10
560.009933226673
 20
-477.0888907432391
 30
0.0
 10
562.0130772163133
 20
-475.6214804722397
 30
0.0
 10
562.8113190475048
 20
-473.5654709177517
 30
0.0
 10
562.9226831438828
 20
-473.2786334742168
 30
0.0
 10
563.1983873855803
 20
-473.0900890834183
 30
0.0
 10
563.506084762057
 20
-473.0900150385272
 30
0.0
 10
563.506084762057
 20
-473.0900150385272
 30
0.0
 10
567.4308094238737
 20
-473.0890705852149
 30
0.0
 10
567.4308094238737
 20
-473.0890705852149
 30
0.0
 10
567.8450934583818
 20
-473.0889708911076
 30
0.0
 10
568.1809899052564
 20
-473.4247865170444
 30
0.0
 10
568.1809899051256
 20
-473.8390705635472
 30
0.0
 10
568.1809899051256
 20
-473.8390705635472
 30
0.0
 10
568.180991844571
 20
-481.5888889511666
 30
0.0
 10
568.180991844571
 20
-481.5888889511666
 30
0.0
 10
568.180991844571
 20
-481.5888889511666
 30
0.0
 10
573.1809918433219
 20
-481.5888889513925
 30
0.0
 10
573.1809918433219
 20
-481.5888889513925
 30
0.0
 10
573.1809918433219
 20
-481.5888889513925
 30
0.0
 10
573.1809993160869
 20
-506.5888914492422
 30
0.0
 10
573.1809993160869
 20
-506.5888914492422
 30
0.0
 10
573.1809993160869
 20
-506.5888914492422
 30
0.0
 10
557.4310330701046
 20
-506.5888909466854
 30
0.0
 10
557.4310330701046
 20
-506.5888909466854
 30
0.0
 10
557.0168063132061
 20
-506.5888909466468
 30
0.0
 10
556.6810144105517
 20
-506.2530839164791
 30
0.0
 10
556.6810330711206
 20
-505.8388571600003
 30
0.0
 10
556.6810330711206
 20
-505.8388571600003
 30
0.0
 10
556.6812098607505
 20
-501.9144859136992
 30
0.0
 10
556.6812098607505
 20
-501.9144859136992
 30
0.0
 10
556.6812237268613
 20
-501.6066864010954
 30
0.0
 10
556.8698401737169
 20
-501.3308828637561
 30
0.0
 10
557.156790080214
 20
-501.2195262684856
 30
0.0
 10
559.2132131046585
 20
-500.4214905791468
 30
0.0
 10
560.6809987068891
 20
-498.4181321325125
 30
0.0
 10
560.6809987075558
 20
-496.0885991075969
 30
0.0
 10
560.6809987075558
 20
-496.0885991075969
 30
0.0
 10
560.6809987081833
 20
-493.4889261754452
 30
0.0
 10
560.6809987081833
 20
-493.4889261754452
 30
0.0
 10
560.6809987083425
 20
-492.9366414256727
 30
0.0
 10
560.2332834582915
 20
-492.4889261754548
 30
0.0
 10
559.6809987085221
 20
-492.488926175406
 30
0.0
 10
559.6809987085221
 20
-492.488926175406
 30
0.0
 10
550.6809987113376
 20
-492.4889261745988
 30
0.0
 10
550.6809987113376
 20
-492.4889261745988
 30
0.0
 10
550.1287139615015
 20
-492.4889261745487
 30
0.0
 10
549.6809987113478
 20
-492.9366414247897
 30
0.0
 10
549.6809987114999
 20
-493.4889261746264
 30
0.0
 10
549.6809987114999
 20
-493.4889261746264
 30
0.0
 10
549.6809987120043
 20
-496.088599108073
 30
0.0
 10
549.6809987120043
 20
-496.088599108073
 30
0.0
 10
549.680998712653
 20
-498.4178342685574
 30
0.0
 10
551.1484089841002
 20
-500.4209782578699
 30
0.0
 10
553.2044185387724
 20
-501.2192200885987
 30
0.0
 10
553.491255982328
 20
-501.3305841849125
 30
0.0
 10
553.6798003731906
 20
-501.6062884265689
 30
0.0
 10
553.6798744181484
 20
-501.913985803045
 30
0.0
 10
553.6798744181484
 20
-501.913985803045
 30
0.0
 10
553.6808188723418
 20
-505.8387104648585
 30
0.0
 10
553.6808188723418
 20
-505.8387104648585
 30
0.0
 10
553.6809185665447
 20
-506.2529944993705
 30
0.0
 10
553.3451029406817
 20
-506.5888909463183
 30
0.0
 10
552.9308188941789
 20
-506.5888909462798
 30
0.0
 10
552.9308188941789
 20
-506.5888909462798
 30
0.0
 10
548.680999398637
 20
-506.5888909458986
 30
0.0
 10
548.680999398637
 20
-506.5888909458986
 30
0.0
  0
POLYLINE
  5
68
330
60
100
AcDbEntity
  8
Layer 1
 62
   240
420
 15539236
370
     9
100
AcDb2dPolyline
 66
     1
 10
0.0
 20
0.0
 30
0.0
  0
VERTEX
  5
69
330
68
100
AcDbEntity
  8
Layer 1
 62
   240
420
 15539236
370
     9
100
AcDbVertex
100
AcDb2dVertex
 10
533.4196728951515
 20
-88.58889129617901
 30
0.0
  0
VERTEX
  5
6A
330
68
100
AcDbEntity
  8
Layer 1
 62
   240
420
 15539236
370
     9
100
AcDbVertex
100
AcDb2dVertex
 10
573.1809986342412
 20
-88.58888780442919
 30
0.0
  0
SEQEND
  5
6B
330
68
100
AcDbEntity
  8
Layer 1
 62
   240
420
 15539236
370
     9
  0
SPLINE
  5
6C
330
60
100
AcDbEntity
  8
Layer 1
 62
   177
420
  3027090
370
     9
100
AcDbSpline
210
0.0
220
0.0
230
1.0
 70
    11
 71
     3
 72
    17
 73
    13
 74
     0
 42
0.0000000001
 43
0.0000000001
 12
1.0
 22
0.0
 32
0.0
 13
1.0
 23
0.0
 33
0.0
 40
0.0
 40
0.0
 40
0.0
 40
0.0
 40
1.0
 40
1.0
 40
1.0
 40
2.0
 40
2.0
 40
2.0
 40
3.0
 40
3.0
 40
3.0
 40
4.0
 40
4.0
 40
4.0
 40
4.0
 10
544.5809998936053
 20
-100.6888872955081
 30
0.0
 10
545.4094270180999
 20
-100.6888872955446
 30
0.0
 10
546.0809998931995
 20
-101.3604601707065
 30
0.0
 10
546.0809998931642
 20
-102.1888872951991
 30
0.0
 10
546.0809998931251
 20
-103.0173144196918
 30
0.0
 10
545.4094270179658
 20
-103.688887294794
 30
0.0
 10
544.5809998934712
 20
-103.6888872947571
 30
0.0
 10
543.7525727689798
 20
-103.6888872947195
 30
0.0
 10
543.080999893877
 20
-103.017314419557
 30
0.0
 10
543.0809998939155
 20
-102.1888872950644
 30
0.0
 10
543.0809998939546
 20
-101.3604601705717
 30
0.0
 10
543.752572769114
 20
-100.6888872954702
 30
0.0
 10
544.5809998936053
 20
-100.6888872955081
 30
0.0
  0
SPLINE
  5
6D
330
60
100
AcDbEntity
  8
Layer 1
 62
   177
420
  3027090
370
     9
100
AcDbSpline
210
0.0
220
0.0
230
1.0
 70
    11
 71
     3
 72
    17
 73
    13
 74
     0
 42
0.0000000001
 43
0.0000000001
 12
1.0
 22
0.0
 32
0.0
 13
1.0
 23
0.0
 33
0.0
 40
0.0
 40
0.0
 40
0.0
 40
0.0
 40
1.0
 40
1.0
 40
1.0
 40
2.0
 40
2.0
 40
2.0
 40
3.0
 40
3.0
 40
3.0
 40
4.0
 40
4.0
 40
4.0
 40
4.0
 10
544.5809998936053
 20
-118.6888877916868
 30
0.0
 10
545.4094270180999
 20
-118.6888877917237
 30
0.0
 10
546.0809998931995
 20
-119.3604606668852
 30
0.0
 10
546.0809998931642
 20
-120.1888877913781
 30
0.0
 10
546.0809998931251
 20
-121.0173149158708
 30
0.0
 10
545.4094270179658
 20
-121.688887790973
 30
0.0
 10
544.5809998934712
 20
-121.6888877909361
 30
0.0
 10
543.7525727689798
 20
-121.6888877908985
 30
0.0
 10
543.080999893877
 20
-121.017314915736
 30
0.0
 10
543.0809998939155
 20
-120.1888877912434
 30
0.0
 10
543.0809998939546
 20
-119.3604606667504
 30
0.0
 10
543.752572769114
 20
-118.6888877916492
 30
0.0
 10
544.5809998936053
 20
-118.6888877916868
 30
0.0
  0
POLYLINE
  5
6E
330
60
100
AcDbEntity
  8
Layer 1
 62
   177
420
  3027090
370
     9
100
AcDb2dPolyline
 66
     1
 10
0.0
 20
0.0
 30
0.0
  0
VERTEX
  5
6F
330
6E
100
AcDbEntity
  8
Layer 1
 62
   177
420
  3027090
370
     9
100
AcDbVertex
100
AcDb2dVertex
 10
563.080998129462
 20
-110.938887886754
 30
0.0
  0
VERTEX
  5
70
330
6E
100
AcDbEntity
  8
Layer 1
 62
   177
420
  3027090
370
     9
100
AcDbVertex
100
AcDb2dVertex
 10
549.080998132962
 20
-110.938887886754
 30
0.0
  0
VERTEX
  5
71
330
6E
100
AcDbEntity
  8
Layer 1
 62
   177
420
  3027090
370
     9
100
AcDbVertex
100
AcDb2dVertex
 10
549.080998132962
 20
-96.93888789025401
 30
0.0
  0
VERTEX
  5
72
330
6E
100
AcDbEntity
  8
Layer 1
 62
   177
420
  3027090
370
     9
100
AcDbVertex
100
AcDb2dVertex
 10
563.080998129462
 20
-96.93888789025401
 30
0.0
  0
VERTEX
  5
73
330
6E
100
AcDbEntity
  8
Layer 1
 62
   177
420
  3027090
370
     9
100
AcDbVertex
100
AcDb2dVertex
 10
563.080998129462
 20
-110.938887886754
 30
0.0
  0
SEQEND
  5
74
330
6E
100
AcDbEntity
  8
Layer 1
 62
   177
420
  3027090
370
     9
  0
POLYLINE
  5
75
330
60
100
AcDbEntity
  8
Layer 1
 62
   240
420
 15539236
370
     9
100
AcDb2dPolyline
 66
     1
 10
0.0
 20
0.0
 30
0.0
  0
VERTEX
  5
76
330
75
100
AcDbEntity
  8
Layer 1
 62
   240
420
 15539236
370
     9
100
AcDbVertex
100
AcDb2dVertex
 10
525.6698540484208
 20
-93.58888780008186
 30
0.0
  0
VERTEX
  5
77
330
75
100
AcDbEntity
  8
Layer 1
 62
   240
420
 15539236
370
     9
100
AcDbVertex
100
AcDb2dVertex
 10
533.4196728951515
 20
-93.58889129492916
 30
0.0
  0
VERTEX
  5
78
330
75
100
AcDbEntity
  8
Layer 1
 62
   240
420
 15539236
370
     9
100
AcDbVertex
100
AcDb2dVertex
 10
533.4196728956033
 20
-88.58889129617901
 30
0.0
  0
SEQEND
  5
79
330
75
100
AcDbEntity
  8
Layer 1
 62
   240
420
 15539236
370
     9
  0
SPLINE
  5
7A
330
60
100
AcDbEntity
  8
Layer 1
 62
   240
420
 15539236
370
     9
100
AcDbSpline
210
0.0
220
0.0
230
1.0
 70
     8
 71
     3
 72
    44
 73
    40
 74
     0
 42
0.0000000001
 43
0.0000000001
 12
1.0
 22
0.0
 32
0.0
 13
1.0
 23
0.0
 33
0.0
 40
0.0
 40
0.0
 40
0.0
 40
0.0
 40
1.0
 40
1.0
 40
1.0
 40
2.0
 40
2.0
 40
2.0
 40
3.0
 40
3.0
 40
3.0
 40
4.0
 40
4.0
 40
4.0
 40
5.0
 40
5.0
 40
5.0
 40
6.0
 40
6.0
 40
6.0
 40
7.0
 40
7.0
 40
7.0
 40
8.0
 40
8.0
 40
8.0
 40
9.0
 40
9.0
 40
9.0
 40
10.0
 40
10.0
 40
10.0
 40
11.0
 40
11.0
 40
11.0
 40
12.0
 40
12.0
 40
12.0
 40
13.0
 40
13.0
 40
13.0
 40
13.0
 10
521.169639872495
 20
-93.58888780008186
 30
0.0
 10
521.5838666293936
 20
-93.58888780008186
 30
0.0
 10
521.9196585320794
 20
-93.9246948302194
 30
0.0
 10
521.9196398715465
 20
-94.33892158669762
 30
0.0
 10
521.9196398715465
 20
-94.33892158669762
 30
0.0
 10
521.9194630822689
 20
-98.2632928330003
 30
0.0
 10
521.9194630822689
 20
-98.2632928330003
 30
0.0
 10
521.9194492161863
 20
-98.57109234560187
 30
0.0
 10
521.7308327693557
 20
-98.84689588295849
 30
0.0
 10
521.443882862865
 20
-98.95825247825529
 30
0.0
 10
519.3874598384949
 20
-99.75628816777953
 30
0.0
 10
517.9196742364447
 20
-101.7596466145473
 30
0.0
 10
517.9196742359859
 20
-104.0891796394603
 30
0.0
 10
517.9196742359859
 20
-104.0891796394603
 30
0.0
 10
517.9196742355906
 20
-106.6888525716146
 30
0.0
 10
517.9196742355906
 20
-106.6888525716146
 30
0.0
 10
517.9196742354848
 20
-107.2411373213842
 30
0.0
 10
518.3673894855749
 20
-107.6888525715617
 30
0.0
 10
518.9196742353442
 20
-107.6888525715617
 30
0.0
 10
518.9196742353442
 20
-107.6888525715617
 30
0.0
 10
527.9196742325288
 20
-107.6888525715617
 30
0.0
 10
527.9196742325288
 20
-107.6888525715617
 30
0.0
 10
528.4719589823649
 20
-107.6888525715617
 30
0.0
 10
528.9196742324795
 20
-107.2411373212796
 30
0.0
 10
528.9196742322786
 20
-106.6888525714432
 30
0.0
 10
528.9196742322786
 20
-106.6888525714432
 30
0.0
 10
528.9196742315374
 20
-104.0891796379992
 30
0.0
 10
528.9196742315374
 20
-104.0891796379992
 30
0.0
 10
528.9196742306801
 20
-101.7599444775116
 30
0.0
 10
527.4522639590539
 20
-99.7568004883323
 30
0.0
 10
525.3962544043111
 20
-98.95855865778705
 30
0.0
 10
525.109416960744
 20
-98.84719456150047
 30
0.0
 10
524.9208725698577
 20
-98.57149031986165
 30
0.0
 10
524.920798524871
 20
-98.2637929433846
 30
0.0
 10
524.920798524871
 20
-98.2637929433846
 30
0.0
 10
524.9198540703246
 20
-94.33906828157114
 30
0.0
 10
524.9198540703246
 20
-94.33906828157114
 30
0.0
 10
524.919754376087
 20
-93.92478424706071
 30
0.0
 10
525.2555700019179
 20
-93.58888780008186
 30
0.0
 10
525.6698540484208
 20
-93.58888780008186
 30
0.0
  0
SPLINE
  5
7B
330
60
100
AcDbEntity
  8
Layer 1
 62
   240
420
 15539236
370
     9
100
AcDbSpline
210
0.0
220
0.0
230
1.0
 70
     8
 71
     3
 72
    23
 73
    19
 74
     0
 42
0.0000000001
 43
0.0000000001
 12
1.0
 22
0.0
 32
0.0
 13
1.0
 23
0.0
 33
0.0
 40
0.0
 40
0.0
 40
0.0
 40
0.0
 40
1.0
 40
1.0
 40
1.0
 40
2.0
 40
2.0
 40
2.0
 40
3.0
 40
3.0
 40
3.0
 40
4.0
 40
4.0
 40
4.0
 40
5.0
 40
5.0
 40
5.0
 40
6.0
 40
6.0
 40
6.0
 40
6.0
 10
496.1810009459836
 20
-506.5888914492422
 30
0.0
 10
496.1810009459836
 20
-506.5888914492422
 30
0.0
 10
469.6925981254329
 20
-444.6857259695657
 30
0.0
 10
469.6925981254329
 20
-444.6857259695657
 30
0.0
 10
468.6107530418215
 20
-442.1574634809633
 30
0.0
 10
467.7256070363454
 20
-437.8388850817579
 30
0.0
 10
467.7256070021544
 20
-435.0888850824459
 30
0.0
 10
467.7256070021544
 20
-435.0888850824459
 30
0.0
 10
467.7256039435075
 20
-189.0888933533863
 30
0.0
 10
467.7256039435075
 20
-189.0888933533863
 30
0.0
 10
467.7256039093165
 20
-186.3388933540736
 30
0.0
 10
466.1485159901586
 20
-182.4841211648977
 30
0.0
 10
464.2209641231594
 20
-180.5227329329955
 30
0.0
 10
464.2209641231594
 20
-180.5227329329955
 30
0.0
 10
417.6704286195419
 20
-133.1550464449143
 30
0.0
 10
417.6704286195419
 20
-133.1550464449143
 30
0.0
 10
415.7428767525427
 20
-131.1936582130124
 30
0.0
 10
414.1657888038782
 20
-127.3388860238362
 30
0.0
 10
414.1657887336262
 20
-124.5888860245235
 30
0.0
  0
SPLINE
  5
7C
330
60
100
AcDbEntity
  8
Layer 1
 62
   240
420
 15539236
370
     9
100
AcDbSpline
210
0.0
220
0.0
230
1.0
 70
     8
 71
     3
 72
    59
 73
    55
 74
     0
 42
0.0000000001
 43
0.0000000001
 12
1.0
 22
0.0
 32
0.0
 13
1.0
 23
0.0
 33
0.0
 40
0.0
 40
0.0
 40
0.0
 40
0.0
 40
1.0
 40
1.0
 40
1.0
 40
2.0
 40
2.0
 40
2.0
 40
3.0
 40
3.0
 40
3.0
 40
4.0
 40
4.0
 40
4.0
 40
5.0
 40
5.0
 40
5.0
 40
6.0
 40
6.0
 40
6.0
 40
7.0
 40
7.0
 40
7.0
 40
8.0
 40
8.0
 40
8.0
 40
9.0
 40
9.0
 40
9.0
 40
10.0
 40
10.0
 40
10.0
 40
11.0
 40
11.0
 40
11.0
 40
12.0
 40
12.0
 40
12.0
 40
13.0
 40
13.0
 40
13.0
 40
14.0
 40
14.0
 40
14.0
 40
15.0
 40
15.0
 40
15.0
 40
16.0
 40
16.0
 40
16.0
 40
17.0
 40
17.0
 40
17.0
 40
18.0
 40
18.0
 40
18.0
 40
18.0
 10
548.6809993652571
 20
-506.5888914492422
 30
0.0
 10
548.6809993652571
 20
-506.5888914492422
 30
0.0
 10
548.6809993652571
 20
-511.588891447993
 30
0.0
 10
548.6809993652571
 20
-511.588891447993
 30
0.0
 10
548.6809993652571
 20
-511.588891447993
 30
0.0
 10
516.1810173284792
 20
-511.588891447993
 30
0.0
 10
516.1810173284792
 20
-511.588891447993
 30
0.0
 10
516.1810173284792
 20
-511.588891447993
 30
0.0
 10
516.1810173284792
 20
-506.5888914492422
 30
0.0
 10
516.1810173284792
 20
-506.5888914492422
 30
0.0
 10
516.1810173284792
 20
-506.5888914492422
 30
0.0
 10
508.4310344529297
 20
-506.5888910375679
 30
0.0
 10
508.4310344529297
 20
-506.5888910375679
 30
0.0
 10
508.0168076960318
 20
-506.5888910375294
 30
0.0
 10
507.6810157933774
 20
-506.2530840073617
 30
0.0
 10
507.6810344539456
 20
-505.8388572508828
 30
0.0
 10
507.6810344539456
 20
-505.8388572508828
 30
0.0
 10
507.6812112435762
 20
-501.9144860045818
 30
0.0
 10
507.6812112435762
 20
-501.9144860045818
 30
0.0
 10
507.6812251096863
 20
-501.6066864919779
 30
0.0
 10
507.8698415565419
 20
-501.3308829546386
 30
0.0
 10
508.1567914630397
 20
-501.2195263593682
 30
0.0
 10
510.2132144874842
 20
-500.4214906700294
 30
0.0
 10
511.6810000897141
 20
-498.418132223395
 30
0.0
 10
511.6810000903808
 20
-496.0885991984795
 30
0.0
 10
511.6810000903808
 20
-496.0885991984795
 30
0.0
 10
511.6810000910052
 20
-493.4889262663278
 30
0.0
 10
511.6810000910052
 20
-493.4889262663278
 30
0.0
 10
511.6810000911676
 20
-492.9366415165553
 30
0.0
 10
511.2332848411165
 20
-492.4889262663386
 30
0.0
 10
510.6810000913479
 20
-492.4889262662886
 30
0.0
 10
510.6810000913479
 20
-492.4889262662886
 30
0.0
 10
501.6810000941626
 20
-492.4889262654814
 30
0.0
 10
501.6810000941626
 20
-492.4889262654814
 30
0.0
 10
501.1287153443266
 20
-492.4889262654313
 30
0.0
 10
500.6810000941736
 20
-492.9366415156722
 30
0.0
 10
500.681000094325
 20
-493.488926265509
 30
0.0
 10
500.681000094325
 20
-493.488926265509
 30
0.0
 10
500.6810000948294
 20
-496.0885991989556
 30
0.0
 10
500.6810000948294
 20
-496.0885991989556
 30
0.0
 10
500.6810000954787
 20
-498.41783435944
 30
0.0
 10
502.1484103669253
 20
-500.4209783487524
 30
0.0
 10
504.2044199215975
 20
-501.2192201794812
 30
0.0
 10
504.4912573651536
 20
-501.3305842757964
 30
0.0
 10
504.6798017560156
 20
-501.6062885174515
 30
0.0
 10
504.6798758009741
 20
-501.9139858939276
 30
0.0
 10
504.6798758009741
 20
-501.9139858939276
 30
0.0
 10
504.6808202551675
 20
-505.838710555741
 30
0.0
 10
504.6808202551675
 20
-505.838710555741
 30
0.0
 10
504.6809199493698
 20
-506.2529945902531
 30
0.0
 10
504.3451043235074
 20
-506.5888910372008
 30
0.0
 10
503.930820277004
 20
-506.5888910371623
 30
0.0
 10
503.930820277004
 20
-506.5888910371623
 30
0.0
 10
496.1810009459836
 20
-506.5888914492422
 30
0.0
 10
496.1810009459836
 20
-506.5888914492422
 30
0.0
  0
SPLINE
  5
7D
330
60
100
AcDbEntity
  8
Layer 1
 62
   177
420
  3027090
370
     9
100
AcDbSpline
210
0.0
220
0.0
230
1.0
 70
     8
 71
     3
 72
    50
 73
    46
 74
     0
 42
0.0000000001
 43
0.0000000001
 12
1.0
 22
0.0
 32
0.0
 13
1.0
 23
0.0
 33
0.0
 40
0.0
 40
0.0
 40
0.0
 40
0.0
 40
1.0
 40
1.0
 40
1.0
 40
2.0
 40
2.0
 40
2.0
 40
3.0
 40
3.0
 40
3.0
 40
4.0
 40
4.0
 40
4.0
 40
5.0
 40
5.0
 40
5.0
 40
6.0
 40
6.0
 40
6.0
 40
7.0
 40
7.0
 40
7.0
 40
8.0
 40
8.0
 40
8.0
 40
9.0
 40
9.0
 40
9.0
 40
10.0
 40
10.0
 40
10.0
 40
11.0
 40
11.0
 40
11.0
 40
12.0
 40
12.0
 40
12.0
 40
13.0
 40
13.0
 40
13.0
 40
14.0
 40
14.0
 40
14.0
 40
15.0
 40
15.0
 40
15.0
 40
15.0
 10
482.3379217686663
 20
-209.9258953572404
 30
0.0
 10
485.9833860828251
 20
-209.1799246620599
 30
0.0
 10
488.7256412424093
 20
-205.9544199514967
 30
0.0
 10
488.7256412424093
 20
-202.0884272305632
 30
0.0
 10
488.7256412424093
 20
-198.2178495880353
 30
0.0
 10
485.9768778033861
 20
-194.9892800459874
 30
0.0
 10
482.3249478109689
 20
-194.2483154900456
 30
0.0
 10
482.3249478109689
 20
-194.2483154900456
 30
0.0
 10
482.3257486318945
 20
-194.2485734920231
 30
0.0
 10
482.3257486318945
 20
-194.2485734920231
 30
0.0
 10
482.4062956752256
 20
-194.0491451847342
 30
0.0
 10
482.4506413940609
 20
-193.8312149855299
 30
0.0
 10
482.4506413940821
 20
-193.6029272887302
 30
0.0
 10
482.4506413941668
 20
-192.6502360955632
 30
0.0
 10
481.6783325878358
 20
-191.877927289091
 30
0.0
 10
480.7256413946681
 20
-191.8779272890066
 30
0.0
 10
479.7729502015005
 20
-191.8779272889203
 30
0.0
 10
479.0006413950277
 20
-192.6502360952529
 30
0.0
 10
479.000641394943
 20
-193.6029272884202
 30
0.0
 10
479.0006413949257
 20
-193.8312731328757
 30
0.0
 10
479.0450097073854
 20
-194.0492562027097
 30
0.0
 10
479.125595713001
 20
-194.2487258785878
 30
0.0
 10
479.125595713001
 20
-194.2487258785878
 30
0.0
 10
479.1133607201488
 20
-194.2509591038856
 30
0.0
 10
479.1133607201488
 20
-194.2509591038856
 30
0.0
 10
475.4678964059939
 20
-194.9969297990661
 30
0.0
 10
472.7256412464097
 20
-198.2224345096296
 30
0.0
 10
472.7256412464097
 20
-202.0884272305632
 30
0.0
 10
472.7256412464097
 20
-205.9587352028038
 30
0.0
 10
475.4740216759294
 20
-209.1871245312241
 30
0.0
 10
479.1255713808944
 20
-209.9283840617504
 30
0.0
 10
479.1255713808944
 20
-209.9283840617504
 30
0.0
 10
479.1256573058133
 20
-209.9279762493203
 30
0.0
 10
479.1256573058133
 20
-209.9279762493203
 30
0.0
 10
479.0450323295109
 20
-210.1274872878992
 30
0.0
 10
479.0006414175879
 20
-210.3455232270036
 30
0.0
 10
479.0006414175667
 20
-210.5739272191157
 30
0.0
 10
479.000641417482
 20
-211.526618412282
 30
0.0
 10
479.7729502238137
 20
-212.2989272187539
 30
0.0
 10
480.7256414169813
 20
-212.2989272188389
 30
0.0
 10
481.678332610145
 20
-212.2989272189246
 30
0.0
 10
482.4506414166179
 20
-211.5266184125917
 30
0.0
 10
482.4506414167058
 20
-210.5739272194253
 30
0.0
 10
482.450641416727
 20
-210.3357535125766
 30
0.0
 10
482.4023717480773
 20
-210.108853790909
 30
0.0
 10
482.3150813669166
 20
-209.9024770105765
 30
0.0
  0
SPLINE
  5
7E
330
60
100
AcDbEntity
  8
Layer 1
 62
   177
420
  3027090
370
     9
100
AcDbSpline
210
0.0
220
0.0
230
1.0
 70
     8
 71
     3
 72
    50
 73
    46
 74
     0
 42
0.0000000001
 43
0.0000000001
 12
1.0
 22
0.0
 32
0.0
 13
1.0
 23
0.0
 33
0.0
 40
0.0
 40
0.0
 40
0.0
 40
0.0
 40
1.0
 40
1.0
 40
1.0
 40
2.0
 40
2.0
 40
2.0
 40
3.0
 40
3.0
 40
3.0
 40
4.0
 40
4.0
 40
4.0
 40
5.0
 40
5.0
 40
5.0
 40
6.0
 40
6.0
 40
6.0
 40
7.0
 40
7.0
 40
7.0
 40
8.0
 40
8.0
 40
8.0
 40
9.0
 40
9.0
 40
9.0
 40
10.0
 40
10.0
 40
10.0
 40
11.0
 40
11.0
 40
11.0
 40
12.0
 40
12.0
 40
12.0
 40
13.0
 40
13.0
 40
13.0
 40
14.0
 40
14.0
 40
14.0
 40
15.0
 40
15.0
 40
15.0
 40
15.0
 10
482.3379190771867
 20
-429.945337950594
 30
0.0
 10
485.9833833913423
 20
-429.1993672554135
 30
0.0
 10
488.7256385509265
 20
-425.9738625448494
 30
0.0
 10
488.7256385509265
 20
-422.1078698239168
 30
0.0
 10
488.7256385509265
 20
-418.2372921813882
 30
0.0
 10
485.9768751119072
 20
-415.0087226393401
 30
0.0
 10
482.3249451194861
 20
-414.2677580833989
 30
0.0
 10
482.3249451194861
 20
-414.2677580833989
 30
0.0
 10
482.3257459404149
 20
-414.2680160853767
 30
0.0
 10
482.3257459404149
 20
-414.2680160853767
 30
0.0
 10
482.4062929837429
 20
-414.0685877780868
 30
0.0
 10
482.450638702582
 20
-413.8506575788832
 30
0.0
 10
482.4506387025993
 20
-413.6223698820834
 30
0.0
 10
482.450638702684
 20
-412.6696786889165
 30
0.0
 10
481.678329896353
 20
-411.8973698824443
 30
0.0
 10
480.7256387031854
 20
-411.8973698823596
 30
0.0
 10
479.772947510021
 20
-411.8973698822736
 30
0.0
 10
479.0006387035488
 20
-412.6696786886059
 30
0.0
 10
479.0006387034641
 20
-413.6223698817729
 30
0.0
 10
479.0006387034429
 20
-413.8507157262286
 30
0.0
 10
479.0450070159064
 20
-414.0686987960634
 30
0.0
 10
479.1255930215182
 20
-414.2681684719411
 30
0.0
 10
479.1255930215182
 20
-414.2681684719411
 30
0.0
 10
479.1133580286661
 20
-414.2704016972382
 30
0.0
 10
479.1133580286661
 20
-414.2704016972382
 30
0.0
 10
475.4678937145111
 20
-415.0163723924187
 30
0.0
 10
472.7256385549269
 20
-418.2418771029829
 30
0.0
 10
472.7256385549269
 20
-422.1078698239168
 30
0.0
 10
472.7256385549269
 20
-425.9781777961561
 30
0.0
 10
475.4740189844459
 20
-429.2065671245767
 30
0.0
 10
479.1255686894116
 20
-429.9478266551037
 30
0.0
 10
479.1255686894116
 20
-429.9478266551037
 30
0.0
 10
479.1256546143305
 20
-429.9474188426739
 30
0.0
 10
479.1256546143305
 20
-429.9474188426739
 30
0.0
 10
479.0450296380282
 20
-430.1469298812524
 30
0.0
 10
479.0006387261051
 20
-430.3649658203566
 30
0.0
 10
479.0006387260839
 20
-430.5933698124683
 30
0.0
 10
479.0006387259992
 20
-431.5460610056354
 30
0.0
 10
479.7729475323309
 20
-432.3183698121075
 30
0.0
 10
480.7256387254985
 20
-432.3183698121923
 30
0.0
 10
481.6783299186662
 20
-432.3183698122782
 30
0.0
 10
482.4506387251383
 20
-431.5460610059446
 30
0.0
 10
482.450638725223
 20
-430.5933698127789
 30
0.0
 10
482.4506387252442
 20
-430.3551961059296
 30
0.0
 10
482.4023690565984
 20
-430.128296384262
 30
0.0
 10
482.3150786754376
 20
-429.9219196039302
 30
0.0
  0
POLYLINE
  5
7F
330
60
100
AcDbEntity
  8
Layer 1
 62
   177
420
  3027090
370
     9
100
AcDb2dPolyline
 66
     1
 10
0.0
 20
0.0
 30
0.0
  0
VERTEX
  5
80
330
7F
100
AcDbEntity
  8
Layer 1
 62
   177
420
  3027090
370
     9
100
AcDbVertex
100
AcDb2dVertex
 10
568.1809903675044
 20
-485.0888902024757
 30
0.0
  0
VERTEX
  5
81
330
7F
100
AcDbEntity
  8
Layer 1
 62
   177
420
  3027090
370
     9
100
AcDbVertex
100
AcDb2dVertex
 10
568.1809903666964
 20
-503.0888901979742
 30
0.0
  0
VERTEX
  5
82
330
7F
100
AcDbEntity
  8
Layer 1
 62
   177
420
  3027090
370
     9
100
AcDbVertex
100
AcDb2dVertex
 10
567.1809903669434
 20
-503.0888901979318
 30
0.0
  0
VERTEX
  5
83
330
7F
100
AcDbEntity
  8
Layer 1
 62
   177
420
  3027090
370
     9
100
AcDbVertex
100
AcDb2dVertex
 10
567.1809903677514
 20
-485.0888902024333
 30
0.0
  0
VERTEX
  5
84
330
7F
100
AcDbEntity
  8
Layer 1
 62
   177
420
  3027090
370
     9
100
AcDbVertex
100
AcDb2dVertex
 10
568.1809903675044
 20
-485.0888902024757
 30
0.0
  0
SEQEND
  5
85
330
7F
100
AcDbEntity
  8
Layer 1
 62
   177
420
  3027090
370
     9
  0
SPLINE
  5
86
330
60
100
AcDbEntity
  8
Layer 1
 62
   177
420
  3027090
370
     9
100
AcDbSpline
210
0.0
220
0.0
230
1.0
 70
    11
 71
     3
 72
    17
 73
    13
 74
     0
 42
0.0000000001
 43
0.0000000001
 12
1.0
 22
0.0
 32
0.0
 13
1.0
 23
0.0
 33
0.0
 40
0.0
 40
0.0
 40
0.0
 40
0.0
 40
1.0
 40
1.0
 40
1.0
 40
2.0
 40
2.0
 40
2.0
 40
3.0
 40
3.0
 40
3.0
 40
4.0
 40
4.0
 40
4.0
 40
4.0
 10
488.7256346028982
 20
-312.0884253732995
 30
0.0
 10
488.7256346028982
 20
-316.5067033705957
 30
0.0
 10
485.1439126021943
 20
-320.0884253713002
 30
0.0
 10
480.7256346048987
 20
-320.0884253713002
 30
0.0
 10
476.3073566076031
 20
-320.0884253713002
 30
0.0
 10
472.7256346068993
 20
-316.5067033705957
 30
0.0
 10
472.7256346068993
 20
-312.0884253732995
 30
0.0
 10
472.7256346068993
 20
-307.6701473760045
 30
0.0
 10
476.3073566076031
 20
-304.0884253752999
 30
0.0
 10
480.7256346048987
 20
-304.0884253752999
 30
0.0
 10
485.1439126021943
 20
-304.0884253752999
 30
0.0
 10
488.7256346028982
 20
-307.6701473760045
 30
0.0
 10
488.7256346028982
 20
-312.0884253732995
 30
0.0
  0
SPLINE
  5
87
330
60
100
AcDbEntity
  8
Layer 1
 62
   177
420
  3027090
370
     9
100
AcDbSpline
210
0.0
220
0.0
230
1.0
 70
    11
 71
     3
 72
    17
 73
    13
 74
     0
 42
0.0000000001
 43
0.0000000001
 12
1.0
 22
0.0
 32
0.0
 13
1.0
 23
0.0
 33
0.0
 40
0.0
 40
0.0
 40
0.0
 40
0.0
 40
1.0
 40
1.0
 40
1.0
 40
2.0
 40
2.0
 40
2.0
 40
3.0
 40
3.0
 40
3.0
 40
4.0
 40
4.0
 40
4.0
 40
4.0
 10
482.2256345425452
 20
-300.5884257417501
 30
0.0
 10
482.2256345425452
 20
-301.4168528662428
 30
0.0
 10
481.5540616674103
 20
-302.0884257413751
 30
0.0
 10
480.725634542919
 20
-302.0884257413751
 30
0.0
 10
479.8972074184276
 20
-302.0884257413751
 30
0.0
 10
479.2256345432933
 20
-301.4168528662428
 30
0.0
 10
479.2256345432933
 20
-300.5884257417501
 30
0.0
 10
479.2256345432933
 20
-299.7599986172575
 30
0.0
 10
479.8972074184276
 20
-299.0884257421251
 30
0.0
 10
480.725634542919
 20
-299.0884257421251
 30
0.0
 10
481.5540616674103
 20
-299.0884257421251
 30
0.0
 10
482.2256345425452
 20
-299.7599986172575
 30
0.0
 10
482.2256345425452
 20
-300.5884257417501
 30
0.0
  0
SPLINE
  5
88
330
60
100
AcDbEntity
  8
Layer 1
 62
   177
420
  3027090
370
     9
100
AcDbSpline
210
0.0
220
0.0
230
1.0
 70
    11
 71
     3
 72
    17
 73
    13
 74
     0
 42
0.0000000001
 43
0.0000000001
 12
1.0
 22
0.0
 32
0.0
 13
1.0
 23
0.0
 33
0.0
 40
0.0
 40
0.0
 40
0.0
 40
0.0
 40
1.0
 40
1.0
 40
1.0
 40
2.0
 40
2.0
 40
2.0
 40
3.0
 40
3.0
 40
3.0
 40
4.0
 40
4.0
 40
4.0
 40
4.0
 10
482.2256345425452
 20
-323.5884255346689
 30
0.0
 10
482.2256345425452
 20
-324.4168526591615
 30
0.0
 10
481.5540616674103
 20
-325.0884255342938
 30
0.0
 10
480.725634542919
 20
-325.0884255342938
 30
0.0
 10
479.8972074184276
 20
-325.0884255342938
 30
0.0
 10
479.2256345432933
 20
-324.4168526591615
 30
0.0
 10
479.2256345432933
 20
-323.5884255346689
 30
0.0
 10
479.2256345432933
 20
-322.7599984101763
 30
0.0
 10
479.8972074184276
 20
-322.0884255350439
 30
0.0
 10
480.725634542919
 20
-322.0884255350439
 30
0.0
 10
481.5540616674103
 20
-322.0884255350439
 30
0.0
 10
482.2256345425452
 20
-322.7599984101763
 30
0.0
 10
482.2256345425452
 20
-323.5884255346689
 30
0.0
  0
POLYLINE
  5
89
330
60
100
AcDbEntity
  8
Layer 1
 62
     7
420
 16777215
370
     9
100
AcDb2dPolyline
 66
     1
 10
0.0
 20
0.0
 30
0.0
  0
VERTEX
  5
8A
330
89
100
AcDbEntity
  8
Layer 1
 62
     7
420
 16777215
370
     9
100
AcDbVertex
100
AcDb2dVertex
 10
544.5809020013381
 20
-99.01351720320791
 30
0.0
  0
VERTEX
  5
8B
330
89
100
AcDbEntity
  8
Layer 1
 62
     7
420
 16777215
370
     9
100
AcDbVertex
100
AcDb2dVertex
 10
547.3308042786239
 20
-100.6012868629486
 30
0.0
  0
VERTEX
  5
8C
330
89
100
AcDbEntity
  8
Layer 1
 62
     7
420
 16777215
370
     9
100
AcDbVertex
100
AcDb2dVertex
 10
547.3309019988759
 20
-103.776656922868
 30
0.0
  0
VERTEX
  5
8D
330
89
100
AcDbEntity
  8
Layer 1
 62
     7
420
 16777215
370
     9
100
AcDbVertex
100
AcDb2dVertex
 10
544.5810974418397
 20
-105.3642573230484
 30
0.0
  0
VERTEX
  5
8E
330
89
100
AcDbEntity
  8
Layer 1
 62
     7
420
 16777215
370
     9
100
AcDbVertex
100
AcDb2dVertex
 10
541.831195164554
 20
-103.776487663308
 30
0.0
  0
VERTEX
  5
8F
330
89
100
AcDbEntity
  8
Layer 1
 62
     7
420
 16777215
370
     9
100
AcDbVertex
100
AcDb2dVertex
 10
541.831097444309
 20
-100.6011176033841
 30
0.0
  0
VERTEX
  5
90
330
89
100
AcDbEntity
  8
Layer 1
 62
     7
420
 16777215
370
     9
100
AcDbVertex
100
AcDb2dVertex
 10
544.5809020013381
 20
-99.01351720320791
 30
0.0
  0
SEQEND
  5
91
330
89
100
AcDbEntity
  8
Layer 1
 62
     7
420
 16777215
370
     9
  0
POLYLINE
  5
92
330
60
100
AcDbEntity
  8
Layer 1
 62
     7
420
 16777215
370
     9
100
AcDb2dPolyline
 66
     1
 10
0.0
 20
0.0
 30
0.0
  0
VERTEX
  5
93
330
92
100
AcDbEntity
  8
Layer 1
 62
     7
420
 16777215
370
     9
100
AcDbVertex
100
AcDb2dVertex
 10
544.580902001342
 20
-117.0135176152778
 30
0.0
  0
VERTEX
  5
94
330
92
100
AcDbEntity
  8
Layer 1
 62
     7
420
 16777215
370
     9
100
AcDbVertex
100
AcDb2dVertex
 10
547.3308042786239
 20
-118.6012872750188
 30
0.0
  0
VERTEX
  5
95
330
92
100
AcDbEntity
  8
Layer 1
 62
     7
420
 16777215
370
     9
100
AcDbVertex
100
AcDb2dVertex
 10
547.3309019988759
 20
-121.7766573349382
 30
0.0
  0
VERTEX
  5
96
330
92
100
AcDbEntity
  8
Layer 1
 62
     7
420
 16777215
370
     9
100
AcDbVertex
100
AcDb2dVertex
 10
544.5810974418397
 20
-123.3642577351186
 30
0.0
  0
VERTEX
  5
97
330
92
100
AcDbEntity
  8
Layer 1
 62
     7
420
 16777215
370
     9
100
AcDbVertex
100
AcDb2dVertex
 10
541.831195164554
 20
-121.776488075378
 30
0.0
  0
VERTEX
  5
98
330
92
100
AcDbEntity
  8
Layer 1
 62
     7
420
 16777215
370
     9
100
AcDbVertex
100
AcDb2dVertex
 10
541.831097444309
 20
-118.6011180154544
 30
0.0
  0
VERTEX
  5
99
330
92
100
AcDbEntity
  8
Layer 1
 62
     7
420
 16777215
370
     9
100
AcDbVertex
100
AcDb2dVertex
 10
544.580902001342
 20
-117.0135176152778
 30
0.0
  0
SEQEND
  5
9A
330
92
100
AcDbEntity
  8
Layer 1
 62
     7
420
 16777215
370
     9
  0
SPLINE
  5
9B
330
60
100
AcDbEntity
  8
Layer 1
 62
   240
420
 15539236
370
     9
100
AcDbSpline
210
0.0
220
0.0
230
1.0
 70
     8
 71
     3
 72
    74
 73
    70
 74
     0
 42
0.0000000001
 43
0.0000000001
 12
1.0
 22
0.0
 32
0.0
 13
1.0
 23
0.0
 33
0.0
 40
0.0
 40
0.0
 40
0.0
 40
0.0
 40
1.0
 40
1.0
 40
1.0
 40
2.0
 40
2.0
 40
2.0
 40
3.0
 40
3.0
 40
3.0
 40
4.0
 40
4.0
 40
4.0
 40
5.0
 40
5.0
 40
5.0
 40
6.0
 40
6.0
 40
6.0
 40
7.0
 40
7.0
 40
7.0
 40
8.0
 40
8.0
 40
8.0
 40
9.0
 40
9.0
 40
9.0
 40
10.0
 40
10.0
 40
10.0
 40
11.0
 40
11.0
 40
11.0
 40
12.0
 40
12.0
 40
12.0
 40
13.0
 40
13.0
 40
13.0
 40
14.0
 40
14.0
 40
14.0
 40
15.0
 40
15.0
 40
15.0
 40
16.0
 40
16.0
 40
16.0
 40
17.0
 40
17.0
 40
17.0
 40
18.0
 40
18.0
 40
18.0
 40
19.0
 40
19.0
 40
19.0
 40
20.0
 40
20.0
 40
20.0
 40
21.0
 40
21.0
 40
21.0
 40
22.0
 40
22.0
 40
22.0
 40
23.0
 40
23.0
 40
23.0
 40
23.0
 10
521.1850647579522
 20
-93.58888941716151
 30
0.0
 10
521.1850647579522
 20
-93.58888941716151
 30
0.0
 10
513.4352459112215
 20
-93.58888592231422
 30
0.0
 10
513.4352459112215
 20
-93.58888592231422
 30
0.0
 10
513.4352459112215
 20
-93.58888592231422
 30
0.0
 10
513.4135073385937
 20
-93.58888592768876
 30
0.0
 10
513.4135073385937
 20
-93.58888592768876
 30
0.0
 10
513.4135073385937
 20
-93.58888592768876
 30
0.0
 10
513.4135073385937
 20
-88.58889317394633
 30
0.0
 10
513.4135073385937
 20
-88.58889317394633
 30
0.0
 10
513.4135073385937
 20
-88.58889317394633
 30
0.0
 10
449.1888274084602
 20
-88.58889854656127
 30
0.0
 10
449.1888274084602
 20
-88.58889854656127
 30
0.0
 10
449.1888274084602
 20
-88.58889854656127
 30
0.0
 10
449.1888274084602
 20
-93.5888985453111
 30
0.0
 10
449.1888274084602
 20
-93.5888985453111
 30
0.0
 10
449.1888274084602
 20
-93.5888985453111
 30
0.0
 10
441.0896402680192
 20
-93.58889856600526
 30
0.0
 10
441.0896402680192
 20
-93.58889856600526
 30
0.0
 10
440.6753562215164
 20
-93.58889856600526
 30
0.0
 10
440.3395405956854
 20
-93.9247950129841
 30
0.0
 10
440.3396402899231
 20
-94.33907904749454
 30
0.0
 10
440.3396402899231
 20
-94.33907904749454
 30
0.0
 10
440.3405847444694
 20
-98.263803709308
 30
0.0
 10
440.3405847444694
 20
-98.263803709308
 30
0.0
 10
440.3406587894555
 20
-98.57150108578504
 30
0.0
 10
440.5292031803424
 20
-98.84720532742386
 30
0.0
 10
440.8160406239095
 20
-98.95856942371044
 30
0.0
 10
442.8720501786516
 20
-99.75681125425568
 30
0.0
 10
444.3394604502785
 20
-101.759955243435
 30
0.0
 10
444.3394604511358
 20
-104.0891904039226
 30
0.0
 10
444.3394604511358
 20
-104.0891904039226
 30
0.0
 10
444.3394604518763
 20
-106.6888633373666
 30
0.0
 10
444.3394604518763
 20
-106.6888633373666
 30
0.0
 10
444.3394604520778
 20
-107.241148087203
 30
0.0
 10
443.8917452019633
 20
-107.688863337485
 30
0.0
 10
443.3394604521272
 20
-107.688863337485
 30
0.0
 10
443.3394604521272
 20
-107.688863337485
 30
0.0
 10
434.339460454942
 20
-107.688863337485
 30
0.0
 10
434.339460454942
 20
-107.688863337485
 30
0.0
 10
433.7871757051733
 20
-107.688863337485
 30
0.0
 10
433.3394604550832
 20
-107.2411480873076
 30
0.0
 10
433.3394604551929
 20
-106.688863337538
 30
0.0
 10
433.3394604551929
 20
-106.688863337538
 30
0.0
 10
433.3394604555843
 20
-104.0891904053837
 30
0.0
 10
433.3394604555843
 20
-104.0891904053837
 30
0.0
 10
433.3394604560431
 20
-101.7596573804707
 30
0.0
 10
434.8072460580934
 20
-99.75629893370292
 30
0.0
 10
436.8636690824673
 20
-98.95826324417868
 30
0.0
 10
437.1506189889541
 20
-98.84690664888188
 30
0.0
 10
437.3392354357848
 20
-98.57110311152526
 30
0.0
 10
437.3392493018673
 20
-98.2633035989237
 30
0.0
 10
437.3392493018673
 20
-98.2633035989237
 30
0.0
 10
437.3394260911449
 20
-94.33893235262101
 30
0.0
 10
437.3394260911449
 20
-94.33893235262101
 30
0.0
 10
437.3394447516779
 20
-93.92470559614279
 30
0.0
 10
437.003652848992
 20
-93.58889856600526
 30
0.0
 10
436.5894260920934
 20
-93.58889856600526
 30
0.0
 10
436.5894260920934
 20
-93.58889856600526
 30
0.0
 10
427.5894597917344
 20
-93.58888779955663
 30
0.0
 10
427.5894597917344
 20
-93.58888779955663
 30
0.0
 10
427.5894597917344
 20
-93.58888779955663
 30
0.0
 10
427.5894597917344
 20
-88.58913467987217
 30
0.0
 10
427.5894597917344
 20
-88.58913467987217
 30
0.0
 10
427.5894597917344
 20
-88.58913467987217
 30
0.0
 10
414.1657879416721
 20
-88.58913467987217
 30
0.0
 10
414.1657879416721
 20
-88.58913467987217
 30
0.0
 10
414.1657879416721
 20
-88.58913467987217
 30
0.0
 10
414.1657887336262
 20
-124.5888860245235
 30
0.0
 10
414.1657887336262
 20
-124.5888860245235
 30
0.0
  0
ENDBLK
  5
63
330
60
100
AcDbEntity
  8
0
100
AcDbBlockEnd
  0
ENDSEC
  0
SECTION
  2
ENTITIES
  0
INSERT
  5
42
330
1F
100
AcDbEntity
  8
Layer 1
100
AcDbBlockReference
  2
block 2
 10
0.0
 20
0.0
 30
0.0
  0
ENDSEC
  0
SECTION
  2
OBJECTS
  0
DICTIONARY
  5
C
330
0
100
AcDbDictionary
281
     1
  3
ACAD_GROUP
350
D
  3
ACAD_LAYOUT
350
1A
  3
ACAD_MATERIAL
350
3B
  3
ACAD_MLEADERSTYLE
350
9E
  3
ACAD_MLINESTYLE
350
17
  3
ACAD_PLOTSETTINGS
350
19
  3
ACAD_PLOTSTYLENAME
350
E
  3
ACAD_TABLESTYLE
350
9D
  3
ACAD_VISUALSTYLE
350
2A
  0
SUN
  5
3F
330
29
100
AcDbSun
 90
        1
290
     0
 63
     7
421
 16777215
 40
1.0
291
     1
 91
  2455826
 92
 54000000
292
     0
 70
     2
 71
   256
280
     1
  0
DICTIONARY
  5
D
102
{ACAD_REACTORS
330
C
102
}
330
C
100
AcDbDictionary
281
     1
  0
DICTIONARY
  5
1A
102
{ACAD_REACTORS
330
C
102
}
330
C
100
AcDbDictionary
281
     1
  3
Layout1
350
1E
  3
Layout2
350
26
  3
Model
350
22
  0
DICTIONARY
  5
3B
102
{ACAD_REACTORS
330
C
102
}
330
C
100
AcDbDictionary
281
     1
  3
ByBlock
350
3D
  3
ByLayer
350
3C
  3
Global
350
3E
  0
DICTIONARY
  5
9E
102
{ACAD_REACTORS
330
C
102
}
330
C
100
AcDbDictionary
281
     1
  0
DICTIONARY
  5
17
102
{ACAD_REACTORS
330
C
102
}
330
C
100
AcDbDictionary
281
     1
  3
Standard
350
18
  0
DICTIONARY
  5
19
102
{ACAD_REACTORS
330
C
102
}
330
C
100
AcDbDictionary
281
     1
  0
ACDBDICTIONARYWDFLT
  5
E
102
{ACAD_REACTORS
330
C
102
}
330
C
100
AcDbDictionary
281
     1
  3
Normal
350
F
100
AcDbDictionaryWithDefault
340
F
  0
DICTIONARY
  5
9D
102
{ACAD_REACTORS
330
C
102
}
330
C
100
AcDbDictionary
281
     1
  0
DICTIONARY
  5
2A
102
{ACAD_REACTORS
330
C
102
}
330
C
100
AcDbDictionary
281
     1
  3
2dWireframe
350
2F
  3
3D Hidden
350
31
  3
3dWireframe
350
30
  3
Basic
350
32
  3
Brighten
350
36
  3
ColorChange
350
3A
  3
Conceptual
350
34
  3
Dim
350
35
  3
Facepattern
350
39
  3
Flat
350
2B
  3
FlatWithEdges
350
2C
  3
Gouraud
350
2D
  3
GouraudWithEdges
350
2E
  3
Linepattern
350
38
  3
Realistic
350
33
  3
Thicken
350
37
  0
LAYOUT
  5
1E
102
{ACAD_REACTORS
330
1A
102
}
330
1A
100
AcDbPlotSettings
  1

  2
none_device
  4

  6

 40
0.0
 41
0.0
 42
0.0
 43
0.0
 44
0.0
 45
0.0
 46
0.0
 47
0.0
 48
0.0
 49
0.0
140
0.0
141
0.0
142
1.0
143
1.0
 70
   688
 72
     0
 73
     0
 74
     5
  7

 75
    16
 76
     0
 77
     2
 78
   300
147
1.0
148
0.0
149
0.0
100
AcDbLayout
  1
Layout1
 70
     1
 71
     1
 10
0.0
 20
0.0
 11
12.0
 21
9.0
 12
0.0
 22
0.0
 32
0.0
 14
1.000000000000000E+20
 24
1.000000000000000E+20
 34
1.000000000000000E+20
 15
-1.000000000000000E+20
 25
-1.000000000000000E+20
 35
-1.000000000000000E+20
146
0.0
 13
0.0
 23
0.0
 33
0.0
 16
1.0
 26
0.0
 36
0.0
 17
0.0
 27
1.0
 37
0.0
 76
     0
330
1B
  0
LAYOUT
  5
26
102
{ACAD_REACTORS
330
1A
102
}
330
1A
100
AcDbPlotSettings
  1

  2
none_device
  4

  6

 40
0.0
 41
0.0
 42
0.0
 43
0.0
 44
0.0
 45
0.0
 46
0.0
 47
0.0
 48
0.0
 49
0.0
140
0.0
141
0.0
142
1.0
143
1.0
 70
   688
 72
     0
 73
     0
 74
     5
  7

 75
    16
 76
     0
 77
     2
 78
   300
147
1.0
148
0.0
149
0.0
100
AcDbLayout
  1
Layout2
 70
     1
 71
     2
 10
0.0
 20
0.0
 11
0.0
 21
0.0
 12
0.0
 22
0.0
 32
0.0
 14
0.0
 24
0.0
 34
0.0
 15
0.0
 25
0.0
 35
0.0
146
0.0
 13
0.0
 23
0.0
 33
0.0
 16
1.0
 26
0.0
 36
0.0
 17
0.0
 27
1.0
 37
0.0
 76
     0
330
23
  0
LAYOUT
  5
22
102
{ACAD_REACTORS
330
1A
102
}
330
1A
100
AcDbPlotSettings
  1

  2
none_device
  4

  6

 40
0.0
 41
0.0
 42
0.0
 43
0.0
 44
0.0
 45
0.0
 46
0.0
 47
0.0
 48
0.0
 49
0.0
140
0.0
141
0.0
142
1.0
143
1.0
 70
  1712
 72
     0
 73
     0
 74
     0
  7

 75
     0
 76
     0
 77
     2
 78
   300
147
1.0
148
0.0
149
0.0
100
AcDbLayout
  1
Model
 70
     1
 71
     0
 10
0.0
 20
0.0
 11
12.0
 21
9.0
 12
0.0
 22
0.0
 32
0.0
 14
1.000000000000000E+20
 24
1.000000000000000E+20
 34
1.000000000000000E+20
 15
-1.000000000000000E+20
 25
-1.000000000000000E+20
 35
-1.000000000000000E+20
146
0.0
 13
0.0
 23
0.0
 33
0.0
 16
1.0
 26
0.0
 36
0.0
 17
0.0
 27
1.0
 37
0.0
 76
     0
330
1F
331
29
  0
MATERIAL
  5
3D
102
{ACAD_REACTORS
330
3B
102
}
330
3B
100
AcDbMaterial
  1
ByBlock
 72
     1
 94
      127
  0
MATERIAL
  5
3C
102
{ACAD_REACTORS
330
3B
102
}
330
3B
100
AcDbMaterial
  1
ByLayer
 72
     1
 94
      127
  0
MATERIAL
  5
3E
102
{ACAD_REACTORS
330
3B
102
}
330
3B
100
AcDbMaterial
  1
Global
 72
     1
 94
      127
  0
MLINESTYLE
  5
18
102
{ACAD_REACTORS
330
17
102
}
330
17
100
AcDbMlineStyle
  2
Standard
 70
     0
  3

 62
   256
 51
90.0
 52
90.0
 71
     2
 49
0.5
 62
   256
  6
BYLAYER
 49
-0.5
 62
   256
  6
BYLAYER
  0
ACDBPLACEHOLDER
  5
F
102
{ACAD_REACTORS
330
E
102
}
330
E
  0
VISUALSTYLE
  5
2F
102
{ACAD_REACTORS
330
2A
102
}
330
2A
100
AcDbVisualStyle
  2
2dWireframe
 70
     4
177
     2
291
     0
 71
     0
176
     1
 72
     2
176
     1
 73
     0
176
     1
 90
        0
176
     1
 40
-0.6
176
     1
 41
-30.0
176
     1
 62
     5
 63
     7
421
 16777215
176
     1
 74
     1
176
     1
 91
        4
176
     1
 64
     7
176
     1
 65
   257
176
     1
 75
     1
176
     1
175
     1
176
     1
 42
1.0
176
     1
 92
        0
176
     1
 66
   257
176
     1
 43
1.0
176
     1
 76
     1
176
     1
 77
     6
176
     1
 78
     2
176
     1
 67
     7
176
     1
 79
     5
176
     1
170
     0
176
     1
171
     0
176
     1
290
     0
176
     1
 93
        1
176
     1
 44
0.0
176
     1
173
     0
176
     1
  0
VISUALSTYLE
  5
31
102
{ACAD_REACTORS
330
2A
102
}
330
2A
100
AcDbVisualStyle
  2
3D Hidden
 70
     6
177
     2
291
     0
 71
     1
176
     1
 72
     2
176
     1
 73
     2
176
     1
 90
        0
176
     1
 40
-0.6
176
     1
 41
-30.0
176
     1
 62
     5
 63
     7
421
 16777215
176
     1
 74
     2
176
     1
 91
        2
176
     1
 64
     7
176
     1
 65
   257
176
     1
 75
     2
176
     1
175
     1
176
     1
 42
40.0
176
     1
 92
        0
176
     1
 66
   257
176
     1
 43
1.0
176
     1
 76
     1
176
     1
 77
     6
176
     1
 78
     2
176
     1
 67
     7
176
     1
 79
     3
176
     1
170
     0
176
     1
171
     0
176
     1
290
     0
176
     1
 93
        1
176
     1
 44
0.0
176
     1
173
     0
176
     1
  0
VISUALSTYLE
  5
30
102
{ACAD_REACTORS
330
2A
102
}
330
2A
100
AcDbVisualStyle
  2
3dWireframe
 70
     5
177
     2
291
     0
 71
     0
176
     1
 72
     2
176
     1
 73
     0
176
     1
 90
        0
176
     1
 40
-0.6
176
     1
 41
-30.0
176
     1
 62
     5
 63
     7
421
 16777215
176
     1
 74
     1
176
     1
 91
        4
176
     1
 64
     7
176
     1
 65
   257
176
     1
 75
     1
176
     1
175
     1
176
     1
 42
1.0
176
     1
 92
        0
176
     1
 66
   257
176
     1
 43
1.0
176
     1
 76
     1
176
     1
 77
     6
176
     1
 78
     2
176
     1
 67
     7
176
     1
 79
     5
176
     1
170
     0
176
     1
171
     0
176
     1
290
     0
176
     1
 93
        1
176
     1
 44
0.0
176
     1
173
     0
176
     1
  0
VISUALSTYLE
  5
32
102
{ACAD_REACTORS
330
2A
102
}
330
2A
100
AcDbVisualStyle
  2
Basic
 70
     7
177
     2
291
     1
 71
     1
176
     1
 72
     0
176
     1
 73
     1
176
     1
 90
        0
176
     1
 40
-0.6
176
     1
 41
-30.0
176
     1
 62
     5
 63
     7
421
 16777215
176
     1
 74
     0
176
     1
 91
        4
176
     1
 64
     7
176
     1
 65
   257
176
     1
 75
     1
176
     1
175
     1
176
     1
 42
1.0
176
     1
 92
        8
176
     1
 66
     7
176
     1
 43
1.0
176
     1
 76
     1
176
     1
 77
     6
176
     1
 78
     2
176
     1
 67
     7
176
     1
 79
     5
176
     1
170
     0
176
     1
171
     0
176
     1
290
     0
176
     1
 93
        1
176
     1
 44
0.0
176
     1
173
     0
176
     1
  0
VISUALSTYLE
  5
36
102
{ACAD_REACTORS
330
2A
102
}
330
2A
100
AcDbVisualStyle
  2
Brighten
 70
    12
177
     2
291
     1
 71
     2
176
     1
 72
     2
176
     1
 73
     0
176
     1
 90
        0
176
     1
 40
-0.6
176
     1
 41
-30.0
176
     1
 62
     5
 63
     7
421
 16777215
176
     1
 74
     1
176
     1
 91
        4
176
     1
 64
     7
176
     1
 65
   257
176
     1
 75
     1
176
     1
175
     1
176
     1
 42
1.0
176
     1
 92
        8
176
     1
 66
     7
176
     1
 43
1.0
176
     1
 76
     1
176
     1
 77
     6
176
     1
 78
     2
176
     1
 67
     7
176
     1
 79
     5
176
     1
170
     0
176
     1
171
     0
176
     1
290
     0
176
     1
 93
        1
176
     1
 44
50.0
176
     1
173
     0
176
     1
  0
VISUALSTYLE
  5
3A
102
{ACAD_REACTORS
330
2A
102
}
330
2A
100
AcDbVisualStyle
  2
ColorChange
 70
    16
177
     2
291
     1
 71
     2
176
     1
 72
     2
176
     1
 73
     3
176
     1
 90
        0
176
     1
 40
-0.6
176
     1
 41
-30.0
176
     1
 62
     5
 63
     8
421
  8421504
176
     1
 74
     1
176
     1
 91
        4
176
     1
 64
     7
176
     1
 65
   257
176
     1
 75
     1
176
     1
175
     1
176
     1
 42
1.0
176
     1
 92
        8
176
     1
 66
     8
424
  8421504
176
     1
 43
1.0
176
     1
 76
     1
176
     1
 77
     6
176
     1
 78
     2
176
     1
 67
     7
176
     1
 79
     5
176
     1
170
     0
176
     1
171
     0
176
     1
290
     0
176
     1
 93
        1
176
     1
 44
0.0
176
     1
173
     0
176
     1
  0
VISUALSTYLE
  5
34
102
{ACAD_REACTORS
330
2A
102
}
330
2A
100
AcDbVisualStyle
  2
Conceptual
 70
     9
177
     2
291
     0
 71
     3
176
     1
 72
     2
176
     1
 73
     0
176
     1
 90
        0
176
     1
 40
-0.6
176
     1
 41
-30.0
176
     1
 62
     5
 63
     7
421
 16777215
176
     1
 74
     2
176
     1
 91
        2
176
     1
 64
     7
176
     1
 65
   257
176
     1
 75
     1
176
     1
175
     1
176
     1
 42
40.0
176
     1
 92
        8
176
     1
 66
     7
176
     1
 43
1.0
176
     1
 76
     1
176
     1
 77
     6
176
     1
 78
     2
176
     1
 67
     7
176
     1
 79
     3
176
     1
170
     0
176
     1
171
     0
176
     1
290
     0
176
     1
 93
        1
176
     1
 44
0.0
176
     1
173
     0
176
     1
  0
VISUALSTYLE
  5
35
102
{ACAD_REACTORS
330
2A
102
}
330
2A
100
AcDbVisualStyle
  2
Dim
 70
    11
177
     2
291
     1
 71
     2
176
     1
 72
     2
176
     1
 73
     0
176
     1
 90
        0
176
     1
 40
-0.6
176
     1
 41
-30.0
176
     1
 62
     5
 63
     7
421
 16777215
176
     1
 74
     1
176
     1
 91
        4
176
     1
 64
     7
176
     1
 65
   257
176
     1
 75
     1
176
     1
175
     1
176
     1
 42
1.0
176
     1
 92
        8
176
     1
 66
     7
176
     1
 43
1.0
176
     1
 76
     1
176
     1
 77
     6
176
     1
 78
     2
176
     1
 67
     7
176
     1
 79
     5
176
     1
170
     0
176
     1
171
     0
176
     1
290
     0
176
     1
 93
        1
176
     1
 44
-50.0
176
     1
173
     0
176
     1
  0
VISUALSTYLE
  5
39
102
{ACAD_REACTORS
330
2A
102
}
330
2A
100
AcDbVisualStyle
  2
Facepattern
 70
    15
177
     2
291
     1
 71
     2
176
     1
 72
     2
176
     1
 73
     0
176
     1
 90
        0
176
     1
 40
-0.6
176
     1
 41
-30.0
176
     1
 62
     5
 63
     7
421
 16777215
176
     1
 74
     1
176
     1
 91
        4
176
     1
 64
     7
176
     1
 65
   257
176
     1
 75
     1
176
     1
175
     1
176
     1
 42
1.0
176
     1
 92
        8
176
     1
 66
     7
176
     1
 43
1.0
176
     1
 76
     1
176
     1
 77
     6
176
     1
 78
     2
176
     1
 67
     7
176
     1
 79
     5
176
     1
170
     0
176
     1
171
     0
176
     1
290
     0
176
     1
 93
        1
176
     1
 44
0.0
176
     1
173
     0
176
     1
  0
VISUALSTYLE
  5
2B
102
{ACAD_REACTORS
330
2A
102
}
330
2A
100
AcDbVisualStyle
  2
Flat
 70
     0
177
     2
291
     1
 71
     2
176
     1
 72
     1
176
     1
 73
     1
176
     1
 90
        2
176
     1
 40
-0.6
176
     1
 41
30.0
176
     1
 62
     5
 63
     7
421
 16777215
176
     1
 74
     0
176
     1
 91
        4
176
     1
 64
     7
176
     1
 65
   257
176
     1
 75
     1
176
     1
175
     1
176
     1
 42
1.0
176
     1
 92
        8
176
     1
 66
     7
176
     1
 43
1.0
176
     1
 76
     1
176
     1
 77
     6
176
     1
 78
     2
176
     1
 67
     7
176
     1
 79
     5
176
     1
170
     0
176
     1
171
     0
176
     1
290
     0
176
     1
 93
       13
176
     1
 44
0.0
176
     1
173
     0
176
     1
  0
VISUALSTYLE
  5
2C
102
{ACAD_REACTORS
330
2A
102
}
330
2A
100
AcDbVisualStyle
  2
FlatWithEdges
 70
     1
177
     2
291
     1
 71
     2
176
     1
 72
     1
176
     1
 73
     1
176
     1
 90
        2
176
     1
 40
-0.6
176
     1
 41
30.0
176
     1
 62
     5
 63
     7
421
 16777215
176
     1
 74
     1
176
     1
 91
        4
176
     1
 64
     7
176
     1
 65
   257
176
     1
 75
     1
176
     1
175
     1
176
     1
 42
1.0
176
     1
 92
        0
176
     1
 66
   257
176
     1
 43
1.0
176
     1
 76
     1
176
     1
 77
     6
176
     1
 78
     2
176
     1
 67
     7
176
     1
 79
     5
176
     1
170
     0
176
     1
171
     0
176
     1
290
     0
176
     1
 93
       13
176
     1
 44
0.0
176
     1
173
     0
176
     1
  0
VISUALSTYLE
  5
2D
102
{ACAD_REACTORS
330
2A
102
}
330
2A
100
AcDbVisualStyle
  2
Gouraud
 70
     2
177
     2
291
     1
 71
     2
176
     1
 72
     2
176
     1
 73
     1
176
     1
 90
        2
176
     1
 40
-0.6
176
     1
 41
30.0
176
     1
 62
     5
 63
     7
421
 16777215
176
     1
 74
     0
176
     1
 91
        4
176
     1
 64
     7
176
     1
 65
   257
176
     1
 75
     1
176
     1
175
     1
176
     1
 42
1.0
176
     1
 92
        0
176
     1
 66
     7
176
     1
 43
1.0
176
     1
 76
     1
176
     1
 77
     6
176
     1
 78
     2
176
     1
 67
     7
176
     1
 79
     5
176
     1
170
     0
176
     1
171
     0
176
     1
290
     0
176
     1
 93
       13
176
     1
 44
0.0
176
     1
173
     0
176
     1
  0
VISUALSTYLE
  5
2E
102
{ACAD_REACTORS
330
2A
102
}
330
2A
100
AcDbVisualStyle
  2
GouraudWithEdges
 70
     3
177
     2
291
     1
 71
     2
176
     1
 72
     2
176
     1
 73
     1
176
     1
 90
        2
176
     1
 40
-0.6
176
     1
 41
30.0
176
     1
 62
     5
 63
     7
421
 16777215
176
     1
 74
     1
176
     1
 91
        4
176
     1
 64
     7
176
     1
 65
   257
176
     1
 75
     1
176
     1
175
     1
176
     1
 42
1.0
176
     1
 92
        0
176
     1
 66
   257
176
     1
 43
1.0
176
     1
 76
     1
176
     1
 77
     6
176
     1
 78
     2
176
     1
 67
     7
176
     1
 79
     5
176
     1
170
     0
176
     1
171
     0
176
     1
290
     0
176
     1
 93
       13
176
     1
 44
0.0
176
     1
173
     0
176
     1
  0
VISUALSTYLE
  5
38
102
{ACAD_REACTORS
330
2A
102
}
330
2A
100
AcDbVisualStyle
  2
Linepattern
 70
    14
177
     2
291
     1
 71
     2
176
     1
 72
     2
176
     1
 73
     0
176
     1
 90
        0
176
     1
 40
-0.6
176
     1
 41
-30.0
176
     1
 62
     5
 63
     7
421
 16777215
176
     1
 74
     1
176
     1
 91
        4
176
     1
 64
     7
176
     1
 65
   257
176
     1
 75
     7
176
     1
175
     7
176
     1
 42
1.0
176
     1
 92
        8
176
     1
 66
     7
176
     1
 43
1.0
176
     1
 76
     1
176
     1
 77
     6
176
     1
 78
     2
176
     1
 67
     7
176
     1
 79
     5
176
     1
170
     0
176
     1
171
     0
176
     1
290
     0
176
     1
 93
        1
176
     1
 44
0.0
176
     1
173
     0
176
     1
  0
VISUALSTYLE
  5
33
102
{ACAD_REACTORS
330
2A
102
}
330
2A
100
AcDbVisualStyle
  2
Realistic
 70
     8
177
     2
291
     0
 71
     2
176
     1
 72
     2
176
     1
 73
     0
176
     1
 90
        0
176
     1
 40
-0.6
176
     1
 41
-30.0
176
     1
 62
     5
 63
     7
421
 16777215
176
     1
 74
     1
176
     1
 91
        0
176
     1
 64
     7
176
     1
 65
   257
176
     1
 75
     1
176
     1
175
     1
176
     1
 42
1.0
176
     1
 92
        8
176
     1
 66
     8
424
  7895160
176
     1
 43
1.0
176
     1
 76
     1
176
     1
 77
     6
176
     1
 78
     2
176
     1
 67
     7
176
     1
 79
     5
176
     1
170
     0
176
     1
171
     0
176
     1
290
     0
176
     1
 93
       13
176
     1
 44
0.0
176
     1
173
     0
176
     1
  0
VISUALSTYLE
  5
37
102
{ACAD_REACTORS
330
2A
102
}
330
2A
100
AcDbVisualStyle
  2
Thicken
 70
    13
177
     2
291
     1
 71
     2
176
     1
 72
     2
176
     1
 73
     0
176
     1
 90
        0
176
     1
 40
-0.6
176
     1
 41
-30.0
176
     1
 62
     5
 63
     7
421
 16777215
176
     1
 74
     1
176
     1
 91
        4
176
     1
 64
     7
176
     1
 65
   257
176
     1
 75
     1
176
     1
175
     1
176
     1
 42
1.0
176
     1
 92
       12
176
     1
 66
     7
176
     1
 43
1.0
176
     1
 76
     1
176
     1
 77
     6
176
     1
 78
     2
176
     1
 67
     7
176
     1
 79
     5
176
     1
170
     0
176
     1
171
     0
176
     1
290
     0
176
     1
 93
        1
176
     1
 44
0.0
176
     1
173
     0
176
     1
  0
ENDSEC
  0
EOF
